<svg width="162" height="58" viewBox="0 0 162 58" fill="none" xmlns="http://www.w3.org/2000/svg">
<g clip-path="url(#clip0)">
<path d="M0 9C0 4.02944 4.02944 0 9 0H153C157.971 0 162 4.02944 162 9V49C162 53.9706 157.971 58 153 58H9C4.02944 58 0 53.9706 0 49V9Z" fill="#242424"/>
</g>
<path d="M41.2188 10.8594H37.5625V21H36.0703V10.8594H32.4219V9.625H41.2188V10.8594ZM51.4375 15.6797C51.4375 16.7943 51.25 17.7682 50.875 18.6016C50.5 19.4297 49.9688 20.0625 49.2812 20.5C48.5938 20.9375 47.7917 21.1562 46.875 21.1562C45.9792 21.1562 45.1849 20.9375 44.4922 20.5C43.7995 20.0573 43.2604 19.4297 42.875 18.6172C42.4948 17.7995 42.2995 16.8542 42.2891 15.7812V14.9609C42.2891 13.8672 42.4792 12.901 42.8594 12.0625C43.2396 11.224 43.776 10.5833 44.4688 10.1406C45.1667 9.69271 45.9635 9.46875 46.8594 9.46875C47.7708 9.46875 48.5729 9.6901 49.2656 10.1328C49.9635 10.5703 50.5 11.2083 50.875 12.0469C51.25 12.8802 51.4375 13.8516 51.4375 14.9609V15.6797ZM49.9453 14.9453C49.9453 13.5964 49.6745 12.5625 49.1328 11.8438C48.5911 11.1198 47.8333 10.7578 46.8594 10.7578C45.9115 10.7578 45.1641 11.1198 44.6172 11.8438C44.0755 12.5625 43.7969 13.5625 43.7812 14.8438V15.6797C43.7812 16.987 44.0547 18.0156 44.6016 18.7656C45.1536 19.5104 45.9115 19.8828 46.875 19.8828C47.8438 19.8828 48.5938 19.5312 49.125 18.8281C49.6562 18.1198 49.9297 17.1068 49.9453 15.7891V14.9453ZM55.2578 16.0938V21H53.75V9.63281H57.8594C59.1094 9.63281 60.0599 9.90625 60.7109 10.4531C61.3672 11 61.6953 11.8047 61.6953 12.8672C61.6953 14.0599 61.0781 14.9141 59.8438 15.4297C61 15.7891 61.5911 16.651 61.6172 18.0156V19.2344C61.6276 19.9688 61.8021 20.4948 62.1406 20.8125V21H60.5938C60.2865 20.7188 60.125 20.1302 60.1094 19.2344V18.1484C60.1094 17.5234 59.9271 17.026 59.5625 16.6562C59.1979 16.2812 58.6849 16.0938 58.0234 16.0938H55.2578ZM55.2578 14.8672H57.7031C58.5469 14.8672 59.1719 14.7057 59.5781 14.3828C59.9896 14.0599 60.1953 13.5547 60.1953 12.8672C60.1953 11.5339 59.401 10.8672 57.8125 10.8672H55.2578V14.8672Z" fill="#FDCA00"/>
<path d="M86.9775 16.0098L87.4834 11.0469H92.583V12.2158H88.5566L88.2559 14.9297C88.7435 14.6426 89.2972 14.499 89.917 14.499C90.8239 14.499 91.5439 14.7998 92.0771 15.4014C92.6104 15.9984 92.877 16.8073 92.877 17.8281C92.877 18.8535 92.599 19.6624 92.043 20.2549C91.4915 20.8428 90.7191 21.1367 89.7256 21.1367C88.846 21.1367 88.1283 20.8929 87.5723 20.4053C87.0163 19.9176 86.6995 19.2432 86.6221 18.3818H87.8184C87.8958 18.9515 88.0986 19.3822 88.4268 19.6738C88.7549 19.9609 89.1878 20.1045 89.7256 20.1045C90.3135 20.1045 90.7738 19.904 91.1064 19.5029C91.4437 19.1019 91.6123 18.5482 91.6123 17.8418C91.6123 17.1764 91.43 16.6432 91.0654 16.2422C90.7054 15.8366 90.2246 15.6338 89.623 15.6338C89.0716 15.6338 88.6387 15.7546 88.3242 15.9961L87.9893 16.2695L86.9775 16.0098Z" fill="white"/>
<path d="M138.598 15.625C138.333 15.9395 138.017 16.1924 137.647 16.3838C137.283 16.5752 136.882 16.6709 136.444 16.6709C135.87 16.6709 135.369 16.5296 134.94 16.2471C134.517 15.9645 134.188 15.568 133.956 15.0576C133.724 14.5426 133.607 13.9753 133.607 13.3555C133.607 12.6901 133.733 12.0908 133.983 11.5576C134.239 11.0244 134.599 10.6165 135.063 10.334C135.528 10.0514 136.071 9.91016 136.69 9.91016C137.675 9.91016 138.45 10.2793 139.015 11.0176C139.584 11.7513 139.869 12.7539 139.869 14.0254V14.3945C139.869 16.3314 139.486 17.7464 138.721 18.6396C137.955 19.5283 136.8 19.984 135.255 20.0068H135.009V18.9404H135.275C136.319 18.9222 137.121 18.651 137.682 18.127C138.242 17.5983 138.548 16.7643 138.598 15.625ZM136.649 15.625C137.073 15.625 137.463 15.4951 137.818 15.2354C138.178 14.9756 138.44 14.6543 138.604 14.2715V13.7656C138.604 12.9362 138.424 12.2617 138.064 11.7422C137.704 11.2227 137.249 10.9629 136.697 10.9629C136.141 10.9629 135.695 11.1771 135.357 11.6055C135.02 12.0293 134.852 12.5898 134.852 13.2871C134.852 13.9661 135.013 14.5267 135.337 14.9688C135.665 15.4062 136.103 15.625 136.649 15.625ZM143.458 10.8125V12.6035H144.839V13.5811H143.458V18.168C143.458 18.4642 143.52 18.6875 143.643 18.8379C143.766 18.9837 143.975 19.0566 144.271 19.0566C144.417 19.0566 144.618 19.0293 144.873 18.9746V20C144.54 20.0911 144.217 20.1367 143.902 20.1367C143.337 20.1367 142.911 19.9658 142.624 19.624C142.337 19.2822 142.193 18.7969 142.193 18.168V13.5811H140.847V12.6035H142.193V10.8125H143.458ZM147.587 13.499C148.147 12.8109 148.877 12.4668 149.774 12.4668C151.338 12.4668 152.126 13.3486 152.14 15.1123V20H150.875V15.1055C150.87 14.5723 150.747 14.1781 150.506 13.9229C150.269 13.6676 149.897 13.54 149.392 13.54C148.981 13.54 148.621 13.6494 148.312 13.8682C148.002 14.0869 147.76 14.374 147.587 14.7295V20H146.322V9.5H147.587V13.499Z" fill="white"/>
<path d="M129.257 36.7549C129.257 38.236 129.004 39.3366 128.498 40.0566C127.992 40.7767 127.201 41.1367 126.126 41.1367C125.064 41.1367 124.278 40.7858 123.768 40.084C123.257 39.3776 122.993 38.3249 122.975 36.9258V35.2373C122.975 33.7744 123.228 32.6875 123.733 31.9766C124.239 31.2656 125.032 30.9102 126.112 30.9102C127.183 30.9102 127.972 31.2542 128.478 31.9424C128.983 32.626 129.243 33.6833 129.257 35.1143V36.7549ZM127.992 35.0254C127.992 33.9544 127.842 33.1751 127.541 32.6875C127.24 32.1953 126.764 31.9492 126.112 31.9492C125.465 31.9492 124.993 32.193 124.697 32.6807C124.401 33.1683 124.248 33.918 124.239 34.9297V36.9531C124.239 38.0286 124.394 38.8239 124.704 39.3389C125.019 39.8493 125.493 40.1045 126.126 40.1045C126.75 40.1045 127.213 39.863 127.514 39.3799C127.819 38.8968 127.979 38.1357 127.992 37.0967V35.0254ZM134.145 37.2334C134.145 36.5088 134.286 35.8571 134.568 35.2783C134.855 34.6995 135.252 34.2529 135.758 33.9385C136.268 33.624 136.849 33.4668 137.501 33.4668C138.508 33.4668 139.322 33.8154 139.941 34.5127C140.566 35.21 140.878 36.1374 140.878 37.2949V37.3838C140.878 38.1038 140.739 38.751 140.461 39.3252C140.188 39.8949 139.793 40.3392 139.278 40.6582C138.768 40.9772 138.18 41.1367 137.515 41.1367C136.512 41.1367 135.699 40.7881 135.074 40.0908C134.454 39.3936 134.145 38.4707 134.145 37.3223V37.2334ZM135.416 37.3838C135.416 38.2041 135.605 38.8626 135.983 39.3594C136.366 39.8561 136.877 40.1045 137.515 40.1045C138.157 40.1045 138.668 39.8538 139.046 39.3525C139.424 38.8467 139.613 38.1403 139.613 37.2334C139.613 36.4222 139.42 35.766 139.032 35.2646C138.649 34.7588 138.139 34.5059 137.501 34.5059C136.877 34.5059 136.373 34.7542 135.99 35.251C135.607 35.7477 135.416 36.4587 135.416 37.3838ZM147.03 40.2686C146.538 40.8473 145.816 41.1367 144.863 41.1367C144.075 41.1367 143.473 40.9089 143.059 40.4531C142.648 39.9928 142.441 39.3138 142.437 38.416V33.6035H143.701V38.3818C143.701 39.5029 144.157 40.0635 145.068 40.0635C146.035 40.0635 146.677 39.7035 146.996 38.9834V33.6035H148.261V41H147.058L147.03 40.2686ZM151.904 31.8125V33.6035H153.285V34.5811H151.904V39.168C151.904 39.4642 151.966 39.6875 152.089 39.8379C152.212 39.9837 152.422 40.0566 152.718 40.0566C152.864 40.0566 153.064 40.0293 153.319 39.9746V41C152.987 41.0911 152.663 41.1367 152.349 41.1367C151.784 41.1367 151.357 40.9658 151.07 40.624C150.783 40.2822 150.64 39.7969 150.64 39.168V34.5811H149.293V33.6035H150.64V31.8125H151.904Z" fill="#FDCA00"/>
<path d="M40.7715 38.6128C39.4046 38.2199 38.4085 37.7384 37.7832 37.1685C37.1634 36.5929 36.8535 35.8846 36.8535 35.0435C36.8535 34.0916 37.2326 33.3058 37.9907 32.686C38.7544 32.0607 39.745 31.748 40.9624 31.748C41.7925 31.748 42.5312 31.9085 43.1787 32.2295C43.8317 32.5505 44.3353 32.9932 44.6895 33.5576C45.0492 34.1221 45.229 34.7391 45.229 35.4087H43.627C43.627 34.6782 43.3945 34.1055 42.9297 33.6904C42.4648 33.2699 41.8091 33.0596 40.9624 33.0596C40.1766 33.0596 39.5623 33.2339 39.1196 33.5825C38.6825 33.9256 38.4639 34.4043 38.4639 35.0186C38.4639 35.5111 38.6714 35.9289 39.0864 36.272C39.507 36.6095 40.2181 36.9194 41.2197 37.2017C42.2269 37.4839 43.0127 37.7965 43.5771 38.1396C44.1471 38.4772 44.5677 38.8729 44.8389 39.3267C45.1156 39.7804 45.2539 40.3145 45.2539 40.9287C45.2539 41.9082 44.8721 42.694 44.1084 43.2861C43.3447 43.8727 42.3237 44.166 41.0454 44.166C40.2153 44.166 39.4406 44.0083 38.7212 43.6929C38.0018 43.3719 37.4456 42.9347 37.0527 42.3813C36.6654 41.828 36.4717 41.1999 36.4717 40.4971H38.0737C38.0737 41.2275 38.3421 41.8058 38.8789 42.2319C39.4212 42.6525 40.1434 42.8628 41.0454 42.8628C41.8866 42.8628 42.5312 42.6912 42.9795 42.3481C43.4277 42.005 43.6519 41.5374 43.6519 40.9453C43.6519 40.3532 43.4443 39.8966 43.0293 39.5757C42.6143 39.2492 41.8617 38.9282 40.7715 38.6128ZM55.6548 33.2256H51.77V44H50.1846V33.2256H46.3081V31.9141H55.6548V33.2256ZM59.0498 42.6968H64.7773V44H57.4478V31.9141H59.0498V42.6968Z" fill="white"/>
<path d="M86.9775 39.0098L87.4834 34.0469H92.583V35.2158H88.5566L88.2559 37.9297C88.7435 37.6426 89.2972 37.499 89.917 37.499C90.8239 37.499 91.5439 37.7998 92.0771 38.4014C92.6104 38.9984 92.877 39.8073 92.877 40.8281C92.877 41.8535 92.599 42.6624 92.043 43.2549C91.4915 43.8428 90.7191 44.1367 89.7256 44.1367C88.846 44.1367 88.1283 43.8929 87.5723 43.4053C87.0163 42.9176 86.6995 42.2432 86.6221 41.3818H87.8184C87.8958 41.9515 88.0986 42.3822 88.4268 42.6738C88.7549 42.9609 89.1878 43.1045 89.7256 43.1045C90.3135 43.1045 90.7738 42.904 91.1064 42.5029C91.4437 42.1019 91.6123 41.5482 91.6123 40.8418C91.6123 40.1764 91.43 39.6432 91.0654 39.2422C90.7054 38.8366 90.2246 38.6338 89.623 38.6338C89.0716 38.6338 88.6387 38.7546 88.3242 38.9961L87.9893 39.2695L86.9775 39.0098Z" fill="white"/>
<path d="M15.5645 6.14832C14.2463 5.91774 12.9198 5.95603 11.6232 6.26302C10.2808 6.581 9.03812 7.17218 7.92848 8.02025C5.82312 9.62926 4.46201 11.9714 4.09692 14.6166C3.73157 17.2614 4.40658 19.8921 5.99585 22.0235C7.51218 24.0577 9.71336 25.4176 12.1934 25.8518C13.512 26.0824 14.8372 26.0439 16.1339 25.7363C17.4769 25.4198 18.7202 24.8288 19.8288 23.9806C21.9344 22.3724 23.2957 20.0298 23.6609 17.384C24.026 14.7392 23.3506 12.1087 21.7619 9.97708C20.2452 7.94277 18.044 6.58349 15.5644 6.14918" fill="#134A8E"/>
<path d="M23.3015 17.3331C22.9498 19.8811 21.639 22.1382 19.6108 23.6872C18.5411 24.5048 17.3435 25.0738 16.0503 25.3802C15.8941 25.4171 15.7373 25.4499 15.5807 25.4788C14.4822 25.6817 13.3656 25.6858 12.2548 25.4915C10.4632 25.1771 8.82315 24.362 7.49797 23.1475C7.05676 22.7421 6.65028 22.2933 6.2851 21.8035C5.04047 20.1355 4.37838 18.149 4.36179 16.0961C4.35868 15.622 4.38934 15.1451 4.45569 14.6677C4.74266 12.586 5.66967 10.6989 7.10647 9.23232C7.42776 8.90393 7.77546 8.59636 8.14609 8.31295C8.86534 7.76282 9.64299 7.3264 10.4687 7.0055C10.8701 6.84975 11.283 6.72051 11.706 6.62094C12.9561 6.32495 14.2331 6.28783 15.5028 6.50997C17.8918 6.92773 20.0117 8.23699 21.4733 10.1971C23.0041 12.2506 23.6544 14.7842 23.3025 17.3332" fill="white"/>
<path d="M22.5611 19.5147C22.8367 18.8137 23.0313 18.075 23.1366 17.3092C23.2441 16.5271 23.2571 15.7472 23.177 14.982V14.9798C23.1745 14.9645 23.1723 14.9482 23.1704 14.9317C22.9864 13.2644 22.3636 11.6721 21.3398 10.2981C20.2037 8.77509 18.6624 7.6515 16.9057 7.04633C16.4428 6.88607 15.9643 6.76135 15.474 6.67591C15.395 6.66236 15.3157 6.64919 15.2361 6.63682C14.7592 6.56651 14.2784 6.53489 13.8013 6.53921C13.5392 6.54137 13.2777 6.5559 13.0163 6.58045C12.9046 6.59125 12.7914 6.60422 12.6808 6.61855C12.6351 6.62464 12.5885 6.63054 12.5427 6.6382C10.9958 6.86485 9.51115 7.48098 8.24648 8.44726C7.59456 8.94554 7.01853 9.51768 6.52604 10.1507C5.51172 11.4511 4.85317 13.006 4.62054 14.6906C4.51285 15.4729 4.49986 16.2538 4.58154 17.02C4.67156 17.8793 4.87897 18.7201 5.19775 19.5207C5.50314 20.2889 5.9106 21.0221 6.41719 21.7006C7.00082 22.4833 7.69097 23.1595 8.46224 23.7157C8.74338 23.9181 9.03636 24.1052 9.33787 24.2745C10.2455 24.7842 11.2383 25.1407 12.2837 25.3231V25.3243C12.5216 25.3661 12.7604 25.3972 12.9999 25.4198C13.3945 25.4575 13.7903 25.4696 14.1836 25.4555C14.2856 25.452 14.3867 25.4471 14.489 25.4396C16.2936 25.3178 18.0491 24.6695 19.5099 23.552C19.6545 23.4406 19.7961 23.3259 19.9342 23.2087C21.1077 22.2005 22.0024 20.9374 22.5607 19.5146" fill="#134A8E"/>
<path d="M19.2921 23.2608C17.2876 24.7928 14.8204 25.3978 12.3447 24.9636C10.0893 24.5688 8.0859 23.3321 6.70637 21.4811C5.25997 19.5416 4.64696 17.148 4.97825 14.742C5.31101 12.335 6.54892 10.204 8.46425 8.73964C10.4687 7.20868 12.937 6.60331 15.4126 7.03742C17.4221 7.38898 19.2299 8.40837 20.5758 9.93544C20.5812 9.94133 20.5843 9.94467 20.5872 9.9482C20.7484 10.1311 20.9031 10.322 21.0507 10.5197C22.4973 12.4585 23.1109 14.8533 22.7789 17.2592C22.4463 19.6659 21.2082 21.797 19.2929 23.2608" fill="white"/>
<path d="M9.4901 13.6243C9.2045 13.7466 9.05742 13.8908 8.84245 14.2357C6.50172 14.6277 5.7002 15.0063 5.48891 15.2418C5.45845 15.2848 5.47167 15.3058 5.50097 15.3144C6.2792 15.2814 7.36954 15.2416 9.27818 15.3068C9.43593 15.309 9.5899 15.3129 9.74105 15.3156C9.83728 15.1868 10.0109 15.0731 10.3436 15.0731H10.3772H10.4413C11.0598 15.0812 11.1737 15.7237 11.8305 15.7237C12.4807 15.7237 12.5987 15.0924 13.2033 15.0735C13.224 15.0735 13.2443 15.0731 13.2633 15.0731H15.5285L15.497 14.6928H13.2308C12.6016 14.6928 12.4902 14.0416 11.8295 14.0416C11.1759 14.0416 11.0621 14.6896 10.4492 14.6896H10.4431C9.79774 14.6442 9.54244 14.0919 9.49006 13.6243L9.4901 13.6243ZM5.55128 15.4044C5.47309 15.4034 5.45189 15.4357 5.53785 15.5039C5.9096 15.7767 7.16984 16.2705 8.71642 16.562C9.46012 16.7022 9.79915 16.9089 10.3329 17.2866C11.4948 18.1088 13.0787 20.4303 14.0448 23.301C15.8767 19.6994 18.0049 17.9752 18.1712 17.8432L17.082 17.9335L16.5592 17.9765L16.8948 17.5682L17.0769 17.3457L16.3731 16.7305C15.9904 17.3227 15.6178 17.9643 15.4404 18.4594L16.2144 18.4563C15.8168 18.9553 15.0504 19.7799 14.5339 20.6944C14.0188 19.4119 12.8108 17.7628 10.6292 16.8563C9.99725 16.594 9.40013 16.2458 9.47694 15.7392C8.38135 15.5808 7.18023 15.4519 5.82054 15.4082C5.72275 15.4064 5.63246 15.4046 5.55116 15.4042L5.55128 15.4044Z" fill="#1D2D5C"/>
<path d="M11.5793 14.3367C11.4429 14.4294 11.344 14.6018 11.3495 14.7686H11.5698C11.5591 14.6865 11.5343 14.5248 11.5793 14.3367" fill="white"/>
<path d="M14.11 7.58228L13.6742 7.60888C13.7076 7.64836 13.7184 7.69794 13.7252 7.77454L13.7665 8.48456L12.7204 7.65689L12.8076 9.15354C12.8109 9.22365 12.8056 9.29549 12.7544 9.3546L13.2145 9.32739C13.1705 9.28104 13.1664 9.22844 13.1588 9.13593V9.13293L13.1199 8.44892L14.163 9.27799L14.0751 7.76076C14.0722 7.70007 14.0751 7.63396 14.1101 7.5823L14.11 7.58228ZM14.9178 7.6585L14.7727 8.02581C14.8586 7.9883 14.925 7.9905 15.0164 8.00681L15.2597 8.05622L15.0308 9.2008C15.0132 9.2886 14.9819 9.34388 14.9233 9.37806L15.4219 9.48049C15.3872 9.42707 15.3677 9.35493 15.3842 9.27323L15.6132 8.12906L15.8828 8.18408C15.9787 8.20391 16.0489 8.25833 16.0949 8.30292L16.1014 7.90119L14.9178 7.65852L14.9178 7.6585ZM11.3247 8.05862C11.0491 8.04725 10.7722 8.17052 10.595 8.41174C10.3108 8.79944 10.3881 9.34614 10.7682 9.63109C11.1475 9.91628 11.6869 9.83375 11.9708 9.44623C12.2545 9.05872 12.1772 8.51224 11.7977 8.228C11.6551 8.1207 11.4901 8.06537 11.3247 8.05855L11.3247 8.05862ZM17.2006 8.36541C16.9249 8.354 16.6477 8.47689 16.4701 8.71872C16.1867 9.10642 16.2642 9.65312 16.6437 9.93787C17.0228 10.2232 17.5632 10.1397 17.8469 9.75201C18.1304 9.36588 18.0523 8.8192 17.6736 8.53418C17.531 8.42732 17.3661 8.37218 17.2006 8.36534L17.2006 8.36541ZM11.3081 8.41322C11.4074 8.41715 11.5059 8.44943 11.5897 8.51225C11.8129 8.68038 11.8608 9.01262 11.6955 9.23829C11.5304 9.46533 11.201 9.51444 10.9779 9.34632C10.7551 9.17878 10.7062 8.84635 10.8715 8.6201C10.9755 8.47893 11.1427 8.40668 11.3081 8.41323V8.41322ZM17.1824 8.72011C17.2815 8.72409 17.3799 8.75639 17.4636 8.81914C17.6866 8.98628 17.7355 9.31989 17.57 9.54537C17.4041 9.77104 17.0757 9.82054 16.8519 9.6532C16.629 9.48488 16.5807 9.15224 16.7462 8.92697C16.8501 8.78556 17.0172 8.71346 17.1824 8.72011H17.1824ZM9.29929 9.16569C9.23144 9.16737 9.159 9.18309 9.08623 9.21211C9.06683 9.21937 8.9724 9.26135 8.89808 9.31634L8.89275 9.32094L8.43936 9.65445C8.49718 9.66781 8.56315 9.69144 8.60933 9.75448V9.75469L9.3981 10.8659C9.4177 10.9077 9.43053 10.9602 9.42102 11.0177L9.82479 10.7212C9.74699 10.7142 9.70349 10.6678 9.65285 10.605L9.31113 10.1286L10.1973 10.4465L10.5764 10.1671C10.5143 10.1637 10.4387 10.1496 10.3541 10.1262L9.76968 9.92404L9.78061 9.89505C9.85114 9.71333 9.81734 9.58068 9.80986 9.5561C9.79235 9.49659 9.76422 9.43984 9.72526 9.3876C9.67404 9.31532 9.61108 9.25988 9.53949 9.22375L9.52921 9.21835C9.47184 9.1912 9.42063 9.17594 9.36538 9.16867C9.34394 9.16606 9.32179 9.16511 9.29918 9.16566L9.29929 9.16569ZM9.28644 9.519C9.31989 9.51936 9.35223 9.5291 9.38526 9.54781C9.44502 9.58159 9.46971 9.6586 9.47301 9.67765C9.47534 9.69101 9.4901 9.81268 9.34653 9.91913L9.22419 10.0094L8.98623 9.68086L9.10046 9.59563C9.17177 9.54358 9.23069 9.5184 9.28644 9.519L9.28644 9.519ZM19.0407 9.95294C17.3199 11.9737 12.5211 11.9486 11.2788 12.3615C10.4631 12.6322 10.0447 13.0816 9.75576 13.5263C9.72724 13.9841 10.0557 14.4212 10.4435 14.4212C10.4435 14.4212 10.3418 14.1614 10.4718 13.8972C10.5228 13.7953 10.6164 13.7013 10.7416 13.6243C11.6993 12.9599 13.7514 13.6343 13.7514 13.6343C13.2684 13.5901 12.8714 13.599 12.5361 13.6443C13.1046 13.8225 13.7124 14.0659 14.1243 14.1669C14.632 14.292 14.9677 14.3563 15.4721 14.3858L15.4561 14.1845L15.7359 14.2327L16.484 14.3628L16.5939 14.0789L16.7154 13.7668L16.9528 14.0008C16.958 14.006 17.3258 14.3681 17.5182 14.5576C17.4845 14.2009 17.3977 13.2932 17.3967 13.2835L17.3615 12.9171L17.6987 13.0548L18.0671 13.2054L18.6181 12.291L18.8062 11.9805L18.9944 12.291L19.4399 13.0284C19.5955 12.3885 19.707 11.7109 20.032 11.396C19.706 11.4082 19.4769 11.5017 19.1207 11.7537C19.3226 11.2012 19.6211 10.7911 20.0247 10.322C19.6323 10.3823 19.2583 10.4962 18.8908 10.7082C19.0311 10.3705 19.0406 9.95292 19.0406 9.95292L19.0407 9.95294ZM7.95134 10.6244C7.67548 10.6131 7.39794 10.7362 7.22029 10.9779C6.93702 11.3652 7.01567 11.9107 7.39461 12.197C7.77412 12.482 8.31317 12.3983 8.59684 12.0112C8.88051 11.6237 8.80323 11.0776 8.42431 10.7932C8.28184 10.6863 8.11688 10.6311 7.95136 10.6243L7.95134 10.6244ZM7.93316 10.9783C8.0323 10.9822 8.13055 11.0146 8.214 11.0775C8.4381 11.2457 8.48584 11.5779 8.32073 11.8034C8.15522 12.03 7.82624 12.0797 7.6035 11.9108C7.38018 11.7442 7.33147 11.4108 7.49659 11.185C7.60051 11.044 7.76793 10.9717 7.93317 10.9783L7.93316 10.9783ZM6.45194 12.2445L5.99537 13.3746L6.32384 13.5895C6.30443 13.4966 6.31851 13.431 6.35111 13.3424L6.4444 13.1106L7.51266 13.5527C7.599 13.5882 7.64249 13.6368 7.66306 13.6971L7.85793 13.2162C7.79933 13.2411 7.72626 13.2469 7.64982 13.215L6.58136 12.7718L6.68611 12.5142C6.72278 12.423 6.78924 12.3626 6.84046 12.3261L6.45199 12.2445L6.45194 12.2445ZM7.80536 17.9597C7.80536 18.061 7.75876 18.1582 7.63361 18.2148L6.12466 18.9388C5.98341 19.004 5.87177 18.9896 5.78058 18.8942L6.14897 19.6816C6.4466 20.3143 6.93708 20.2837 7.15633 20.1792V20.1782C7.32513 20.0976 7.44863 19.9603 7.49132 19.7546C7.49132 19.7546 7.65101 19.8302 7.885 19.7182H7.886V19.7178C8.22825 19.553 8.35113 19.1185 8.16506 18.7267L7.80536 17.9596V17.9597ZM7.77492 18.3868L7.9775 18.8182C8.10634 19.0943 8.02274 19.3982 7.78817 19.5112C7.64886 19.5783 7.50644 19.5542 7.35238 19.4387L7.33578 19.4251L7.33815 19.4462C7.36745 19.6695 7.26217 19.8667 7.05573 19.9659C6.77906 20.0989 6.51118 19.9593 6.33791 19.591L6.14126 19.1709L7.77497 18.3868L7.77492 18.3868ZM7.72848 18.5177L7.09367 18.8226L7.25435 19.1645C7.36553 19.4021 7.56855 19.508 7.74666 19.423C7.93389 19.3332 7.99665 19.0855 7.88916 18.86L7.72848 18.5177ZM20.0484 18.6013L19.9966 18.6077C19.7779 18.6374 19.534 18.8137 19.4149 19.027C19.3257 19.1897 19.2843 19.3496 19.293 19.5026C19.304 19.7082 19.3987 19.882 19.5671 20.0051C19.5908 20.0216 19.6158 20.0384 19.643 20.054C20.0386 20.2792 20.2889 20.0526 20.4899 19.8703L20.5061 19.8551C20.67 19.707 20.7856 19.633 20.8964 19.6964C20.9647 19.7347 20.9973 19.8632 20.9391 19.9775C20.8912 20.0712 20.8213 20.1074 20.7994 20.1176C20.6835 20.18 20.4987 20.099 20.4964 20.099L20.493 20.0966L20.5737 20.3801H20.577C20.6506 20.3883 20.7769 20.3575 20.7786 20.3575H20.7794C20.9265 20.3245 21.0406 20.2374 21.1176 20.0978C21.1209 20.0923 21.1234 20.0867 21.1255 20.0828L21.1294 20.0758C21.2495 19.8548 21.2007 19.6078 21.0142 19.5002C20.8675 19.4163 20.7384 19.414 20.618 19.4946C20.5145 19.5631 20.3883 19.6719 20.3873 19.6738C20.1793 19.859 20.0007 19.9912 19.7547 19.8549C19.6363 19.7897 19.5548 19.6918 19.5199 19.572C19.482 19.4355 19.5059 19.2804 19.5908 19.1341C19.6362 19.0567 19.8066 18.8039 20.1231 18.8116H20.125L20.0503 18.6023V18.6013H20.0484L20.0484 18.6013ZM7.63134 18.805L7.69992 18.9512C7.75114 19.061 7.73718 19.1669 7.64754 19.2099C7.53676 19.2627 7.45086 19.1572 7.4171 19.0866L7.34872 18.9398L7.63134 18.805H7.63134ZM7.00522 18.8642L6.2706 19.2175L6.42614 19.5486C6.51287 19.7348 6.70503 20.0262 7.01392 19.8773C7.3618 19.7105 7.23256 19.3495 7.16095 19.1957L7.00521 18.8642H7.00522ZM20.1589 18.9082C20.0646 18.9061 19.8296 18.9278 19.67 19.1921C19.5337 19.4174 19.5908 19.6464 19.8079 19.7705C20.0145 19.888 20.1669 19.7496 20.3018 19.6269L20.3091 19.6211L20.37 19.5702C20.3818 19.5604 20.3927 19.5506 20.404 19.5408C20.5287 19.4328 20.6459 19.3307 20.819 19.3368C20.832 19.3368 20.9471 19.3438 21.0548 19.4108C21.1644 19.4772 21.236 19.5681 21.2665 19.6791C21.308 19.8277 21.2851 19.9918 21.2028 20.1416C21.1146 20.2991 20.975 20.4068 20.8091 20.4465C20.7383 20.463 20.6973 20.467 20.6036 20.4713H20.6016L20.6682 20.7058H20.6702C21.1008 20.685 21.3102 20.3661 21.3633 20.2683C21.3744 20.2494 21.3797 20.237 21.3797 20.237C21.4647 20.0833 21.5047 19.9188 21.4965 19.7617C21.4829 19.5288 21.3614 19.3291 21.1625 19.2161C20.698 18.951 20.3724 19.2623 20.2158 19.4122L20.2091 19.4186C20.0566 19.5639 19.9843 19.6002 19.9123 19.5656C19.8962 19.558 19.8875 19.5519 19.8753 19.5438C19.7963 19.4875 19.7871 19.3866 19.8559 19.2788C19.8707 19.2554 20.0068 19.0564 20.256 19.1833L20.2601 19.1853L20.1613 18.9082H20.1589L20.1589 18.9082ZM6.93439 19.1369L6.99862 19.2727C7.08341 19.4558 7.05526 19.5591 6.99744 19.6157C6.97493 19.6375 6.93238 19.6639 6.89862 19.6675C6.80743 19.6785 6.72 19.6852 6.616 19.4564L6.55176 19.3198L6.93438 19.1369L6.93439 19.1369ZM8.64774 19.6839C8.67607 19.777 8.65836 19.8758 8.54971 19.9774C8.54971 19.9778 8.54561 19.9819 8.53746 19.9886C8.53474 19.9917 7.42923 20.9888 7.2999 21.1051C7.18679 21.2007 7.08574 21.2021 6.96195 21.1581L7.90111 22.2256L8.07998 22.1118L7.38351 21.32L8.89124 19.9609L8.64775 19.6838L8.64774 19.6839ZM19.0329 19.8489L18.7611 20.113L19.2394 21.5655L19.8361 22.1935L19.838 22.1923L20.1246 21.9132C20.0008 21.9572 19.9085 21.935 19.8204 21.86H19.82L19.4329 21.4571L19.0111 20.188C19 20.1417 18.9657 20.0642 19.0328 19.8489L19.0329 19.8489ZM8.95536 20.0346L7.5217 21.3284L8.16322 22.0572L8.46718 21.867C8.46718 21.867 8.26935 21.8565 8.10986 21.6791L8.10314 21.6711C8.10314 21.6711 7.92607 21.4698 7.82052 21.3506C7.96391 21.2206 8.75879 20.5023 8.89091 20.3847C8.89129 20.3847 8.89132 20.3847 8.89229 20.3837C8.89481 20.3817 8.89769 20.379 8.90118 20.3761C8.90118 20.3761 9.08281 20.2394 9.19961 20.3119L8.95731 20.0362L8.95534 20.0346L8.95536 20.0346ZM18.683 20.19L18.3439 20.5203C18.4298 20.4807 18.4829 20.4866 18.5068 20.4935C18.524 20.5035 18.5569 20.5157 18.5981 20.6312L18.7937 21.1681L18.2741 20.9523C18.1932 20.9104 18.1601 20.857 18.1601 20.857C18.1277 20.7985 18.1558 20.7357 18.1717 20.6884L17.8373 21.0131L17.8304 21.0205L19.1229 21.5139L18.683 20.19L18.683 20.19ZM9.64891 20.859C9.7077 20.9645 9.71307 21.0405 9.63488 21.1681C9.63391 21.1683 8.94355 22.2713 8.94355 22.2713C8.70994 22.65 8.82395 23.0445 9.24692 23.3179C9.66116 23.5856 10.0935 23.5381 10.3304 23.161L11.0205 22.0582C11.0958 21.9426 11.1884 21.8996 11.2901 21.9118L10.983 21.7149L10.1699 23.0123C10.1584 23.03 10.1388 23.0608 10.1388 23.0608C9.99681 23.2888 9.65235 23.3255 9.37083 23.144C9.27362 23.0817 9.1969 23.0015 9.14355 22.9137C9.14141 22.9104 9.13898 22.908 9.13762 22.9043C9.04022 22.7403 9.02409 22.5489 9.11509 22.403C9.11509 22.403 9.12145 22.3919 9.14454 22.3547L9.95781 21.0571L9.64891 20.8591L9.64891 20.859ZM17.7536 21.0955L17.4884 21.353C17.6362 21.3033 17.6917 21.3135 17.8135 21.35L19.0549 21.8259L19.4087 22.2017C19.5195 22.3124 19.5149 22.4448 19.479 22.5426L19.7672 22.2611L19.1705 21.6341L17.7537 21.0955L17.7536 21.0955ZM10.0393 21.1097L9.21398 22.4277C9.08592 22.6316 9.18045 22.9119 9.41754 23.0639C9.65425 23.2157 9.94136 23.1901 10.0729 22.9837L10.9002 21.6623L10.5915 21.463C10.66 21.5754 10.6469 21.6622 10.5773 21.7731C10.5773 21.7731 10.1381 22.4743 9.90551 22.8447C9.83255 22.9523 9.66427 22.9715 9.53059 22.8859C9.39807 22.8009 9.34344 22.6369 9.40766 22.5246C9.48236 22.4048 10.0631 21.4774 10.0662 21.4738C10.0739 21.4601 10.078 21.4532 10.078 21.4532C10.1425 21.3519 10.2239 21.3023 10.3492 21.309L10.0393 21.1097L10.0393 21.1097ZM16.7524 21.5044L16.8777 23.8006C16.8748 24.0192 16.8415 24.1442 16.7843 24.2237L17.1104 24.05L16.97 21.9208L18.6256 23.2428L18.9365 23.0763C18.8084 23.0728 18.6857 22.9949 18.5574 22.9079L16.7522 21.5045L16.7524 21.5044ZM11.6276 22.045C11.706 22.1179 11.7536 22.2257 11.7262 22.3453C11.3361 24.0071 11.3394 23.9926 11.3372 24.0023C11.3132 24.0904 11.2459 24.2121 11.0872 24.2313L12.5588 24.5852L12.6428 24.3876L11.5293 24.1213L11.9471 22.339L13.0001 22.593L13.0146 22.3788L11.6275 22.0451L11.6276 22.045ZM17.0763 22.1268L17.1442 23.1288L17.8551 22.7504L17.0762 22.1268L17.0763 22.1268ZM15.902 22.1344L15.5481 22.2233L15.9145 23.7184C15.9145 23.7184 15.9871 23.9355 15.8744 24.1125C15.7937 24.238 15.6678 24.3328 15.4961 24.3766C15.3358 24.4165 15.1438 24.3984 15.0006 24.3016C14.9376 24.258 14.9069 24.2313 14.8396 24.1655L14.7144 24.3774C15.0881 24.7433 15.5493 24.5835 15.5493 24.5835C15.72 24.5404 15.8681 24.4569 15.9766 24.341C16.1207 24.1876 16.1776 23.9895 16.1493 23.787C16.1493 23.7829 16.1369 23.7209 16.1321 23.7036L15.82 22.4314C15.7843 22.2748 15.902 22.1345 15.902 22.1345L15.902 22.1344ZM15.4538 22.2477L15.0994 22.3359C15.1763 22.3487 15.2799 22.4323 15.3103 22.5598L15.619 23.8222C15.6472 23.9404 15.5538 24.0456 15.4384 24.0778C15.3229 24.1112 15.2318 24.0746 15.2289 24.0738C15.1006 24.0293 15.0374 23.8278 15.0374 23.8278L14.8876 24.084C14.9462 24.1522 15.0729 24.2359 15.0729 24.2359C15.2423 24.341 15.422 24.2994 15.4783 24.2853C15.6995 24.2299 15.8898 24.0302 15.8299 23.7813C15.8299 23.7792 15.4538 22.2476 15.4538 22.2476L15.4538 22.2477ZM12.0193 22.4579L11.8545 23.1586L12.7014 23.3618L12.7729 23.0585C12.7729 23.0585 12.6744 23.1682 12.4978 23.1268L12.1051 23.0319L12.1798 22.7138L12.6525 22.8275C12.91 22.8905 12.9719 23.0309 12.9719 23.0309L12.9948 22.6922L12.0193 22.4579L12.0193 22.4579ZM17.2874 22.5334L17.5202 22.7228L17.3103 22.8341L17.2874 22.5334L17.2874 22.5334ZM17.9354 22.8185L17.1549 23.2346L17.2036 24.0006L17.2105 23.997L17.5745 23.8026C17.4888 23.7898 17.4127 23.7125 17.3921 23.5921L17.3741 23.3232L17.882 23.0527L18.1038 23.2272C18.1599 23.2737 18.2472 23.3646 18.157 23.4921L18.5248 23.2962L18.5323 23.293L17.9354 22.8185H17.9354ZM11.8417 23.257L11.6559 24.0498L12.6828 24.2953L12.8256 23.9604C12.743 24.0101 12.6496 24.0639 12.4511 24.022C12.447 24.022 11.9143 23.894 11.9143 23.894L12.0102 23.4845L12.3871 23.5749L12.3928 23.5763C12.5698 23.6254 12.6086 23.758 12.6086 23.758L12.6796 23.4583L11.8416 23.257L11.8417 23.257Z" fill="#134A8E"/>
<path d="M13.8246 10.0227C12.2685 10.0374 10.7204 10.671 9.57235 11.9108C9.01453 12.5153 8.60294 13.2053 8.33773 13.9346C8.45802 13.9128 8.58039 13.8906 8.70573 13.8696C8.86347 13.477 9.06592 13.0979 9.31563 12.741C9.31563 12.7424 9.31662 12.744 9.31662 12.745C9.31778 12.747 9.32 12.7493 9.32136 12.7518C9.33106 12.743 9.34112 12.7338 9.3514 12.7244C9.37915 12.6998 9.40606 12.6745 9.43322 12.6496C9.4307 12.6449 9.42803 12.6395 9.42532 12.6342C9.42008 12.6253 9.41593 12.6162 9.4105 12.6074C9.45512 12.5494 9.49949 12.4907 9.54509 12.4339C9.55382 12.4443 9.56023 12.4547 9.56683 12.4655C9.57769 12.4824 9.58733 12.4988 9.59529 12.5141C9.63526 12.4821 9.67667 12.4501 9.71684 12.4185C9.6986 12.38 9.67583 12.3434 9.64944 12.3093C9.67137 12.2829 9.69533 12.2575 9.71822 12.231C9.74732 12.1984 9.77588 12.1642 9.80518 12.132H9.80578C9.80656 12.132 9.80657 12.132 9.80657 12.1312C9.85139 12.1836 9.88064 12.2381 9.89985 12.2855C9.93594 12.2613 9.97167 12.2368 10.0076 12.2138C10.0151 12.2085 10.0217 12.2037 10.0297 12.1992C10.0089 12.1501 9.98287 12.1026 9.95144 12.0574C9.94001 12.043 9.92948 12.0281 9.91805 12.0146C9.96752 11.9641 10.0174 11.9152 10.0684 11.8671C10.0816 11.8553 10.0932 11.8429 10.1064 11.8307C10.1871 11.9106 10.2259 11.9967 10.2465 12.0672C10.2968 12.0377 10.3479 12.0102 10.4001 11.9823C10.3846 11.9384 10.3643 11.8955 10.3402 11.8525C10.3204 11.8199 10.2978 11.7893 10.2724 11.7593C10.2606 11.7449 10.2479 11.7296 10.2347 11.7163C10.2935 11.6634 10.3542 11.6127 10.4151 11.5642C10.4345 11.5821 10.4508 11.5994 10.4661 11.6174C10.5012 11.6581 10.5283 11.6986 10.5465 11.7373C10.5694 11.7846 10.5814 11.8286 10.588 11.8671C10.5888 11.8746 10.5902 11.8815 10.5912 11.8891C10.5933 11.887 10.5958 11.8865 10.5977 11.8857C10.6509 11.86 10.7055 11.8363 10.7606 11.8141C10.7631 11.8131 10.7652 11.8117 10.7673 11.8105C10.764 11.7914 10.7599 11.7723 10.7545 11.7523C10.7252 11.6405 10.6632 11.5294 10.5704 11.4444V11.4434C10.6089 11.4157 10.6469 11.3882 10.6855 11.3607C10.7258 11.3315 10.7673 11.3038 10.8088 11.2759C10.801 11.2928 10.7924 11.3089 10.7837 11.3207C10.9544 11.4794 10.9848 11.6307 10.9804 11.7291C11.0455 11.7065 11.1109 11.6855 11.1784 11.6668C11.1759 11.6028 11.1616 11.537 11.1389 11.4732C11.1142 11.407 11.0785 11.342 11.0303 11.2839C11.0195 11.2708 11.0076 11.2575 10.9946 11.2443C11.0019 11.2245 11.0107 11.1979 11.0185 11.1661C11.0206 11.1566 11.0241 11.1477 11.0262 11.1373C11.1337 11.0726 11.2437 11.0118 11.3553 10.955C11.325 11.0428 11.2902 11.1208 11.2555 11.1595C11.4249 11.3543 11.4293 11.5005 11.4065 11.595L11.4047 11.6028V11.6058C11.4732 11.5899 11.5414 11.5764 11.6108 11.5642C11.6316 11.4169 11.5883 11.2465 11.4731 11.1057C11.4752 11.1023 11.4765 11.0978 11.4786 11.094C11.4809 11.0901 11.4818 11.0868 11.4837 11.082C11.5088 11.0265 11.5397 10.9394 11.565 10.8522C11.6579 10.8096 11.7525 10.7711 11.846 10.7337C11.8763 10.7212 11.9078 10.7083 11.9383 10.6973C11.8991 10.8128 11.8448 10.9425 11.7905 11.0132C11.7829 11.0231 11.7749 11.0326 11.7675 11.0396C11.8698 11.1508 11.9154 11.2839 11.9296 11.3906V11.398V11.3988C11.9352 11.4477 11.9341 11.49 11.9296 11.5206C11.9896 11.5147 12.0511 11.5117 12.1134 11.5084C12.1196 11.5078 12.1256 11.5078 12.1318 11.507C12.1415 11.4532 12.1441 11.3939 12.1381 11.3343C12.134 11.2839 12.1231 11.233 12.1049 11.1849C12.0795 11.1226 12.0415 11.066 11.9893 11.0208C12.036 10.9395 12.1109 10.7524 12.145 10.6239C13.2517 10.2586 14.4527 10.252 15.5671 10.6079C15.5721 10.6103 15.5769 10.6104 15.5821 10.6129C15.5918 10.6164 15.6018 10.6196 15.6115 10.6225C15.9148 10.7227 16.212 10.8504 16.4985 11.0042C16.6365 10.96 16.7714 10.9151 16.9051 10.8658C15.9579 10.2923 14.8893 10.0127 13.8245 10.0227L13.8246 10.0227ZM12.5882 10.6185C12.5209 10.7591 12.4144 10.9553 12.3331 11.0132C12.4753 11.2155 12.4806 11.4123 12.4457 11.5064C12.5113 11.5093 12.5772 11.5133 12.6457 11.518C12.6905 11.3644 12.6808 11.1651 12.5677 11.024C12.6251 10.9516 12.7206 10.7632 12.773 10.6383C12.7109 10.6303 12.6489 10.6236 12.5882 10.6185L12.5882 10.6185ZM13.1902 10.7083C13.1079 10.8317 12.9782 10.9947 12.8969 11.053C12.9132 11.0772 12.9282 11.1013 12.9418 11.1263C13.0349 11.2979 13.0425 11.4753 13.0177 11.5682C13.0817 11.579 13.1457 11.59 13.2088 11.6016C13.2513 11.4435 13.2242 11.2311 13.1068 11.0925C13.1644 11.0196 13.3091 10.862 13.3762 10.7446C13.3155 10.7328 13.2523 10.7209 13.1902 10.7083L13.1902 10.7083ZM13.7189 10.8216C13.6455 10.9428 13.5295 11.1001 13.4515 11.1651C13.5597 11.2981 13.6056 11.4734 13.6163 11.603C13.6817 11.5932 13.7492 11.5834 13.8165 11.5734C13.8086 11.4381 13.7662 11.2959 13.677 11.2069C13.7284 11.1297 13.8382 10.9823 13.8972 10.8658C13.8382 10.8513 13.7794 10.8369 13.7189 10.8216ZM14.2697 10.967C14.2061 11.0792 14.0981 11.2188 14.0221 11.2903C14.0828 11.3563 14.1206 11.4387 14.1456 11.5236C14.2069 11.5134 14.2679 11.5038 14.3294 11.4938C14.3069 11.44 14.2763 11.3905 14.2371 11.3545C14.2838 11.2742 14.3895 11.1353 14.4438 11.0176C14.386 11.0011 14.3283 10.9833 14.2697 10.967L14.2697 10.967ZM14.8239 11.1387C14.7762 11.2182 14.7042 11.3111 14.6359 11.3822C14.6134 11.4059 14.5901 11.4279 14.5697 11.4458C14.5697 11.4481 14.5727 11.4502 14.5741 11.4524C14.6709 11.4353 14.7684 11.4182 14.8654 11.4002C14.9118 11.3363 14.9618 11.265 14.9935 11.1959C14.938 11.1763 14.8805 11.1577 14.8239 11.1387V11.1387ZM18.8061 12.4083L18.3731 13.125L18.1557 13.4823L17.6154 13.2616C17.6173 13.2646 17.734 14.4981 17.7503 14.6608C17.7527 14.6928 17.7525 14.7215 17.7503 14.7471C17.7469 14.7885 17.7382 14.8215 17.7248 14.8457C17.7031 14.8838 17.6694 14.9021 17.6304 14.9021C17.6218 14.9021 17.6122 14.9007 17.6035 14.8987C17.5829 14.8954 17.563 14.8865 17.542 14.8757C17.5184 14.8623 17.4958 14.8459 17.474 14.8245C17.4707 14.8223 17.4684 14.8194 17.4644 14.8161C17.3576 14.7116 16.7987 14.1613 16.7987 14.1613L16.623 14.6136L15.6985 14.4528L15.7827 15.4815L15.5762 15.5533L15.4226 15.6063L17.3848 17.3193L17.064 17.7112L17.1759 17.7012L18.6645 17.579L18.8058 17.8533L18.851 17.7654L18.9471 17.579L19.2337 17.6024L19.5588 17.6296L20.5481 17.7112L20.2268 17.3193L22.1894 15.6063L22.0089 15.5437L21.8297 15.4815H21.8301L21.9129 14.4528L20.9897 14.6136L20.8134 14.1613C20.8134 14.1613 20.2537 14.7116 20.1472 14.8161C20.1443 14.8194 20.141 14.8223 20.1385 14.8245C20.0869 14.8732 20.0301 14.9021 19.9812 14.9021C19.9715 14.9021 19.9624 14.9018 19.9537 14.8987C19.8908 14.8832 19.8494 14.8095 19.8624 14.6608C19.8645 14.6325 19.8708 14.5715 19.8786 14.4924C19.9153 14.1096 19.9962 13.2645 19.9962 13.2615L19.4559 13.4822L18.8062 12.4083L18.8061 12.4083ZM8.03141 16.8011C8.20681 18.1149 8.81327 19.3802 9.84331 20.3575C10.7552 21.2223 11.8656 21.7375 13.0134 21.9082C12.962 21.7912 12.9078 21.6737 12.8531 21.5539C12.0068 21.3946 11.1871 21.0359 10.4704 20.4744C10.4933 20.3481 10.5239 20.2447 10.5617 20.2135C10.5716 20.2039 10.5817 20.2011 10.5925 20.2027C10.4808 20.0289 10.4883 19.7797 10.5176 19.6601C10.5046 19.6542 10.4923 19.648 10.4807 19.6427C10.4395 19.6235 10.3991 19.6047 10.3591 19.5855C10.3085 19.7389 10.324 19.9616 10.4123 20.1209C10.3618 20.2034 10.3361 20.2718 10.3206 20.3529C10.3025 20.337 10.2847 20.3212 10.2674 20.3063C10.2086 20.2566 10.1517 20.2059 10.0957 20.1531C10.0846 20.1431 10.0729 20.1331 10.0621 20.1225C10.0611 20.1221 10.0611 20.1221 10.0611 20.1209C10.0599 20.12 10.0591 20.12 10.0589 20.1191C10.0771 20.0707 10.0978 20.0284 10.1176 20.0066C10.1193 20.0043 10.1218 20.003 10.1239 20.0002C10.1255 19.9988 10.1273 19.9966 10.1295 19.9954C10.1302 19.9948 10.1311 19.9944 10.1326 19.9934C10.1349 19.992 10.1382 19.9914 10.1405 19.9902C10.1444 19.9892 10.1489 19.99 10.1522 19.9912C10.1357 19.9583 10.123 19.925 10.114 19.8908C10.0776 19.7679 10.0828 19.6428 10.102 19.5491C10.109 19.5149 10.1176 19.4843 10.1273 19.4609C10.0757 19.4312 10.025 19.4013 9.9761 19.3703C9.90314 19.5156 9.88419 19.7144 9.97945 19.8858C9.97169 19.8986 9.9643 19.9131 9.95732 19.9276C9.95557 19.931 9.95335 19.9341 9.95238 19.9382C9.94345 19.9547 9.93583 19.9722 9.92807 19.9913C9.89043 19.9528 9.85329 19.9141 9.81739 19.875C9.78033 19.8363 9.7448 19.7966 9.70987 19.7568C9.71337 19.7524 9.71725 19.7491 9.72094 19.7458C9.72967 19.7383 9.73808 19.7338 9.74565 19.733C9.74972 19.733 9.75304 19.7337 9.7575 19.736C9.6991 19.5798 9.71982 19.4168 9.75533 19.3044C9.76309 19.2814 9.77189 19.2591 9.78023 19.2408C9.74783 19.2176 9.71619 19.1938 9.68379 19.1704C9.66807 19.1586 9.65128 19.1474 9.63576 19.1364C9.57814 19.2363 9.54396 19.3596 9.56007 19.4873C9.5655 19.5303 9.57738 19.5723 9.59465 19.6147V19.6151C9.59427 19.6151 9.59347 19.6162 9.59347 19.6163C9.59269 19.6174 9.59267 19.6174 9.59228 19.6185C9.54222 19.5582 9.49319 19.4961 9.44682 19.4343C9.4249 19.4058 9.40234 19.3763 9.38061 19.3467C9.37964 19.2402 9.40473 19.1364 9.43674 19.0508C9.44431 19.0317 9.4521 19.0128 9.45986 18.9957C9.4164 18.9604 9.3741 18.9236 9.33219 18.8867C9.28912 18.9666 9.25649 19.0585 9.24563 19.1528C9.201 19.087 9.15851 19.0197 9.11815 18.9515C9.12475 18.9236 9.13355 18.8964 9.14345 18.8701C9.15742 18.8292 9.17302 18.7908 9.19029 18.7559C9.14896 18.7172 9.10971 18.6781 9.07052 18.6388C9.05209 18.6722 9.03684 18.7083 9.0219 18.7447C9.0186 18.7535 9.01493 18.7614 9.01202 18.7703C8.99747 18.7443 8.98468 18.7184 8.97051 18.692C8.95422 18.6626 8.93821 18.6323 8.92288 18.6028C8.93627 18.5777 8.95022 18.5544 8.96419 18.5334C8.9283 18.4894 8.89379 18.4465 8.85984 18.4024C8.85674 18.4061 8.85328 18.41 8.85095 18.4144C8.84668 18.4212 8.84258 18.4265 8.83909 18.4332C8.6051 17.9349 8.44683 17.4099 8.36417 16.8742C8.25125 16.8513 8.14019 16.8266 8.03134 16.8012L8.03141 16.8011ZM19.1663 17.8217C19.1136 17.9764 19.0558 18.1296 18.9897 18.2814C18.9082 18.4696 18.8146 18.6539 18.7114 18.8346C18.6656 18.737 18.653 18.6404 18.647 18.5663C18.595 18.5683 18.5418 18.5712 18.4887 18.5749C18.4995 18.6609 18.5171 18.7404 18.5456 18.815C18.5669 18.87 18.5932 18.9236 18.6266 18.9769C18.4353 19.288 18.2115 19.5856 17.954 19.8635C17.292 20.5788 16.4896 21.0794 15.6308 21.3658C15.5439 21.5 15.4561 21.6377 15.3678 21.7801C16.4122 21.5062 17.3948 20.9399 18.1866 20.0834C18.7995 19.4223 19.2338 18.6568 19.4936 17.8478L19.1663 17.8217L19.1663 17.8217ZM18.2616 18.5955C18.2092 18.6014 18.1558 18.6081 18.1027 18.6157C18.1287 18.7776 18.1907 18.8832 18.2689 19.0197C18.2083 19.1273 18.1384 19.2848 18.0926 19.4078C18.1504 19.397 18.2069 19.3872 18.2633 19.3796C18.3157 19.2488 18.382 19.1022 18.4365 18.9985C18.3113 18.8511 18.2767 18.6969 18.2616 18.5955V18.5955ZM17.7744 18.6797C17.7255 18.7277 17.6729 18.7809 17.6167 18.8392C17.6537 18.9382 17.7131 19.0177 17.807 19.0955C17.7954 19.1196 17.7828 19.1491 17.7691 19.1813C17.7295 19.2772 17.6841 19.4013 17.6513 19.5048C17.7176 19.4883 17.7841 19.4727 17.8493 19.4574C17.9048 19.3117 17.971 19.1474 18.0147 19.0551C17.8426 18.9443 17.7938 18.7817 17.7744 18.6797ZM17.3789 19.0911C17.3463 19.1264 17.3126 19.1646 17.2775 19.2033C17.2888 19.21 17.3007 19.2164 17.3127 19.2219C17.2716 19.3384 17.2192 19.4859 17.1844 19.6336C17.2463 19.616 17.3101 19.5973 17.3734 19.5788C17.4188 19.4258 17.4756 19.2562 17.5234 19.1639C17.4659 19.1474 17.4189 19.1221 17.3789 19.0911L17.3789 19.0911ZM10.8132 19.7787C10.7666 19.9529 10.7764 20.2136 10.9241 20.3323C10.8632 20.4273 10.8417 20.5325 10.8328 20.7156C10.8894 20.7339 10.9467 20.7507 11.0045 20.7656C11.0263 20.5278 11.058 20.3807 11.1274 20.3919C10.9765 20.2817 10.9708 19.9792 10.9954 19.8391C10.9337 19.8207 10.8734 19.8009 10.8132 19.7787L10.8132 19.7787ZM11.2861 19.9163C11.26 20.0727 11.2855 20.2963 11.4047 20.4193C11.422 20.4368 11.4409 20.452 11.4613 20.4655C11.4145 20.5602 11.4063 20.6899 11.4178 20.8583C11.4775 20.8683 11.5395 20.8774 11.6004 20.8837C11.595 20.6778 11.609 20.4934 11.6785 20.4953C11.4949 20.3643 11.4656 20.0869 11.4787 19.9548C11.4137 19.9428 11.349 19.9299 11.2862 19.9163L11.2861 19.9163ZM11.8265 19.9976C11.824 20.1804 11.8956 20.4402 12.0741 20.5183C12.0448 20.6379 12.045 20.7747 12.0708 20.9323C12.1319 20.9311 12.1925 20.9298 12.2544 20.9269C12.2328 20.745 12.2264 20.5172 12.2935 20.5105C12.1001 20.4003 12.0313 20.1421 12.0243 20.0088C11.958 20.0066 11.8917 20.0035 11.8265 19.9976L11.8265 19.9976Z" fill="#E8291C"/>
<path d="M8.55727 46.5873C7.98893 46.703 7.40144 46.8222 6.89905 46.5412C6.54061 46.341 6.25251 45.7897 6.2433 45.2867C6.23523 44.8308 6.28874 44.3569 6.43452 43.8578C6.47581 43.9076 6.52632 43.9357 6.5766 43.9563C6.6887 44.0024 6.85062 44.0004 6.98555 43.9488C7.19453 43.8695 7.39773 43.7918 7.59657 43.7155C7.58504 43.7285 7.57397 43.7405 7.56266 43.7548C7.13895 44.2928 6.9625 44.9288 7.06952 45.5161C7.00839 45.5581 6.92351 45.6107 6.83286 45.6595C6.83286 45.6595 6.59898 45.7854 6.58768 45.7921L6.52425 45.8352V45.9188C6.52403 46.0028 6.52403 46.0028 6.80704 46.1948C6.80796 46.1959 6.92467 46.2819 6.9888 46.4331L7.06423 46.6114L7.23907 46.6064C7.39892 46.602 7.52577 46.504 7.60443 46.4258C7.87476 46.5595 8.16055 46.5282 8.41105 46.3372C8.62302 46.4797 8.84307 46.5079 8.95701 46.5118C8.82231 46.534 8.68829 46.5611 8.55728 46.5874L8.55727 46.5873ZM18.5213 43.2653H17.806L17.8 43.2911C17.7064 43.2742 17.604 43.2765 17.4976 43.2989C17.1011 43.3831 16.7976 43.6542 16.5879 44.1059C16.6115 43.8706 16.5875 43.6873 16.489 43.5453C16.3748 43.3805 16.214 43.2885 16.0237 43.2791C15.9543 43.2757 15.8819 43.2844 15.8078 43.3034L15.8131 43.2778H14.7482L14.7489 43.2755H14.6068C14.7996 43.1686 14.933 42.9458 14.933 42.6872C14.933 42.3259 14.6728 42.0319 14.3531 42.0319C14.109 42.0319 13.9003 42.2032 13.8147 42.4448L13.9755 41.7335L12.7279 42.2894L12.5237 43.2989C12.0908 43.2283 11.7983 43.4853 11.614 43.7423C11.6468 43.6745 11.6984 43.5674 11.6941 43.5752L11.8207 43.3459L10.5908 43.3454L10.6252 43.1976H9.63452C9.63452 43.1976 9.44908 44.039 9.36442 44.3377C9.40755 44.1216 9.58239 43.2765 9.58239 43.2765H8.72942C10.5497 42.5642 11.8343 42.0236 12.5579 41.6644C12.8961 41.4966 14.5962 40.798 15.1653 40.5663C15.5948 40.3917 16.1126 40.1891 16.704 39.9642C17.0954 40.6377 18.0979 42.3509 18.6988 43.2678C18.6614 43.2654 18.6068 43.2654 18.5214 43.2654L18.5213 43.2653ZM14.4845 38.9431L14.5604 38.9801L14.0008 39.589C13.7771 39.589 13.7007 39.841 13.7007 39.841L13.3003 39.9675C13.2821 39.9469 13.185 39.9375 13.185 39.9375L13.6864 39.4454C14.0975 39.302 14.4845 38.9431 14.4845 38.9431H14.4845ZM14.9684 39.1516L15.4521 39.3359L14.7809 39.5275C14.7809 39.5275 14.7264 39.4863 14.654 39.4798L14.9684 39.1516L14.9684 39.1516ZM22.2067 45.3895C22.0771 45.3163 21.9387 45.2748 21.7934 45.2652C21.7802 45.0541 21.7196 44.8489 21.6674 44.6772C21.6453 44.6026 21.6238 44.5322 21.6102 44.4736C21.5449 44.1952 21.5274 44.0818 21.5858 43.9012C21.7103 43.5165 21.2767 43.2954 21.1053 43.2079C21.1053 43.2079 21.0523 43.1808 21.0525 43.1808C21.002 43.1547 20.9729 43.1672 20.8961 43.2008C20.8338 43.2282 20.7621 43.2829 20.6675 43.3809C20.7462 43.235 20.7967 43.0515 20.8098 42.857C20.8606 42.8153 20.9079 42.7496 20.9462 42.6628C21.0756 42.3717 21.0811 41.8872 20.7102 41.4008C20.5598 41.2032 19.5034 40.1692 18.5741 39.2694L18.5707 39.266C18.8973 39.1469 19.3973 38.9649 19.3932 38.9663C19.4633 38.9449 19.5761 38.886 19.6797 38.9918C19.7715 39.0924 19.9509 39.1292 20.1062 39.0056C20.3753 38.7916 20.2261 38.3212 20.171 38.1457C20.0741 37.8374 19.9373 37.7214 19.8395 37.6781C19.7449 37.6361 19.6444 37.6338 19.5579 37.6859C19.4232 37.767 19.3904 37.8976 19.375 38.0039C19.3577 38.1194 19.1944 38.1465 18.904 38.2291C18.904 38.2291 17.9084 38.5362 17.8376 38.5588L17.8323 38.5539L17.5913 38.3224C17.5445 38.2346 17.452 38.0779 17.3431 37.9779C17.324 37.626 17.0822 37.2071 16.8841 37.0361C16.8737 36.7911 16.7 36.4366 16.5148 36.3073C15.6833 34.6493 14.9406 33.5852 14.2454 33.0563L14.2225 33.0388C14.098 32.9445 14.0874 32.9312 14.0827 32.8577C14.0398 32.2045 13.8851 31.5779 13.6885 31.2421C13.7663 31.1011 13.8837 30.8501 13.9646 30.5019C13.9646 30.5019 14.0525 30.1263 14.0525 30.1266L13.952 30.2016C13.9773 30.107 14.0029 29.9939 14.0276 29.8568L14.0299 29.8385C14.0373 29.7259 13.97 29.6837 13.949 29.6733C13.9404 29.6689 13.9321 29.6668 13.9238 29.6647C13.9312 29.5401 13.9201 29.39 13.8629 29.2242L13.7859 29L13.6436 29.1789C13.3525 29.5451 12.9096 29.7359 12.5189 29.9045C12.4294 29.9431 12.3447 29.9798 12.2645 30.0171C11.6272 30.3148 11.233 30.6335 10.8614 31.5344C10.8526 31.5429 10.8429 31.5521 10.8323 31.5622C10.6635 31.7225 10.3117 32.0564 10.1127 32.718L10.0797 32.8277L10.166 32.8905C10.371 33.0386 10.5929 33.1431 10.8729 33.2539C9.82182 35.9091 11.8228 37.4845 13.4971 38.4494C13.4003 38.6509 13.3225 38.8396 13.302 39.0617L12.5517 39.9552C12.4797 39.9766 12.3434 40.0272 12.264 40.1226C12.2371 40.1549 12.2119 40.1989 12.1886 40.2529C12.1679 40.2581 12.1496 40.2623 12.1337 40.2659C11.6648 40.3723 10.9154 40.5659 8.92671 41.1902C8.63909 40.892 8.16047 40.7009 7.68946 40.7009C6.94351 40.7009 6.46168 41.1539 5.96783 41.834C5.25487 42.8156 4.4494 45.5031 5.51666 46.9256C5.69911 47.1688 6.38532 47.9536 7.56148 47.852C7.87609 47.8248 8.11184 47.7659 8.31965 47.7143C8.73023 47.6119 8.91775 47.5652 9.3267 47.8757L9.49001 48L9.64454 47.8619C9.8775 47.6539 10.2731 47.7237 10.5916 47.8074L11.2089 47.97L10.8852 47.3544C10.4535 46.533 9.84152 46.4152 9.2245 46.476C9.57187 46.3665 9.80253 46.0177 9.97068 45.6046C9.9483 45.8767 9.98982 46.1661 10.2175 46.3488C10.5842 46.6433 11.0439 46.514 11.3839 46.2763C11.5447 46.4314 11.7606 46.5221 11.9594 46.5122C12.1322 46.5085 12.2805 46.47 12.4193 46.3936C12.5114 46.4671 12.6143 46.5109 12.7268 46.5234C12.9132 46.5437 13.1129 46.4757 13.3212 46.3219C13.4296 46.4444 13.5717 46.5117 13.7334 46.5124C13.8088 46.5128 13.8875 46.5012 13.9671 46.4788L13.959 46.5124H15.0818L15.2327 45.8887C15.2461 46.0117 15.2788 46.1298 15.342 46.233C15.4121 46.3472 15.5478 46.4879 15.7975 46.5114C16.0651 46.5364 16.3857 46.4228 16.6445 46.2174C16.9257 46.5302 17.2804 46.5812 17.7021 46.3675C17.7854 46.4486 17.9291 46.5442 18.1452 46.5106C18.2933 46.4997 18.4423 46.4282 18.5975 46.2958C18.7253 46.4389 18.89 46.5156 19.0745 46.5124C19.3781 46.5072 19.6331 46.3021 19.8336 46.091C20.0543 46.3462 20.389 46.6063 20.9029 46.5083C20.9915 46.4911 21.0641 46.4692 21.1285 46.4496C21.2985 46.3983 21.3202 46.3918 21.4558 46.5213L21.8569 46.9052L21.8987 46.3253C21.9065 46.2961 21.9623 46.1202 22.2345 45.9174L22.6257 45.626L22.2068 45.3895L22.2067 45.3895Z" fill="white"/>
<path d="M14.8027 42.6881C14.8027 42.4085 14.6013 42.1806 14.3538 42.1806C14.1063 42.1806 13.9047 42.4084 13.9047 42.6881C13.9047 42.9678 14.1063 43.1954 14.3538 43.1954C14.6013 43.1954 14.8027 42.9678 14.8027 42.6881ZM22.1487 45.5227C21.9725 45.4231 21.8004 45.4044 21.6644 45.4135C21.6805 45.1799 21.6069 44.9349 21.544 44.7259C21.5209 44.6487 21.499 44.576 21.484 44.5122C21.4194 44.2359 21.389 44.0813 21.4635 43.8514C21.546 43.5957 21.2056 43.4221 21.0603 43.3476L20.9984 43.3163C20.9981 43.3159 20.9438 43.3397 20.9438 43.3397C20.7542 43.4226 20.3669 43.9434 19.6726 44.9391C19.5912 45.0561 19.5086 45.1747 19.4424 45.268C19.4853 45.0473 19.6244 44.3328 19.6913 43.9898C19.9589 44.0174 20.1651 43.8259 20.2151 43.5376C20.4373 43.5996 20.6836 43.2305 20.6836 42.7611C20.8006 42.77 21.1346 42.1843 20.6116 41.498C20.4523 41.2889 19.1811 40.0511 18.3111 39.2105L18.3081 39.2071L19.3597 38.8242C19.4247 38.8044 19.5442 38.7728 19.6028 38.7783C19.6408 38.782 19.722 38.8445 19.7617 38.8938C19.8 38.936 19.9056 38.9889 20.0295 38.887C20.1972 38.7491 20.1204 38.4267 20.0479 38.196C19.9679 37.9406 19.868 37.8303 19.7958 37.7983C19.7368 37.7722 19.6685 37.7646 19.6028 37.8029C19.4522 37.891 19.5218 38.0758 19.4392 38.1462C19.4392 38.1462 19.4152 38.2286 18.9465 38.3576L17.8696 38.7035L17.8064 38.7236L17.8013 38.7186C17.6097 38.5343 17.4906 38.4204 17.4906 38.4204C17.415 38.2742 17.3082 38.115 17.2129 38.0553C17.2346 37.6974 16.9131 37.2001 16.7488 37.1138C16.7938 36.9566 16.6054 36.5109 16.4199 36.4181C15.8278 35.2329 15.0249 33.8283 14.1726 33.1798C14.0366 33.0763 13.963 33.0297 13.9526 32.8694C13.9048 32.1375 13.7212 31.5062 13.53 31.2468C13.6004 31.1347 13.745 30.8663 13.8386 30.4654C13.8386 30.4654 13.7298 30.5467 13.6465 30.5767C13.6912 30.5188 13.8013 30.377 13.8998 29.8284C13.9041 29.7622 13.8543 29.8862 13.7362 29.9631C13.7556 29.8669 13.8559 29.6115 13.7415 29.2789C13.36 29.7582 12.7492 29.9519 12.3149 30.1547C11.6554 30.4625 11.3106 30.7837 10.9681 31.6269C10.8468 31.7504 10.4484 32.0647 10.2369 32.7664C10.4477 32.9189 10.677 33.0232 11.0022 33.1488C11.0022 33.1488 11.0047 33.2666 11.0066 33.2799C10.0182 35.7203 11.6478 37.241 13.6778 38.3873C13.5471 38.6529 13.4398 38.8643 13.428 39.1276L12.6205 40.0896C12.6205 40.0896 12.4364 40.1324 12.3599 40.2246C12.3262 40.2653 12.299 40.3326 12.2821 40.3821C12.2346 40.3941 12.1933 40.4042 12.1599 40.4118C11.6681 40.5233 10.8765 40.7319 8.88885 41.3561C8.88217 41.3483 8.87571 41.3394 8.86879 41.3316C8.60952 41.0392 8.14683 40.8497 7.68989 40.8497C6.99515 40.8497 6.53961 41.2811 6.06934 41.9285C5.3799 42.8781 4.59521 45.4689 5.61679 46.8305C5.78908 47.0602 6.43769 47.8015 7.55159 47.7053C7.85721 47.6787 8.08811 47.6213 8.29177 47.5705C8.71272 47.4655 8.94453 47.4079 9.40007 47.7538L9.48426 47.8176L9.56384 47.7465C9.8404 47.4994 10.2747 47.5726 10.6216 47.6641L10.9399 47.7478L10.7729 47.4306C10.2307 46.3992 9.39223 46.5694 8.58119 46.7341C7.99209 46.8537 7.38293 46.9773 6.84185 46.6749C6.43681 46.4487 6.12359 45.8534 6.11319 45.2906C6.10328 44.7362 6.21422 44.1206 6.38444 43.5909C6.51822 43.7856 6.68846 43.8906 6.84229 43.8448C6.86305 43.8385 6.88197 43.8302 6.90042 43.8208C6.91518 43.8185 6.93018 43.8151 6.94448 43.8096C9.70191 42.7599 11.5732 41.9926 12.5058 41.53C12.8474 41.3606 14.5515 40.6602 15.1215 40.4282C15.6264 40.2226 16.1992 40.0005 16.7587 39.7883C17.0953 40.3691 18.4225 42.6466 18.9992 43.4697C18.8855 44.2266 18.6878 45.128 18.3524 45.361C18.3383 45.3712 18.321 45.3837 18.306 45.3941C18.3789 44.9523 18.6195 43.7844 18.6573 43.609L18.6991 43.4143L17.9082 43.4139L17.8948 43.4728C17.7921 43.4264 17.6653 43.415 17.5223 43.4452C16.9101 43.5753 16.5385 44.2128 16.4183 45.3401C16.416 45.3601 16.414 45.381 16.4119 45.3974C16.2924 45.5525 16.1985 45.5825 16.1704 45.5705C16.1602 45.5663 16.1584 45.541 16.1591 45.5264C16.163 45.3932 16.2274 45.142 16.2899 44.8993C16.4481 44.2816 16.5406 43.8596 16.3867 43.6372C16.2968 43.5074 16.1695 43.4352 16.0186 43.4279C15.8862 43.4214 15.7501 43.4657 15.6265 43.5356L15.6489 43.4266H14.8284L14.8054 43.552C14.7122 44.0631 14.4402 45.1454 14.2536 45.3925C14.2167 45.4413 14.1441 45.4715 14.0936 45.4796C14.145 45.1999 14.3775 44.2311 14.5277 43.6241L14.577 43.4244H13.745L13.7206 43.5472C13.7178 43.5607 13.4466 44.9216 13.235 45.3386C13.1739 45.4585 13.1172 45.4916 13.0957 45.484C13.0814 45.4791 13.0678 45.4535 13.0699 45.4207C13.0907 45.1019 13.5453 43.043 13.7185 42.2764L13.7859 41.9782L12.8409 42.3995L12.6233 43.4765C12.5952 43.4658 12.5638 43.4564 12.5283 43.4499C11.9203 43.3342 11.6241 43.9608 11.5127 44.1966C11.3699 44.4985 11.226 44.9953 11.2126 45.3902C11.1245 45.5075 11.017 45.5969 10.9808 45.5914C10.9504 45.587 10.9425 45.5747 10.9356 45.5593C10.8205 45.3036 11.181 44.3338 11.474 43.7267L11.5858 43.494L10.4217 43.4943L10.4561 43.3465H9.73921L9.7143 43.4682C9.56806 44.1777 9.30626 45.1077 9.07607 45.4731C9.04839 45.5169 9.0244 45.5401 9.00802 45.5513C9.02232 45.3832 9.2057 44.4456 9.37776 43.6186L9.41812 43.4252H8.59883L8.564 43.5756C8.29851 43.4648 7.95069 43.4864 7.6612 43.8542C7.23909 44.3904 7.0804 45.0159 7.21857 45.5836C7.15721 45.6357 7.02205 45.7233 6.88965 45.7942L6.65599 45.9198L6.87789 46.0707C6.87857 46.0716 7.02551 46.1758 7.10762 46.37L7.1466 46.462L7.23656 46.4594C7.38672 46.4552 7.50411 46.3382 7.58024 46.2482C7.85518 46.4239 8.15643 46.3908 8.40785 46.1578C8.63504 46.3481 8.90214 46.365 8.98772 46.365C9.69053 46.365 9.95949 45.3135 10.1555 44.5453C10.1818 44.4432 10.2067 44.3457 10.231 44.2576H10.5001C10.4835 44.3032 10.4662 44.3504 10.4485 44.3988C10.3701 44.6113 10.2815 44.8524 10.213 45.087C10.1371 45.3484 9.95879 45.9601 10.2937 46.2289C10.6238 46.4937 11.0719 46.3529 11.3995 46.0886C11.5552 46.2888 11.7833 46.3735 11.9574 46.3649C12.1401 46.361 12.2921 46.3144 12.434 46.2177C12.5221 46.3102 12.6245 46.3639 12.7401 46.3767C12.956 46.4004 13.1723 46.2724 13.346 46.1225C13.4332 46.2771 13.5674 46.3642 13.7344 46.3649C13.8726 46.3658 14.0186 46.3214 14.1607 46.2406L14.1307 46.3649H14.9825L15.2582 45.2246C15.4178 44.4984 15.5774 44.4142 15.6081 44.4043C15.6217 44.4001 15.6328 44.404 15.6404 44.409C15.6397 44.4565 15.6046 44.5777 15.573 44.6866C15.5444 44.7851 15.5089 44.9076 15.4724 45.0544L15.4618 45.0964C15.3906 45.3812 15.2711 45.858 15.4501 46.1494C15.504 46.2375 15.6099 46.3459 15.8087 46.3644C16.0816 46.3902 16.4209 46.2469 16.6603 46.0188C17.0017 46.4916 17.4118 46.3738 17.729 46.1903C17.8166 46.3 17.9347 46.3949 18.1368 46.3636C18.3144 46.3503 18.477 46.2291 18.6142 46.0905C18.7233 46.2703 18.8834 46.3681 19.0728 46.3649C19.3802 46.36 19.6372 46.1111 19.8395 45.8794C20.0865 46.2039 20.3937 46.4559 20.8814 46.3629C20.9639 46.347 21.0338 46.3261 21.0952 46.3076C21.2774 46.2523 21.3528 46.2294 21.5408 46.409L21.7475 46.6068L21.7696 46.3021C21.7693 46.3036 21.8026 46.0628 22.1629 45.7944L22.3645 45.6445L22.1488 45.5225L22.1487 45.5227ZM14.0887 39.6877C13.9923 39.7091 13.9455 39.7245 13.88 39.793C13.8338 39.841 13.8027 39.9082 13.7859 39.9583C13.6041 40.0117 13.4166 40.0659 13.2346 40.1183C13.1931 40.0907 13.1135 40.0542 12.9903 40.0641C12.9788 40.0631 12.9462 40.0565 12.9488 40.0179C12.9511 39.9843 13.6285 39.2913 13.6285 39.2913C13.8179 39.2475 14.5117 38.7919 14.5117 38.7919L14.7239 38.8899L14.7082 38.9292L14.678 38.9899L14.1286 39.6491C14.1168 39.664 14.1055 39.6841 14.0887 39.6877L14.0887 39.6877ZM14.7244 39.6796C14.6766 39.6397 14.6259 39.6166 14.5791 39.6173C14.4031 39.6207 14.4628 39.5483 14.5029 39.4969L14.9739 38.9998C14.9739 38.9998 15.3453 39.1742 15.7912 39.3509C15.1453 39.5511 14.7947 39.6583 14.7244 39.6796L14.7244 39.6796ZM8.03733 45.5119C8.03548 45.5119 8.03294 45.5119 8.02649 45.5028C8.01726 45.4895 7.94068 45.3615 8.04056 44.9119C8.11414 44.5803 8.22232 44.358 8.34479 44.2861C8.36832 44.2723 8.40153 44.2579 8.44859 44.26C8.38562 44.8772 8.21194 45.5119 8.03733 45.5119L8.03733 45.5119ZM12.3768 44.9114C12.3415 45.0701 12.3053 45.2343 12.2727 45.4032C12.2681 45.4277 12.2118 45.478 12.1339 45.4864C12.1057 45.4897 12.055 45.4872 12.0439 45.458C11.9736 45.2745 12.0705 44.6833 12.2981 44.3781C12.365 44.2882 12.4312 44.2423 12.4953 44.2397C12.4979 44.3648 12.4287 44.6765 12.3768 44.9114L12.3768 44.9114ZM17.3057 45.5171C17.3039 45.5171 17.3011 45.5171 17.2949 45.5075C17.2856 45.4947 17.2093 45.3665 17.3089 44.9169C17.3844 44.5783 17.4843 44.3705 17.6065 44.2994C17.6478 44.2754 17.6948 44.2689 17.7467 44.2759C17.675 44.8981 17.4912 45.5171 17.3057 45.5171L17.3057 45.5171ZM20.8938 45.5471C20.8615 45.5826 20.7997 45.6063 20.7338 45.6078C20.6519 45.6099 20.576 45.5802 20.5264 45.526C20.2731 45.2575 20.2731 45.2575 20.3952 45.0785C20.474 44.963 20.543 44.8553 20.6101 44.7511C20.669 44.6588 20.725 44.5728 20.7806 44.4917C20.8 44.652 20.8406 44.8009 20.8788 44.9403C20.9577 45.2278 20.9972 45.3991 20.8938 45.5471" fill="#14264B"/>
<path d="M12.0696 32.2497C12.0265 32.3284 11.9467 32.3782 11.859 32.3715C11.7338 32.3615 11.6394 32.2388 11.648 32.0973C11.657 31.9552 11.7656 31.8486 11.8911 31.8588C11.9739 31.8653 12.0435 31.9213 12.0784 31.9998C11.9217 31.9807 11.8876 32.1517 11.8876 32.1517C11.7861 32.0112 11.9171 31.9302 11.9171 31.9302C11.8299 31.9171 11.7471 31.9925 11.74 32.1053C11.7331 32.2187 11.8085 32.3167 11.9086 32.3245C11.9762 32.33 12.0343 32.305 12.0696 32.2497" fill="white"/>
<path d="M13.6434 29.603C13.3105 29.9974 12.7829 30.1261 12.3317 30.3406C11.6705 30.6552 11.327 31.1409 11.1559 31.6102C11.2201 31.7343 11.6214 31.7457 11.6816 31.7053C11.784 31.6364 11.9228 31.6018 12.0337 31.6742C12.1147 31.7271 12.1585 31.7799 12.1954 31.8077C12.2935 31.855 12.4303 31.894 12.5318 31.867C12.0852 32.3731 12.0337 33.0375 12.0756 33.1499C11.5502 33.1499 11.023 33.9537 10.9269 34.1705C10.365 36.562 13.5725 38.138 13.8908 38.3055C13.7057 38.6399 13.5491 38.9076 13.5629 39.0319C13.5739 39.1312 13.6236 39.1339 13.7259 39.1105C13.9603 38.9611 14.3738 38.7473 14.5197 38.5562C14.6081 38.4404 14.5164 38.2721 14.4731 38.2173C14.4265 38.158 14.4533 38.106 14.5605 38.18C14.6622 38.2772 14.6806 38.3312 14.7127 38.4164C14.7586 38.5396 14.6273 38.671 14.6273 38.671C14.9883 38.8554 16.2224 39.404 16.6046 39.4895L16.1904 38.7315C15.438 38.3921 14.3798 37.8797 13.7795 37.5429C12.8488 37.0202 11.3082 35.932 12.0764 34.2649C12.3007 33.8403 12.386 33.8318 12.4178 33.9311C12.4199 33.9412 12.4133 33.9697 12.4039 33.9753C12.3896 33.9917 12.2883 34.1018 12.194 34.328C11.4721 35.8442 12.966 36.9309 13.8469 37.4136C15.1223 38.1121 16.3028 38.6501 17.0803 38.945C17.1994 38.9901 17.3077 39.0361 17.3923 39.0633C17.6281 39.1416 17.3244 38.2184 17.0267 38.1235C15.4492 37.5996 13.9306 36.8182 13.5101 36.3491C13.2578 36.3152 12.5842 36.0833 12.4746 35.0522C12.4702 35.0243 12.4714 35.0004 12.5022 34.9924C12.5308 34.9851 12.5425 35.0087 12.545 35.023C12.7379 35.959 13.3023 36.2085 13.5408 36.2149C13.6728 36.2184 13.8806 36.0698 13.8262 36.0339C13.4167 35.7654 13.1867 35.2248 13.1705 35.1688C13.1599 35.1324 13.1719 35.1224 13.1921 35.1102C13.2111 35.099 13.233 35.1079 13.2536 35.1438C13.3592 35.329 13.7478 36.0525 14.3233 36.0723C14.4755 36.0775 14.6429 36.0715 14.6769 35.9175C14.6769 35.9175 14.1901 35.664 13.9513 35.218C13.943 35.2037 13.9362 35.1765 13.9669 35.1554C13.9983 35.1341 14.0224 35.1706 14.0367 35.1857C14.5014 35.7244 14.8746 35.9432 15.1002 35.9162C15.1915 35.9096 15.2553 35.8358 15.2586 35.7839C15.2708 35.5882 15.0956 35.4684 15.0495 35.433C15.0428 35.428 15.0393 35.4103 15.0469 35.3988C15.0538 35.3877 15.0715 35.3819 15.0949 35.3947C15.186 35.4437 15.3643 35.5885 15.3495 35.8167C15.3468 35.8572 15.3421 35.8841 15.3151 35.9175C15.5787 36.0742 16.0275 36.2758 16.236 36.3488C15.5964 35.1369 14.8893 33.8629 13.9679 33.2282C13.9431 33.3187 14.0202 33.5246 13.9284 33.4748C13.8646 33.4403 13.809 33.1403 13.8066 33.0051C13.7946 32.3056 13.6249 31.7222 13.3986 31.3865C13.2735 31.4973 13.0462 31.5534 13.0472 31.555C13.5005 31.1007 13.5587 30.7819 13.5587 30.7819C13.4265 30.8973 13.1091 31.0565 12.9439 31.089C12.9439 31.089 13.4612 30.7475 13.6687 30.1384C13.6687 30.1332 13.3387 30.5044 12.8561 30.6276C12.8558 30.6268 13.6581 30.2137 13.6434 29.603ZM14.7823 35.9608C14.7732 36.0267 14.7556 36.0894 14.6636 36.1363C15.5043 36.701 16.4018 37.009 16.5987 37.0733C16.6391 37.0405 16.5365 36.6066 16.2548 36.4938C15.8346 36.325 15.4844 36.1574 15.236 35.9812C15.1483 36.0357 15.0182 36.0679 14.7823 35.9608ZM13.9525 36.1067C13.9428 36.1866 13.7573 36.3048 13.6739 36.3213C14.2784 36.9022 16.4076 37.798 17.016 37.9591C17.1136 37.985 16.9719 37.4901 16.7039 37.2873C16.5081 37.1382 15.2778 36.8167 14.4982 36.1826C14.3667 36.2068 14.203 36.2124 13.9525 36.1067ZM17.5793 38.7042C17.6043 38.7657 17.6174 38.8453 17.6293 38.9194C17.7365 39.4928 17.353 39.1752 16.3739 38.8027C17.1589 40.2034 18.3546 42.272 19.031 43.2393C19.0691 42.954 19.0965 42.7037 19.1132 42.5409L19.1275 42.4022L19.2692 42.3403L17.4256 39.6688H17.59C17.59 39.6688 18.6404 41.2029 19.4026 42.2818L19.9301 42.0486C19.1572 41.1246 17.871 39.6233 17.871 39.6233L18.039 39.6283C18.0378 39.6131 20.5304 42.5382 20.5304 42.5382C20.6673 42.7118 20.8996 42.1238 20.5256 41.6533C20.3184 41.2795 17.5793 38.7042 17.5793 38.7042ZM7.68923 41.0067C7.09257 41.0067 6.67063 41.3476 6.17639 42.0284C5.46526 43.0078 4.78015 45.4733 5.72257 46.7289C6.03834 47.1502 6.67611 47.6225 7.5404 47.5485C8.48539 47.4664 8.74192 47.0654 9.47684 47.6225C9.8228 47.3144 10.3503 47.4314 10.6526 47.5108C9.78839 45.8663 8.13467 47.5728 6.77951 46.8164C6.30993 46.554 5.98443 45.8959 5.97335 45.2943C5.96205 44.686 6.09175 44.0091 6.28921 43.4304C6.2461 43.3403 6.21037 43.2393 6.185 43.1317C6.0808 42.6849 6.21192 42.2373 6.44391 42.1363C6.45654 42.1296 6.47011 42.1237 6.48488 42.1194C6.71937 42.0427 6.9435 41.9772 7.1587 41.9079C7.23409 41.8322 7.31031 41.7674 7.38641 41.7168C7.65746 41.5378 8.17564 41.5303 8.47825 41.7794C8.33772 41.9661 8.2166 42.2202 8.41549 42.4292C8.5709 42.5987 8.82683 42.5288 8.93211 42.3274C9.0942 42.0157 8.96188 41.6653 8.76991 41.4427C8.53922 41.1823 8.11299 41.0067 7.68926 41.0067H7.68923ZM20.0367 42.1763L19.8867 42.9594C20.0427 43.1693 20.1475 43.3039 20.1725 43.316C20.4131 43.4372 20.5858 42.8988 20.4929 42.7454C20.4619 42.6929 20.2844 42.4749 20.0367 42.1763ZM13.5823 42.2373L12.9589 42.5153L12.7075 43.7601C12.7075 43.7601 12.7053 43.6431 12.5038 43.604C12.0606 43.5206 11.8148 43.888 11.6343 44.2702C11.4994 44.5555 11.3493 45.0709 11.3493 45.4478C11.3493 45.4478 11.1309 45.7721 10.9615 45.7479C10.3801 45.6617 11.3502 43.6511 11.3502 43.6511H10.2396L10.2742 43.5031H9.84837C9.73071 44.0751 9.46132 45.1302 9.188 45.5648C9.03985 45.8004 8.87158 45.7344 8.86681 45.5716C8.86193 45.4047 9.241 43.5825 9.241 43.5825H8.70508L8.65435 43.8019C8.50406 43.6929 8.112 43.5166 7.76402 43.9593C7.30896 44.5367 7.23322 45.1503 7.3697 45.6119C7.38864 45.6994 6.94799 45.9363 6.94799 45.9363C6.94799 45.9363 7.12913 46.0587 7.23179 46.3023C7.40066 46.2969 7.54298 46.0345 7.5612 46.048C7.8213 46.27 8.13975 46.2673 8.4039 45.947C8.56491 46.1381 8.80548 46.2081 8.9865 46.2081C9.70856 46.2081 9.9259 44.7722 10.1284 44.1006H10.703C10.619 44.3604 10.4536 44.7601 10.3438 45.1369C10.2286 45.5312 10.1586 45.9282 10.3729 46.1005C10.7018 46.3642 11.1664 46.1233 11.4279 45.8609C11.5377 46.1005 11.7666 46.2162 11.9501 46.2081C12.1525 46.2041 12.305 46.1449 12.4551 46.0103C12.7349 46.4463 13.1621 46.1139 13.3974 45.8663C13.4384 46.0493 13.54 46.2068 13.7338 46.2081C13.963 46.2095 14.2054 46.0655 14.3946 45.8609L14.3115 46.2081H14.8747L15.1224 45.184C15.3952 43.9418 15.7325 44.2715 15.7593 44.3213C15.8217 44.4303 15.7186 44.6389 15.6053 45.0965C15.5266 45.4155 15.3169 46.161 15.8191 46.2081C16.1067 46.235 16.4836 46.0345 16.6777 45.7788C16.9641 46.2996 17.3083 46.2848 17.7621 45.9901C17.8609 46.1341 17.9348 46.2364 18.1182 46.2081C18.3289 46.1974 18.5374 45.9632 18.6517 45.8286C18.716 46.0359 18.8494 46.2122 19.0697 46.2081C19.3758 46.2027 19.6473 45.8798 19.8474 45.6429C20.1165 46.0372 20.3892 46.2969 20.8573 46.2081C21.1848 46.1449 21.3122 45.9861 21.629 46.2889C21.629 46.2889 21.6516 45.9861 22.0851 45.6631C21.8469 45.5285 21.6064 45.5635 21.4718 45.6106C21.623 45.297 21.4206 44.8596 21.3479 44.5528C21.2836 44.2756 21.2408 44.0791 21.3313 43.7978C21.3718 43.6727 21.0466 43.5139 20.993 43.4869C20.7156 43.6081 19.527 45.441 19.4032 45.5581C19.346 45.6133 19.2102 45.7021 19.2924 45.2984C19.2924 45.2984 19.8891 42.2405 19.8855 42.2373L19.2555 42.5153C19.184 43.1909 18.9971 45.0965 18.4242 45.4949C18.3718 45.5312 18.1979 45.6765 18.1467 45.5621C18.1182 45.5002 18.5171 43.5919 18.5207 43.5717H18.0145L17.9752 43.7453C17.8919 43.5717 17.6811 43.5717 17.5465 43.6C16.587 43.8032 16.5717 45.4141 16.5396 45.4693C16.2615 45.8569 16.0112 45.7586 16.0186 45.5204C16.0313 45.11 16.4691 44.0145 16.2757 43.7346C16.0627 43.4264 15.6241 43.6471 15.4045 43.9136L15.4722 43.5838H14.9405C14.8641 44.001 14.5871 45.1921 14.358 45.4949C14.2374 45.6537 13.9304 45.7008 13.9437 45.5312C13.959 45.3347 14.3925 43.5812 14.3925 43.5812H13.8551C13.8551 43.5812 13.5791 44.974 13.3543 45.4168C13.162 45.7963 12.9154 45.6294 12.9297 45.4087C12.9562 45.0063 13.5823 42.2373 13.5823 42.2373ZM14.3525 42.3376C14.1813 42.3376 14.0427 42.4951 14.0427 42.6876C14.0427 42.8813 14.1813 43.0375 14.3525 43.0375C14.5233 43.0375 14.6623 42.8813 14.6623 42.6876C14.6623 42.4951 14.5233 42.3376 14.3525 42.3376ZM19.8462 43.1774L19.7235 43.8153C19.9248 43.8086 20.1272 43.6108 20.0272 43.4412L19.8462 43.1774ZM20.9323 44.0629C20.7894 44.713 21.2979 45.2338 20.9966 45.6523C20.8763 45.7936 20.5905 45.8138 20.4285 45.6389C20.0999 45.2903 20.1058 45.2405 20.2833 44.9821C20.5381 44.608 20.7037 44.2944 20.9323 44.0629ZM12.4826 44.0804C12.5109 44.0791 12.54 44.0818 12.5695 44.0899C12.7342 44.1356 12.5334 44.7762 12.407 45.4356C12.3678 45.6416 11.9987 45.7398 11.9145 45.5191C11.7824 45.1746 12.0577 44.106 12.4826 44.0804ZM8.45618 44.102C8.50025 44.1047 8.54729 44.1168 8.59743 44.1383C8.59743 44.1383 8.48226 45.6685 8.03543 45.6685C7.89538 45.6685 7.77438 45.4558 7.90407 44.8731C7.98553 44.5044 8.14797 44.0845 8.45618 44.102ZM17.743 44.1154C17.7907 44.1195 17.8419 44.1329 17.8978 44.1571C17.8978 44.1571 17.7621 45.6738 17.3036 45.6738C17.1642 45.6738 17.0427 45.4612 17.1726 44.8785C17.2535 44.5097 17.4084 44.0845 17.743 44.1154Z" fill="#B72126"/>
<path d="M11.0204 31.8389C10.5861 32.1399 10.3907 32.6982 10.3907 32.6982C10.7729 32.6058 10.8328 32.482 11.1236 32.5104C11.2274 32.5206 11.2764 32.5741 11.359 32.6428C11.2326 32.6105 11.1351 32.6034 11.0287 32.6006C10.8809 32.5967 10.5886 32.714 10.44 32.7307C10.44 32.7307 10.9271 32.9677 11.0768 32.9927C11.0768 32.9927 11.3912 33.1324 11.4821 32.6825C11.5314 32.4384 11.3684 32.0851 11.1588 32.1839C11.1566 32.185 11.1963 31.9267 11.0204 31.8389ZM19.7182 37.8983C19.7075 37.8976 19.6967 37.8985 19.6872 37.9007C19.586 37.9221 19.5824 38.0524 19.5824 38.0524C19.5824 38.0524 19.5991 38.1682 19.4836 38.2655C19.4264 38.3148 19.2525 38.4012 18.9727 38.4639L17.8961 38.8099L18.2236 39.1208L19.3287 38.7181C19.3287 38.7181 19.7372 38.6028 19.7372 38.3853C19.7372 38.0505 19.8921 38.6877 19.8289 38.8141C19.8289 38.8141 19.8813 38.8707 19.9718 38.7967C20.0612 38.7227 20.0445 38.5193 19.9552 38.233C19.8754 37.982 19.792 37.9028 19.7182 37.8983ZM15.9645 39.4181L14.8375 39.7661C14.8296 39.7692 14.8205 39.7724 14.8109 39.776C14.9377 39.9521 15.003 40.2352 14.8327 40.423C14.936 40.381 15.0718 40.3251 15.0718 40.3251C15.5241 40.1411 16.0698 39.9278 16.6937 39.6907C16.6937 39.6907 16.6966 39.6898 16.7005 39.6886C16.6869 39.6651 16.6791 39.6516 16.6791 39.6516C16.4593 39.5962 16.207 39.5096 15.9645 39.4181ZM14.5645 39.8592C14.5216 39.8712 14.4855 39.8791 14.4643 39.8789C14.3964 39.8986 13.5341 40.1514 13.3427 40.2076C13.5426 40.4055 13.5761 40.81 13.3401 41.0412C13.8241 40.8373 14.3733 40.6112 14.6743 40.4878L14.735 40.4629C14.8042 40.32 14.8005 40.0356 14.6727 39.9177C14.6441 39.8914 14.6035 39.8727 14.5645 39.8592ZM13.0074 40.3096C13.0005 40.31 12.993 40.3102 12.9845 40.3102C12.898 40.3349 12.8276 40.3546 12.8276 40.3546C12.508 40.4445 12.2849 40.5038 12.165 40.531C11.5129 40.6791 10.5234 40.9644 8.9602 41.4552C9.12621 41.7084 9.22756 42.0691 9.05178 42.4075C8.97592 42.5528 8.84123 42.6537 8.69153 42.6766C8.5529 42.6981 8.41714 42.6497 8.32079 42.5447C8.21027 42.429 8.07332 42.1905 8.27327 41.8286C8.19324 41.7899 8.10416 41.7669 8.01306 41.7553L6.49856 42.2434C6.49093 42.2461 6.48331 42.248 6.47581 42.2503C6.28157 42.3294 6.19392 42.721 6.28086 43.0938C6.37029 43.4773 6.59895 43.7707 6.80629 43.7088C7.01316 43.6469 7.09354 43.262 7.00399 42.8798C6.96969 42.7318 6.94158 42.6322 6.87513 42.5259C6.87513 42.5259 7.01709 42.6591 7.08402 42.9861C7.14118 43.2661 7.13225 43.4908 7.06282 43.6429C9.7262 42.6268 11.5388 41.8819 12.4497 41.4301C12.5567 41.377 12.7991 41.2701 13.1702 41.1129C13.1702 41.1129 13.2075 41.0973 13.2361 41.0854C13.321 40.9187 13.3377 40.5188 13.1619 40.3785C13.1208 40.3454 13.0589 40.3235 13.0074 40.3096Z" fill="#FEE60E"/>
<defs>
<clipPath id="clip0">
<path d="M0 9C0 4.02944 4.02944 0 9 0H153C157.971 0 162 4.02944 162 9V49C162 53.9706 157.971 58 153 58H9C4.02944 58 0 53.9706 0 49V9Z" fill="white"/>
</clipPath>
</defs>
</svg>
