<svg width="162" height="51" viewBox="0 0 162 51" fill="none" xmlns="http://www.w3.org/2000/svg">
<rect x="0.5" y="0.5" width="161" height="50" rx="8.5" fill="#0A438A" stroke="white"/>
<path d="M16.9143 15.6428V5.17882H19.0103L20.8663 10.2988C20.9836 10.6295 21.0956 10.9708 21.2023 11.3228C21.309 11.6642 21.421 12.0055 21.5383 12.3468H21.6023C21.7196 12.0055 21.8263 11.6642 21.9223 11.3228C22.029 10.9708 22.141 10.6295 22.2583 10.2988L24.0663 5.17882H26.1783V15.6428H24.4663V10.8588C24.4663 10.6135 24.4716 10.3468 24.4823 10.0588C24.5036 9.77082 24.525 9.48282 24.5463 9.19482C24.5676 8.89616 24.5943 8.60816 24.6263 8.33082C24.6583 8.04282 24.685 7.77616 24.7063 7.53082H24.6423L23.7943 9.96282L22.0823 14.6668H20.9783L19.2503 9.96282L18.4183 7.53082H18.3543C18.3756 7.77616 18.397 8.04282 18.4183 8.33082C18.4503 8.60816 18.477 8.89616 18.4983 9.19482C18.5303 9.48282 18.5516 9.77082 18.5623 10.0588C18.5836 10.3468 18.5943 10.6135 18.5943 10.8588V15.6428H16.9143ZM31.8922 15.8348C31.4015 15.8348 30.9322 15.7442 30.4842 15.5628C30.0362 15.3815 29.6362 15.1148 29.2842 14.7628C28.9429 14.4108 28.6709 13.9788 28.4682 13.4668C28.2655 12.9548 28.1642 12.3735 28.1642 11.7228C28.1642 11.0722 28.2655 10.4908 28.4682 9.97882C28.6709 9.46682 28.9429 9.03482 29.2842 8.68282C29.6362 8.33082 30.0362 8.06416 30.4842 7.88282C30.9322 7.69082 31.4015 7.59482 31.8922 7.59482C32.3829 7.59482 32.8522 7.69082 33.3002 7.88282C33.7589 8.06416 34.1589 8.33082 34.5002 8.68282C34.8415 9.03482 35.1135 9.46682 35.3162 9.97882C35.5295 10.4908 35.6362 11.0722 35.6362 11.7228C35.6362 12.3735 35.5295 12.9548 35.3162 13.4668C35.1135 13.9788 34.8415 14.4108 34.5002 14.7628C34.1589 15.1148 33.7589 15.3815 33.3002 15.5628C32.8522 15.7442 32.3829 15.8348 31.8922 15.8348ZM31.8922 14.3308C32.4682 14.3308 32.9215 14.0962 33.2522 13.6268C33.5829 13.1468 33.7482 12.5122 33.7482 11.7228C33.7482 10.9228 33.5829 10.2882 33.2522 9.81882C32.9215 9.33882 32.4682 9.09882 31.8922 9.09882C31.3162 9.09882 30.8629 9.33882 30.5322 9.81882C30.2122 10.2882 30.0522 10.9228 30.0522 11.7228C30.0522 12.5122 30.2122 13.1468 30.5322 13.6268C30.8629 14.0962 31.3162 14.3308 31.8922 14.3308ZM37.4574 15.6428V7.78682H38.9774L39.1054 8.84282H39.1694C39.5214 8.50149 39.9001 8.20816 40.3054 7.96282C40.7214 7.71749 41.2014 7.59482 41.7454 7.59482C42.5881 7.59482 43.2014 7.86682 43.5854 8.41082C43.9694 8.94416 44.1614 9.71216 44.1614 10.7148V15.6428H42.3214V10.9548C42.3214 10.3042 42.2254 9.84549 42.0334 9.57882C41.8414 9.31216 41.5268 9.17882 41.0894 9.17882C40.7481 9.17882 40.4441 9.26416 40.1774 9.43482C39.9214 9.59482 39.6281 9.83482 39.2974 10.1548V15.6428H37.4574ZM49.7706 15.8348C49.2266 15.8348 48.7199 15.7442 48.2506 15.5628C47.7812 15.3708 47.3706 15.0988 47.0186 14.7468C46.6666 14.3948 46.3892 13.9682 46.1866 13.4668C45.9946 12.9548 45.8986 12.3735 45.8986 11.7228C45.8986 11.0828 45.9999 10.5068 46.2026 9.99482C46.4052 9.48282 46.6719 9.05082 47.0026 8.69882C47.3439 8.34682 47.7332 8.07482 48.1706 7.88282C48.6079 7.69082 49.0559 7.59482 49.5146 7.59482C50.0479 7.59482 50.5172 7.68549 50.9226 7.86682C51.3279 8.04816 51.6639 8.30416 51.9306 8.63482C52.2079 8.96549 52.4159 9.36016 52.5546 9.81882C52.6932 10.2775 52.7626 10.7788 52.7626 11.3228C52.7626 11.5042 52.7519 11.6748 52.7306 11.8348C52.7199 11.9948 52.7039 12.1228 52.6826 12.2188H47.6906C47.7759 12.9228 48.0212 13.4668 48.4266 13.8508C48.8426 14.2242 49.3706 14.4108 50.0106 14.4108C50.3519 14.4108 50.6666 14.3628 50.9546 14.2668C51.2532 14.1602 51.5466 14.0162 51.8346 13.8348L52.4586 14.9868C52.0852 15.2322 51.6692 15.4348 51.2106 15.5948C50.7519 15.7548 50.2719 15.8348 49.7706 15.8348ZM47.6746 10.9708H51.1626C51.1626 10.3628 51.0292 9.88816 50.7626 9.54682C50.5066 9.19482 50.1066 9.01882 49.5626 9.01882C49.0932 9.01882 48.6826 9.18416 48.3306 9.51482C47.9786 9.84549 47.7599 10.3308 47.6746 10.9708ZM55.0479 18.8748C54.8346 18.8748 54.6479 18.8588 54.4879 18.8268C54.3279 18.8055 54.1733 18.7682 54.0239 18.7148L54.3599 17.2748C54.4346 17.2962 54.5199 17.3175 54.6159 17.3388C54.7226 17.3708 54.8239 17.3868 54.9199 17.3868C55.3359 17.3868 55.6666 17.2588 55.9119 17.0028C56.1679 16.7575 56.3599 16.4375 56.4879 16.0428L56.6319 15.5468L53.5439 7.78682H55.4159L56.7759 11.6428C56.8933 11.9842 57.0053 12.3468 57.1119 12.7308C57.2293 13.1042 57.3466 13.4775 57.4639 13.8508H57.5279C57.6239 13.4882 57.7199 13.1202 57.8159 12.7468C57.9226 12.3628 58.0239 11.9948 58.1199 11.6428L59.3039 7.78682H61.0799L58.2319 15.9948C58.0719 16.4428 57.8959 16.8428 57.7039 17.1948C57.5119 17.5468 57.2879 17.8455 57.0319 18.0908C56.7866 18.3468 56.4986 18.5388 56.1679 18.6668C55.8479 18.8055 55.4746 18.8748 55.0479 18.8748ZM65.8049 15.6428V5.17882H67.6609V14.0748H72.0129V15.6428H65.8049ZM73.6762 15.6428V7.78682H75.5162V15.6428H73.6762ZM74.6042 6.41082C74.2735 6.41082 74.0015 6.31482 73.7882 6.12282C73.5749 5.93082 73.4682 5.68016 73.4682 5.37082C73.4682 5.06149 73.5749 4.81082 73.7882 4.61882C74.0015 4.41616 74.2735 4.31482 74.6042 4.31482C74.9349 4.31482 75.2069 4.41616 75.4202 4.61882C75.6335 4.81082 75.7402 5.06149 75.7402 5.37082C75.7402 5.68016 75.6335 5.93082 75.4202 6.12282C75.2069 6.31482 74.9349 6.41082 74.6042 6.41082ZM77.8637 15.6428V7.78682H79.3837L79.5117 8.84282H79.5757C79.9277 8.50149 80.3064 8.20816 80.7117 7.96282C81.1277 7.71749 81.6077 7.59482 82.1517 7.59482C82.9944 7.59482 83.6077 7.86682 83.9917 8.41082C84.3757 8.94416 84.5677 9.71216 84.5677 10.7148V15.6428H82.7277V10.9548C82.7277 10.3042 82.6317 9.84549 82.4397 9.57882C82.2477 9.31216 81.933 9.17882 81.4957 9.17882C81.1544 9.17882 80.8504 9.26416 80.5837 9.43482C80.3277 9.59482 80.0344 9.83482 79.7037 10.1548V15.6428H77.8637ZM90.1768 15.8348C89.6328 15.8348 89.1261 15.7442 88.6568 15.5628C88.1875 15.3708 87.7768 15.0988 87.4248 14.7468C87.0728 14.3948 86.7955 13.9682 86.5928 13.4668C86.4008 12.9548 86.3048 12.3735 86.3048 11.7228C86.3048 11.0828 86.4061 10.5068 86.6088 9.99482C86.8115 9.48282 87.0781 9.05082 87.4088 8.69882C87.7501 8.34682 88.1395 8.07482 88.5768 7.88282C89.0141 7.69082 89.4621 7.59482 89.9208 7.59482C90.4541 7.59482 90.9235 7.68549 91.3288 7.86682C91.7341 8.04816 92.0701 8.30416 92.3368 8.63482C92.6141 8.96549 92.8221 9.36016 92.9608 9.81882C93.0995 10.2775 93.1688 10.7788 93.1688 11.3228C93.1688 11.5042 93.1581 11.6748 93.1368 11.8348C93.1261 11.9948 93.1101 12.1228 93.0888 12.2188H88.0968C88.1821 12.9228 88.4275 13.4668 88.8328 13.8508C89.2488 14.2242 89.7768 14.4108 90.4168 14.4108C90.7581 14.4108 91.0728 14.3628 91.3608 14.2668C91.6595 14.1602 91.9528 14.0162 92.2408 13.8348L92.8648 14.9868C92.4915 15.2322 92.0755 15.4348 91.6168 15.5948C91.1581 15.7548 90.6781 15.8348 90.1768 15.8348ZM88.0808 10.9708H91.5688C91.5688 10.3628 91.4355 9.88816 91.1688 9.54682C90.9128 9.19482 90.5128 9.01882 89.9688 9.01882C89.4995 9.01882 89.0888 9.18416 88.7368 9.51482C88.3848 9.84549 88.1661 10.3308 88.0808 10.9708ZM102.209 15.8348C101.601 15.8348 101.052 15.7495 100.561 15.5788C100.081 15.3975 99.6653 15.1148 99.3133 14.7308C98.972 14.3468 98.7053 13.8562 98.5133 13.2588C98.332 12.6508 98.2413 11.9148 98.2413 11.0508V5.17882H100.097V11.1948C100.097 11.7602 100.145 12.2402 100.241 12.6348C100.348 13.0188 100.492 13.3282 100.673 13.5628C100.865 13.7975 101.089 13.9682 101.345 14.0748C101.601 14.1708 101.889 14.2188 102.209 14.2188C102.529 14.2188 102.823 14.1708 103.089 14.0748C103.356 13.9682 103.585 13.7975 103.777 13.5628C103.969 13.3282 104.119 13.0188 104.225 12.6348C104.332 12.2402 104.385 11.7602 104.385 11.1948V5.17882H106.161V11.0508C106.161 11.9148 106.071 12.6508 105.889 13.2588C105.708 13.8562 105.441 14.3468 105.089 14.7308C104.748 15.1148 104.332 15.3975 103.841 15.5788C103.361 15.7495 102.817 15.8348 102.209 15.8348ZM108.614 18.7468V7.78682H110.134L110.262 8.61882H110.326C110.656 8.34149 111.024 8.10149 111.43 7.89882C111.835 7.69616 112.256 7.59482 112.694 7.59482C113.184 7.59482 113.616 7.69082 113.99 7.88282C114.374 8.06416 114.699 8.33082 114.966 8.68282C115.232 9.03482 115.435 9.45616 115.574 9.94682C115.712 10.4375 115.782 10.9868 115.782 11.5948C115.782 12.2668 115.686 12.8695 115.494 13.4028C115.312 13.9255 115.067 14.3682 114.758 14.7308C114.448 15.0828 114.091 15.3548 113.686 15.5468C113.28 15.7388 112.859 15.8348 112.422 15.8348C112.08 15.8348 111.739 15.7602 111.398 15.6108C111.056 15.4615 110.726 15.2482 110.406 14.9708L110.454 16.2828V18.7468H108.614ZM112.038 14.3148C112.56 14.3148 112.998 14.0908 113.35 13.6428C113.702 13.1842 113.878 12.5068 113.878 11.6108C113.878 10.8215 113.744 10.2082 113.478 9.77082C113.211 9.33349 112.779 9.11482 112.182 9.11482C111.627 9.11482 111.051 9.40816 110.454 9.99482V13.6588C110.742 13.9042 111.019 14.0748 111.286 14.1708C111.552 14.2668 111.803 14.3148 112.038 14.3148ZM120.397 15.8348C119.405 15.8348 118.616 15.4775 118.029 14.7628C117.453 14.0375 117.165 13.0242 117.165 11.7228C117.165 11.0828 117.256 10.5068 117.437 9.99482C117.629 9.48282 117.88 9.05082 118.189 8.69882C118.498 8.34682 118.85 8.07482 119.245 7.88282C119.65 7.69082 120.066 7.59482 120.493 7.59482C120.941 7.59482 121.32 7.67482 121.629 7.83482C121.938 7.98416 122.248 8.19216 122.557 8.45882L122.493 7.19482V4.34682H124.333V15.6428H122.813L122.685 14.7948H122.621C122.333 15.0828 121.997 15.3282 121.613 15.5308C121.229 15.7335 120.824 15.8348 120.397 15.8348ZM120.845 14.3148C121.432 14.3148 121.981 14.0215 122.493 13.4348V9.77082C122.216 9.52549 121.944 9.35482 121.677 9.25882C121.421 9.16282 121.16 9.11482 120.893 9.11482C120.381 9.11482 119.949 9.33882 119.597 9.78682C119.245 10.2348 119.069 10.8748 119.069 11.7068C119.069 12.5602 119.218 13.2108 119.517 13.6588C119.826 14.0962 120.269 14.3148 120.845 14.3148ZM128.58 15.8348C127.887 15.8348 127.327 15.6268 126.9 15.2108C126.474 14.7842 126.26 14.2242 126.26 13.5308C126.26 13.1148 126.346 12.7468 126.516 12.4268C126.698 12.0962 126.975 11.8135 127.348 11.5788C127.732 11.3442 128.212 11.1468 128.788 10.9868C129.375 10.8268 130.074 10.7042 130.884 10.6188C130.874 10.4162 130.842 10.2242 130.788 10.0428C130.746 9.85082 130.666 9.68549 130.548 9.54682C130.442 9.39749 130.298 9.28549 130.116 9.21082C129.935 9.12549 129.711 9.08282 129.444 9.08282C129.06 9.08282 128.682 9.15749 128.308 9.30682C127.946 9.45616 127.588 9.63749 127.236 9.85082L126.564 8.61882C127.002 8.34149 127.492 8.10149 128.036 7.89882C128.58 7.69616 129.167 7.59482 129.796 7.59482C130.778 7.59482 131.508 7.88816 131.988 8.47482C132.479 9.05082 132.724 9.88816 132.724 10.9868V15.6428H131.204L131.076 14.7788H131.012C130.66 15.0775 130.282 15.3282 129.876 15.5308C129.482 15.7335 129.05 15.8348 128.58 15.8348ZM129.172 14.3948C129.492 14.3948 129.78 14.3202 130.036 14.1708C130.303 14.0215 130.586 13.8082 130.884 13.5308V11.7708C130.351 11.8348 129.903 11.9202 129.54 12.0268C129.178 12.1335 128.884 12.2562 128.66 12.3948C128.436 12.5228 128.276 12.6722 128.18 12.8428C128.084 13.0135 128.036 13.1948 128.036 13.3868C128.036 13.7388 128.143 13.9948 128.356 14.1548C128.57 14.3148 128.842 14.3948 129.172 14.3948ZM137.444 15.8348C136.986 15.8348 136.596 15.7655 136.276 15.6268C135.967 15.4882 135.711 15.2962 135.508 15.0508C135.316 14.7948 135.172 14.4962 135.076 14.1548C134.991 13.8028 134.948 13.4135 134.948 12.9868V9.24282H133.828V7.86682L135.044 7.78682L135.268 5.64282H136.804V7.78682H138.804V9.24282H136.804V12.9868C136.804 13.9042 137.172 14.3628 137.908 14.3628C138.047 14.3628 138.186 14.3468 138.324 14.3148C138.474 14.2828 138.607 14.2402 138.724 14.1868L139.044 15.5468C138.831 15.6215 138.586 15.6855 138.308 15.7388C138.042 15.8028 137.754 15.8348 137.444 15.8348ZM143.567 15.8348C143.023 15.8348 142.517 15.7442 142.047 15.5628C141.578 15.3708 141.167 15.0988 140.815 14.7468C140.463 14.3948 140.186 13.9682 139.983 13.4668C139.791 12.9548 139.695 12.3735 139.695 11.7228C139.695 11.0828 139.797 10.5068 139.999 9.99482C140.202 9.48282 140.469 9.05082 140.799 8.69882C141.141 8.34682 141.53 8.07482 141.967 7.88282C142.405 7.69082 142.853 7.59482 143.311 7.59482C143.845 7.59482 144.314 7.68549 144.719 7.86682C145.125 8.04816 145.461 8.30416 145.727 8.63482C146.005 8.96549 146.213 9.36016 146.351 9.81882C146.49 10.2775 146.559 10.7788 146.559 11.3228C146.559 11.5042 146.549 11.6748 146.527 11.8348C146.517 11.9948 146.501 12.1228 146.479 12.2188H141.487C141.573 12.9228 141.818 13.4668 142.223 13.8508C142.639 14.2242 143.167 14.4108 143.807 14.4108C144.149 14.4108 144.463 14.3628 144.751 14.2668C145.05 14.1602 145.343 14.0162 145.631 13.8348L146.255 14.9868C145.882 15.2322 145.466 15.4348 145.007 15.5948C144.549 15.7548 144.069 15.8348 143.567 15.8348ZM141.471 10.9708H144.959C144.959 10.3628 144.826 9.88816 144.559 9.54682C144.303 9.19482 143.903 9.01882 143.359 9.01882C142.89 9.01882 142.479 9.18416 142.127 9.51482C141.775 9.84549 141.557 10.3308 141.471 10.9708Z" fill="white"/>
<path d="M26.1908 30.4285V25.1485H24.4008V23.9085H29.4608V25.1485H27.6708V30.4285H26.1908ZM32.8442 30.5485C32.4042 30.5485 32.0009 30.4718 31.6342 30.3185C31.2742 30.1585 30.9642 29.9318 30.7042 29.6385C30.4442 29.3451 30.2409 28.9885 30.0942 28.5685C29.9542 28.1485 29.8842 27.6718 29.8842 27.1385C29.8842 26.6051 29.9542 26.1318 30.0942 25.7185C30.2409 25.2985 30.4442 24.9485 30.7042 24.6685C30.9642 24.3818 31.2742 24.1651 31.6342 24.0185C32.0009 23.8651 32.4042 23.7885 32.8442 23.7885C33.2842 23.7885 33.6842 23.8651 34.0442 24.0185C34.4109 24.1651 34.7242 24.3818 34.9842 24.6685C35.2442 24.9551 35.4442 25.3085 35.5842 25.7285C35.7309 26.1418 35.8042 26.6118 35.8042 27.1385C35.8042 27.6718 35.7309 28.1485 35.5842 28.5685C35.4442 28.9885 35.2442 29.3451 34.9842 29.6385C34.7242 29.9318 34.4109 30.1585 34.0442 30.3185C33.6842 30.4718 33.2842 30.5485 32.8442 30.5485ZM32.8442 29.2785C33.2909 29.2785 33.6442 29.0885 33.9042 28.7085C34.1642 28.3218 34.2942 27.7985 34.2942 27.1385C34.2942 26.4851 34.1642 25.9751 33.9042 25.6085C33.6442 25.2418 33.2909 25.0585 32.8442 25.0585C32.3975 25.0585 32.0442 25.2418 31.7842 25.6085C31.5242 25.9751 31.3942 26.4851 31.3942 27.1385C31.3942 27.7985 31.5242 28.3218 31.7842 28.7085C32.0442 29.0885 32.3975 29.2785 32.8442 29.2785ZM37.0301 30.4285V23.9085H39.3801C39.7268 23.9085 40.0501 23.9418 40.3501 24.0085C40.6568 24.0751 40.9235 24.1885 41.1501 24.3485C41.3768 24.5018 41.5568 24.7085 41.6901 24.9685C41.8235 25.2285 41.8901 25.5518 41.8901 25.9385C41.8901 26.4185 41.7835 26.8151 41.5701 27.1285C41.3635 27.4351 41.0835 27.6651 40.7301 27.8185L42.2101 30.4285H40.5601L39.3101 28.0785H38.5001V30.4285H37.0301ZM38.5001 26.9085H39.2601C39.6468 26.9085 39.9401 26.8285 40.1401 26.6685C40.3468 26.5018 40.4501 26.2585 40.4501 25.9385C40.4501 25.6185 40.3468 25.3951 40.1401 25.2685C39.9401 25.1418 39.6468 25.0785 39.2601 25.0785H38.5001V26.9085ZM44.8249 28.4185V27.3785H47.2849V28.4185H44.8249ZM50.4172 30.4285V29.2385H51.7972V25.5685H50.6072V24.6585C50.9538 24.5918 51.2472 24.5118 51.4872 24.4185C51.7272 24.3251 51.9605 24.2118 52.1872 24.0785H53.2672V29.2385H54.4572V30.4285H50.4172ZM55.7004 30.4285V29.2385H57.0804V25.5685H55.8904V24.6585C56.237 24.5918 56.5304 24.5118 56.7704 24.4185C57.0104 24.3251 57.2437 24.2118 57.4704 24.0785H58.5504V29.2385H59.7404V30.4285H55.7004ZM62.9236 30.5485C62.5836 30.5485 62.2736 30.4785 61.9936 30.3385C61.7136 30.1918 61.4736 29.9785 61.2736 29.6985C61.0802 29.4185 60.9269 29.0718 60.8136 28.6585C60.7069 28.2451 60.6536 27.7685 60.6536 27.2285C60.6536 26.6885 60.7069 26.2151 60.8136 25.8085C60.9269 25.4018 61.0802 25.0618 61.2736 24.7885C61.4736 24.5085 61.7136 24.3018 61.9936 24.1685C62.2736 24.0285 62.5836 23.9585 62.9236 23.9585C63.2636 23.9585 63.5736 24.0285 63.8536 24.1685C64.1336 24.3018 64.3702 24.5085 64.5636 24.7885C64.7636 25.0618 64.9169 25.4018 65.0236 25.8085C65.1369 26.2151 65.1936 26.6885 65.1936 27.2285C65.1936 27.7685 65.1369 28.2451 65.0236 28.6585C64.9169 29.0718 64.7636 29.4185 64.5636 29.6985C64.3702 29.9785 64.1336 30.1918 63.8536 30.3385C63.5736 30.4785 63.2636 30.5485 62.9236 30.5485ZM62.9236 29.4085C63.0502 29.4085 63.1669 29.3785 63.2736 29.3185C63.3802 29.2518 63.4736 29.1351 63.5536 28.9685C63.6336 28.8018 63.6936 28.5785 63.7336 28.2985C63.7802 28.0185 63.8036 27.6618 63.8036 27.2285C63.8036 26.7951 63.7802 26.4418 63.7336 26.1685C63.6936 25.8885 63.6336 25.6718 63.5536 25.5185C63.4736 25.3585 63.3802 25.2485 63.2736 25.1885C63.1669 25.1285 63.0502 25.0985 62.9236 25.0985C62.8036 25.0985 62.6902 25.1285 62.5836 25.1885C62.4769 25.2485 62.3836 25.3585 62.3036 25.5185C62.2236 25.6718 62.1602 25.8885 62.1136 26.1685C62.0669 26.4418 62.0436 26.7951 62.0436 27.2285C62.0436 27.6618 62.0669 28.0185 62.1136 28.2985C62.1602 28.5785 62.2236 28.8018 62.3036 28.9685C62.3836 29.1351 62.4769 29.2518 62.5836 29.3185C62.6902 29.3785 62.8036 29.4085 62.9236 29.4085ZM69.6087 32.2185C69.1887 31.5318 68.8621 30.8185 68.6287 30.0785C68.4021 29.3385 68.2887 28.5285 68.2887 27.6485C68.2887 26.7685 68.4021 25.9585 68.6287 25.2185C68.8621 24.4785 69.1887 23.7651 69.6087 23.0785L70.5287 23.4585C70.1621 24.1118 69.8954 24.7951 69.7287 25.5085C69.5621 26.2218 69.4787 26.9351 69.4787 27.6485C69.4787 28.3618 69.5621 29.0751 69.7287 29.7885C69.8954 30.5018 70.1621 31.1851 70.5287 31.8385L69.6087 32.2185ZM72.3562 30.4285L71.1462 23.9085H72.6562L73.1062 26.9585C73.1462 27.2985 73.1896 27.6418 73.2362 27.9885C73.2829 28.3285 73.3262 28.6718 73.3662 29.0185H73.4062C73.4729 28.6718 73.5362 28.3285 73.5962 27.9885C73.6629 27.6418 73.7296 27.2985 73.7962 26.9585L74.4962 23.9085H75.7462L76.4462 26.9585C76.5129 27.2918 76.5762 27.6318 76.6362 27.9785C76.7029 28.3185 76.7696 28.6651 76.8362 29.0185H76.8762C76.9229 28.6651 76.9662 28.3185 77.0062 27.9785C77.0529 27.6385 77.0996 27.2985 77.1462 26.9585L77.5962 23.9085H79.0062L77.8462 30.4285H75.9962L75.3562 27.4685C75.3029 27.2151 75.2529 26.9618 75.2062 26.7085C75.1662 26.4485 75.1296 26.1985 75.0962 25.9585H75.0562C75.0162 26.1985 74.9729 26.4485 74.9262 26.7085C74.8862 26.9618 74.8396 27.2151 74.7862 27.4685L74.1762 30.4285H72.3562ZM80.9238 30.5485C80.6971 30.5485 80.4905 30.5085 80.3038 30.4285C80.1238 30.3551 79.9705 30.2518 79.8438 30.1185C79.7171 29.9785 79.6171 29.8185 79.5438 29.6385C79.4771 29.4585 79.4438 29.2618 79.4438 29.0485C79.4438 28.5285 79.6638 28.1218 80.1038 27.8285C80.5438 27.5351 81.2538 27.3385 82.2338 27.2385C82.2205 27.0185 82.1538 26.8451 82.0338 26.7185C81.9205 26.5851 81.7271 26.5185 81.4538 26.5185C81.2405 26.5185 81.0271 26.5585 80.8138 26.6385C80.6071 26.7185 80.3838 26.8285 80.1438 26.9685L79.6138 25.9985C79.9338 25.8051 80.2671 25.6485 80.6138 25.5285C80.9671 25.4085 81.3405 25.3485 81.7338 25.3485C82.3738 25.3485 82.8605 25.5318 83.1938 25.8985C83.5338 26.2585 83.7038 26.8218 83.7038 27.5885V30.4285H82.5038L82.4038 29.9185H82.3638C82.1505 30.1051 81.9271 30.2585 81.6938 30.3785C81.4605 30.4918 81.2038 30.5485 80.9238 30.5485ZM81.4238 29.4085C81.5905 29.4085 81.7338 29.3718 81.8538 29.2985C81.9738 29.2251 82.1005 29.1218 82.2338 28.9885V28.1185C81.7138 28.1918 81.3538 28.2985 81.1538 28.4385C80.9538 28.5785 80.8538 28.7451 80.8538 28.9385C80.8538 29.0985 80.9038 29.2185 81.0038 29.2985C81.1105 29.3718 81.2505 29.4085 81.4238 29.4085ZM86.4072 30.5485C86.0806 30.5485 85.7439 30.4851 85.3972 30.3585C85.0572 30.2318 84.7606 30.0651 84.5072 29.8585L85.1672 28.9385C85.3939 29.1118 85.6106 29.2418 85.8172 29.3285C86.0239 29.4151 86.2339 29.4585 86.4472 29.4585C86.6672 29.4585 86.8272 29.4218 86.9272 29.3485C87.0272 29.2751 87.0772 29.1718 87.0772 29.0385C87.0772 28.9585 87.0472 28.8885 86.9872 28.8285C86.9339 28.7618 86.8572 28.7018 86.7572 28.6485C86.6639 28.5951 86.5572 28.5485 86.4372 28.5085C86.3172 28.4618 86.1939 28.4118 86.0672 28.3585C85.9139 28.2985 85.7606 28.2285 85.6072 28.1485C85.4539 28.0685 85.3139 27.9718 85.1872 27.8585C85.0606 27.7385 84.9572 27.6018 84.8772 27.4485C84.7972 27.2885 84.7572 27.1051 84.7572 26.8985C84.7572 26.6718 84.8006 26.4618 84.8872 26.2685C84.9806 26.0751 85.1106 25.9118 85.2772 25.7785C85.4439 25.6451 85.6439 25.5418 85.8772 25.4685C86.1106 25.3885 86.3706 25.3485 86.6572 25.3485C87.0372 25.3485 87.3706 25.4151 87.6572 25.5485C87.9439 25.6751 88.1939 25.8185 88.4072 25.9785L87.7472 26.8585C87.5672 26.7251 87.3906 26.6218 87.2172 26.5485C87.0439 26.4751 86.8706 26.4385 86.6972 26.4385C86.3239 26.4385 86.1372 26.5685 86.1372 26.8285C86.1372 26.9085 86.1639 26.9785 86.2172 27.0385C86.2706 27.0918 86.3406 27.1418 86.4272 27.1885C86.5206 27.2351 86.6239 27.2818 86.7372 27.3285C86.8572 27.3685 86.9806 27.4118 87.1072 27.4585C87.2672 27.5185 87.4239 27.5885 87.5772 27.6685C87.7372 27.7418 87.8806 27.8351 88.0072 27.9485C88.1406 28.0618 88.2472 28.2018 88.3272 28.3685C88.4072 28.5285 88.4472 28.7218 88.4472 28.9485C88.4472 29.1751 88.4039 29.3851 88.3172 29.5785C88.2306 29.7718 88.1006 29.9418 87.9272 30.0885C87.7539 30.2285 87.5406 30.3418 87.2872 30.4285C87.0339 30.5085 86.7406 30.5485 86.4072 30.5485ZM90.2308 27.3085C89.9775 27.3085 89.7642 27.2218 89.5908 27.0485C89.4242 26.8685 89.3408 26.6485 89.3408 26.3885C89.3408 26.1218 89.4242 25.9018 89.5908 25.7285C89.7642 25.5485 89.9775 25.4585 90.2308 25.4585C90.4842 25.4585 90.6942 25.5485 90.8608 25.7285C91.0342 25.9018 91.1208 26.1218 91.1208 26.3885C91.1208 26.6485 91.0342 26.8685 90.8608 27.0485C90.6942 27.2218 90.4842 27.3085 90.2308 27.3085ZM90.2308 30.5485C89.9775 30.5485 89.7642 30.4618 89.5908 30.2885C89.4242 30.1085 89.3408 29.8885 89.3408 29.6285C89.3408 29.3618 89.4242 29.1418 89.5908 28.9685C89.7642 28.7885 89.9775 28.6985 90.2308 28.6985C90.4842 28.6985 90.6942 28.7885 90.8608 28.9685C91.0342 29.1418 91.1208 29.3618 91.1208 29.6285C91.1208 29.8885 91.0342 30.1085 90.8608 30.2885C90.6942 30.4618 90.4842 30.5485 90.2308 30.5485ZM95.7708 30.4285V25.1485H93.9808V23.9085H99.0408V25.1485H97.2508V30.4285H95.7708ZM102.424 30.5485C101.984 30.5485 101.581 30.4718 101.214 30.3185C100.854 30.1585 100.544 29.9318 100.284 29.6385C100.024 29.3451 99.8209 28.9885 99.6743 28.5685C99.5343 28.1485 99.4643 27.6718 99.4643 27.1385C99.4643 26.6051 99.5343 26.1318 99.6743 25.7185C99.8209 25.2985 100.024 24.9485 100.284 24.6685C100.544 24.3818 100.854 24.1651 101.214 24.0185C101.581 23.8651 101.984 23.7885 102.424 23.7885C102.864 23.7885 103.264 23.8651 103.624 24.0185C103.991 24.1651 104.304 24.3818 104.564 24.6685C104.824 24.9551 105.024 25.3085 105.164 25.7285C105.311 26.1418 105.384 26.6118 105.384 27.1385C105.384 27.6718 105.311 28.1485 105.164 28.5685C105.024 28.9885 104.824 29.3451 104.564 29.6385C104.304 29.9318 103.991 30.1585 103.624 30.3185C103.264 30.4718 102.864 30.5485 102.424 30.5485ZM102.424 29.2785C102.871 29.2785 103.224 29.0885 103.484 28.7085C103.744 28.3218 103.874 27.7985 103.874 27.1385C103.874 26.4851 103.744 25.9751 103.484 25.6085C103.224 25.2418 102.871 25.0585 102.424 25.0585C101.978 25.0585 101.624 25.2418 101.364 25.6085C101.104 25.9751 100.974 26.4851 100.974 27.1385C100.974 27.7985 101.104 28.3218 101.364 28.7085C101.624 29.0885 101.978 29.2785 102.424 29.2785ZM106.61 30.4285V23.9085H108.96C109.307 23.9085 109.63 23.9418 109.93 24.0085C110.237 24.0751 110.504 24.1885 110.73 24.3485C110.957 24.5018 111.137 24.7085 111.27 24.9685C111.404 25.2285 111.47 25.5518 111.47 25.9385C111.47 26.4185 111.364 26.8151 111.15 27.1285C110.944 27.4351 110.664 27.6651 110.31 27.8185L111.79 30.4285H110.14L108.89 28.0785H108.08V30.4285H106.61ZM108.08 26.9085H108.84C109.227 26.9085 109.52 26.8285 109.72 26.6685C109.927 26.5018 110.03 26.2585 110.03 25.9385C110.03 25.6185 109.927 25.3951 109.72 25.2685C109.52 25.1418 109.227 25.0785 108.84 25.0785H108.08V26.9085ZM114.405 28.4185V27.3785H116.865V28.4185H114.405ZM119.997 30.4285V29.2385H121.377V25.5685H120.187V24.6585C120.534 24.5918 120.827 24.5118 121.067 24.4185C121.307 24.3251 121.541 24.2118 121.767 24.0785H122.847V29.2385H124.037V30.4285H119.997ZM127.22 30.5485C126.88 30.5485 126.57 30.4785 126.29 30.3385C126.01 30.1918 125.77 29.9785 125.57 29.6985C125.377 29.4185 125.224 29.0718 125.11 28.6585C125.004 28.2451 124.95 27.7685 124.95 27.2285C124.95 26.6885 125.004 26.2151 125.11 25.8085C125.224 25.4018 125.377 25.0618 125.57 24.7885C125.77 24.5085 126.01 24.3018 126.29 24.1685C126.57 24.0285 126.88 23.9585 127.22 23.9585C127.56 23.9585 127.87 24.0285 128.15 24.1685C128.43 24.3018 128.667 24.5085 128.86 24.7885C129.06 25.0618 129.214 25.4018 129.32 25.8085C129.434 26.2151 129.49 26.6885 129.49 27.2285C129.49 27.7685 129.434 28.2451 129.32 28.6585C129.214 29.0718 129.06 29.4185 128.86 29.6985C128.667 29.9785 128.43 30.1918 128.15 30.3385C127.87 30.4785 127.56 30.5485 127.22 30.5485ZM127.22 29.4085C127.347 29.4085 127.464 29.3785 127.57 29.3185C127.677 29.2518 127.77 29.1351 127.85 28.9685C127.93 28.8018 127.99 28.5785 128.03 28.2985C128.077 28.0185 128.1 27.6618 128.1 27.2285C128.1 26.7951 128.077 26.4418 128.03 26.1685C127.99 25.8885 127.93 25.6718 127.85 25.5185C127.77 25.3585 127.677 25.2485 127.57 25.1885C127.464 25.1285 127.347 25.0985 127.22 25.0985C127.1 25.0985 126.987 25.1285 126.88 25.1885C126.774 25.2485 126.68 25.3585 126.6 25.5185C126.52 25.6718 126.457 25.8885 126.41 26.1685C126.364 26.4418 126.34 26.7951 126.34 27.2285C126.34 27.6618 126.364 28.0185 126.41 28.2985C126.457 28.5785 126.52 28.8018 126.6 28.9685C126.68 29.1351 126.774 29.2518 126.88 29.3185C126.987 29.3785 127.1 29.4085 127.22 29.4085ZM132.334 30.5485C131.814 30.5485 131.374 30.4651 131.014 30.2985C130.654 30.1251 130.347 29.9118 130.094 29.6585L130.754 28.7285C130.947 28.9018 131.154 29.0518 131.374 29.1785C131.6 29.2985 131.85 29.3585 132.124 29.3585C132.45 29.3585 132.71 29.2751 132.904 29.1085C133.097 28.9418 133.194 28.6951 133.194 28.3685C133.194 28.0485 133.1 27.8051 132.914 27.6385C132.734 27.4718 132.494 27.3885 132.194 27.3885C132.1 27.3885 132.017 27.3951 131.944 27.4085C131.87 27.4151 131.797 27.4318 131.724 27.4585C131.657 27.4851 131.584 27.5185 131.504 27.5585C131.43 27.5985 131.347 27.6485 131.254 27.7085L130.594 27.2885L130.774 24.0785H134.374V25.3185H132.044L131.934 26.5085C132.054 26.4551 132.167 26.4185 132.274 26.3985C132.387 26.3718 132.51 26.3585 132.644 26.3585C132.917 26.3585 133.174 26.3985 133.414 26.4785C133.66 26.5585 133.877 26.6785 134.064 26.8385C134.25 26.9985 134.397 27.2018 134.504 27.4485C134.61 27.6951 134.664 27.9885 134.664 28.3285C134.664 28.6818 134.6 28.9951 134.474 29.2685C134.347 29.5418 134.177 29.7751 133.964 29.9685C133.75 30.1551 133.5 30.2985 133.214 30.3985C132.934 30.4985 132.64 30.5485 132.334 30.5485ZM136.547 32.2185L135.627 31.8385C136 31.1851 136.27 30.5018 136.437 29.7885C136.604 29.0751 136.687 28.3618 136.687 27.6485C136.687 26.9351 136.604 26.2218 136.437 25.5085C136.27 24.7951 136 24.1118 135.627 23.4585L136.547 23.0785C136.967 23.7651 137.29 24.4785 137.517 25.2185C137.75 25.9585 137.867 26.7685 137.867 27.6485C137.867 28.5285 137.75 29.3385 137.517 30.0785C137.29 30.8185 136.967 31.5318 136.547 32.2185Z" fill="white"/>
<path d="M29.0592 44.12C28.6325 44.12 28.2059 44.0433 27.7792 43.89C27.3592 43.73 26.9825 43.4933 26.6492 43.18L27.4892 42.17C27.7225 42.37 27.9792 42.5333 28.2592 42.66C28.5459 42.7867 28.8259 42.85 29.0992 42.85C29.4059 42.85 29.6325 42.7933 29.7792 42.68C29.9325 42.5667 30.0092 42.4133 30.0092 42.22C30.0092 42.12 29.9859 42.0333 29.9392 41.96C29.8992 41.8867 29.8359 41.8233 29.7492 41.77C29.6692 41.71 29.5692 41.6567 29.4492 41.61C29.3359 41.5567 29.2092 41.5 29.0692 41.44L28.2192 41.08C28.0525 41.0133 27.8892 40.9267 27.7292 40.82C27.5759 40.7133 27.4359 40.59 27.3092 40.45C27.1892 40.3033 27.0925 40.1367 27.0192 39.95C26.9459 39.7567 26.9092 39.54 26.9092 39.3C26.9092 39.0333 26.9659 38.7833 27.0792 38.55C27.1925 38.31 27.3525 38.1033 27.5592 37.93C27.7659 37.75 28.0092 37.61 28.2892 37.51C28.5759 37.41 28.8892 37.36 29.2292 37.36C29.6092 37.36 29.9825 37.4333 30.3492 37.58C30.7225 37.7267 31.0492 37.94 31.3292 38.22L30.5792 39.15C30.3659 38.9833 30.1525 38.8567 29.9392 38.77C29.7259 38.6767 29.4892 38.63 29.2292 38.63C28.9759 38.63 28.7725 38.6833 28.6192 38.79C28.4725 38.89 28.3992 39.0333 28.3992 39.22C28.3992 39.32 28.4225 39.4067 28.4692 39.48C28.5225 39.5467 28.5925 39.61 28.6792 39.67C28.7725 39.7233 28.8792 39.7767 28.9992 39.83C29.1192 39.8767 29.2492 39.93 29.3892 39.99L30.2292 40.33C30.6292 40.49 30.9425 40.71 31.1692 40.99C31.4025 41.27 31.5192 41.64 31.5192 42.1C31.5192 42.3733 31.4625 42.6333 31.3492 42.88C31.2425 43.12 31.0825 43.3333 30.8692 43.52C30.6625 43.7 30.4059 43.8467 30.0992 43.96C29.7925 44.0667 29.4459 44.12 29.0592 44.12ZM33.7005 44V38.72H31.9105V37.48H36.9705V38.72H35.1805V44H33.7005ZM37.9872 44V37.48H39.4572V42.76H42.0372V44H37.9872ZM44.8249 41.99V40.95H47.2849V41.99H44.8249ZM50.4172 44V42.81H51.7972V39.14H50.6072V38.23C50.9538 38.1633 51.2472 38.0833 51.4872 37.99C51.7272 37.8967 51.9605 37.7833 52.1872 37.65H53.2672V42.81H54.4572V44H50.4172ZM55.7004 44V42.81H57.0804V39.14H55.8904V38.23C56.237 38.1633 56.5304 38.0833 56.7704 37.99C57.0104 37.8967 57.2437 37.7833 57.4704 37.65H58.5504V42.81H59.7404V44H55.7004ZM62.9236 44.12C62.5836 44.12 62.2736 44.05 61.9936 43.91C61.7136 43.7633 61.4736 43.55 61.2736 43.27C61.0802 42.99 60.9269 42.6433 60.8136 42.23C60.7069 41.8167 60.6536 41.34 60.6536 40.8C60.6536 40.26 60.7069 39.7867 60.8136 39.38C60.9269 38.9733 61.0802 38.6333 61.2736 38.36C61.4736 38.08 61.7136 37.8733 61.9936 37.74C62.2736 37.6 62.5836 37.53 62.9236 37.53C63.2636 37.53 63.5736 37.6 63.8536 37.74C64.1336 37.8733 64.3702 38.08 64.5636 38.36C64.7636 38.6333 64.9169 38.9733 65.0236 39.38C65.1369 39.7867 65.1936 40.26 65.1936 40.8C65.1936 41.34 65.1369 41.8167 65.0236 42.23C64.9169 42.6433 64.7636 42.99 64.5636 43.27C64.3702 43.55 64.1336 43.7633 63.8536 43.91C63.5736 44.05 63.2636 44.12 62.9236 44.12ZM62.9236 42.98C63.0502 42.98 63.1669 42.95 63.2736 42.89C63.3802 42.8233 63.4736 42.7067 63.5536 42.54C63.6336 42.3733 63.6936 42.15 63.7336 41.87C63.7802 41.59 63.8036 41.2333 63.8036 40.8C63.8036 40.3667 63.7802 40.0133 63.7336 39.74C63.6936 39.46 63.6336 39.2433 63.5536 39.09C63.4736 38.93 63.3802 38.82 63.2736 38.76C63.1669 38.7 63.0502 38.67 62.9236 38.67C62.8036 38.67 62.6902 38.7 62.5836 38.76C62.4769 38.82 62.3836 38.93 62.3036 39.09C62.2236 39.2433 62.1602 39.46 62.1136 39.74C62.0669 40.0133 62.0436 40.3667 62.0436 40.8C62.0436 41.2333 62.0669 41.59 62.1136 41.87C62.1602 42.15 62.2236 42.3733 62.3036 42.54C62.3836 42.7067 62.4769 42.8233 62.5836 42.89C62.6902 42.95 62.8036 42.98 62.9236 42.98ZM69.6087 45.79C69.1887 45.1033 68.8621 44.39 68.6287 43.65C68.4021 42.91 68.2887 42.1 68.2887 41.22C68.2887 40.34 68.4021 39.53 68.6287 38.79C68.8621 38.05 69.1887 37.3367 69.6087 36.65L70.5287 37.03C70.1621 37.6833 69.8954 38.3667 69.7287 39.08C69.5621 39.7933 69.4787 40.5067 69.4787 41.22C69.4787 41.9333 69.5621 42.6467 69.7287 43.36C69.8954 44.0733 70.1621 44.7567 70.5287 45.41L69.6087 45.79ZM72.3562 44L71.1462 37.48H72.6562L73.1062 40.53C73.1462 40.87 73.1896 41.2133 73.2362 41.56C73.2829 41.9 73.3262 42.2433 73.3662 42.59H73.4062C73.4729 42.2433 73.5362 41.9 73.5962 41.56C73.6629 41.2133 73.7296 40.87 73.7962 40.53L74.4962 37.48H75.7462L76.4462 40.53C76.5129 40.8633 76.5762 41.2033 76.6362 41.55C76.7029 41.89 76.7696 42.2367 76.8362 42.59H76.8762C76.9229 42.2367 76.9662 41.89 77.0062 41.55C77.0529 41.21 77.0996 40.87 77.1462 40.53L77.5962 37.48H79.0062L77.8462 44H75.9962L75.3562 41.04C75.3029 40.7867 75.2529 40.5333 75.2062 40.28C75.1662 40.02 75.1296 39.77 75.0962 39.53H75.0562C75.0162 39.77 74.9729 40.02 74.9262 40.28C74.8862 40.5333 74.8396 40.7867 74.7862 41.04L74.1762 44H72.3562ZM80.9238 44.12C80.6971 44.12 80.4905 44.08 80.3038 44C80.1238 43.9267 79.9705 43.8233 79.8438 43.69C79.7171 43.55 79.6171 43.39 79.5438 43.21C79.4771 43.03 79.4438 42.8333 79.4438 42.62C79.4438 42.1 79.6638 41.6933 80.1038 41.4C80.5438 41.1067 81.2538 40.91 82.2338 40.81C82.2205 40.59 82.1538 40.4167 82.0338 40.29C81.9205 40.1567 81.7271 40.09 81.4538 40.09C81.2405 40.09 81.0271 40.13 80.8138 40.21C80.6071 40.29 80.3838 40.4 80.1438 40.54L79.6138 39.57C79.9338 39.3767 80.2671 39.22 80.6138 39.1C80.9671 38.98 81.3405 38.92 81.7338 38.92C82.3738 38.92 82.8605 39.1033 83.1938 39.47C83.5338 39.83 83.7038 40.3933 83.7038 41.16V44H82.5038L82.4038 43.49H82.3638C82.1505 43.6767 81.9271 43.83 81.6938 43.95C81.4605 44.0633 81.2038 44.12 80.9238 44.12ZM81.4238 42.98C81.5905 42.98 81.7338 42.9433 81.8538 42.87C81.9738 42.7967 82.1005 42.6933 82.2338 42.56V41.69C81.7138 41.7633 81.3538 41.87 81.1538 42.01C80.9538 42.15 80.8538 42.3167 80.8538 42.51C80.8538 42.67 80.9038 42.79 81.0038 42.87C81.1105 42.9433 81.2505 42.98 81.4238 42.98ZM86.4072 44.12C86.0806 44.12 85.7439 44.0567 85.3972 43.93C85.0572 43.8033 84.7606 43.6367 84.5072 43.43L85.1672 42.51C85.3939 42.6833 85.6106 42.8133 85.8172 42.9C86.0239 42.9867 86.2339 43.03 86.4472 43.03C86.6672 43.03 86.8272 42.9933 86.9272 42.92C87.0272 42.8467 87.0772 42.7433 87.0772 42.61C87.0772 42.53 87.0472 42.46 86.9872 42.4C86.9339 42.3333 86.8572 42.2733 86.7572 42.22C86.6639 42.1667 86.5572 42.12 86.4372 42.08C86.3172 42.0333 86.1939 41.9833 86.0672 41.93C85.9139 41.87 85.7606 41.8 85.6072 41.72C85.4539 41.64 85.3139 41.5433 85.1872 41.43C85.0606 41.31 84.9572 41.1733 84.8772 41.02C84.7972 40.86 84.7572 40.6767 84.7572 40.47C84.7572 40.2433 84.8006 40.0333 84.8872 39.84C84.9806 39.6467 85.1106 39.4833 85.2772 39.35C85.4439 39.2167 85.6439 39.1133 85.8772 39.04C86.1106 38.96 86.3706 38.92 86.6572 38.92C87.0372 38.92 87.3706 38.9867 87.6572 39.12C87.9439 39.2467 88.1939 39.39 88.4072 39.55L87.7472 40.43C87.5672 40.2967 87.3906 40.1933 87.2172 40.12C87.0439 40.0467 86.8706 40.01 86.6972 40.01C86.3239 40.01 86.1372 40.14 86.1372 40.4C86.1372 40.48 86.1639 40.55 86.2172 40.61C86.2706 40.6633 86.3406 40.7133 86.4272 40.76C86.5206 40.8067 86.6239 40.8533 86.7372 40.9C86.8572 40.94 86.9806 40.9833 87.1072 41.03C87.2672 41.09 87.4239 41.16 87.5772 41.24C87.7372 41.3133 87.8806 41.4067 88.0072 41.52C88.1406 41.6333 88.2472 41.7733 88.3272 41.94C88.4072 42.1 88.4472 42.2933 88.4472 42.52C88.4472 42.7467 88.4039 42.9567 88.3172 43.15C88.2306 43.3433 88.1006 43.5133 87.9272 43.66C87.7539 43.8 87.5406 43.9133 87.2872 44C87.0339 44.08 86.7406 44.12 86.4072 44.12ZM90.2308 40.88C89.9775 40.88 89.7642 40.7933 89.5908 40.62C89.4242 40.44 89.3408 40.22 89.3408 39.96C89.3408 39.6933 89.4242 39.4733 89.5908 39.3C89.7642 39.12 89.9775 39.03 90.2308 39.03C90.4842 39.03 90.6942 39.12 90.8608 39.3C91.0342 39.4733 91.1208 39.6933 91.1208 39.96C91.1208 40.22 91.0342 40.44 90.8608 40.62C90.6942 40.7933 90.4842 40.88 90.2308 40.88ZM90.2308 44.12C89.9775 44.12 89.7642 44.0333 89.5908 43.86C89.4242 43.68 89.3408 43.46 89.3408 43.2C89.3408 42.9333 89.4242 42.7133 89.5908 42.54C89.7642 42.36 89.9775 42.27 90.2308 42.27C90.4842 42.27 90.6942 42.36 90.8608 42.54C91.0342 42.7133 91.1208 42.9333 91.1208 43.2C91.1208 43.46 91.0342 43.68 90.8608 43.86C90.6942 44.0333 90.4842 44.12 90.2308 44.12ZM96.4908 44.12C96.0642 44.12 95.6375 44.0433 95.2108 43.89C94.7908 43.73 94.4142 43.4933 94.0808 43.18L94.9208 42.17C95.1542 42.37 95.4108 42.5333 95.6908 42.66C95.9775 42.7867 96.2575 42.85 96.5308 42.85C96.8375 42.85 97.0642 42.7933 97.2108 42.68C97.3642 42.5667 97.4408 42.4133 97.4408 42.22C97.4408 42.12 97.4175 42.0333 97.3708 41.96C97.3308 41.8867 97.2675 41.8233 97.1808 41.77C97.1008 41.71 97.0008 41.6567 96.8808 41.61C96.7675 41.5567 96.6408 41.5 96.5008 41.44L95.6508 41.08C95.4842 41.0133 95.3208 40.9267 95.1608 40.82C95.0075 40.7133 94.8675 40.59 94.7408 40.45C94.6208 40.3033 94.5242 40.1367 94.4508 39.95C94.3775 39.7567 94.3408 39.54 94.3408 39.3C94.3408 39.0333 94.3975 38.7833 94.5108 38.55C94.6242 38.31 94.7842 38.1033 94.9908 37.93C95.1975 37.75 95.4408 37.61 95.7208 37.51C96.0075 37.41 96.3208 37.36 96.6608 37.36C97.0408 37.36 97.4142 37.4333 97.7808 37.58C98.1542 37.7267 98.4808 37.94 98.7608 38.22L98.0108 39.15C97.7975 38.9833 97.5842 38.8567 97.3708 38.77C97.1575 38.6767 96.9208 38.63 96.6608 38.63C96.4075 38.63 96.2042 38.6833 96.0508 38.79C95.9042 38.89 95.8308 39.0333 95.8308 39.22C95.8308 39.32 95.8542 39.4067 95.9008 39.48C95.9542 39.5467 96.0242 39.61 96.1108 39.67C96.2042 39.7233 96.3108 39.7767 96.4308 39.83C96.5508 39.8767 96.6808 39.93 96.8208 39.99L97.6608 40.33C98.0608 40.49 98.3742 40.71 98.6008 40.99C98.8342 41.27 98.9508 41.64 98.9508 42.1C98.9508 42.3733 98.8942 42.6333 98.7808 42.88C98.6742 43.12 98.5142 43.3333 98.3008 43.52C98.0942 43.7 97.8375 43.8467 97.5308 43.96C97.2242 44.0667 96.8775 44.12 96.4908 44.12ZM101.132 44V38.72H99.3422V37.48H104.402V38.72H102.612V44H101.132ZM105.419 44V37.48H106.889V42.76H109.469V44H105.419ZM112.257 41.99V40.95H114.717V41.99H112.257ZM117.849 44V42.81H119.229V39.14H118.039V38.23C118.385 38.1633 118.679 38.0833 118.919 37.99C119.159 37.8967 119.392 37.7833 119.619 37.65H120.699V42.81H121.889V44H117.849ZM123.132 44V42.81H124.512V39.14H123.322V38.23C123.669 38.1633 123.962 38.0833 124.202 37.99C124.442 37.8967 124.675 37.7833 124.902 37.65H125.982V42.81H127.172V44H123.132ZM130.355 44.12C130.015 44.12 129.705 44.05 129.425 43.91C129.145 43.7633 128.905 43.55 128.705 43.27C128.512 42.99 128.359 42.6433 128.245 42.23C128.139 41.8167 128.085 41.34 128.085 40.8C128.085 40.26 128.139 39.7867 128.245 39.38C128.359 38.9733 128.512 38.6333 128.705 38.36C128.905 38.08 129.145 37.8733 129.425 37.74C129.705 37.6 130.015 37.53 130.355 37.53C130.695 37.53 131.005 37.6 131.285 37.74C131.565 37.8733 131.802 38.08 131.995 38.36C132.195 38.6333 132.349 38.9733 132.455 39.38C132.569 39.7867 132.625 40.26 132.625 40.8C132.625 41.34 132.569 41.8167 132.455 42.23C132.349 42.6433 132.195 42.99 131.995 43.27C131.802 43.55 131.565 43.7633 131.285 43.91C131.005 44.05 130.695 44.12 130.355 44.12ZM130.355 42.98C130.482 42.98 130.599 42.95 130.705 42.89C130.812 42.8233 130.905 42.7067 130.985 42.54C131.065 42.3733 131.125 42.15 131.165 41.87C131.212 41.59 131.235 41.2333 131.235 40.8C131.235 40.3667 131.212 40.0133 131.165 39.74C131.125 39.46 131.065 39.2433 130.985 39.09C130.905 38.93 130.812 38.82 130.705 38.76C130.599 38.7 130.482 38.67 130.355 38.67C130.235 38.67 130.122 38.7 130.015 38.76C129.909 38.82 129.815 38.93 129.735 39.09C129.655 39.2433 129.592 39.46 129.545 39.74C129.499 40.0133 129.475 40.3667 129.475 40.8C129.475 41.2333 129.499 41.59 129.545 41.87C129.592 42.15 129.655 42.3733 129.735 42.54C129.815 42.7067 129.909 42.8233 130.015 42.89C130.122 42.95 130.235 42.98 130.355 42.98ZM134.398 45.79L133.478 45.41C133.852 44.7567 134.122 44.0733 134.288 43.36C134.455 42.6467 134.538 41.9333 134.538 41.22C134.538 40.5067 134.455 39.7933 134.288 39.08C134.122 38.3667 133.852 37.6833 133.478 37.03L134.398 36.65C134.818 37.3367 135.142 38.05 135.368 38.79C135.602 39.53 135.718 40.34 135.718 41.22C135.718 42.1 135.602 42.91 135.368 43.65C135.142 44.39 134.818 45.1033 134.398 45.79Z" fill="white"/>
</svg>
