<svg width="162" height="40" viewBox="0 0 162 40" fill="none" xmlns="http://www.w3.org/2000/svg">
<g clip-path="url(#clip0)">
<rect width="162" height="40" rx="9" fill="#242424"/>
</g>
<path d="M48.115 17V10.48H50.345C50.685 10.48 50.9983 10.5067 51.285 10.56C51.5783 10.6067 51.8316 10.6933 52.045 10.82C52.265 10.9467 52.435 11.1133 52.555 11.32C52.6816 11.5267 52.745 11.7867 52.745 12.1C52.745 12.2467 52.725 12.3933 52.685 12.54C52.645 12.6867 52.5883 12.8233 52.515 12.95C52.4416 13.0767 52.3516 13.19 52.245 13.29C52.145 13.39 52.0283 13.4633 51.895 13.51V13.55C52.0616 13.59 52.215 13.6533 52.355 13.74C52.495 13.82 52.6183 13.9233 52.725 14.05C52.8316 14.1767 52.915 14.3267 52.975 14.5C53.035 14.6667 53.065 14.86 53.065 15.08C53.065 15.4133 52.9983 15.7 52.865 15.94C52.7383 16.18 52.5583 16.38 52.325 16.54C52.0983 16.6933 51.8316 16.81 51.525 16.89C51.2183 16.9633 50.8883 17 50.535 17H48.115ZM49.585 13.09H50.275C50.635 13.09 50.895 13.02 51.055 12.88C51.2216 12.74 51.305 12.5533 51.305 12.32C51.305 12.0667 51.2216 11.8867 51.055 11.78C50.8883 11.6733 50.6316 11.62 50.285 11.62H49.585V13.09ZM49.585 15.86H50.415C51.2216 15.86 51.625 15.5667 51.625 14.98C51.625 14.6933 51.525 14.49 51.325 14.37C51.125 14.2433 50.8216 14.18 50.415 14.18H49.585V15.86ZM56.2697 17.12C55.9163 17.12 55.5863 17.0633 55.2797 16.95C54.973 16.83 54.7063 16.66 54.4797 16.44C54.253 16.2133 54.0763 15.94 53.9497 15.62C53.823 15.3 53.7597 14.9333 53.7597 14.52C53.7597 14.12 53.8263 13.76 53.9597 13.44C54.093 13.1133 54.2663 12.84 54.4797 12.62C54.6997 12.3933 54.9497 12.22 55.2297 12.1C55.5097 11.98 55.7997 11.92 56.0997 11.92C56.453 11.92 56.7597 11.98 57.0197 12.1C57.2863 12.22 57.5063 12.3867 57.6797 12.6C57.8597 12.8133 57.993 13.0667 58.0797 13.36C58.1663 13.6467 58.2097 13.96 58.2097 14.3C58.2097 14.4333 58.203 14.56 58.1897 14.68C58.1763 14.8 58.163 14.89 58.1497 14.95H55.1797C55.2463 15.31 55.393 15.5767 55.6197 15.75C55.853 15.9167 56.1363 16 56.4697 16C56.823 16 57.1797 15.89 57.5397 15.67L58.0297 16.56C57.7763 16.7333 57.493 16.87 57.1797 16.97C56.873 17.07 56.5697 17.12 56.2697 17.12ZM55.1697 13.98H56.9597C56.9597 13.7 56.8963 13.4733 56.7697 13.3C56.643 13.1267 56.4297 13.04 56.1297 13.04C55.8963 13.04 55.6897 13.1167 55.5097 13.27C55.3363 13.4233 55.223 13.66 55.1697 13.98ZM60.8978 19.11C60.6044 19.11 60.3311 19.0833 60.0778 19.03C59.8311 18.9833 59.6111 18.91 59.4178 18.81C59.2311 18.71 59.0844 18.58 58.9778 18.42C58.8711 18.26 58.8178 18.07 58.8178 17.85C58.8178 17.45 59.0544 17.1167 59.5278 16.85V16.81C59.3944 16.7233 59.2844 16.6133 59.1978 16.48C59.1111 16.3467 59.0678 16.1767 59.0678 15.97C59.0678 15.79 59.1211 15.62 59.2278 15.46C59.3344 15.2933 59.4678 15.1533 59.6278 15.04V15C59.4544 14.88 59.2978 14.71 59.1578 14.49C59.0244 14.2633 58.9578 14.0033 58.9578 13.71C58.9578 13.41 59.0144 13.15 59.1278 12.93C59.2411 12.7033 59.3911 12.5167 59.5778 12.37C59.7711 12.2167 59.9911 12.1033 60.2378 12.03C60.4844 11.9567 60.7411 11.92 61.0078 11.92C61.3011 11.92 61.5578 11.96 61.7778 12.04H63.5878V13.11H62.7978C62.8444 13.1833 62.8811 13.2767 62.9078 13.39C62.9411 13.5033 62.9578 13.6267 62.9578 13.76C62.9578 14.0467 62.9078 14.2967 62.8078 14.51C62.7078 14.7167 62.5678 14.89 62.3878 15.03C62.2144 15.1633 62.0078 15.2633 61.7678 15.33C61.5344 15.3967 61.2811 15.43 61.0078 15.43C60.8144 15.43 60.6144 15.3967 60.4078 15.33C60.3411 15.3833 60.2944 15.4367 60.2678 15.49C60.2411 15.5433 60.2278 15.6133 60.2278 15.7C60.2278 15.8267 60.2811 15.92 60.3878 15.98C60.5011 16.04 60.6978 16.07 60.9778 16.07H61.7778C62.3911 16.07 62.8578 16.17 63.1778 16.37C63.5044 16.5633 63.6678 16.8833 63.6678 17.33C63.6678 17.59 63.6011 17.8267 63.4678 18.04C63.3411 18.26 63.1578 18.4467 62.9178 18.6C62.6778 18.76 62.3878 18.8833 62.0478 18.97C61.7078 19.0633 61.3244 19.11 60.8978 19.11ZM61.0078 14.54C61.2011 14.54 61.3611 14.4733 61.4878 14.34C61.6211 14.2 61.6878 13.99 61.6878 13.71C61.6878 13.45 61.6211 13.2533 61.4878 13.12C61.3611 12.98 61.2011 12.91 61.0078 12.91C60.8144 12.91 60.6511 12.9767 60.5178 13.11C60.3911 13.2433 60.3278 13.4433 60.3278 13.71C60.3278 13.99 60.3911 14.2 60.5178 14.34C60.6511 14.4733 60.8144 14.54 61.0078 14.54ZM61.1278 18.19C61.4611 18.19 61.7344 18.13 61.9478 18.01C62.1611 17.8967 62.2678 17.7533 62.2678 17.58C62.2678 17.4267 62.2011 17.3233 62.0678 17.27C61.9411 17.2167 61.7544 17.19 61.5078 17.19H60.9978C60.8244 17.19 60.6844 17.1833 60.5778 17.17C60.4711 17.1633 60.3778 17.15 60.2978 17.13C60.1178 17.29 60.0278 17.4533 60.0278 17.62C60.0278 17.8067 60.1278 17.9467 60.3278 18.04C60.5278 18.14 60.7944 18.19 61.1278 18.19ZM65.3196 17.12C65.0662 17.12 64.8529 17.0333 64.6796 16.86C64.5129 16.68 64.4296 16.46 64.4296 16.2C64.4296 15.9333 64.5129 15.7133 64.6796 15.54C64.8529 15.36 65.0662 15.27 65.3196 15.27C65.5729 15.27 65.7829 15.36 65.9496 15.54C66.1229 15.7133 66.2096 15.9333 66.2096 16.2C66.2096 16.46 66.1229 16.68 65.9496 16.86C65.7829 17.0333 65.5729 17.12 65.3196 17.12ZM71.3396 13.58C71.5062 13.58 71.6729 13.5333 71.8396 13.44C72.0129 13.34 72.1629 13.1767 72.2896 12.95C72.2229 12.45 72.0962 12.1067 71.9096 11.92C71.7296 11.7267 71.5262 11.63 71.2996 11.63C71.0862 11.63 70.8996 11.7133 70.7396 11.88C70.5796 12.04 70.4996 12.3 70.4996 12.66C70.4996 13 70.5796 13.24 70.7396 13.38C70.8996 13.5133 71.0996 13.58 71.3396 13.58ZM71.1096 17.12C70.6896 17.12 70.3229 17.0433 70.0096 16.89C69.7029 16.7367 69.4496 16.56 69.2496 16.36L70.0296 15.48C70.1362 15.6 70.2796 15.7067 70.4596 15.8C70.6396 15.8867 70.8229 15.93 71.0096 15.93C71.1896 15.93 71.3562 15.8967 71.5096 15.83C71.6629 15.7633 71.7962 15.6533 71.9096 15.5C72.0296 15.34 72.1229 15.1367 72.1896 14.89C72.2629 14.6367 72.3062 14.3233 72.3196 13.95C72.2396 14.0567 72.1462 14.1533 72.0396 14.24C71.9329 14.32 71.8229 14.39 71.7096 14.45C71.5962 14.5033 71.4829 14.5467 71.3696 14.58C71.2562 14.6067 71.1496 14.62 71.0496 14.62C70.7762 14.62 70.5229 14.58 70.2896 14.5C70.0629 14.42 69.8662 14.3 69.6996 14.14C69.5329 13.98 69.3996 13.7767 69.2996 13.53C69.2062 13.2833 69.1596 12.9933 69.1596 12.66C69.1596 12.3333 69.2162 12.04 69.3296 11.78C69.4429 11.5133 69.5929 11.2867 69.7796 11.1C69.9729 10.9133 70.1962 10.7733 70.4496 10.68C70.7096 10.58 70.9829 10.53 71.2696 10.53C71.5762 10.53 71.8729 10.59 72.1596 10.71C72.4529 10.83 72.7096 11.0167 72.9296 11.27C73.1562 11.5233 73.3362 11.85 73.4696 12.25C73.6096 12.6433 73.6796 13.12 73.6796 13.68C73.6796 14.2733 73.6062 14.7867 73.4596 15.22C73.3196 15.6533 73.1296 16.01 72.8896 16.29C72.6562 16.57 72.3829 16.78 72.0696 16.92C71.7629 17.0533 71.4429 17.12 71.1096 17.12ZM76.6628 17.12C76.3561 17.12 76.0928 17.0733 75.8728 16.98C75.6594 16.8867 75.4828 16.7567 75.3428 16.59C75.2094 16.4233 75.1094 16.2233 75.0428 15.99C74.9828 15.75 74.9528 15.4867 74.9528 15.2V13.19H74.2728V12.1L75.0328 12.04L75.2028 10.72H76.4228V12.04H77.6128V13.19H76.4228V15.18C76.4228 15.46 76.4794 15.6633 76.5928 15.79C76.7128 15.91 76.8694 15.97 77.0628 15.97C77.1428 15.97 77.2228 15.96 77.3028 15.94C77.3894 15.92 77.4661 15.8967 77.5328 15.87L77.7628 16.94C77.6294 16.98 77.4728 17.02 77.2928 17.06C77.1128 17.1 76.9028 17.12 76.6628 17.12ZM78.5809 17V9.99H80.0509V11.71L79.9809 12.6C80.1676 12.4333 80.3842 12.28 80.6309 12.14C80.8776 11.9933 81.1709 11.92 81.5109 11.92C82.0509 11.92 82.4409 12.0967 82.6809 12.45C82.9276 12.8033 83.0509 13.2933 83.0509 13.92V17H81.5809V14.11C81.5809 13.75 81.5309 13.5033 81.4309 13.37C81.3376 13.2367 81.1842 13.17 80.9709 13.17C80.7842 13.17 80.6242 13.2133 80.4909 13.3C80.3576 13.38 80.2109 13.4967 80.0509 13.65V17H78.5809ZM86.2957 17V12.04H87.7657V17H86.2957ZM87.0257 11.31C86.7791 11.31 86.5757 11.24 86.4157 11.1C86.2557 10.9533 86.1757 10.7667 86.1757 10.54C86.1757 10.3133 86.2557 10.13 86.4157 9.99C86.5757 9.85 86.7791 9.78 87.0257 9.78C87.2791 9.78 87.4824 9.85 87.6357 9.99C87.7957 10.13 87.8757 10.3133 87.8757 10.54C87.8757 10.7667 87.7957 10.9533 87.6357 11.1C87.4824 11.24 87.2791 11.31 87.0257 11.31ZM89.0594 17V12.04H90.2594L90.3594 12.67H90.3994C90.6127 12.47 90.8461 12.2967 91.0994 12.15C91.3527 11.9967 91.6494 11.92 91.9894 11.92C92.5294 11.92 92.9194 12.0967 93.1594 12.45C93.4061 12.8033 93.5294 13.2933 93.5294 13.92V17H92.0594V14.11C92.0594 13.75 92.0094 13.5033 91.9094 13.37C91.8161 13.2367 91.6627 13.17 91.4494 13.17C91.2627 13.17 91.1027 13.2133 90.9694 13.3C90.8361 13.38 90.6894 13.4967 90.5294 13.65V17H89.0594ZM94.7821 17V12.04H95.9821L96.0821 12.67H96.1221C96.3354 12.47 96.5687 12.2967 96.8221 12.15C97.0754 11.9967 97.3721 11.92 97.7121 11.92C98.2521 11.92 98.6421 12.0967 98.8821 12.45C99.1287 12.8033 99.2521 13.2933 99.2521 13.92V17H97.7821V14.11C97.7821 13.75 97.7321 13.5033 97.6321 13.37C97.5387 13.2367 97.3854 13.17 97.1721 13.17C96.9854 13.17 96.8254 13.2133 96.6921 13.3C96.5587 13.38 96.4121 13.4967 96.2521 13.65V17H94.7821ZM100.505 17V12.04H101.975V17H100.505ZM101.235 11.31C100.988 11.31 100.785 11.24 100.625 11.1C100.465 10.9533 100.385 10.7667 100.385 10.54C100.385 10.3133 100.465 10.13 100.625 9.99C100.785 9.85 100.988 9.78 101.235 9.78C101.488 9.78 101.691 9.85 101.845 9.99C102.005 10.13 102.085 10.3133 102.085 10.54C102.085 10.7667 102.005 10.9533 101.845 11.1C101.691 11.24 101.488 11.31 101.235 11.31ZM103.268 17V12.04H104.468L104.568 12.67H104.608C104.822 12.47 105.055 12.2967 105.308 12.15C105.562 11.9967 105.858 11.92 106.198 11.92C106.738 11.92 107.128 12.0967 107.368 12.45C107.615 12.8033 107.738 13.2933 107.738 13.92V17H106.268V14.11C106.268 13.75 106.218 13.5033 106.118 13.37C106.025 13.2367 105.872 13.17 105.658 13.17C105.472 13.17 105.312 13.2133 105.178 13.3C105.045 13.38 104.898 13.4967 104.738 13.65V17H103.268ZM110.761 19.11C110.468 19.11 110.194 19.0833 109.941 19.03C109.694 18.9833 109.474 18.91 109.281 18.81C109.094 18.71 108.948 18.58 108.841 18.42C108.734 18.26 108.681 18.07 108.681 17.85C108.681 17.45 108.918 17.1167 109.391 16.85V16.81C109.258 16.7233 109.148 16.6133 109.061 16.48C108.974 16.3467 108.931 16.1767 108.931 15.97C108.931 15.79 108.984 15.62 109.091 15.46C109.198 15.2933 109.331 15.1533 109.491 15.04V15C109.318 14.88 109.161 14.71 109.021 14.49C108.888 14.2633 108.821 14.0033 108.821 13.71C108.821 13.41 108.878 13.15 108.991 12.93C109.104 12.7033 109.254 12.5167 109.441 12.37C109.634 12.2167 109.854 12.1033 110.101 12.03C110.348 11.9567 110.604 11.92 110.871 11.92C111.164 11.92 111.421 11.96 111.641 12.04H113.451V13.11H112.661C112.708 13.1833 112.744 13.2767 112.771 13.39C112.804 13.5033 112.821 13.6267 112.821 13.76C112.821 14.0467 112.771 14.2967 112.671 14.51C112.571 14.7167 112.431 14.89 112.251 15.03C112.078 15.1633 111.871 15.2633 111.631 15.33C111.398 15.3967 111.144 15.43 110.871 15.43C110.678 15.43 110.478 15.3967 110.271 15.33C110.204 15.3833 110.158 15.4367 110.131 15.49C110.104 15.5433 110.091 15.6133 110.091 15.7C110.091 15.8267 110.144 15.92 110.251 15.98C110.364 16.04 110.561 16.07 110.841 16.07H111.641C112.254 16.07 112.721 16.17 113.041 16.37C113.368 16.5633 113.531 16.8833 113.531 17.33C113.531 17.59 113.464 17.8267 113.331 18.04C113.204 18.26 113.021 18.4467 112.781 18.6C112.541 18.76 112.251 18.8833 111.911 18.97C111.571 19.0633 111.188 19.11 110.761 19.11ZM110.871 14.54C111.064 14.54 111.224 14.4733 111.351 14.34C111.484 14.2 111.551 13.99 111.551 13.71C111.551 13.45 111.484 13.2533 111.351 13.12C111.224 12.98 111.064 12.91 110.871 12.91C110.678 12.91 110.514 12.9767 110.381 13.11C110.254 13.2433 110.191 13.4433 110.191 13.71C110.191 13.99 110.254 14.2 110.381 14.34C110.514 14.4733 110.678 14.54 110.871 14.54ZM110.991 18.19C111.324 18.19 111.598 18.13 111.811 18.01C112.024 17.8967 112.131 17.7533 112.131 17.58C112.131 17.4267 112.064 17.3233 111.931 17.27C111.804 17.2167 111.618 17.19 111.371 17.19H110.861C110.688 17.19 110.548 17.1833 110.441 17.17C110.334 17.1633 110.241 17.15 110.161 17.13C109.981 17.29 109.891 17.4533 109.891 17.62C109.891 17.8067 109.991 17.9467 110.191 18.04C110.391 18.14 110.658 18.19 110.991 18.19ZM53.9309 30V24.72H52.1409V23.48H57.2009V24.72H55.4109V30H53.9309ZM60.5843 30.12C60.1443 30.12 59.741 30.0433 59.3743 29.89C59.0143 29.73 58.7043 29.5033 58.4443 29.21C58.1843 28.9167 57.981 28.56 57.8343 28.14C57.6943 27.72 57.6243 27.2433 57.6243 26.71C57.6243 26.1767 57.6943 25.7033 57.8343 25.29C57.981 24.87 58.1843 24.52 58.4443 24.24C58.7043 23.9533 59.0143 23.7367 59.3743 23.59C59.741 23.4367 60.1443 23.36 60.5843 23.36C61.0243 23.36 61.4243 23.4367 61.7843 23.59C62.151 23.7367 62.4643 23.9533 62.7243 24.24C62.9843 24.5267 63.1843 24.88 63.3243 25.3C63.471 25.7133 63.5443 26.1833 63.5443 26.71C63.5443 27.2433 63.471 27.72 63.3243 28.14C63.1843 28.56 62.9843 28.9167 62.7243 29.21C62.4643 29.5033 62.151 29.73 61.7843 29.89C61.4243 30.0433 61.0243 30.12 60.5843 30.12ZM60.5843 28.85C61.031 28.85 61.3843 28.66 61.6443 28.28C61.9043 27.8933 62.0343 27.37 62.0343 26.71C62.0343 26.0567 61.9043 25.5467 61.6443 25.18C61.3843 24.8133 61.031 24.63 60.5843 24.63C60.1376 24.63 59.7843 24.8133 59.5243 25.18C59.2643 25.5467 59.1343 26.0567 59.1343 26.71C59.1343 27.37 59.2643 27.8933 59.5243 28.28C59.7843 28.66 60.1376 28.85 60.5843 28.85ZM64.7702 30V23.48H67.1202C67.4669 23.48 67.7902 23.5133 68.0902 23.58C68.3969 23.6467 68.6636 23.76 68.8902 23.92C69.1169 24.0733 69.2969 24.28 69.4302 24.54C69.5636 24.8 69.6302 25.1233 69.6302 25.51C69.6302 25.99 69.5236 26.3867 69.3102 26.7C69.1036 27.0067 68.8236 27.2367 68.4702 27.39L69.9502 30H68.3002L67.0502 27.65H66.2402V30H64.7702ZM66.2402 26.48H67.0002C67.3869 26.48 67.6802 26.4 67.8802 26.24C68.0869 26.0733 68.1902 25.83 68.1902 25.51C68.1902 25.19 68.0869 24.9667 67.8802 24.84C67.6802 24.7133 67.3869 24.65 67.0002 24.65H66.2402V26.48ZM74.605 30.12C74.085 30.12 73.645 30.0367 73.285 29.87C72.925 29.6967 72.6183 29.4833 72.365 29.23L73.025 28.3C73.2183 28.4733 73.425 28.6233 73.645 28.75C73.8717 28.87 74.1217 28.93 74.395 28.93C74.7217 28.93 74.9817 28.8467 75.175 28.68C75.3683 28.5133 75.465 28.2667 75.465 27.94C75.465 27.62 75.3717 27.3767 75.185 27.21C75.005 27.0433 74.765 26.96 74.465 26.96C74.3717 26.96 74.2883 26.9667 74.215 26.98C74.1417 26.9867 74.0683 27.0033 73.995 27.03C73.9283 27.0567 73.855 27.09 73.775 27.13C73.7017 27.17 73.6183 27.22 73.525 27.28L72.865 26.86L73.045 23.65H76.645V24.89H74.315L74.205 26.08C74.325 26.0267 74.4383 25.99 74.545 25.97C74.6583 25.9433 74.7817 25.93 74.915 25.93C75.1883 25.93 75.445 25.97 75.685 26.05C75.9317 26.13 76.1483 26.25 76.335 26.41C76.5217 26.57 76.6683 26.7733 76.775 27.02C76.8817 27.2667 76.935 27.56 76.935 27.9C76.935 28.2533 76.8717 28.5667 76.745 28.84C76.6183 29.1133 76.4483 29.3467 76.235 29.54C76.0217 29.7267 75.7717 29.87 75.485 29.97C75.205 30.07 74.9117 30.12 74.605 30.12ZM78.1782 31.94L77.8782 31.16C78.2515 31.0267 78.5349 30.8533 78.7282 30.64C78.9215 30.4267 79.0149 30.1933 79.0082 29.94H78.9282C78.6949 29.94 78.4882 29.87 78.3082 29.73C78.1282 29.5833 78.0382 29.3767 78.0382 29.11C78.0382 28.8567 78.1282 28.6533 78.3082 28.5C78.4882 28.3467 78.7049 28.27 78.9582 28.27C79.2915 28.27 79.5449 28.3933 79.7182 28.64C79.8915 28.88 79.9782 29.22 79.9782 29.66C79.9782 30.2133 79.8249 30.6867 79.5182 31.08C79.2115 31.48 78.7649 31.7667 78.1782 31.94ZM85.9082 30.12C85.4949 30.12 85.1049 30.05 84.7382 29.91C84.3715 29.7633 84.0482 29.55 83.7682 29.27C83.4949 28.99 83.2782 28.6433 83.1182 28.23C82.9582 27.81 82.8782 27.3267 82.8782 26.78C82.8782 26.24 82.9615 25.76 83.1282 25.34C83.2949 24.9133 83.5182 24.5533 83.7982 24.26C84.0782 23.9667 84.4049 23.7433 84.7782 23.59C85.1515 23.4367 85.5449 23.36 85.9582 23.36C86.3782 23.36 86.7549 23.4467 87.0882 23.62C87.4215 23.7867 87.6982 23.9833 87.9182 24.21L87.1382 25.15C86.9715 24.9967 86.7949 24.8733 86.6082 24.78C86.4282 24.68 86.2215 24.63 85.9882 24.63C85.7682 24.63 85.5582 24.68 85.3582 24.78C85.1649 24.8733 84.9949 25.01 84.8482 25.19C84.7082 25.37 84.5949 25.59 84.5082 25.85C84.4282 26.11 84.3882 26.4033 84.3882 26.73C84.3882 27.4033 84.5315 27.9267 84.8182 28.3C85.1049 28.6667 85.4882 28.85 85.9682 28.85C86.2349 28.85 86.4715 28.7933 86.6782 28.68C86.8915 28.56 87.0782 28.4133 87.2382 28.24L88.0182 29.16C87.4715 29.8 86.7682 30.12 85.9082 30.12ZM89.5104 30L88.3004 23.48H89.8104L90.2604 26.53C90.3004 26.87 90.3437 27.2133 90.3904 27.56C90.4371 27.9 90.4804 28.2433 90.5204 28.59H90.5604C90.6271 28.2433 90.6904 27.9 90.7504 27.56C90.8171 27.2133 90.8837 26.87 90.9504 26.53L91.6504 23.48H92.9004L93.6004 26.53C93.6671 26.8633 93.7304 27.2033 93.7904 27.55C93.8571 27.89 93.9237 28.2367 93.9904 28.59H94.0304C94.0771 28.2367 94.1204 27.89 94.1604 27.55C94.2071 27.21 94.2537 26.87 94.3004 26.53L94.7504 23.48H96.1604L95.0004 30H93.1504L92.5104 27.04C92.4571 26.7867 92.4071 26.5333 92.3604 26.28C92.3204 26.02 92.2837 25.77 92.2504 25.53H92.2104C92.1704 25.77 92.1271 26.02 92.0804 26.28C92.0404 26.5333 91.9937 26.7867 91.9404 27.04L91.3304 30H89.5104ZM99.0552 30.12C98.6285 30.12 98.2018 30.0433 97.7752 29.89C97.3552 29.73 96.9785 29.4933 96.6452 29.18L97.4852 28.17C97.7185 28.37 97.9752 28.5333 98.2552 28.66C98.5418 28.7867 98.8218 28.85 99.0952 28.85C99.4018 28.85 99.6285 28.7933 99.7752 28.68C99.9285 28.5667 100.005 28.4133 100.005 28.22C100.005 28.12 99.9818 28.0333 99.9352 27.96C99.8952 27.8867 99.8318 27.8233 99.7452 27.77C99.6652 27.71 99.5652 27.6567 99.4452 27.61C99.3318 27.5567 99.2052 27.5 99.0652 27.44L98.2152 27.08C98.0485 27.0133 97.8852 26.9267 97.7252 26.82C97.5718 26.7133 97.4318 26.59 97.3052 26.45C97.1852 26.3033 97.0885 26.1367 97.0152 25.95C96.9418 25.7567 96.9052 25.54 96.9052 25.3C96.9052 25.0333 96.9618 24.7833 97.0752 24.55C97.1885 24.31 97.3485 24.1033 97.5552 23.93C97.7618 23.75 98.0052 23.61 98.2852 23.51C98.5718 23.41 98.8852 23.36 99.2252 23.36C99.6052 23.36 99.9785 23.4333 100.345 23.58C100.718 23.7267 101.045 23.94 101.325 24.22L100.575 25.15C100.362 24.9833 100.148 24.8567 99.9352 24.77C99.7218 24.6767 99.4852 24.63 99.2252 24.63C98.9718 24.63 98.7685 24.6833 98.6152 24.79C98.4685 24.89 98.3952 25.0333 98.3952 25.22C98.3952 25.32 98.4185 25.4067 98.4652 25.48C98.5185 25.5467 98.5885 25.61 98.6752 25.67C98.7685 25.7233 98.8752 25.7767 98.9952 25.83C99.1152 25.8767 99.2452 25.93 99.3852 25.99L100.225 26.33C100.625 26.49 100.938 26.71 101.165 26.99C101.398 27.27 101.515 27.64 101.515 28.1C101.515 28.3733 101.458 28.6333 101.345 28.88C101.238 29.12 101.078 29.3333 100.865 29.52C100.658 29.7 100.402 29.8467 100.095 29.96C99.7885 30.0667 99.4418 30.12 99.0552 30.12ZM106.324 30.12C105.804 30.12 105.364 30.0367 105.004 29.87C104.644 29.6967 104.337 29.4833 104.084 29.23L104.744 28.3C104.937 28.4733 105.144 28.6233 105.364 28.75C105.59 28.87 105.84 28.93 106.114 28.93C106.44 28.93 106.7 28.8467 106.894 28.68C107.087 28.5133 107.184 28.2667 107.184 27.94C107.184 27.62 107.09 27.3767 106.904 27.21C106.724 27.0433 106.484 26.96 106.184 26.96C106.09 26.96 106.007 26.9667 105.934 26.98C105.86 26.9867 105.787 27.0033 105.714 27.03C105.647 27.0567 105.574 27.09 105.494 27.13C105.42 27.17 105.337 27.22 105.244 27.28L104.584 26.86L104.764 23.65H108.364V24.89H106.034L105.924 26.08C106.044 26.0267 106.157 25.99 106.264 25.97C106.377 25.9433 106.5 25.93 106.634 25.93C106.907 25.93 107.164 25.97 107.404 26.05C107.65 26.13 107.867 26.25 108.054 26.41C108.24 26.57 108.387 26.7733 108.494 27.02C108.6 27.2667 108.654 27.56 108.654 27.9C108.654 28.2533 108.59 28.5667 108.464 28.84C108.337 29.1133 108.167 29.3467 107.954 29.54C107.74 29.7267 107.49 29.87 107.204 29.97C106.924 30.07 106.63 30.12 106.324 30.12Z" fill="white"/>
<defs>
<clipPath id="clip0">
<rect width="162" height="40" rx="9" fill="white"/>
</clipPath>
</defs>
</svg>
