<svg width="162" height="23" viewBox="0 0 162 23" fill="none" xmlns="http://www.w3.org/2000/svg">
<g clip-path="url(#clip0)">
<rect width="162" height="23" rx="9" fill="#242424"/>
</g>
<path d="M37.1557 15V8.48H38.6257V10.99H40.8757V8.48H42.3557V15H40.8757V12.28H38.6257V15H37.1557ZM45.994 15.12C45.6407 15.12 45.3107 15.0633 45.004 14.95C44.6974 14.83 44.4307 14.66 44.204 14.44C43.9774 14.2133 43.8007 13.94 43.674 13.62C43.5474 13.3 43.484 12.9333 43.484 12.52C43.484 12.12 43.5507 11.76 43.684 11.44C43.8174 11.1133 43.9907 10.84 44.204 10.62C44.424 10.3933 44.674 10.22 44.954 10.1C45.234 9.98 45.524 9.92 45.824 9.92C46.1774 9.92 46.484 9.98 46.744 10.1C47.0107 10.22 47.2307 10.3867 47.404 10.6C47.584 10.8133 47.7174 11.0667 47.804 11.36C47.8907 11.6467 47.934 11.96 47.934 12.3C47.934 12.4333 47.9274 12.56 47.914 12.68C47.9007 12.8 47.8874 12.89 47.874 12.95H44.904C44.9707 13.31 45.1174 13.5767 45.344 13.75C45.5774 13.9167 45.8607 14 46.194 14C46.5474 14 46.904 13.89 47.264 13.67L47.754 14.56C47.5007 14.7333 47.2174 14.87 46.904 14.97C46.5974 15.07 46.294 15.12 45.994 15.12ZM44.894 11.98H46.684C46.684 11.7 46.6207 11.4733 46.494 11.3C46.3674 11.1267 46.154 11.04 45.854 11.04C45.6207 11.04 45.414 11.1167 45.234 11.27C45.0607 11.4233 44.9474 11.66 44.894 11.98ZM48.9498 15V10.04H50.1498L50.2498 10.91H50.2898C50.4698 10.57 50.6865 10.32 50.9398 10.16C51.1931 10 51.4465 9.92 51.6998 9.92C51.8398 9.92 51.9531 9.93 52.0398 9.95C52.1331 9.96333 52.2165 9.98667 52.2898 10.02L52.0498 11.29C51.9565 11.2633 51.8698 11.2433 51.7898 11.23C51.7098 11.2167 51.6165 11.21 51.5098 11.21C51.3231 11.21 51.1265 11.2767 50.9198 11.41C50.7198 11.5433 50.5531 11.78 50.4198 12.12V15H48.9498ZM52.9342 15V10.04H54.1342L54.2342 10.67H54.2742C54.4875 10.47 54.7208 10.2967 54.9742 10.15C55.2275 9.99667 55.5242 9.92 55.8642 9.92C56.4042 9.92 56.7942 10.0967 57.0342 10.45C57.2808 10.8033 57.4042 11.2933 57.4042 11.92V15H55.9342V12.11C55.9342 11.75 55.8842 11.5033 55.7842 11.37C55.6908 11.2367 55.5375 11.17 55.3242 11.17C55.1375 11.17 54.9775 11.2133 54.8442 11.3C54.7108 11.38 54.5642 11.4967 54.4042 11.65V15H52.9342ZM59.9068 15.12C59.6802 15.12 59.4735 15.08 59.2868 15C59.1068 14.9267 58.9535 14.8233 58.8268 14.69C58.7002 14.55 58.6002 14.39 58.5268 14.21C58.4602 14.03 58.4268 13.8333 58.4268 13.62C58.4268 13.1 58.6468 12.6933 59.0868 12.4C59.5268 12.1067 60.2368 11.91 61.2168 11.81C61.2035 11.59 61.1368 11.4167 61.0168 11.29C60.9035 11.1567 60.7102 11.09 60.4368 11.09C60.2235 11.09 60.0102 11.13 59.7968 11.21C59.5902 11.29 59.3668 11.4 59.1268 11.54L58.5968 10.57C58.9168 10.3767 59.2502 10.22 59.5968 10.1C59.9502 9.98 60.3235 9.92 60.7168 9.92C61.3568 9.92 61.8435 10.1033 62.1768 10.47C62.5168 10.83 62.6868 11.3933 62.6868 12.16V15H61.4868L61.3868 14.49H61.3468C61.1335 14.6767 60.9102 14.83 60.6768 14.95C60.4435 15.0633 60.1868 15.12 59.9068 15.12ZM60.4068 13.98C60.5735 13.98 60.7168 13.9433 60.8368 13.87C60.9568 13.7967 61.0835 13.6933 61.2168 13.56V12.69C60.6968 12.7633 60.3368 12.87 60.1368 13.01C59.9368 13.15 59.8368 13.3167 59.8368 13.51C59.8368 13.67 59.8868 13.79 59.9868 13.87C60.0935 13.9433 60.2335 13.98 60.4068 13.98ZM63.9303 15V10.04H65.1303L65.2303 10.67H65.2703C65.4836 10.47 65.7169 10.2967 65.9703 10.15C66.2236 9.99667 66.5203 9.92 66.8603 9.92C67.4003 9.92 67.7903 10.0967 68.0303 10.45C68.2769 10.8033 68.4003 11.2933 68.4003 11.92V15H66.9303V12.11C66.9303 11.75 66.8803 11.5033 66.7803 11.37C66.6869 11.2367 66.5336 11.17 66.3203 11.17C66.1336 11.17 65.9736 11.2133 65.8403 11.3C65.7069 11.38 65.5603 11.4967 65.4003 11.65V15H63.9303ZM71.4229 15.12C71.1163 15.12 70.8363 15.06 70.5829 14.94C70.3363 14.82 70.1229 14.65 69.9429 14.43C69.7696 14.2033 69.6329 13.93 69.5329 13.61C69.4396 13.29 69.3929 12.9267 69.3929 12.52C69.3929 12.1133 69.4496 11.75 69.5629 11.43C69.6829 11.11 69.8363 10.84 70.0229 10.62C70.2163 10.3933 70.4363 10.22 70.6829 10.1C70.9363 9.98 71.1929 9.92 71.4529 9.92C71.7329 9.92 71.9629 9.96667 72.1429 10.06C72.3229 10.1533 72.4996 10.28 72.6729 10.44L72.6129 9.68V7.99H74.0829V15H72.8829L72.7829 14.51H72.7429C72.5696 14.6833 72.3663 14.83 72.1329 14.95C71.8996 15.0633 71.6629 15.12 71.4229 15.12ZM71.8029 13.92C71.9629 13.92 72.1063 13.8867 72.2329 13.82C72.3663 13.7533 72.4929 13.6367 72.6129 13.47V11.44C72.4796 11.32 72.3429 11.2367 72.2029 11.19C72.0629 11.1433 71.9263 11.12 71.7929 11.12C71.5596 11.12 71.3529 11.2333 71.1729 11.46C70.9929 11.68 70.9029 12.0267 70.9029 12.5C70.9029 12.9933 70.9796 13.3533 71.1329 13.58C71.2929 13.8067 71.5163 13.92 71.8029 13.92ZM77.6054 15.12C77.252 15.12 76.922 15.0633 76.6154 14.95C76.3087 14.83 76.042 14.66 75.8154 14.44C75.5887 14.2133 75.412 13.94 75.2854 13.62C75.1587 13.3 75.0954 12.9333 75.0954 12.52C75.0954 12.12 75.162 11.76 75.2954 11.44C75.4287 11.1133 75.602 10.84 75.8154 10.62C76.0354 10.3933 76.2854 10.22 76.5654 10.1C76.8454 9.98 77.1354 9.92 77.4354 9.92C77.7887 9.92 78.0954 9.98 78.3554 10.1C78.622 10.22 78.842 10.3867 79.0154 10.6C79.1954 10.8133 79.3287 11.0667 79.4154 11.36C79.502 11.6467 79.5454 11.96 79.5454 12.3C79.5454 12.4333 79.5387 12.56 79.5254 12.68C79.512 12.8 79.4987 12.89 79.4854 12.95H76.5154C76.582 13.31 76.7287 13.5767 76.9554 13.75C77.1887 13.9167 77.472 14 77.8054 14C78.1587 14 78.5154 13.89 78.8754 13.67L79.3654 14.56C79.112 14.7333 78.8287 14.87 78.5154 14.97C78.2087 15.07 77.9054 15.12 77.6054 15.12ZM76.5054 11.98H78.2954C78.2954 11.7 78.232 11.4733 78.1054 11.3C77.9787 11.1267 77.7654 11.04 77.4654 11.04C77.232 11.04 77.0254 11.1167 76.8454 11.27C76.672 11.4233 76.5587 11.66 76.5054 11.98ZM80.2228 15V14.21L82.3028 11.19H80.4528V10.04H84.1328V10.82L82.0528 13.85H84.2028V15H80.2228ZM88.5843 15.12C88.0443 15.12 87.651 14.9433 87.4043 14.59C87.1643 14.2367 87.0443 13.7467 87.0443 13.12V10.04H88.5143V12.93C88.5143 13.29 88.5643 13.5367 88.6643 13.67C88.7643 13.8033 88.921 13.87 89.1343 13.87C89.321 13.87 89.4777 13.8267 89.6043 13.74C89.731 13.6533 89.8677 13.5133 90.0143 13.32V10.04H91.4843V15H90.2843L90.1743 14.31H90.1443C89.931 14.5633 89.701 14.7633 89.4543 14.91C89.2143 15.05 88.9243 15.12 88.5843 15.12ZM92.7779 16.84V10.04H93.9779L94.0779 10.53H94.1179C94.3113 10.3567 94.5279 10.2133 94.7679 10.1C95.0146 9.98 95.2679 9.92 95.5279 9.92C95.8279 9.92 96.0979 9.98 96.3379 10.1C96.5779 10.22 96.7813 10.39 96.9479 10.61C97.1146 10.83 97.2413 11.0967 97.3279 11.41C97.4213 11.7167 97.4679 12.06 97.4679 12.44C97.4679 12.8667 97.4079 13.2467 97.2879 13.58C97.1746 13.9067 97.0179 14.1867 96.8179 14.42C96.6246 14.6467 96.4013 14.82 96.1479 14.94C95.9013 15.06 95.6446 15.12 95.3779 15.12C95.1646 15.12 94.9579 15.0767 94.7579 14.99C94.5579 14.8967 94.3713 14.7667 94.1979 14.6L94.2479 15.39V16.84H92.7779ZM95.0379 13.92C95.2913 13.92 95.5079 13.8067 95.6879 13.58C95.8679 13.3467 95.9579 12.9733 95.9579 12.46C95.9579 11.5667 95.6713 11.12 95.0979 11.12C94.8113 11.12 94.5279 11.27 94.2479 11.57V13.6C94.3813 13.72 94.5146 13.8033 94.6479 13.85C94.7813 13.8967 94.9113 13.92 95.0379 13.92ZM102.422 15.12C102.116 15.12 101.852 15.0733 101.632 14.98C101.419 14.8867 101.242 14.7567 101.102 14.59C100.969 14.4233 100.869 14.2233 100.802 13.99C100.742 13.75 100.712 13.4867 100.712 13.2V11.19H100.032V10.1L100.792 10.04L100.962 8.72H102.182V10.04H103.372V11.19H102.182V13.18C102.182 13.46 102.239 13.6633 102.352 13.79C102.472 13.91 102.629 13.97 102.822 13.97C102.902 13.97 102.982 13.96 103.062 13.94C103.149 13.92 103.226 13.8967 103.292 13.87L103.522 14.94C103.389 14.98 103.232 15.02 103.052 15.06C102.872 15.1 102.662 15.12 102.422 15.12ZM106.295 15.12C105.981 15.12 105.678 15.0633 105.385 14.95C105.091 14.83 104.831 14.66 104.605 14.44C104.385 14.22 104.208 13.95 104.075 13.63C103.941 13.3033 103.875 12.9333 103.875 12.52C103.875 12.1067 103.941 11.74 104.075 11.42C104.208 11.0933 104.385 10.82 104.605 10.6C104.831 10.38 105.091 10.2133 105.385 10.1C105.678 9.98 105.981 9.92 106.295 9.92C106.608 9.92 106.908 9.98 107.195 10.1C107.488 10.2133 107.745 10.38 107.965 10.6C108.191 10.82 108.371 11.0933 108.505 11.42C108.638 11.74 108.705 12.1067 108.705 12.52C108.705 12.9333 108.638 13.3033 108.505 13.63C108.371 13.95 108.191 14.22 107.965 14.44C107.745 14.66 107.488 14.83 107.195 14.95C106.908 15.0633 106.608 15.12 106.295 15.12ZM106.295 13.93C106.595 13.93 106.821 13.8033 106.975 13.55C107.128 13.2967 107.205 12.9533 107.205 12.52C107.205 12.0867 107.128 11.7433 106.975 11.49C106.821 11.2367 106.595 11.11 106.295 11.11C105.988 11.11 105.758 11.2367 105.605 11.49C105.458 11.7433 105.385 12.0867 105.385 12.52C105.385 12.9533 105.458 13.2967 105.605 13.55C105.758 13.8033 105.988 13.93 106.295 13.93ZM114.313 15.12C114.093 15.12 113.87 15.0667 113.643 14.96C113.423 14.8467 113.217 14.6833 113.023 14.47H112.983L112.863 15H111.713V7.99H113.183V9.71L113.143 10.47C113.337 10.2967 113.543 10.1633 113.763 10.07C113.99 9.97 114.22 9.92 114.453 9.92C114.753 9.92 115.023 9.98 115.263 10.1C115.503 10.22 115.707 10.39 115.873 10.61C116.047 10.8233 116.177 11.0867 116.263 11.4C116.357 11.7067 116.403 12.05 116.403 12.43C116.403 12.8567 116.343 13.2367 116.223 13.57C116.11 13.9033 115.953 14.1867 115.753 14.42C115.56 14.6467 115.337 14.82 115.083 14.94C114.837 15.06 114.58 15.12 114.313 15.12ZM113.973 13.92C114.227 13.92 114.443 13.8067 114.623 13.58C114.803 13.3467 114.893 12.9733 114.893 12.46C114.893 11.5667 114.607 11.12 114.033 11.12C113.74 11.12 113.457 11.27 113.183 11.57V13.6C113.317 13.72 113.45 13.8033 113.583 13.85C113.717 13.8967 113.847 13.92 113.973 13.92ZM118.588 15.12C118.362 15.12 118.155 15.08 117.968 15C117.788 14.9267 117.635 14.8233 117.508 14.69C117.382 14.55 117.282 14.39 117.208 14.21C117.142 14.03 117.108 13.8333 117.108 13.62C117.108 13.1 117.328 12.6933 117.768 12.4C118.208 12.1067 118.918 11.91 119.898 11.81C119.885 11.59 119.818 11.4167 119.698 11.29C119.585 11.1567 119.392 11.09 119.118 11.09C118.905 11.09 118.692 11.13 118.478 11.21C118.272 11.29 118.048 11.4 117.808 11.54L117.278 10.57C117.598 10.3767 117.932 10.22 118.278 10.1C118.632 9.98 119.005 9.92 119.398 9.92C120.038 9.92 120.525 10.1033 120.858 10.47C121.198 10.83 121.368 11.3933 121.368 12.16V15H120.168L120.068 14.49H120.028C119.815 14.6767 119.592 14.83 119.358 14.95C119.125 15.0633 118.868 15.12 118.588 15.12ZM119.088 13.98C119.255 13.98 119.398 13.9433 119.518 13.87C119.638 13.7967 119.765 13.6933 119.898 13.56V12.69C119.378 12.7633 119.018 12.87 118.818 13.01C118.618 13.15 118.518 13.3167 118.518 13.51C118.518 13.67 118.568 13.79 118.668 13.87C118.775 13.9433 118.915 13.98 119.088 13.98ZM124.346 15.12C124.039 15.12 123.776 15.0733 123.556 14.98C123.343 14.8867 123.166 14.7567 123.026 14.59C122.893 14.4233 122.793 14.2233 122.726 13.99C122.666 13.75 122.636 13.4867 122.636 13.2V11.19H121.956V10.1L122.716 10.04L122.886 8.72H124.106V10.04H125.296V11.19H124.106V13.18C124.106 13.46 124.163 13.6633 124.276 13.79C124.396 13.91 124.553 13.97 124.746 13.97C124.826 13.97 124.906 13.96 124.986 13.94C125.073 13.92 125.149 13.8967 125.216 13.87L125.446 14.94C125.313 14.98 125.156 15.02 124.976 15.06C124.796 15.1 124.586 15.12 124.346 15.12Z" fill="white"/>
<defs>
<clipPath id="clip0">
<rect width="162" height="23" rx="9" fill="white"/>
</clipPath>
</defs>
</svg>
