<svg width="162" height="27" viewBox="0 0 162 27" fill="none" xmlns="http://www.w3.org/2000/svg">
<g clip-path="url(#clip0)">
<rect x="0.5" y="0.5" width="161" height="26" rx="8.5" fill="#242424"/>
</g>
<rect x="0.5" y="0.5" width="161" height="26" rx="8.5" stroke="black"/>
<path d="M75.8735 10.8451C75.3535 10.8451 74.9135 10.7618 74.5535 10.5951C74.1935 10.4218 73.8869 10.2084 73.6335 9.9551L74.2935 9.0251C74.4869 9.19843 74.6935 9.34843 74.9135 9.4751C75.1402 9.5951 75.3902 9.6551 75.6635 9.6551C75.9902 9.6551 76.2502 9.57176 76.4435 9.4051C76.6369 9.23843 76.7335 8.99176 76.7335 8.6651C76.7335 8.3451 76.6402 8.10176 76.4535 7.9351C76.2735 7.76843 76.0335 7.6851 75.7335 7.6851C75.6402 7.6851 75.5569 7.69176 75.4835 7.7051C75.4102 7.71176 75.3369 7.72843 75.2635 7.7551C75.1969 7.78176 75.1235 7.8151 75.0435 7.8551C74.9702 7.8951 74.8869 7.9451 74.7935 8.0051L74.1335 7.5851L74.3135 4.3751H77.9135V5.6151H75.5835L75.4735 6.8051C75.5935 6.75176 75.7069 6.7151 75.8135 6.6951C75.9269 6.66843 76.0502 6.6551 76.1835 6.6551C76.4569 6.6551 76.7135 6.6951 76.9535 6.7751C77.2002 6.8551 77.4169 6.9751 77.6035 7.1351C77.7902 7.2951 77.9369 7.49843 78.0435 7.7451C78.1502 7.99176 78.2035 8.2851 78.2035 8.6251C78.2035 8.97843 78.1402 9.29176 78.0135 9.5651C77.8869 9.83843 77.7169 10.0718 77.5035 10.2651C77.2902 10.4518 77.0402 10.5951 76.7535 10.6951C76.4735 10.7951 76.1802 10.8451 75.8735 10.8451ZM81.2467 10.8451C80.9401 10.8451 80.6767 10.7984 80.4567 10.7051C80.2434 10.6118 80.0667 10.4818 79.9267 10.3151C79.7934 10.1484 79.6934 9.94843 79.6267 9.7151C79.5667 9.4751 79.5367 9.21176 79.5367 8.9251V6.9151H78.8567V5.8251L79.6167 5.7651L79.7867 4.4451H81.0067V5.7651H82.1967V6.9151H81.0067V8.9051C81.0067 9.1851 81.0634 9.38843 81.1767 9.5151C81.2967 9.6351 81.4534 9.6951 81.6467 9.6951C81.7267 9.6951 81.8067 9.6851 81.8867 9.6651C81.9734 9.6451 82.0501 9.62176 82.1167 9.5951L82.3467 10.6651C82.2134 10.7051 82.0567 10.7451 81.8767 10.7851C81.6967 10.8251 81.4867 10.8451 81.2467 10.8451ZM83.1649 10.7251V3.7151H84.6349V5.4351L84.5649 6.3251C84.7515 6.15843 84.9682 6.0051 85.2149 5.8651C85.4615 5.71843 85.7549 5.6451 86.0949 5.6451C86.6349 5.6451 87.0249 5.82176 87.2649 6.1751C87.5115 6.52843 87.6349 7.01843 87.6349 7.6451V10.7251H86.1649V7.8351C86.1649 7.4751 86.1149 7.22843 86.0149 7.0951C85.9215 6.96176 85.7682 6.8951 85.5549 6.8951C85.3682 6.8951 85.2082 6.93843 85.0749 7.0251C84.9415 7.1051 84.7949 7.22176 84.6349 7.3751V10.7251H83.1649ZM67.4471 23.7251V18.7651H68.9171V23.7251H67.4471ZM68.1771 18.0351C67.9304 18.0351 67.7271 17.9651 67.5671 17.8251C67.4071 17.6784 67.3271 17.4918 67.3271 17.2651C67.3271 17.0384 67.4071 16.8551 67.5671 16.7151C67.7271 16.5751 67.9304 16.5051 68.1771 16.5051C68.4304 16.5051 68.6338 16.5751 68.7871 16.7151C68.9471 16.8551 69.0271 17.0384 69.0271 17.2651C69.0271 17.4918 68.9471 17.6784 68.7871 17.8251C68.6338 17.9651 68.4304 18.0351 68.1771 18.0351ZM70.2108 23.7251V18.7651H71.4108L71.5108 19.3951H71.5508C71.7641 19.1951 71.9974 19.0218 72.2508 18.8751C72.5041 18.7218 72.8008 18.6451 73.1408 18.6451C73.6808 18.6451 74.0708 18.8218 74.3108 19.1751C74.5574 19.5284 74.6808 20.0184 74.6808 20.6451V23.7251H73.2108V20.8351C73.2108 20.4751 73.1608 20.2284 73.0608 20.0951C72.9674 19.9618 72.8141 19.8951 72.6008 19.8951C72.4141 19.8951 72.2541 19.9384 72.1208 20.0251C71.9874 20.1051 71.8408 20.2218 71.6808 20.3751V23.7251H70.2108ZM75.9334 23.7251V18.7651H77.1334L77.2334 19.3951H77.2734C77.4867 19.1951 77.7201 19.0218 77.9734 18.8751C78.2267 18.7218 78.5234 18.6451 78.8634 18.6451C79.4034 18.6451 79.7934 18.8218 80.0334 19.1751C80.2801 19.5284 80.4034 20.0184 80.4034 20.6451V23.7251H78.9334V20.8351C78.9334 20.4751 78.8834 20.2284 78.7834 20.0951C78.6901 19.9618 78.5367 19.8951 78.3234 19.8951C78.1367 19.8951 77.9767 19.9384 77.8434 20.0251C77.7101 20.1051 77.5634 20.2218 77.4034 20.3751V23.7251H75.9334ZM81.6561 23.7251V18.7651H83.1261V23.7251H81.6561ZM82.3861 18.0351C82.1394 18.0351 81.9361 17.9651 81.7761 17.8251C81.6161 17.6784 81.5361 17.4918 81.5361 17.2651C81.5361 17.0384 81.6161 16.8551 81.7761 16.7151C81.9361 16.5751 82.1394 16.5051 82.3861 16.5051C82.6394 16.5051 82.8427 16.5751 82.9961 16.7151C83.1561 16.8551 83.2361 17.0384 83.2361 17.2651C83.2361 17.4918 83.1561 17.6784 82.9961 17.8251C82.8427 17.9651 82.6394 18.0351 82.3861 18.0351ZM84.4197 23.7251V18.7651H85.6197L85.7197 19.3951H85.7597C85.9731 19.1951 86.2064 19.0218 86.4597 18.8751C86.7131 18.7218 87.0097 18.6451 87.3497 18.6451C87.8897 18.6451 88.2797 18.8218 88.5197 19.1751C88.7664 19.5284 88.8897 20.0184 88.8897 20.6451V23.7251H87.4197V20.8351C87.4197 20.4751 87.3697 20.2284 87.2697 20.0951C87.1764 19.9618 87.0231 19.8951 86.8097 19.8951C86.6231 19.8951 86.4631 19.9384 86.3297 20.0251C86.1964 20.1051 86.0497 20.2218 85.8897 20.3751V23.7251H84.4197ZM91.9124 25.8351C91.6191 25.8351 91.3457 25.8084 91.0924 25.7551C90.8457 25.7084 90.6257 25.6351 90.4324 25.5351C90.2457 25.4351 90.0991 25.3051 89.9924 25.1451C89.8857 24.9851 89.8324 24.7951 89.8324 24.5751C89.8324 24.1751 90.0691 23.8418 90.5424 23.5751V23.5351C90.4091 23.4484 90.2991 23.3384 90.2124 23.2051C90.1257 23.0718 90.0824 22.9018 90.0824 22.6951C90.0824 22.5151 90.1357 22.3451 90.2424 22.1851C90.3491 22.0184 90.4824 21.8784 90.6424 21.7651V21.7251C90.4691 21.6051 90.3124 21.4351 90.1724 21.2151C90.0391 20.9884 89.9724 20.7284 89.9724 20.4351C89.9724 20.1351 90.0291 19.8751 90.1424 19.6551C90.2557 19.4284 90.4057 19.2418 90.5924 19.0951C90.7857 18.9418 91.0057 18.8284 91.2524 18.7551C91.4991 18.6818 91.7557 18.6451 92.0224 18.6451C92.3157 18.6451 92.5724 18.6851 92.7924 18.7651H94.6024V19.8351H93.8124C93.8591 19.9084 93.8957 20.0018 93.9224 20.1151C93.9557 20.2284 93.9724 20.3518 93.9724 20.4851C93.9724 20.7718 93.9224 21.0218 93.8224 21.2351C93.7224 21.4418 93.5824 21.6151 93.4024 21.7551C93.2291 21.8884 93.0224 21.9884 92.7824 22.0551C92.5491 22.1218 92.2957 22.1551 92.0224 22.1551C91.8291 22.1551 91.6291 22.1218 91.4224 22.0551C91.3557 22.1084 91.3091 22.1618 91.2824 22.2151C91.2557 22.2684 91.2424 22.3384 91.2424 22.4251C91.2424 22.5518 91.2957 22.6451 91.4024 22.7051C91.5157 22.7651 91.7124 22.7951 91.9924 22.7951H92.7924C93.4057 22.7951 93.8724 22.8951 94.1924 23.0951C94.5191 23.2884 94.6824 23.6084 94.6824 24.0551C94.6824 24.3151 94.6157 24.5518 94.4824 24.7651C94.3557 24.9851 94.1724 25.1718 93.9324 25.3251C93.6924 25.4851 93.4024 25.6084 93.0624 25.6951C92.7224 25.7884 92.3391 25.8351 91.9124 25.8351ZM92.0224 21.2651C92.2157 21.2651 92.3757 21.1984 92.5024 21.0651C92.6357 20.9251 92.7024 20.7151 92.7024 20.4351C92.7024 20.1751 92.6357 19.9784 92.5024 19.8451C92.3757 19.7051 92.2157 19.6351 92.0224 19.6351C91.8291 19.6351 91.6657 19.7018 91.5324 19.8351C91.4057 19.9684 91.3424 20.1684 91.3424 20.4351C91.3424 20.7151 91.4057 20.9251 91.5324 21.0651C91.6657 21.1984 91.8291 21.2651 92.0224 21.2651ZM92.1424 24.9151C92.4757 24.9151 92.7491 24.8551 92.9624 24.7351C93.1757 24.6218 93.2824 24.4784 93.2824 24.3051C93.2824 24.1518 93.2157 24.0484 93.0824 23.9951C92.9557 23.9418 92.7691 23.9151 92.5224 23.9151H92.0124C91.8391 23.9151 91.6991 23.9084 91.5924 23.8951C91.4857 23.8884 91.3924 23.8751 91.3124 23.8551C91.1324 24.0151 91.0424 24.1784 91.0424 24.3451C91.0424 24.5318 91.1424 24.6718 91.3424 24.7651C91.5424 24.8651 91.8091 24.9151 92.1424 24.9151Z" fill="white"/>
<defs>
<clipPath id="clip0">
</clipPath>
</defs>
</svg>
