<svg width="162" height="40" viewBox="0 0 162 40" fill="none" xmlns="http://www.w3.org/2000/svg">
<g clip-path="url(#clip0)">
<rect x="0.5" y="0.5" width="161" height="39" rx="8.5" fill="#242424"/>
</g>
<rect x="0.5" y="0.5" width="161" height="39" rx="8.5" stroke="black"/>
<path d="M23.7619 11V4.48H25.2319V6.99H27.4819V4.48H28.9619V11H27.4819V8.28H25.2319V11H23.7619ZM32.6002 11.12C32.2469 11.12 31.9169 11.0633 31.6102 10.95C31.3036 10.83 31.0369 10.66 30.8102 10.44C30.5836 10.2133 30.4069 9.94 30.2802 9.62C30.1536 9.3 30.0902 8.93333 30.0902 8.52C30.0902 8.12 30.1569 7.76 30.2902 7.44C30.4236 7.11333 30.5969 6.84 30.8102 6.62C31.0302 6.39333 31.2802 6.22 31.5602 6.1C31.8402 5.98 32.1302 5.92 32.4302 5.92C32.7836 5.92 33.0902 5.98 33.3502 6.1C33.6169 6.22 33.8369 6.38667 34.0102 6.6C34.1902 6.81333 34.3236 7.06667 34.4102 7.36C34.4969 7.64667 34.5402 7.96 34.5402 8.3C34.5402 8.43333 34.5336 8.56 34.5202 8.68C34.5069 8.8 34.4936 8.89 34.4802 8.95H31.5102C31.5769 9.31 31.7236 9.57667 31.9502 9.75C32.1836 9.91667 32.4669 10 32.8002 10C33.1536 10 33.5102 9.89 33.8702 9.67L34.3602 10.56C34.1069 10.7333 33.8236 10.87 33.5102 10.97C33.2036 11.07 32.9002 11.12 32.6002 11.12ZM31.5002 7.98H33.2902C33.2902 7.7 33.2269 7.47333 33.1002 7.3C32.9736 7.12667 32.7602 7.04 32.4602 7.04C32.2269 7.04 32.0202 7.11667 31.8402 7.27C31.6669 7.42333 31.5536 7.66 31.5002 7.98ZM35.556 11V6.04H36.756L36.856 6.91H36.896C37.076 6.57 37.2927 6.32 37.546 6.16C37.7993 6 38.0527 5.92 38.306 5.92C38.446 5.92 38.5593 5.93 38.646 5.95C38.7393 5.96333 38.8227 5.98667 38.896 6.02L38.656 7.29C38.5627 7.26333 38.476 7.24333 38.396 7.23C38.316 7.21667 38.2227 7.21 38.116 7.21C37.9293 7.21 37.7327 7.27667 37.526 7.41C37.326 7.54333 37.1593 7.78 37.026 8.12V11H35.556ZM39.5404 11V6.04H40.7404L40.8404 6.67H40.8804C41.0937 6.47 41.327 6.29667 41.5804 6.15C41.8337 5.99667 42.1304 5.92 42.4704 5.92C43.0104 5.92 43.4004 6.09667 43.6404 6.45C43.887 6.80333 44.0104 7.29333 44.0104 7.92V11H42.5404V8.11C42.5404 7.75 42.4904 7.50333 42.3904 7.37C42.297 7.23667 42.1437 7.17 41.9304 7.17C41.7437 7.17 41.5837 7.21333 41.4504 7.3C41.317 7.38 41.1704 7.49667 41.0104 7.65V11H39.5404ZM46.513 11.12C46.2864 11.12 46.0797 11.08 45.893 11C45.713 10.9267 45.5597 10.8233 45.433 10.69C45.3064 10.55 45.2064 10.39 45.133 10.21C45.0664 10.03 45.033 9.83333 45.033 9.62C45.033 9.1 45.253 8.69333 45.693 8.4C46.133 8.10667 46.843 7.91 47.823 7.81C47.8097 7.59 47.743 7.41667 47.623 7.29C47.5097 7.15667 47.3164 7.09 47.043 7.09C46.8297 7.09 46.6164 7.13 46.403 7.21C46.1964 7.29 45.973 7.4 45.733 7.54L45.203 6.57C45.523 6.37667 45.8564 6.22 46.203 6.1C46.5564 5.98 46.9297 5.92 47.323 5.92C47.963 5.92 48.4497 6.10333 48.783 6.47C49.123 6.83 49.293 7.39333 49.293 8.16V11H48.093L47.993 10.49H47.953C47.7397 10.6767 47.5164 10.83 47.283 10.95C47.0497 11.0633 46.793 11.12 46.513 11.12ZM47.013 9.98C47.1797 9.98 47.323 9.94333 47.443 9.87C47.563 9.79667 47.6897 9.69333 47.823 9.56V8.69C47.303 8.76333 46.943 8.87 46.743 9.01C46.543 9.15 46.443 9.31667 46.443 9.51C46.443 9.67 46.493 9.79 46.593 9.87C46.6997 9.94333 46.8397 9.98 47.013 9.98ZM50.5365 11V6.04H51.7365L51.8365 6.67H51.8765C52.0898 6.47 52.3231 6.29667 52.5765 6.15C52.8298 5.99667 53.1265 5.92 53.4665 5.92C54.0065 5.92 54.3965 6.09667 54.6365 6.45C54.8831 6.80333 55.0065 7.29333 55.0065 7.92V11H53.5365V8.11C53.5365 7.75 53.4865 7.50333 53.3865 7.37C53.2931 7.23667 53.1398 7.17 52.9265 7.17C52.7398 7.17 52.5798 7.21333 52.4465 7.3C52.3131 7.38 52.1665 7.49667 52.0065 7.65V11H50.5365ZM58.0291 11.12C57.7225 11.12 57.4425 11.06 57.1891 10.94C56.9425 10.82 56.7291 10.65 56.5491 10.43C56.3758 10.2033 56.2391 9.93 56.1391 9.61C56.0458 9.29 55.9991 8.92667 55.9991 8.52C55.9991 8.11333 56.0558 7.75 56.1691 7.43C56.2891 7.11 56.4425 6.84 56.6291 6.62C56.8225 6.39333 57.0425 6.22 57.2891 6.1C57.5425 5.98 57.7991 5.92 58.0591 5.92C58.3391 5.92 58.5691 5.96667 58.7491 6.06C58.9291 6.15333 59.1058 6.28 59.2791 6.44L59.2191 5.68V3.99H60.6891V11H59.4891L59.3891 10.51H59.3491C59.1758 10.6833 58.9725 10.83 58.7391 10.95C58.5058 11.0633 58.2691 11.12 58.0291 11.12ZM58.4091 9.92C58.5691 9.92 58.7125 9.88667 58.8391 9.82C58.9725 9.75333 59.0991 9.63667 59.2191 9.47V7.44C59.0858 7.32 58.9491 7.23667 58.8091 7.19C58.6691 7.14333 58.5325 7.12 58.3991 7.12C58.1658 7.12 57.9591 7.23333 57.7791 7.46C57.5991 7.68 57.5091 8.02667 57.5091 8.5C57.5091 8.99333 57.5858 9.35333 57.7391 9.58C57.8991 9.80667 58.1225 9.92 58.4091 9.92ZM64.2115 11.12C63.8582 11.12 63.5282 11.0633 63.2215 10.95C62.9149 10.83 62.6482 10.66 62.4215 10.44C62.1949 10.2133 62.0182 9.94 61.8915 9.62C61.7649 9.3 61.7015 8.93333 61.7015 8.52C61.7015 8.12 61.7682 7.76 61.9015 7.44C62.0349 7.11333 62.2082 6.84 62.4215 6.62C62.6415 6.39333 62.8915 6.22 63.1715 6.1C63.4515 5.98 63.7415 5.92 64.0415 5.92C64.3949 5.92 64.7015 5.98 64.9615 6.1C65.2282 6.22 65.4482 6.38667 65.6215 6.6C65.8015 6.81333 65.9349 7.06667 66.0215 7.36C66.1082 7.64667 66.1515 7.96 66.1515 8.3C66.1515 8.43333 66.1449 8.56 66.1315 8.68C66.1182 8.8 66.1049 8.89 66.0915 8.95H63.1215C63.1882 9.31 63.3349 9.57667 63.5615 9.75C63.7949 9.91667 64.0782 10 64.4115 10C64.7649 10 65.1215 9.89 65.4815 9.67L65.9715 10.56C65.7182 10.7333 65.4349 10.87 65.1215 10.97C64.8149 11.07 64.5115 11.12 64.2115 11.12ZM63.1115 7.98H64.9015C64.9015 7.7 64.8382 7.47333 64.7115 7.3C64.5849 7.12667 64.3715 7.04 64.0715 7.04C63.8382 7.04 63.6315 7.11667 63.4515 7.27C63.2782 7.42333 63.1649 7.66 63.1115 7.98ZM66.829 11V10.21L68.909 7.19H67.059V6.04H70.739V6.82L68.659 9.85H70.809V11H66.829ZM75.1605 11.12C74.8339 11.12 74.4972 11.0567 74.1505 10.93C73.8105 10.8033 73.5139 10.6367 73.2605 10.43L73.9205 9.51C74.1472 9.68333 74.3639 9.81333 74.5705 9.9C74.7772 9.98667 74.9872 10.03 75.2005 10.03C75.4205 10.03 75.5805 9.99333 75.6805 9.92C75.7805 9.84667 75.8305 9.74333 75.8305 9.61C75.8305 9.53 75.8005 9.46 75.7405 9.4C75.6872 9.33333 75.6105 9.27333 75.5105 9.22C75.4172 9.16667 75.3105 9.12 75.1905 9.08C75.0705 9.03333 74.9472 8.98333 74.8205 8.93C74.6672 8.87 74.5139 8.8 74.3605 8.72C74.2072 8.64 74.0672 8.54333 73.9405 8.43C73.8139 8.31 73.7105 8.17333 73.6305 8.02C73.5505 7.86 73.5105 7.67667 73.5105 7.47C73.5105 7.24333 73.5539 7.03333 73.6405 6.84C73.7339 6.64667 73.8639 6.48333 74.0305 6.35C74.1972 6.21667 74.3972 6.11333 74.6305 6.04C74.8639 5.96 75.1239 5.92 75.4105 5.92C75.7905 5.92 76.1239 5.98667 76.4105 6.12C76.6972 6.24667 76.9472 6.39 77.1605 6.55L76.5005 7.43C76.3205 7.29667 76.1439 7.19333 75.9705 7.12C75.7972 7.04667 75.6239 7.01 75.4505 7.01C75.0772 7.01 74.8905 7.14 74.8905 7.4C74.8905 7.48 74.9172 7.55 74.9705 7.61C75.0239 7.66333 75.0939 7.71333 75.1805 7.76C75.2739 7.80667 75.3772 7.85333 75.4905 7.9C75.6105 7.94 75.7339 7.98333 75.8605 8.03C76.0205 8.09 76.1772 8.16 76.3305 8.24C76.4905 8.31333 76.6339 8.40667 76.7605 8.52C76.8939 8.63333 77.0005 8.77333 77.0805 8.94C77.1605 9.1 77.2005 9.29333 77.2005 9.52C77.2005 9.74667 77.1572 9.95667 77.0705 10.15C76.9839 10.3433 76.8539 10.5133 76.6805 10.66C76.5072 10.8 76.2939 10.9133 76.0405 11C75.7872 11.08 75.4939 11.12 75.1605 11.12ZM78.1341 11V6.04H79.6041V11H78.1341ZM78.8641 5.31C78.6175 5.31 78.4141 5.24 78.2541 5.1C78.0941 4.95333 78.0141 4.76667 78.0141 4.54C78.0141 4.31333 78.0941 4.13 78.2541 3.99C78.4141 3.85 78.6175 3.78 78.8641 3.78C79.1175 3.78 79.3208 3.85 79.4741 3.99C79.6341 4.13 79.7141 4.31333 79.7141 4.54C79.7141 4.76667 79.6341 4.95333 79.4741 5.1C79.3208 5.24 79.1175 5.31 78.8641 5.31ZM80.8978 11V6.04H82.0978L82.1978 6.67H82.2378C82.4511 6.47 82.6845 6.29667 82.9378 6.15C83.1911 5.99667 83.4878 5.92 83.8278 5.92C84.3678 5.92 84.7578 6.09667 84.9978 6.45C85.2445 6.80333 85.3678 7.29333 85.3678 7.92V11H83.8978V8.11C83.8978 7.75 83.8478 7.50333 83.7478 7.37C83.6545 7.23667 83.5011 7.17 83.2878 7.17C83.1011 7.17 82.9411 7.21333 82.8078 7.3C82.6745 7.38 82.5278 7.49667 82.3678 7.65V11H80.8978ZM88.3905 13.11C88.0971 13.11 87.8238 13.0833 87.5705 13.03C87.3238 12.9833 87.1038 12.91 86.9105 12.81C86.7238 12.71 86.5771 12.58 86.4705 12.42C86.3638 12.26 86.3105 12.07 86.3105 11.85C86.3105 11.45 86.5471 11.1167 87.0205 10.85V10.81C86.8871 10.7233 86.7771 10.6133 86.6905 10.48C86.6038 10.3467 86.5605 10.1767 86.5605 9.97C86.5605 9.79 86.6138 9.62 86.7205 9.46C86.8271 9.29333 86.9605 9.15333 87.1205 9.04V9C86.9471 8.88 86.7905 8.71 86.6505 8.49C86.5171 8.26333 86.4505 8.00333 86.4505 7.71C86.4505 7.41 86.5071 7.15 86.6205 6.93C86.7338 6.70333 86.8838 6.51667 87.0705 6.37C87.2638 6.21667 87.4838 6.10333 87.7305 6.03C87.9771 5.95667 88.2338 5.92 88.5005 5.92C88.7938 5.92 89.0505 5.96 89.2705 6.04H91.0805V7.11H90.2905C90.3371 7.18333 90.3738 7.27667 90.4005 7.39C90.4338 7.50333 90.4505 7.62667 90.4505 7.76C90.4505 8.04667 90.4005 8.29667 90.3005 8.51C90.2005 8.71667 90.0605 8.89 89.8805 9.03C89.7071 9.16333 89.5005 9.26333 89.2605 9.33C89.0271 9.39667 88.7738 9.43 88.5005 9.43C88.3071 9.43 88.1071 9.39667 87.9005 9.33C87.8338 9.38333 87.7871 9.43667 87.7605 9.49C87.7338 9.54333 87.7205 9.61333 87.7205 9.7C87.7205 9.82667 87.7738 9.92 87.8805 9.98C87.9938 10.04 88.1905 10.07 88.4705 10.07H89.2705C89.8838 10.07 90.3505 10.17 90.6705 10.37C90.9971 10.5633 91.1605 10.8833 91.1605 11.33C91.1605 11.59 91.0938 11.8267 90.9605 12.04C90.8338 12.26 90.6505 12.4467 90.4105 12.6C90.1705 12.76 89.8805 12.8833 89.5405 12.97C89.2005 13.0633 88.8171 13.11 88.3905 13.11ZM88.5005 8.54C88.6938 8.54 88.8538 8.47333 88.9805 8.34C89.1138 8.2 89.1805 7.99 89.1805 7.71C89.1805 7.45 89.1138 7.25333 88.9805 7.12C88.8538 6.98 88.6938 6.91 88.5005 6.91C88.3071 6.91 88.1438 6.97667 88.0105 7.11C87.8838 7.24333 87.8205 7.44333 87.8205 7.71C87.8205 7.99 87.8838 8.2 88.0105 8.34C88.1438 8.47333 88.3071 8.54 88.5005 8.54ZM88.6205 12.19C88.9538 12.19 89.2271 12.13 89.4405 12.01C89.6538 11.8967 89.7605 11.7533 89.7605 11.58C89.7605 11.4267 89.6938 11.3233 89.5605 11.27C89.4338 11.2167 89.2471 11.19 89.0005 11.19H88.4905C88.3171 11.19 88.1771 11.1833 88.0705 11.17C87.9638 11.1633 87.8705 11.15 87.7905 11.13C87.6105 11.29 87.5205 11.4533 87.5205 11.62C87.5205 11.8067 87.6205 11.9467 87.8205 12.04C88.0205 12.14 88.2871 12.19 88.6205 12.19ZM93.3123 11.12C93.0589 11.12 92.8456 11.08 92.6723 11C92.4989 10.92 92.3589 10.81 92.2523 10.67C92.1523 10.5233 92.0789 10.35 92.0323 10.15C91.9856 9.94333 91.9623 9.71333 91.9623 9.46V3.99H93.4323V9.52C93.4323 9.67333 93.4589 9.78 93.5123 9.84C93.5723 9.9 93.6323 9.93 93.6923 9.93C93.7256 9.93 93.7523 9.93 93.7723 9.93C93.7989 9.93 93.8323 9.92333 93.8723 9.91L94.0523 11C93.9723 11.0333 93.8689 11.06 93.7423 11.08C93.6223 11.1067 93.4789 11.12 93.3123 11.12ZM97.0436 11.12C96.6903 11.12 96.3603 11.0633 96.0536 10.95C95.7469 10.83 95.4803 10.66 95.2536 10.44C95.0269 10.2133 94.8503 9.94 94.7236 9.62C94.5969 9.3 94.5336 8.93333 94.5336 8.52C94.5336 8.12 94.6003 7.76 94.7336 7.44C94.8669 7.11333 95.0403 6.84 95.2536 6.62C95.4736 6.39333 95.7236 6.22 96.0036 6.1C96.2836 5.98 96.5736 5.92 96.8736 5.92C97.2269 5.92 97.5336 5.98 97.7936 6.1C98.0603 6.22 98.2803 6.38667 98.4536 6.6C98.6336 6.81333 98.7669 7.06667 98.8536 7.36C98.9403 7.64667 98.9836 7.96 98.9836 8.3C98.9836 8.43333 98.9769 8.56 98.9636 8.68C98.9503 8.8 98.9369 8.89 98.9236 8.95H95.9536C96.0203 9.31 96.1669 9.57667 96.3936 9.75C96.6269 9.91667 96.9103 10 97.2436 10C97.5969 10 97.9536 9.89 98.3136 9.67L98.8036 10.56C98.5503 10.7333 98.2669 10.87 97.9536 10.97C97.6469 11.07 97.3436 11.12 97.0436 11.12ZM95.9436 7.98H97.7336C97.7336 7.7 97.6703 7.47333 97.5436 7.3C97.4169 7.12667 97.2036 7.04 96.9036 7.04C96.6703 7.04 96.4636 7.11667 96.2836 7.27C96.1103 7.42333 95.9969 7.66 95.9436 7.98ZM101.459 11.12C101.133 11.12 100.796 11.0567 100.449 10.93C100.109 10.8033 99.8127 10.6367 99.5594 10.43L100.219 9.51C100.446 9.68333 100.663 9.81333 100.869 9.9C101.076 9.98667 101.286 10.03 101.499 10.03C101.719 10.03 101.879 9.99333 101.979 9.92C102.079 9.84667 102.129 9.74333 102.129 9.61C102.129 9.53 102.099 9.46 102.039 9.4C101.986 9.33333 101.909 9.27333 101.809 9.22C101.716 9.16667 101.609 9.12 101.489 9.08C101.369 9.03333 101.246 8.98333 101.119 8.93C100.966 8.87 100.813 8.8 100.659 8.72C100.506 8.64 100.366 8.54333 100.239 8.43C100.113 8.31 100.009 8.17333 99.9294 8.02C99.8494 7.86 99.8094 7.67667 99.8094 7.47C99.8094 7.24333 99.8527 7.03333 99.9394 6.84C100.033 6.64667 100.163 6.48333 100.329 6.35C100.496 6.21667 100.696 6.11333 100.929 6.04C101.163 5.96 101.423 5.92 101.709 5.92C102.089 5.92 102.423 5.98667 102.709 6.12C102.996 6.24667 103.246 6.39 103.459 6.55L102.799 7.43C102.619 7.29667 102.443 7.19333 102.269 7.12C102.096 7.04667 101.923 7.01 101.749 7.01C101.376 7.01 101.189 7.14 101.189 7.4C101.189 7.48 101.216 7.55 101.269 7.61C101.323 7.66333 101.393 7.71333 101.479 7.76C101.573 7.80667 101.676 7.85333 101.789 7.9C101.909 7.94 102.033 7.98333 102.159 8.03C102.319 8.09 102.476 8.16 102.629 8.24C102.789 8.31333 102.933 8.40667 103.059 8.52C103.193 8.63333 103.299 8.77333 103.379 8.94C103.459 9.1 103.499 9.29333 103.499 9.52C103.499 9.74667 103.456 9.95667 103.369 10.15C103.283 10.3433 103.153 10.5133 102.979 10.66C102.806 10.8 102.593 10.9133 102.339 11C102.086 11.08 101.793 11.12 101.459 11.12ZM108.345 11.12C108.038 11.12 107.775 11.0733 107.555 10.98C107.342 10.8867 107.165 10.7567 107.025 10.59C106.892 10.4233 106.792 10.2233 106.725 9.99C106.665 9.75 106.635 9.48667 106.635 9.2V7.19H105.955V6.1L106.715 6.04L106.885 4.72H108.105V6.04H109.295V7.19H108.105V9.18C108.105 9.46 108.162 9.66333 108.275 9.79C108.395 9.91 108.552 9.97 108.745 9.97C108.825 9.97 108.905 9.96 108.985 9.94C109.072 9.92 109.148 9.89667 109.215 9.87L109.445 10.94C109.312 10.98 109.155 11.02 108.975 11.06C108.795 11.1 108.585 11.12 108.345 11.12ZM112.217 11.12C111.904 11.12 111.601 11.0633 111.307 10.95C111.014 10.83 110.754 10.66 110.527 10.44C110.307 10.22 110.131 9.95 109.997 9.63C109.864 9.30333 109.797 8.93333 109.797 8.52C109.797 8.10667 109.864 7.74 109.997 7.42C110.131 7.09333 110.307 6.82 110.527 6.6C110.754 6.38 111.014 6.21333 111.307 6.1C111.601 5.98 111.904 5.92 112.217 5.92C112.531 5.92 112.831 5.98 113.117 6.1C113.411 6.21333 113.667 6.38 113.887 6.6C114.114 6.82 114.294 7.09333 114.427 7.42C114.561 7.74 114.627 8.10667 114.627 8.52C114.627 8.93333 114.561 9.30333 114.427 9.63C114.294 9.95 114.114 10.22 113.887 10.44C113.667 10.66 113.411 10.83 113.117 10.95C112.831 11.0633 112.531 11.12 112.217 11.12ZM112.217 9.93C112.517 9.93 112.744 9.80333 112.897 9.55C113.051 9.29667 113.127 8.95333 113.127 8.52C113.127 8.08667 113.051 7.74333 112.897 7.49C112.744 7.23667 112.517 7.11 112.217 7.11C111.911 7.11 111.681 7.23667 111.527 7.49C111.381 7.74333 111.307 8.08667 111.307 8.52C111.307 8.95333 111.381 9.29667 111.527 9.55C111.681 9.80333 111.911 9.93 112.217 9.93ZM117.636 11V6.04H118.836L118.936 6.91H118.976C119.156 6.57 119.373 6.32 119.626 6.16C119.879 6 120.133 5.92 120.386 5.92C120.526 5.92 120.639 5.93 120.726 5.95C120.819 5.96333 120.903 5.98667 120.976 6.02L120.736 7.29C120.643 7.26333 120.556 7.24333 120.476 7.23C120.396 7.21667 120.303 7.21 120.196 7.21C120.009 7.21 119.813 7.27667 119.606 7.41C119.406 7.54333 119.239 7.78 119.106 8.12V11H117.636ZM121.62 11V6.04H123.09V11H121.62ZM122.35 5.31C122.104 5.31 121.9 5.24 121.74 5.1C121.58 4.95333 121.5 4.76667 121.5 4.54C121.5 4.31333 121.58 4.13 121.74 3.99C121.9 3.85 122.104 3.78 122.35 3.78C122.604 3.78 122.807 3.85 122.96 3.99C123.12 4.13 123.2 4.31333 123.2 4.54C123.2 4.76667 123.12 4.95333 122.96 5.1C122.807 5.24 122.604 5.31 122.35 5.31ZM126.154 13.11C125.861 13.11 125.587 13.0833 125.334 13.03C125.087 12.9833 124.867 12.91 124.674 12.81C124.487 12.71 124.341 12.58 124.234 12.42C124.127 12.26 124.074 12.07 124.074 11.85C124.074 11.45 124.311 11.1167 124.784 10.85V10.81C124.651 10.7233 124.541 10.6133 124.454 10.48C124.367 10.3467 124.324 10.1767 124.324 9.97C124.324 9.79 124.377 9.62 124.484 9.46C124.591 9.29333 124.724 9.15333 124.884 9.04V9C124.711 8.88 124.554 8.71 124.414 8.49C124.281 8.26333 124.214 8.00333 124.214 7.71C124.214 7.41 124.271 7.15 124.384 6.93C124.497 6.70333 124.647 6.51667 124.834 6.37C125.027 6.21667 125.247 6.10333 125.494 6.03C125.741 5.95667 125.997 5.92 126.264 5.92C126.557 5.92 126.814 5.96 127.034 6.04H128.844V7.11H128.054C128.101 7.18333 128.137 7.27667 128.164 7.39C128.197 7.50333 128.214 7.62667 128.214 7.76C128.214 8.04667 128.164 8.29667 128.064 8.51C127.964 8.71667 127.824 8.89 127.644 9.03C127.471 9.16333 127.264 9.26333 127.024 9.33C126.791 9.39667 126.537 9.43 126.264 9.43C126.071 9.43 125.871 9.39667 125.664 9.33C125.597 9.38333 125.551 9.43667 125.524 9.49C125.497 9.54333 125.484 9.61333 125.484 9.7C125.484 9.82667 125.537 9.92 125.644 9.98C125.757 10.04 125.954 10.07 126.234 10.07H127.034C127.647 10.07 128.114 10.17 128.434 10.37C128.761 10.5633 128.924 10.8833 128.924 11.33C128.924 11.59 128.857 11.8267 128.724 12.04C128.597 12.26 128.414 12.4467 128.174 12.6C127.934 12.76 127.644 12.8833 127.304 12.97C126.964 13.0633 126.581 13.11 126.154 13.11ZM126.264 8.54C126.457 8.54 126.617 8.47333 126.744 8.34C126.877 8.2 126.944 7.99 126.944 7.71C126.944 7.45 126.877 7.25333 126.744 7.12C126.617 6.98 126.457 6.91 126.264 6.91C126.071 6.91 125.907 6.97667 125.774 7.11C125.647 7.24333 125.584 7.44333 125.584 7.71C125.584 7.99 125.647 8.2 125.774 8.34C125.907 8.47333 126.071 8.54 126.264 8.54ZM126.384 12.19C126.717 12.19 126.991 12.13 127.204 12.01C127.417 11.8967 127.524 11.7533 127.524 11.58C127.524 11.4267 127.457 11.3233 127.324 11.27C127.197 11.2167 127.011 11.19 126.764 11.19H126.254C126.081 11.19 125.941 11.1833 125.834 11.17C125.727 11.1633 125.634 11.15 125.554 11.13C125.374 11.29 125.284 11.4533 125.284 11.62C125.284 11.8067 125.384 11.9467 125.584 12.04C125.784 12.14 126.051 12.19 126.384 12.19ZM129.726 11V3.99H131.196V5.71L131.126 6.6C131.313 6.43333 131.529 6.28 131.776 6.14C132.023 5.99333 132.316 5.92 132.656 5.92C133.196 5.92 133.586 6.09667 133.826 6.45C134.073 6.80333 134.196 7.29333 134.196 7.92V11H132.726V8.11C132.726 7.75 132.676 7.50333 132.576 7.37C132.483 7.23667 132.329 7.17 132.116 7.17C131.929 7.17 131.769 7.21333 131.636 7.3C131.503 7.38 131.356 7.49667 131.196 7.65V11H129.726ZM137.349 11.12C137.042 11.12 136.779 11.0733 136.559 10.98C136.345 10.8867 136.169 10.7567 136.029 10.59C135.895 10.4233 135.795 10.2233 135.729 9.99C135.669 9.75 135.639 9.48667 135.639 9.2V7.19H134.959V6.1L135.719 6.04L135.889 4.72H137.109V6.04H138.299V7.19H137.109V9.18C137.109 9.46 137.165 9.66333 137.279 9.79C137.399 9.91 137.555 9.97 137.749 9.97C137.829 9.97 137.909 9.96 137.989 9.94C138.075 9.92 138.152 9.89667 138.219 9.87L138.449 10.94C138.315 10.98 138.159 11.02 137.979 11.06C137.799 11.1 137.589 11.12 137.349 11.12ZM71.7337 24V20.19H71.0737V19.1L71.7337 19.05V18.78C71.7337 18.52 71.7637 18.2733 71.8237 18.04C71.8904 17.8067 71.9971 17.6033 72.1437 17.43C72.2904 17.2567 72.4804 17.12 72.7137 17.02C72.9471 16.92 73.2304 16.87 73.5637 16.87C73.7704 16.87 73.9571 16.89 74.1237 16.93C74.2971 16.97 74.4404 17.01 74.5537 17.05L74.2837 18.13C74.0971 18.0633 73.9271 18.03 73.7737 18.03C73.5937 18.03 73.4537 18.0867 73.3537 18.2C73.2537 18.3067 73.2037 18.4867 73.2037 18.74V19.04H74.0937V20.19H73.2037V24H71.7337ZM74.8919 24V19.04H76.3619V24H74.8919ZM75.6219 18.31C75.3753 18.31 75.1719 18.24 75.0119 18.1C74.8519 17.9533 74.7719 17.7667 74.7719 17.54C74.7719 17.3133 74.8519 17.13 75.0119 16.99C75.1719 16.85 75.3753 16.78 75.6219 16.78C75.8753 16.78 76.0786 16.85 76.2319 16.99C76.3919 17.13 76.4719 17.3133 76.4719 17.54C76.4719 17.7667 76.3919 17.9533 76.2319 18.1C76.0786 18.24 75.8753 18.31 75.6219 18.31ZM79.8756 24.12C79.5223 24.12 79.1923 24.0633 78.8856 23.95C78.5789 23.83 78.3123 23.66 78.0856 23.44C77.8589 23.2133 77.6823 22.94 77.5556 22.62C77.4289 22.3 77.3656 21.9333 77.3656 21.52C77.3656 21.12 77.4323 20.76 77.5656 20.44C77.6989 20.1133 77.8723 19.84 78.0856 19.62C78.3056 19.3933 78.5556 19.22 78.8356 19.1C79.1156 18.98 79.4056 18.92 79.7056 18.92C80.0589 18.92 80.3656 18.98 80.6256 19.1C80.8923 19.22 81.1123 19.3867 81.2856 19.6C81.4656 19.8133 81.5989 20.0667 81.6856 20.36C81.7723 20.6467 81.8156 20.96 81.8156 21.3C81.8156 21.4333 81.8089 21.56 81.7956 21.68C81.7823 21.8 81.7689 21.89 81.7556 21.95H78.7856C78.8523 22.31 78.9989 22.5767 79.2256 22.75C79.4589 22.9167 79.7423 23 80.0756 23C80.4289 23 80.7856 22.89 81.1456 22.67L81.6356 23.56C81.3823 23.7333 81.0989 23.87 80.7856 23.97C80.4789 24.07 80.1756 24.12 79.8756 24.12ZM78.7756 20.98H80.5656C80.5656 20.7 80.5023 20.4733 80.3756 20.3C80.2489 20.1267 80.0356 20.04 79.7356 20.04C79.5023 20.04 79.2956 20.1167 79.1156 20.27C78.9423 20.4233 78.8289 20.66 78.7756 20.98ZM84.1814 24.12C83.9281 24.12 83.7147 24.08 83.5414 24C83.3681 23.92 83.2281 23.81 83.1214 23.67C83.0214 23.5233 82.9481 23.35 82.9014 23.15C82.8547 22.9433 82.8314 22.7133 82.8314 22.46V16.99H84.3014V22.52C84.3014 22.6733 84.3281 22.78 84.3814 22.84C84.4414 22.9 84.5014 22.93 84.5614 22.93C84.5947 22.93 84.6214 22.93 84.6414 22.93C84.6681 22.93 84.7014 22.9233 84.7414 22.91L84.9214 24C84.8414 24.0333 84.7381 24.06 84.6114 24.08C84.4914 24.1067 84.3481 24.12 84.1814 24.12ZM87.4627 24.12C87.1561 24.12 86.8761 24.06 86.6227 23.94C86.3761 23.82 86.1627 23.65 85.9827 23.43C85.8094 23.2033 85.6727 22.93 85.5727 22.61C85.4794 22.29 85.4327 21.9267 85.4327 21.52C85.4327 21.1133 85.4894 20.75 85.6027 20.43C85.7227 20.11 85.8761 19.84 86.0627 19.62C86.2561 19.3933 86.4761 19.22 86.7227 19.1C86.9761 18.98 87.2327 18.92 87.4927 18.92C87.7727 18.92 88.0027 18.9667 88.1827 19.06C88.3627 19.1533 88.5394 19.28 88.7127 19.44L88.6527 18.68V16.99H90.1227V24H88.9227L88.8227 23.51H88.7827C88.6094 23.6833 88.4061 23.83 88.1727 23.95C87.9394 24.0633 87.7027 24.12 87.4627 24.12ZM87.8427 22.92C88.0027 22.92 88.1461 22.8867 88.2727 22.82C88.4061 22.7533 88.5327 22.6367 88.6527 22.47V20.44C88.5194 20.32 88.3827 20.2367 88.2427 20.19C88.1027 20.1433 87.9661 20.12 87.8327 20.12C87.5994 20.12 87.3927 20.2333 87.2127 20.46C87.0327 20.68 86.9427 21.0267 86.9427 21.5C86.9427 21.9933 87.0194 22.3533 87.1727 22.58C87.3327 22.8067 87.5561 22.92 87.8427 22.92ZM54.2214 37V31.72H52.4314V30.48H57.4914V31.72H55.7014V37H54.2214ZM60.8748 37.12C60.4348 37.12 60.0315 37.0433 59.6648 36.89C59.3048 36.73 58.9948 36.5033 58.7348 36.21C58.4748 35.9167 58.2715 35.56 58.1248 35.14C57.9848 34.72 57.9148 34.2433 57.9148 33.71C57.9148 33.1767 57.9848 32.7033 58.1248 32.29C58.2715 31.87 58.4748 31.52 58.7348 31.24C58.9948 30.9533 59.3048 30.7367 59.6648 30.59C60.0315 30.4367 60.4348 30.36 60.8748 30.36C61.3148 30.36 61.7148 30.4367 62.0748 30.59C62.4415 30.7367 62.7548 30.9533 63.0148 31.24C63.2748 31.5267 63.4748 31.88 63.6148 32.3C63.7615 32.7133 63.8348 33.1833 63.8348 33.71C63.8348 34.2433 63.7615 34.72 63.6148 35.14C63.4748 35.56 63.2748 35.9167 63.0148 36.21C62.7548 36.5033 62.4415 36.73 62.0748 36.89C61.7148 37.0433 61.3148 37.12 60.8748 37.12ZM60.8748 35.85C61.3215 35.85 61.6748 35.66 61.9348 35.28C62.1948 34.8933 62.3248 34.37 62.3248 33.71C62.3248 33.0567 62.1948 32.5467 61.9348 32.18C61.6748 31.8133 61.3215 31.63 60.8748 31.63C60.4282 31.63 60.0748 31.8133 59.8148 32.18C59.5548 32.5467 59.4248 33.0567 59.4248 33.71C59.4248 34.37 59.5548 34.8933 59.8148 35.28C60.0748 35.66 60.4282 35.85 60.8748 35.85ZM65.0608 37V30.48H67.4108C67.7574 30.48 68.0808 30.5133 68.3808 30.58C68.6874 30.6467 68.9541 30.76 69.1808 30.92C69.4074 31.0733 69.5874 31.28 69.7208 31.54C69.8541 31.8 69.9208 32.1233 69.9208 32.51C69.9208 32.99 69.8141 33.3867 69.6008 33.7C69.3941 34.0067 69.1141 34.2367 68.7608 34.39L70.2408 37H68.5908L67.3408 34.65H66.5308V37H65.0608ZM66.5308 33.48H67.2908C67.6774 33.48 67.9708 33.4 68.1708 33.24C68.3774 33.0733 68.4808 32.83 68.4808 32.51C68.4808 32.19 68.3774 31.9667 68.1708 31.84C67.9708 31.7133 67.6774 31.65 67.2908 31.65H66.5308V33.48ZM73.1255 37V35.81H74.5055V32.14H73.3155V31.23C73.6622 31.1633 73.9555 31.0833 74.1955 30.99C74.4355 30.8967 74.6689 30.7833 74.8955 30.65H75.9755V35.81H77.1655V37H73.1255ZM78.4687 38.94L78.1687 38.16C78.5421 38.0267 78.8254 37.8533 79.0187 37.64C79.2121 37.4267 79.3054 37.1933 79.2987 36.94H79.2187C78.9854 36.94 78.7787 36.87 78.5987 36.73C78.4187 36.5833 78.3287 36.3767 78.3287 36.11C78.3287 35.8567 78.4187 35.6533 78.5987 35.5C78.7787 35.3467 78.9954 35.27 79.2487 35.27C79.5821 35.27 79.8354 35.3933 80.0087 35.64C80.1821 35.88 80.2687 36.22 80.2687 36.66C80.2687 37.2133 80.1154 37.6867 79.8087 38.08C79.5021 38.48 79.0554 38.7667 78.4687 38.94ZM86.1987 37.12C85.7854 37.12 85.3954 37.05 85.0287 36.91C84.6621 36.7633 84.3387 36.55 84.0587 36.27C83.7854 35.99 83.5687 35.6433 83.4087 35.23C83.2487 34.81 83.1687 34.3267 83.1687 33.78C83.1687 33.24 83.2521 32.76 83.4187 32.34C83.5854 31.9133 83.8087 31.5533 84.0887 31.26C84.3687 30.9667 84.6954 30.7433 85.0687 30.59C85.4421 30.4367 85.8354 30.36 86.2487 30.36C86.6687 30.36 87.0454 30.4467 87.3787 30.62C87.7121 30.7867 87.9887 30.9833 88.2087 31.21L87.4287 32.15C87.2621 31.9967 87.0854 31.8733 86.8987 31.78C86.7187 31.68 86.5121 31.63 86.2787 31.63C86.0587 31.63 85.8487 31.68 85.6487 31.78C85.4554 31.8733 85.2854 32.01 85.1387 32.19C84.9987 32.37 84.8854 32.59 84.7987 32.85C84.7187 33.11 84.6787 33.4033 84.6787 33.73C84.6787 34.4033 84.8221 34.9267 85.1087 35.3C85.3954 35.6667 85.7787 35.85 86.2587 35.85C86.5254 35.85 86.7621 35.7933 86.9687 35.68C87.1821 35.56 87.3687 35.4133 87.5287 35.24L88.3087 36.16C87.7621 36.8 87.0587 37.12 86.1987 37.12ZM89.8009 37L88.5909 30.48H90.1009L90.5509 33.53C90.5909 33.87 90.6343 34.2133 90.6809 34.56C90.7276 34.9 90.7709 35.2433 90.8109 35.59H90.8509C90.9176 35.2433 90.9809 34.9 91.0409 34.56C91.1076 34.2133 91.1743 33.87 91.2409 33.53L91.9409 30.48H93.1909L93.8909 33.53C93.9576 33.8633 94.0209 34.2033 94.0809 34.55C94.1476 34.89 94.2143 35.2367 94.2809 35.59H94.3209C94.3676 35.2367 94.4109 34.89 94.4509 34.55C94.4976 34.21 94.5443 33.87 94.5909 33.53L95.0409 30.48H96.4509L95.2909 37H93.4409L92.8009 34.04C92.7476 33.7867 92.6976 33.5333 92.6509 33.28C92.6109 33.02 92.5743 32.77 92.5409 32.53H92.5009C92.4609 32.77 92.4176 33.02 92.3709 33.28C92.3309 33.5333 92.2843 33.7867 92.2309 34.04L91.6209 37H89.8009ZM99.3457 37.12C98.919 37.12 98.4924 37.0433 98.0657 36.89C97.6457 36.73 97.269 36.4933 96.9357 36.18L97.7757 35.17C98.009 35.37 98.2657 35.5333 98.5457 35.66C98.8324 35.7867 99.1124 35.85 99.3857 35.85C99.6924 35.85 99.919 35.7933 100.066 35.68C100.219 35.5667 100.296 35.4133 100.296 35.22C100.296 35.12 100.272 35.0333 100.226 34.96C100.186 34.8867 100.122 34.8233 100.036 34.77C99.9557 34.71 99.8557 34.6567 99.7357 34.61C99.6224 34.5567 99.4957 34.5 99.3557 34.44L98.5057 34.08C98.339 34.0133 98.1757 33.9267 98.0157 33.82C97.8624 33.7133 97.7224 33.59 97.5957 33.45C97.4757 33.3033 97.379 33.1367 97.3057 32.95C97.2324 32.7567 97.1957 32.54 97.1957 32.3C97.1957 32.0333 97.2524 31.7833 97.3657 31.55C97.479 31.31 97.639 31.1033 97.8457 30.93C98.0524 30.75 98.2957 30.61 98.5757 30.51C98.8624 30.41 99.1757 30.36 99.5157 30.36C99.8957 30.36 100.269 30.4333 100.636 30.58C101.009 30.7267 101.336 30.94 101.616 31.22L100.866 32.15C100.652 31.9833 100.439 31.8567 100.226 31.77C100.012 31.6767 99.7757 31.63 99.5157 31.63C99.2624 31.63 99.059 31.6833 98.9057 31.79C98.759 31.89 98.6857 32.0333 98.6857 32.22C98.6857 32.32 98.709 32.4067 98.7557 32.48C98.809 32.5467 98.879 32.61 98.9657 32.67C99.059 32.7233 99.1657 32.7767 99.2857 32.83C99.4057 32.8767 99.5357 32.93 99.6757 32.99L100.516 33.33C100.916 33.49 101.229 33.71 101.456 33.99C101.689 34.27 101.806 34.64 101.806 35.1C101.806 35.3733 101.749 35.6333 101.636 35.88C101.529 36.12 101.369 36.3333 101.156 36.52C100.949 36.7 100.692 36.8467 100.386 36.96C100.079 37.0667 99.7324 37.12 99.3457 37.12ZM106.784 37.12C106.444 37.12 106.134 37.05 105.854 36.91C105.574 36.7633 105.334 36.55 105.134 36.27C104.941 35.99 104.788 35.6433 104.674 35.23C104.568 34.8167 104.514 34.34 104.514 33.8C104.514 33.26 104.568 32.7867 104.674 32.38C104.788 31.9733 104.941 31.6333 105.134 31.36C105.334 31.08 105.574 30.8733 105.854 30.74C106.134 30.6 106.444 30.53 106.784 30.53C107.124 30.53 107.434 30.6 107.714 30.74C107.994 30.8733 108.231 31.08 108.424 31.36C108.624 31.6333 108.778 31.9733 108.884 32.38C108.998 32.7867 109.054 33.26 109.054 33.8C109.054 34.34 108.998 34.8167 108.884 35.23C108.778 35.6433 108.624 35.99 108.424 36.27C108.231 36.55 107.994 36.7633 107.714 36.91C107.434 37.05 107.124 37.12 106.784 37.12ZM106.784 35.98C106.911 35.98 107.028 35.95 107.134 35.89C107.241 35.8233 107.334 35.7067 107.414 35.54C107.494 35.3733 107.554 35.15 107.594 34.87C107.641 34.59 107.664 34.2333 107.664 33.8C107.664 33.3667 107.641 33.0133 107.594 32.74C107.554 32.46 107.494 32.2433 107.414 32.09C107.334 31.93 107.241 31.82 107.134 31.76C107.028 31.7 106.911 31.67 106.784 31.67C106.664 31.67 106.551 31.7 106.444 31.76C106.338 31.82 106.244 31.93 106.164 32.09C106.084 32.2433 106.021 32.46 105.974 32.74C105.928 33.0133 105.904 33.3667 105.904 33.8C105.904 34.2333 105.928 34.59 105.974 34.87C106.021 35.15 106.084 35.3733 106.164 35.54C106.244 35.7067 106.338 35.8233 106.444 35.89C106.551 35.95 106.664 35.98 106.784 35.98Z" fill="white"/>
<defs>
<clipPath id="clip0">
</clipPath>
</defs>
</svg>
