<svg width="165" height="151" viewBox="0 0 165 151" fill="none" xmlns="http://www.w3.org/2000/svg">
<path d="M6.04 103V97.72H4.25V96.48H9.31V97.72H7.52V103H6.04ZM12.6934 103.12C12.2534 103.12 11.8501 103.043 11.4834 102.89C11.1234 102.73 10.8134 102.503 10.5534 102.21C10.2934 101.917 10.0901 101.56 9.94344 101.14C9.80344 100.72 9.73344 100.243 9.73344 99.71C9.73344 99.1767 9.80344 98.7033 9.94344 98.29C10.0901 97.87 10.2934 97.52 10.5534 97.24C10.8134 96.9533 11.1234 96.7367 11.4834 96.59C11.8501 96.4367 12.2534 96.36 12.6934 96.36C13.1334 96.36 13.5334 96.4367 13.8934 96.59C14.2601 96.7367 14.5734 96.9533 14.8334 97.24C15.0934 97.5267 15.2934 97.88 15.4334 98.3C15.5801 98.7133 15.6534 99.1833 15.6534 99.71C15.6534 100.243 15.5801 100.72 15.4334 101.14C15.2934 101.56 15.0934 101.917 14.8334 102.21C14.5734 102.503 14.2601 102.73 13.8934 102.89C13.5334 103.043 13.1334 103.12 12.6934 103.12ZM12.6934 101.85C13.1401 101.85 13.4934 101.66 13.7534 101.28C14.0134 100.893 14.1434 100.37 14.1434 99.71C14.1434 99.0567 14.0134 98.5467 13.7534 98.18C13.4934 97.8133 13.1401 97.63 12.6934 97.63C12.2468 97.63 11.8934 97.8133 11.6334 98.18C11.3734 98.5467 11.2434 99.0567 11.2434 99.71C11.2434 100.37 11.3734 100.893 11.6334 101.28C11.8934 101.66 12.2468 101.85 12.6934 101.85ZM16.8794 103V96.48H19.2294C19.576 96.48 19.8994 96.5133 20.1994 96.58C20.506 96.6467 20.7727 96.76 20.9994 96.92C21.226 97.0733 21.406 97.28 21.5394 97.54C21.6727 97.8 21.7394 98.1233 21.7394 98.51C21.7394 98.99 21.6327 99.3867 21.4194 99.7C21.2127 100.007 20.9327 100.237 20.5794 100.39L22.0594 103H20.4094L19.1594 100.65H18.3494V103H16.8794ZM18.3494 99.48H19.1094C19.496 99.48 19.7894 99.4 19.9894 99.24C20.196 99.0733 20.2994 98.83 20.2994 98.51C20.2994 98.19 20.196 97.9667 19.9894 97.84C19.7894 97.7133 19.496 97.65 19.1094 97.65H18.3494V99.48ZM24.6741 100.99V99.95H27.1341V100.99H24.6741ZM30.2664 103V101.81H31.6464V98.14H30.4564V97.23C30.8031 97.1633 31.0964 97.0833 31.3364 96.99C31.5764 96.8967 31.8097 96.7833 32.0364 96.65H33.1164V101.81H34.3064V103H30.2664ZM35.5496 103V101.81H36.9296V98.14H35.7396V97.23C36.0863 97.1633 36.3796 97.0833 36.6196 96.99C36.8596 96.8967 37.0929 96.7833 37.3196 96.65H38.3996V101.81H39.5896V103H35.5496ZM42.7728 103.12C42.4328 103.12 42.1228 103.05 41.8428 102.91C41.5628 102.763 41.3228 102.55 41.1228 102.27C40.9295 101.99 40.7761 101.643 40.6628 101.23C40.5561 100.817 40.5028 100.34 40.5028 99.8C40.5028 99.26 40.5561 98.7867 40.6628 98.38C40.7761 97.9733 40.9295 97.6333 41.1228 97.36C41.3228 97.08 41.5628 96.8733 41.8428 96.74C42.1228 96.6 42.4328 96.53 42.7728 96.53C43.1128 96.53 43.4228 96.6 43.7028 96.74C43.9828 96.8733 44.2195 97.08 44.4128 97.36C44.6128 97.6333 44.7661 97.9733 44.8728 98.38C44.9861 98.7867 45.0428 99.26 45.0428 99.8C45.0428 100.34 44.9861 100.817 44.8728 101.23C44.7661 101.643 44.6128 101.99 44.4128 102.27C44.2195 102.55 43.9828 102.763 43.7028 102.91C43.4228 103.05 43.1128 103.12 42.7728 103.12ZM42.7728 101.98C42.8995 101.98 43.0161 101.95 43.1228 101.89C43.2295 101.823 43.3228 101.707 43.4028 101.54C43.4828 101.373 43.5428 101.15 43.5828 100.87C43.6295 100.59 43.6528 100.233 43.6528 99.8C43.6528 99.3667 43.6295 99.0133 43.5828 98.74C43.5428 98.46 43.4828 98.2433 43.4028 98.09C43.3228 97.93 43.2295 97.82 43.1228 97.76C43.0161 97.7 42.8995 97.67 42.7728 97.67C42.6528 97.67 42.5395 97.7 42.4328 97.76C42.3261 97.82 42.2328 97.93 42.1528 98.09C42.0728 98.2433 42.0095 98.46 41.9628 98.74C41.9161 99.0133 41.8928 99.3667 41.8928 99.8C41.8928 100.233 41.9161 100.59 41.9628 100.87C42.0095 101.15 42.0728 101.373 42.1528 101.54C42.2328 101.707 42.3261 101.823 42.4328 101.89C42.5395 101.95 42.6528 101.98 42.7728 101.98ZM49.458 104.79C49.038 104.103 48.7113 103.39 48.478 102.65C48.2513 101.91 48.138 101.1 48.138 100.22C48.138 99.34 48.2513 98.53 48.478 97.79C48.7113 97.05 49.038 96.3367 49.458 95.65L50.378 96.03C50.0113 96.6833 49.7446 97.3667 49.578 98.08C49.4113 98.7933 49.328 99.5067 49.328 100.22C49.328 100.933 49.4113 101.647 49.578 102.36C49.7446 103.073 50.0113 103.757 50.378 104.41L49.458 104.79ZM52.2055 103L50.9955 96.48H52.5055L52.9555 99.53C52.9955 99.87 53.0388 100.213 53.0855 100.56C53.1321 100.9 53.1755 101.243 53.2155 101.59H53.2555C53.3221 101.243 53.3855 100.9 53.4455 100.56C53.5121 100.213 53.5788 99.87 53.6455 99.53L54.3455 96.48H55.5955L56.2955 99.53C56.3621 99.8633 56.4255 100.203 56.4855 100.55C56.5521 100.89 56.6188 101.237 56.6855 101.59H56.7255C56.7721 101.237 56.8155 100.89 56.8555 100.55C56.9021 100.21 56.9488 99.87 56.9955 99.53L57.4455 96.48H58.8555L57.6955 103H55.8455L55.2055 100.04C55.1521 99.7867 55.1021 99.5333 55.0555 99.28C55.0155 99.02 54.9788 98.77 54.9455 98.53H54.9055C54.8655 98.77 54.8221 99.02 54.7755 99.28C54.7355 99.5333 54.6888 99.7867 54.6355 100.04L54.0255 103H52.2055ZM60.773 103.12C60.5464 103.12 60.3397 103.08 60.153 103C59.973 102.927 59.8197 102.823 59.693 102.69C59.5664 102.55 59.4664 102.39 59.393 102.21C59.3264 102.03 59.293 101.833 59.293 101.62C59.293 101.1 59.513 100.693 59.953 100.4C60.393 100.107 61.103 99.91 62.083 99.81C62.0697 99.59 62.003 99.4167 61.883 99.29C61.7697 99.1567 61.5764 99.09 61.303 99.09C61.0897 99.09 60.8764 99.13 60.663 99.21C60.4564 99.29 60.233 99.4 59.993 99.54L59.463 98.57C59.783 98.3767 60.1164 98.22 60.463 98.1C60.8164 97.98 61.1897 97.92 61.583 97.92C62.223 97.92 62.7097 98.1033 63.043 98.47C63.383 98.83 63.553 99.3933 63.553 100.16V103H62.353L62.253 102.49H62.213C61.9997 102.677 61.7764 102.83 61.543 102.95C61.3097 103.063 61.053 103.12 60.773 103.12ZM61.273 101.98C61.4397 101.98 61.583 101.943 61.703 101.87C61.823 101.797 61.9497 101.693 62.083 101.56V100.69C61.563 100.763 61.203 100.87 61.003 101.01C60.803 101.15 60.703 101.317 60.703 101.51C60.703 101.67 60.753 101.79 60.853 101.87C60.9597 101.943 61.0997 101.98 61.273 101.98ZM66.2565 103.12C65.9298 103.12 65.5932 103.057 65.2465 102.93C64.9065 102.803 64.6098 102.637 64.3565 102.43L65.0165 101.51C65.2432 101.683 65.4598 101.813 65.6665 101.9C65.8732 101.987 66.0832 102.03 66.2965 102.03C66.5165 102.03 66.6765 101.993 66.7765 101.92C66.8765 101.847 66.9265 101.743 66.9265 101.61C66.9265 101.53 66.8965 101.46 66.8365 101.4C66.7832 101.333 66.7065 101.273 66.6065 101.22C66.5132 101.167 66.4065 101.12 66.2865 101.08C66.1665 101.033 66.0432 100.983 65.9165 100.93C65.7632 100.87 65.6098 100.8 65.4565 100.72C65.3032 100.64 65.1632 100.543 65.0365 100.43C64.9098 100.31 64.8065 100.173 64.7265 100.02C64.6465 99.86 64.6065 99.6767 64.6065 99.47C64.6065 99.2433 64.6498 99.0333 64.7365 98.84C64.8298 98.6467 64.9598 98.4833 65.1265 98.35C65.2932 98.2167 65.4932 98.1133 65.7265 98.04C65.9598 97.96 66.2198 97.92 66.5065 97.92C66.8865 97.92 67.2198 97.9867 67.5065 98.12C67.7932 98.2467 68.0432 98.39 68.2565 98.55L67.5965 99.43C67.4165 99.2967 67.2398 99.1933 67.0665 99.12C66.8932 99.0467 66.7198 99.01 66.5465 99.01C66.1732 99.01 65.9865 99.14 65.9865 99.4C65.9865 99.48 66.0132 99.55 66.0665 99.61C66.1198 99.6633 66.1898 99.7133 66.2765 99.76C66.3698 99.8067 66.4732 99.8533 66.5865 99.9C66.7065 99.94 66.8298 99.9833 66.9565 100.03C67.1165 100.09 67.2732 100.16 67.4265 100.24C67.5865 100.313 67.7298 100.407 67.8565 100.52C67.9898 100.633 68.0965 100.773 68.1765 100.94C68.2565 101.1 68.2965 101.293 68.2965 101.52C68.2965 101.747 68.2532 101.957 68.1665 102.15C68.0798 102.343 67.9498 102.513 67.7765 102.66C67.6032 102.8 67.3898 102.913 67.1365 103C66.8832 103.08 66.5898 103.12 66.2565 103.12ZM72.622 103V97.72H70.832V96.48H75.892V97.72H74.102V103H72.622ZM79.2755 103.12C78.8355 103.12 78.4321 103.043 78.0655 102.89C77.7055 102.73 77.3955 102.503 77.1355 102.21C76.8755 101.917 76.6721 101.56 76.5255 101.14C76.3855 100.72 76.3155 100.243 76.3155 99.71C76.3155 99.1767 76.3855 98.7033 76.5255 98.29C76.6721 97.87 76.8755 97.52 77.1355 97.24C77.3955 96.9533 77.7055 96.7367 78.0655 96.59C78.4321 96.4367 78.8355 96.36 79.2755 96.36C79.7155 96.36 80.1155 96.4367 80.4755 96.59C80.8421 96.7367 81.1555 96.9533 81.4155 97.24C81.6755 97.5267 81.8755 97.88 82.0155 98.3C82.1621 98.7133 82.2355 99.1833 82.2355 99.71C82.2355 100.243 82.1621 100.72 82.0155 101.14C81.8755 101.56 81.6755 101.917 81.4155 102.21C81.1555 102.503 80.8421 102.73 80.4755 102.89C80.1155 103.043 79.7155 103.12 79.2755 103.12ZM79.2755 101.85C79.7221 101.85 80.0755 101.66 80.3355 101.28C80.5955 100.893 80.7255 100.37 80.7255 99.71C80.7255 99.0567 80.5955 98.5467 80.3355 98.18C80.0755 97.8133 79.7221 97.63 79.2755 97.63C78.8288 97.63 78.4755 97.8133 78.2155 98.18C77.9555 98.5467 77.8255 99.0567 77.8255 99.71C77.8255 100.37 77.9555 100.893 78.2155 101.28C78.4755 101.66 78.8288 101.85 79.2755 101.85ZM83.4614 103V96.48H85.8114C86.1581 96.48 86.4814 96.5133 86.7814 96.58C87.0881 96.6467 87.3547 96.76 87.5814 96.92C87.8081 97.0733 87.9881 97.28 88.1214 97.54C88.2547 97.8 88.3214 98.1233 88.3214 98.51C88.3214 98.99 88.2147 99.3867 88.0014 99.7C87.7947 100.007 87.5147 100.237 87.1614 100.39L88.6414 103H86.9914L85.7414 100.65H84.9314V103H83.4614ZM84.9314 99.48H85.6914C86.0781 99.48 86.3714 99.4 86.5714 99.24C86.7781 99.0733 86.8814 98.83 86.8814 98.51C86.8814 98.19 86.7781 97.9667 86.5714 97.84C86.3714 97.7133 86.0781 97.65 85.6914 97.65H84.9314V99.48ZM91.2562 100.99V99.95H93.7162V100.99H91.2562ZM96.8484 103V101.81H98.2284V98.14H97.0384V97.23C97.3851 97.1633 97.6784 97.0833 97.9184 96.99C98.1584 96.8967 98.3918 96.7833 98.6184 96.65H99.6984V101.81H100.888V103H96.8484ZM102.132 103V101.81H103.512V98.14H102.322V97.23C102.668 97.1633 102.962 97.0833 103.202 96.99C103.442 96.8967 103.675 96.7833 103.902 96.65H104.982V101.81H106.172V103H102.132ZM109.185 103.12C108.665 103.12 108.225 103.037 107.865 102.87C107.505 102.697 107.198 102.483 106.945 102.23L107.605 101.3C107.798 101.473 108.005 101.623 108.225 101.75C108.452 101.87 108.702 101.93 108.975 101.93C109.302 101.93 109.562 101.847 109.755 101.68C109.948 101.513 110.045 101.267 110.045 100.94C110.045 100.62 109.952 100.377 109.765 100.21C109.585 100.043 109.345 99.96 109.045 99.96C108.952 99.96 108.868 99.9667 108.795 99.98C108.722 99.9867 108.648 100.003 108.575 100.03C108.508 100.057 108.435 100.09 108.355 100.13C108.282 100.17 108.198 100.22 108.105 100.28L107.445 99.86L107.625 96.65H111.225V97.89H108.895L108.785 99.08C108.905 99.0267 109.018 98.99 109.125 98.97C109.238 98.9433 109.362 98.93 109.495 98.93C109.768 98.93 110.025 98.97 110.265 99.05C110.512 99.13 110.728 99.25 110.915 99.41C111.102 99.57 111.248 99.7733 111.355 100.02C111.462 100.267 111.515 100.56 111.515 100.9C111.515 101.253 111.452 101.567 111.325 101.84C111.198 102.113 111.028 102.347 110.815 102.54C110.602 102.727 110.352 102.87 110.065 102.97C109.785 103.07 109.492 103.12 109.185 103.12ZM113.398 104.79L112.478 104.41C112.851 103.757 113.121 103.073 113.288 102.36C113.455 101.647 113.538 100.933 113.538 100.22C113.538 99.5067 113.455 98.7933 113.288 98.08C113.121 97.3667 112.851 96.6833 112.478 96.03L113.398 95.65C113.818 96.3367 114.141 97.05 114.368 97.79C114.601 98.53 114.718 99.34 114.718 100.22C114.718 101.1 114.601 101.91 114.368 102.65C114.141 103.39 113.818 104.103 113.398 104.79Z" fill="white"/>
<g clip-path="url(#clip0)">
<path d="M0 45C0 40.0294 4.02944 36 9 36H153C157.971 36 162 40.0294 162 45V142C162 146.971 157.971 151 153 151H9C4.02944 151 0 146.971 0 142V45Z" fill="#242424"/>
</g>
<path d="M9 37H153V35H9V37ZM161 45V142H163V45H161ZM153 150H9V152H153V150ZM1 142V45H-1V142H1ZM9 150C4.58173 150 1 146.418 1 142H-1C-1 147.523 3.47716 152 9 152V150ZM161 142C161 146.418 157.418 150 153 150V152C158.523 152 163 147.523 163 142H161ZM153 37C157.418 37 161 40.5817 161 45H163C163 39.4772 158.523 35 153 35V37ZM9 35C3.47715 35 -1 39.4772 -1 45H1C1 40.5817 4.58172 37 9 37V35Z" fill="white"/>
<path d="M4.328 59V48.536H6.424L8.28 53.656C8.39733 53.9867 8.50933 54.328 8.616 54.68C8.72267 55.0213 8.83467 55.3627 8.952 55.704H9.016C9.13333 55.3627 9.24 55.0213 9.336 54.68C9.44267 54.328 9.55467 53.9867 9.672 53.656L11.48 48.536H13.592V59H11.88V54.216C11.88 53.9707 11.8853 53.704 11.896 53.416C11.9173 53.128 11.9387 52.84 11.96 52.552C11.9813 52.2533 12.008 51.9653 12.04 51.688C12.072 51.4 12.0987 51.1333 12.12 50.888H12.056L11.208 53.32L9.496 58.024H8.392L6.664 53.32L5.832 50.888H5.768C5.78933 51.1333 5.81067 51.4 5.832 51.688C5.864 51.9653 5.89067 52.2533 5.912 52.552C5.944 52.84 5.96533 53.128 5.976 53.416C5.99733 53.704 6.008 53.9707 6.008 54.216V59H4.328ZM19.3059 59.192C18.8152 59.192 18.3459 59.1013 17.8979 58.92C17.4499 58.7387 17.0499 58.472 16.6979 58.12C16.3565 57.768 16.0845 57.336 15.8819 56.824C15.6792 56.312 15.5779 55.7307 15.5779 55.08C15.5779 54.4293 15.6792 53.848 15.8819 53.336C16.0845 52.824 16.3565 52.392 16.6979 52.04C17.0499 51.688 17.4499 51.4213 17.8979 51.24C18.3459 51.048 18.8152 50.952 19.3059 50.952C19.7965 50.952 20.2659 51.048 20.7139 51.24C21.1725 51.4213 21.5725 51.688 21.9139 52.04C22.2552 52.392 22.5272 52.824 22.7299 53.336C22.9432 53.848 23.0499 54.4293 23.0499 55.08C23.0499 55.7307 22.9432 56.312 22.7299 56.824C22.5272 57.336 22.2552 57.768 21.9139 58.12C21.5725 58.472 21.1725 58.7387 20.7139 58.92C20.2659 59.1013 19.7965 59.192 19.3059 59.192ZM19.3059 57.688C19.8819 57.688 20.3352 57.4533 20.6659 56.984C20.9965 56.504 21.1619 55.8693 21.1619 55.08C21.1619 54.28 20.9965 53.6453 20.6659 53.176C20.3352 52.696 19.8819 52.456 19.3059 52.456C18.7299 52.456 18.2765 52.696 17.9459 53.176C17.6259 53.6453 17.4659 54.28 17.4659 55.08C17.4659 55.8693 17.6259 56.504 17.9459 56.984C18.2765 57.4533 18.7299 57.688 19.3059 57.688ZM24.8711 59V51.144H26.3911L26.5191 52.2H26.5831C26.9351 51.8587 27.3138 51.5653 27.7191 51.32C28.1351 51.0747 28.6151 50.952 29.1591 50.952C30.0018 50.952 30.6151 51.224 30.9991 51.768C31.3831 52.3013 31.5751 53.0693 31.5751 54.072V59H29.7351V54.312C29.7351 53.6613 29.6391 53.2027 29.4471 52.936C29.2551 52.6693 28.9405 52.536 28.5031 52.536C28.1618 52.536 27.8578 52.6213 27.5911 52.792C27.3351 52.952 27.0418 53.192 26.7111 53.512V59H24.8711ZM37.1843 59.192C36.6403 59.192 36.1336 59.1013 35.6643 58.92C35.1949 58.728 34.7843 58.456 34.4323 58.104C34.0803 57.752 33.8029 57.3253 33.6003 56.824C33.4083 56.312 33.3123 55.7307 33.3123 55.08C33.3123 54.44 33.4136 53.864 33.6163 53.352C33.8189 52.84 34.0856 52.408 34.4163 52.056C34.7576 51.704 35.1469 51.432 35.5843 51.24C36.0216 51.048 36.4696 50.952 36.9283 50.952C37.4616 50.952 37.9309 51.0427 38.3363 51.224C38.7416 51.4053 39.0776 51.6613 39.3443 51.992C39.6216 52.3227 39.8296 52.7173 39.9683 53.176C40.1069 53.6347 40.1763 54.136 40.1763 54.68C40.1763 54.8613 40.1656 55.032 40.1443 55.192C40.1336 55.352 40.1176 55.48 40.0963 55.576H35.1043C35.1896 56.28 35.4349 56.824 35.8403 57.208C36.2563 57.5813 36.7843 57.768 37.4243 57.768C37.7656 57.768 38.0803 57.72 38.3683 57.624C38.6669 57.5173 38.9603 57.3733 39.2483 57.192L39.8723 58.344C39.4989 58.5893 39.0829 58.792 38.6243 58.952C38.1656 59.112 37.6856 59.192 37.1843 59.192ZM35.0883 54.328H38.5763C38.5763 53.72 38.4429 53.2453 38.1763 52.904C37.9203 52.552 37.5203 52.376 36.9763 52.376C36.5069 52.376 36.0963 52.5413 35.7443 52.872C35.3923 53.2027 35.1736 53.688 35.0883 54.328ZM42.4616 62.232C42.2483 62.232 42.0616 62.216 41.9016 62.184C41.7416 62.1627 41.587 62.1253 41.4376 62.072L41.7736 60.632C41.8483 60.6533 41.9336 60.6747 42.0296 60.696C42.1363 60.728 42.2376 60.744 42.3336 60.744C42.7496 60.744 43.0803 60.616 43.3256 60.36C43.5816 60.1147 43.7736 59.7947 43.9016 59.4L44.0456 58.904L40.9576 51.144H42.8296L44.1896 55C44.307 55.3413 44.419 55.704 44.5256 56.088C44.643 56.4613 44.7603 56.8347 44.8776 57.208H44.9416C45.0376 56.8453 45.1336 56.4773 45.2296 56.104C45.3363 55.72 45.4376 55.352 45.5336 55L46.7176 51.144H48.4936L45.6456 59.352C45.4856 59.8 45.3096 60.2 45.1176 60.552C44.9256 60.904 44.7016 61.2027 44.4456 61.448C44.2003 61.704 43.9123 61.896 43.5816 62.024C43.2616 62.1627 42.8883 62.232 42.4616 62.232ZM53.2186 59V48.536H55.0746V57.432H59.4266V59H53.2186ZM61.0899 59V51.144H62.9299V59H61.0899ZM62.0179 49.768C61.6872 49.768 61.4152 49.672 61.2019 49.48C60.9885 49.288 60.8819 49.0373 60.8819 48.728C60.8819 48.4187 60.9885 48.168 61.2019 47.976C61.4152 47.7733 61.6872 47.672 62.0179 47.672C62.3485 47.672 62.6205 47.7733 62.8339 47.976C63.0472 48.168 63.1539 48.4187 63.1539 48.728C63.1539 49.0373 63.0472 49.288 62.8339 49.48C62.6205 49.672 62.3485 49.768 62.0179 49.768ZM65.2774 59V51.144H66.7974L66.9254 52.2H66.9894C67.3414 51.8587 67.72 51.5653 68.1254 51.32C68.5414 51.0747 69.0214 50.952 69.5654 50.952C70.408 50.952 71.0214 51.224 71.4054 51.768C71.7894 52.3013 71.9814 53.0693 71.9814 54.072V59H70.1414V54.312C70.1414 53.6613 70.0454 53.2027 69.8534 52.936C69.6614 52.6693 69.3467 52.536 68.9094 52.536C68.568 52.536 68.264 52.6213 67.9974 52.792C67.7414 52.952 67.448 53.192 67.1174 53.512V59H65.2774ZM77.5905 59.192C77.0465 59.192 76.5398 59.1013 76.0705 58.92C75.6012 58.728 75.1905 58.456 74.8385 58.104C74.4865 57.752 74.2092 57.3253 74.0065 56.824C73.8145 56.312 73.7185 55.7307 73.7185 55.08C73.7185 54.44 73.8198 53.864 74.0225 53.352C74.2252 52.84 74.4918 52.408 74.8225 52.056C75.1638 51.704 75.5532 51.432 75.9905 51.24C76.4278 51.048 76.8758 50.952 77.3345 50.952C77.8678 50.952 78.3372 51.0427 78.7425 51.224C79.1478 51.4053 79.4838 51.6613 79.7505 51.992C80.0278 52.3227 80.2358 52.7173 80.3745 53.176C80.5132 53.6347 80.5825 54.136 80.5825 54.68C80.5825 54.8613 80.5718 55.032 80.5505 55.192C80.5398 55.352 80.5238 55.48 80.5025 55.576H75.5105C75.5958 56.28 75.8412 56.824 76.2465 57.208C76.6625 57.5813 77.1905 57.768 77.8305 57.768C78.1718 57.768 78.4865 57.72 78.7745 57.624C79.0732 57.5173 79.3665 57.3733 79.6545 57.192L80.2785 58.344C79.9052 58.5893 79.4892 58.792 79.0305 58.952C78.5718 59.112 78.0918 59.192 77.5905 59.192ZM75.4945 54.328H78.9825C78.9825 53.72 78.8492 53.2453 78.5825 52.904C78.3265 52.552 77.9265 52.376 77.3825 52.376C76.9132 52.376 76.5025 52.5413 76.1505 52.872C75.7985 53.2027 75.5798 53.688 75.4945 54.328ZM85.703 59V48.536H87.799L89.655 53.656C89.7723 53.9867 89.8843 54.328 89.991 54.68C90.0977 55.0213 90.2097 55.3627 90.327 55.704H90.391C90.5083 55.3627 90.615 55.0213 90.711 54.68C90.8177 54.328 90.9297 53.9867 91.047 53.656L92.855 48.536H94.967V59H93.255V54.216C93.255 53.9707 93.2603 53.704 93.271 53.416C93.2923 53.128 93.3137 52.84 93.335 52.552C93.3563 52.2533 93.383 51.9653 93.415 51.688C93.447 51.4 93.4737 51.1333 93.495 50.888H93.431L92.583 53.32L90.871 58.024H89.767L88.039 53.32L87.207 50.888H87.143C87.1643 51.1333 87.1857 51.4 87.207 51.688C87.239 51.9653 87.2657 52.2533 87.287 52.552C87.319 52.84 87.3403 53.128 87.351 53.416C87.3723 53.704 87.383 53.9707 87.383 54.216V59H85.703ZM100.681 59.192C100.19 59.192 99.7209 59.1013 99.2729 58.92C98.8249 58.7387 98.4249 58.472 98.0729 58.12C97.7315 57.768 97.4595 57.336 97.2569 56.824C97.0542 56.312 96.9529 55.7307 96.9529 55.08C96.9529 54.4293 97.0542 53.848 97.2569 53.336C97.4595 52.824 97.7315 52.392 98.0729 52.04C98.4249 51.688 98.8249 51.4213 99.2729 51.24C99.7209 51.048 100.19 50.952 100.681 50.952C101.172 50.952 101.641 51.048 102.089 51.24C102.548 51.4213 102.948 51.688 103.289 52.04C103.63 52.392 103.902 52.824 104.105 53.336C104.318 53.848 104.425 54.4293 104.425 55.08C104.425 55.7307 104.318 56.312 104.105 56.824C103.902 57.336 103.63 57.768 103.289 58.12C102.948 58.472 102.548 58.7387 102.089 58.92C101.641 59.1013 101.172 59.192 100.681 59.192ZM100.681 57.688C101.257 57.688 101.71 57.4533 102.041 56.984C102.372 56.504 102.537 55.8693 102.537 55.08C102.537 54.28 102.372 53.6453 102.041 53.176C101.71 52.696 101.257 52.456 100.681 52.456C100.105 52.456 99.6515 52.696 99.3209 53.176C99.0009 53.6453 98.8409 54.28 98.8409 55.08C98.8409 55.8693 99.0009 56.504 99.3209 56.984C99.6515 57.4533 100.105 57.688 100.681 57.688ZM107.912 59L105.176 51.144H107.048L108.296 55.224C108.403 55.608 108.51 55.9973 108.616 56.392C108.734 56.7867 108.846 57.1867 108.952 57.592H109.016C109.134 57.1867 109.246 56.7867 109.352 56.392C109.459 55.9973 109.571 55.608 109.688 55.224L110.936 51.144H112.712L110.04 59H107.912ZM117.341 59.192C116.797 59.192 116.29 59.1013 115.821 58.92C115.351 58.728 114.941 58.456 114.589 58.104C114.237 57.752 113.959 57.3253 113.757 56.824C113.565 56.312 113.469 55.7307 113.469 55.08C113.469 54.44 113.57 53.864 113.773 53.352C113.975 52.84 114.242 52.408 114.573 52.056C114.914 51.704 115.303 51.432 115.741 51.24C116.178 51.048 116.626 50.952 117.085 50.952C117.618 50.952 118.087 51.0427 118.493 51.224C118.898 51.4053 119.234 51.6613 119.501 51.992C119.778 52.3227 119.986 52.7173 120.125 53.176C120.263 53.6347 120.333 54.136 120.333 54.68C120.333 54.8613 120.322 55.032 120.301 55.192C120.29 55.352 120.274 55.48 120.253 55.576H115.261C115.346 56.28 115.591 56.824 115.997 57.208C116.413 57.5813 116.941 57.768 117.581 57.768C117.922 57.768 118.237 57.72 118.525 57.624C118.823 57.5173 119.117 57.3733 119.405 57.192L120.029 58.344C119.655 58.5893 119.239 58.792 118.781 58.952C118.322 59.112 117.842 59.192 117.341 59.192ZM115.245 54.328H118.733C118.733 53.72 118.599 53.2453 118.333 52.904C118.077 52.552 117.677 52.376 117.133 52.376C116.663 52.376 116.253 52.5413 115.901 52.872C115.549 53.2027 115.33 53.688 115.245 54.328ZM122.09 59V51.144H123.61L123.738 52.216H123.802C124.133 51.864 124.49 51.5653 124.874 51.32C125.269 51.0747 125.711 50.952 126.202 50.952C126.778 50.952 127.237 51.0747 127.578 51.32C127.93 51.5653 128.197 51.912 128.378 52.36C128.751 51.9547 129.141 51.6187 129.546 51.352C129.951 51.0853 130.405 50.952 130.906 50.952C131.738 50.952 132.351 51.224 132.746 51.768C133.141 52.3013 133.338 53.0693 133.338 54.072V59H131.482V54.312C131.482 53.6613 131.381 53.2027 131.178 52.936C130.986 52.6693 130.687 52.536 130.282 52.536C129.791 52.536 129.242 52.8613 128.634 53.512V59H126.794V54.312C126.794 53.6613 126.693 53.2027 126.49 52.936C126.298 52.6693 125.994 52.536 125.578 52.536C125.087 52.536 124.538 52.8613 123.93 53.512V59H122.09ZM138.934 59.192C138.39 59.192 137.884 59.1013 137.414 58.92C136.945 58.728 136.534 58.456 136.182 58.104C135.83 57.752 135.553 57.3253 135.35 56.824C135.158 56.312 135.062 55.7307 135.062 55.08C135.062 54.44 135.164 53.864 135.366 53.352C135.569 52.84 135.836 52.408 136.166 52.056C136.508 51.704 136.897 51.432 137.334 51.24C137.772 51.048 138.22 50.952 138.678 50.952C139.212 50.952 139.681 51.0427 140.086 51.224C140.492 51.4053 140.828 51.6613 141.094 51.992C141.372 52.3227 141.58 52.7173 141.718 53.176C141.857 53.6347 141.926 54.136 141.926 54.68C141.926 54.8613 141.916 55.032 141.894 55.192C141.884 55.352 141.868 55.48 141.846 55.576H136.854C136.94 56.28 137.185 56.824 137.59 57.208C138.006 57.5813 138.534 57.768 139.174 57.768C139.516 57.768 139.83 57.72 140.118 57.624C140.417 57.5173 140.71 57.3733 140.998 57.192L141.622 58.344C141.249 58.5893 140.833 58.792 140.374 58.952C139.916 59.112 139.436 59.192 138.934 59.192ZM136.838 54.328H140.326C140.326 53.72 140.193 53.2453 139.926 52.904C139.67 52.552 139.27 52.376 138.726 52.376C138.257 52.376 137.846 52.5413 137.494 52.872C137.142 53.2027 136.924 53.688 136.838 54.328ZM143.684 59V51.144H145.204L145.332 52.2H145.396C145.748 51.8587 146.126 51.5653 146.532 51.32C146.948 51.0747 147.428 50.952 147.972 50.952C148.814 50.952 149.428 51.224 149.812 51.768C150.196 52.3013 150.388 53.0693 150.388 54.072V59H148.548V54.312C148.548 53.6613 148.452 53.2027 148.26 52.936C148.068 52.6693 147.753 52.536 147.316 52.536C146.974 52.536 146.67 52.6213 146.404 52.792C146.148 52.952 145.854 53.192 145.524 53.512V59H143.684ZM155.405 59.192C154.946 59.192 154.557 59.1227 154.237 58.984C153.927 58.8453 153.671 58.6533 153.469 58.408C153.277 58.152 153.133 57.8533 153.037 57.512C152.951 57.16 152.909 56.7707 152.909 56.344V52.6H151.789V51.224L153.005 51.144L153.229 49H154.765V51.144H156.765V52.6H154.765V56.344C154.765 57.2613 155.133 57.72 155.869 57.72C156.007 57.72 156.146 57.704 156.285 57.672C156.434 57.64 156.567 57.5973 156.685 57.544L157.005 58.904C156.791 58.9787 156.546 59.0427 156.269 59.096C156.002 59.16 155.714 59.192 155.405 59.192Z" fill="white"/>
<path d="M5.76 117.12C5.33333 117.12 4.90667 117.043 4.48 116.89C4.06 116.73 3.68333 116.493 3.35 116.18L4.19 115.17C4.42333 115.37 4.68 115.533 4.96 115.66C5.24667 115.787 5.52667 115.85 5.8 115.85C6.10667 115.85 6.33333 115.793 6.48 115.68C6.63333 115.567 6.71 115.413 6.71 115.22C6.71 115.12 6.68667 115.033 6.64 114.96C6.6 114.887 6.53667 114.823 6.45 114.77C6.37 114.71 6.27 114.657 6.15 114.61C6.03667 114.557 5.91 114.5 5.77 114.44L4.92 114.08C4.75333 114.013 4.59 113.927 4.43 113.82C4.27667 113.713 4.13667 113.59 4.01 113.45C3.89 113.303 3.79333 113.137 3.72 112.95C3.64667 112.757 3.61 112.54 3.61 112.3C3.61 112.033 3.66667 111.783 3.78 111.55C3.89333 111.31 4.05333 111.103 4.26 110.93C4.46667 110.75 4.71 110.61 4.99 110.51C5.27667 110.41 5.59 110.36 5.93 110.36C6.31 110.36 6.68333 110.433 7.05 110.58C7.42333 110.727 7.75 110.94 8.03 111.22L7.28 112.15C7.06667 111.983 6.85333 111.857 6.64 111.77C6.42667 111.677 6.19 111.63 5.93 111.63C5.67667 111.63 5.47333 111.683 5.32 111.79C5.17333 111.89 5.1 112.033 5.1 112.22C5.1 112.32 5.12333 112.407 5.17 112.48C5.22333 112.547 5.29333 112.61 5.38 112.67C5.47333 112.723 5.58 112.777 5.7 112.83C5.82 112.877 5.95 112.93 6.09 112.99L6.93 113.33C7.33 113.49 7.64333 113.71 7.87 113.99C8.10333 114.27 8.22 114.64 8.22 115.1C8.22 115.373 8.16333 115.633 8.05 115.88C7.94333 116.12 7.78333 116.333 7.57 116.52C7.36333 116.7 7.10667 116.847 6.8 116.96C6.49333 117.067 6.14667 117.12 5.76 117.12ZM10.4013 117V111.72H8.61133V110.48H13.6713V111.72H11.8813V117H10.4013ZM14.688 117V110.48H16.158V115.76H18.738V117H14.688ZM21.5257 114.99V113.95H23.9857V114.99H21.5257ZM27.118 117V115.81H28.498V112.14H27.308V111.23C27.6546 111.163 27.948 111.083 28.188 110.99C28.428 110.897 28.6613 110.783 28.888 110.65H29.968V115.81H31.158V117H27.118ZM32.4012 117V115.81H33.7812V112.14H32.5912V111.23C32.9378 111.163 33.2312 111.083 33.4712 110.99C33.7112 110.897 33.9445 110.783 34.1712 110.65H35.2512V115.81H36.4412V117H32.4012ZM39.6244 117.12C39.2844 117.12 38.9744 117.05 38.6944 116.91C38.4144 116.763 38.1744 116.55 37.9744 116.27C37.781 115.99 37.6277 115.643 37.5144 115.23C37.4077 114.817 37.3544 114.34 37.3544 113.8C37.3544 113.26 37.4077 112.787 37.5144 112.38C37.6277 111.973 37.781 111.633 37.9744 111.36C38.1744 111.08 38.4144 110.873 38.6944 110.74C38.9744 110.6 39.2844 110.53 39.6244 110.53C39.9644 110.53 40.2744 110.6 40.5544 110.74C40.8344 110.873 41.071 111.08 41.2644 111.36C41.4644 111.633 41.6177 111.973 41.7244 112.38C41.8377 112.787 41.8944 113.26 41.8944 113.8C41.8944 114.34 41.8377 114.817 41.7244 115.23C41.6177 115.643 41.4644 115.99 41.2644 116.27C41.071 116.55 40.8344 116.763 40.5544 116.91C40.2744 117.05 39.9644 117.12 39.6244 117.12ZM39.6244 115.98C39.751 115.98 39.8677 115.95 39.9744 115.89C40.081 115.823 40.1744 115.707 40.2544 115.54C40.3344 115.373 40.3944 115.15 40.4344 114.87C40.481 114.59 40.5044 114.233 40.5044 113.8C40.5044 113.367 40.481 113.013 40.4344 112.74C40.3944 112.46 40.3344 112.243 40.2544 112.09C40.1744 111.93 40.081 111.82 39.9744 111.76C39.8677 111.7 39.751 111.67 39.6244 111.67C39.5044 111.67 39.391 111.7 39.2844 111.76C39.1777 111.82 39.0844 111.93 39.0044 112.09C38.9244 112.243 38.861 112.46 38.8144 112.74C38.7677 113.013 38.7444 113.367 38.7444 113.8C38.7444 114.233 38.7677 114.59 38.8144 114.87C38.861 115.15 38.9244 115.373 39.0044 115.54C39.0844 115.707 39.1777 115.823 39.2844 115.89C39.391 115.95 39.5044 115.98 39.6244 115.98ZM46.3095 118.79C45.8895 118.103 45.5629 117.39 45.3295 116.65C45.1029 115.91 44.9895 115.1 44.9895 114.22C44.9895 113.34 45.1029 112.53 45.3295 111.79C45.5629 111.05 45.8895 110.337 46.3095 109.65L47.2295 110.03C46.8629 110.683 46.5962 111.367 46.4295 112.08C46.2629 112.793 46.1795 113.507 46.1795 114.22C46.1795 114.933 46.2629 115.647 46.4295 116.36C46.5962 117.073 46.8629 117.757 47.2295 118.41L46.3095 118.79ZM49.057 117L47.847 110.48H49.357L49.807 113.53C49.847 113.87 49.8904 114.213 49.937 114.56C49.9837 114.9 50.027 115.243 50.067 115.59H50.107C50.1737 115.243 50.237 114.9 50.297 114.56C50.3637 114.213 50.4304 113.87 50.497 113.53L51.197 110.48H52.447L53.147 113.53C53.2137 113.863 53.277 114.203 53.337 114.55C53.4037 114.89 53.4704 115.237 53.537 115.59H53.577C53.6237 115.237 53.667 114.89 53.707 114.55C53.7537 114.21 53.8004 113.87 53.847 113.53L54.297 110.48H55.707L54.547 117H52.697L52.057 114.04C52.0037 113.787 51.9537 113.533 51.907 113.28C51.867 113.02 51.8304 112.77 51.797 112.53H51.757C51.717 112.77 51.6737 113.02 51.627 113.28C51.587 113.533 51.5404 113.787 51.487 114.04L50.877 117H49.057ZM57.6246 117.12C57.3979 117.12 57.1913 117.08 57.0046 117C56.8246 116.927 56.6713 116.823 56.5446 116.69C56.4179 116.55 56.3179 116.39 56.2446 116.21C56.1779 116.03 56.1446 115.833 56.1446 115.62C56.1446 115.1 56.3646 114.693 56.8046 114.4C57.2446 114.107 57.9546 113.91 58.9346 113.81C58.9213 113.59 58.8546 113.417 58.7346 113.29C58.6213 113.157 58.4279 113.09 58.1546 113.09C57.9413 113.09 57.7279 113.13 57.5146 113.21C57.3079 113.29 57.0846 113.4 56.8446 113.54L56.3146 112.57C56.6346 112.377 56.9679 112.22 57.3146 112.1C57.6679 111.98 58.0413 111.92 58.4346 111.92C59.0746 111.92 59.5613 112.103 59.8946 112.47C60.2346 112.83 60.4046 113.393 60.4046 114.16V117H59.2046L59.1046 116.49H59.0646C58.8513 116.677 58.6279 116.83 58.3946 116.95C58.1613 117.063 57.9046 117.12 57.6246 117.12ZM58.1246 115.98C58.2913 115.98 58.4346 115.943 58.5546 115.87C58.6746 115.797 58.8013 115.693 58.9346 115.56V114.69C58.4146 114.763 58.0546 114.87 57.8546 115.01C57.6546 115.15 57.5546 115.317 57.5546 115.51C57.5546 115.67 57.6046 115.79 57.7046 115.87C57.8113 115.943 57.9513 115.98 58.1246 115.98ZM63.108 117.12C62.7814 117.12 62.4447 117.057 62.098 116.93C61.758 116.803 61.4614 116.637 61.208 116.43L61.868 115.51C62.0947 115.683 62.3114 115.813 62.518 115.9C62.7247 115.987 62.9347 116.03 63.148 116.03C63.368 116.03 63.528 115.993 63.628 115.92C63.728 115.847 63.778 115.743 63.778 115.61C63.778 115.53 63.748 115.46 63.688 115.4C63.6347 115.333 63.558 115.273 63.458 115.22C63.3647 115.167 63.258 115.12 63.138 115.08C63.018 115.033 62.8947 114.983 62.768 114.93C62.6147 114.87 62.4614 114.8 62.308 114.72C62.1547 114.64 62.0147 114.543 61.888 114.43C61.7614 114.31 61.658 114.173 61.578 114.02C61.498 113.86 61.458 113.677 61.458 113.47C61.458 113.243 61.5014 113.033 61.588 112.84C61.6814 112.647 61.8114 112.483 61.978 112.35C62.1447 112.217 62.3447 112.113 62.578 112.04C62.8114 111.96 63.0714 111.92 63.358 111.92C63.738 111.92 64.0714 111.987 64.358 112.12C64.6447 112.247 64.8947 112.39 65.108 112.55L64.448 113.43C64.268 113.297 64.0914 113.193 63.918 113.12C63.7447 113.047 63.5714 113.01 63.398 113.01C63.0247 113.01 62.838 113.14 62.838 113.4C62.838 113.48 62.8647 113.55 62.918 113.61C62.9714 113.663 63.0414 113.713 63.128 113.76C63.2214 113.807 63.3247 113.853 63.438 113.9C63.558 113.94 63.6814 113.983 63.808 114.03C63.968 114.09 64.1247 114.16 64.278 114.24C64.438 114.313 64.5814 114.407 64.708 114.52C64.8414 114.633 64.948 114.773 65.028 114.94C65.108 115.1 65.148 115.293 65.148 115.52C65.148 115.747 65.1047 115.957 65.018 116.15C64.9314 116.343 64.8014 116.513 64.628 116.66C64.4547 116.8 64.2414 116.913 63.988 117C63.7347 117.08 63.4414 117.12 63.108 117.12ZM70.1936 117.12C69.7669 117.12 69.3403 117.043 68.9136 116.89C68.4936 116.73 68.1169 116.493 67.7836 116.18L68.6236 115.17C68.8569 115.37 69.1136 115.533 69.3936 115.66C69.6803 115.787 69.9603 115.85 70.2336 115.85C70.5403 115.85 70.7669 115.793 70.9136 115.68C71.0669 115.567 71.1436 115.413 71.1436 115.22C71.1436 115.12 71.1203 115.033 71.0736 114.96C71.0336 114.887 70.9703 114.823 70.8836 114.77C70.8036 114.71 70.7036 114.657 70.5836 114.61C70.4703 114.557 70.3436 114.5 70.2036 114.44L69.3536 114.08C69.1869 114.013 69.0236 113.927 68.8636 113.82C68.7103 113.713 68.5703 113.59 68.4436 113.45C68.3236 113.303 68.2269 113.137 68.1536 112.95C68.0803 112.757 68.0436 112.54 68.0436 112.3C68.0436 112.033 68.1003 111.783 68.2136 111.55C68.3269 111.31 68.4869 111.103 68.6936 110.93C68.9003 110.75 69.1436 110.61 69.4236 110.51C69.7103 110.41 70.0236 110.36 70.3636 110.36C70.7436 110.36 71.1169 110.433 71.4836 110.58C71.8569 110.727 72.1836 110.94 72.4636 111.22L71.7136 112.15C71.5003 111.983 71.2869 111.857 71.0736 111.77C70.8603 111.677 70.6236 111.63 70.3636 111.63C70.1103 111.63 69.9069 111.683 69.7536 111.79C69.6069 111.89 69.5336 112.033 69.5336 112.22C69.5336 112.32 69.5569 112.407 69.6036 112.48C69.6569 112.547 69.7269 112.61 69.8136 112.67C69.9069 112.723 70.0136 112.777 70.1336 112.83C70.2536 112.877 70.3836 112.93 70.5236 112.99L71.3636 113.33C71.7636 113.49 72.0769 113.71 72.3036 113.99C72.5369 114.27 72.6536 114.64 72.6536 115.1C72.6536 115.373 72.5969 115.633 72.4836 115.88C72.3769 116.12 72.2169 116.333 72.0036 116.52C71.7969 116.7 71.5403 116.847 71.2336 116.96C70.9269 117.067 70.5803 117.12 70.1936 117.12ZM74.8349 117V111.72H73.0449V110.48H78.1049V111.72H76.3149V117H74.8349ZM79.1216 117V110.48H80.5916V115.76H83.1716V117H79.1216ZM85.9593 114.99V113.95H88.4193V114.99H85.9593ZM91.5516 117V115.81H92.9316V112.14H91.7416V111.23C92.0882 111.163 92.3816 111.083 92.6216 110.99C92.8616 110.897 93.0949 110.783 93.3216 110.65H94.4016V115.81H95.5916V117H91.5516ZM98.7748 117.12C98.4348 117.12 98.1248 117.05 97.8448 116.91C97.5648 116.763 97.3248 116.55 97.1248 116.27C96.9314 115.99 96.7781 115.643 96.6648 115.23C96.5581 114.817 96.5048 114.34 96.5048 113.8C96.5048 113.26 96.5581 112.787 96.6648 112.38C96.7781 111.973 96.9314 111.633 97.1248 111.36C97.3248 111.08 97.5648 110.873 97.8448 110.74C98.1248 110.6 98.4348 110.53 98.7748 110.53C99.1148 110.53 99.4248 110.6 99.7048 110.74C99.9848 110.873 100.221 111.08 100.415 111.36C100.615 111.633 100.768 111.973 100.875 112.38C100.988 112.787 101.045 113.26 101.045 113.8C101.045 114.34 100.988 114.817 100.875 115.23C100.768 115.643 100.615 115.99 100.415 116.27C100.221 116.55 99.9848 116.763 99.7048 116.91C99.4248 117.05 99.1148 117.12 98.7748 117.12ZM98.7748 115.98C98.9014 115.98 99.0181 115.95 99.1248 115.89C99.2314 115.823 99.3248 115.707 99.4048 115.54C99.4848 115.373 99.5448 115.15 99.5848 114.87C99.6314 114.59 99.6548 114.233 99.6548 113.8C99.6548 113.367 99.6314 113.013 99.5848 112.74C99.5448 112.46 99.4848 112.243 99.4048 112.09C99.3248 111.93 99.2314 111.82 99.1248 111.76C99.0181 111.7 98.9014 111.67 98.7748 111.67C98.6548 111.67 98.5414 111.7 98.4348 111.76C98.3281 111.82 98.2348 111.93 98.1548 112.09C98.0748 112.243 98.0114 112.46 97.9648 112.74C97.9181 113.013 97.8948 113.367 97.8948 113.8C97.8948 114.233 97.9181 114.59 97.9648 114.87C98.0114 115.15 98.0748 115.373 98.1548 115.54C98.2348 115.707 98.3281 115.823 98.4348 115.89C98.5414 115.95 98.6548 115.98 98.7748 115.98ZM103.888 117.12C103.368 117.12 102.928 117.037 102.568 116.87C102.208 116.697 101.901 116.483 101.648 116.23L102.308 115.3C102.501 115.473 102.708 115.623 102.928 115.75C103.155 115.87 103.405 115.93 103.678 115.93C104.005 115.93 104.265 115.847 104.458 115.68C104.651 115.513 104.748 115.267 104.748 114.94C104.748 114.62 104.655 114.377 104.468 114.21C104.288 114.043 104.048 113.96 103.748 113.96C103.655 113.96 103.571 113.967 103.498 113.98C103.425 113.987 103.351 114.003 103.278 114.03C103.211 114.057 103.138 114.09 103.058 114.13C102.985 114.17 102.901 114.22 102.808 114.28L102.148 113.86L102.328 110.65H105.928V111.89H103.598L103.488 113.08C103.608 113.027 103.721 112.99 103.828 112.97C103.941 112.943 104.065 112.93 104.198 112.93C104.471 112.93 104.728 112.97 104.968 113.05C105.215 113.13 105.431 113.25 105.618 113.41C105.805 113.57 105.951 113.773 106.058 114.02C106.165 114.267 106.218 114.56 106.218 114.9C106.218 115.253 106.155 115.567 106.028 115.84C105.901 116.113 105.731 116.347 105.518 116.54C105.305 116.727 105.055 116.87 104.768 116.97C104.488 117.07 104.195 117.12 103.888 117.12ZM108.101 118.79L107.181 118.41C107.555 117.757 107.825 117.073 107.991 116.36C108.158 115.647 108.241 114.933 108.241 114.22C108.241 113.507 108.158 112.793 107.991 112.08C107.825 111.367 107.555 110.683 107.181 110.03L108.101 109.65C108.521 110.337 108.845 111.05 109.071 111.79C109.305 112.53 109.421 113.34 109.421 114.22C109.421 115.1 109.305 115.91 109.071 116.65C108.845 117.39 108.521 118.103 108.101 118.79Z" fill="white"/>
<path d="M5.04 76V70.72H3.25V69.48H8.31V70.72H6.52V76H5.04ZM11.6934 76.12C11.2534 76.12 10.8501 76.0433 10.4834 75.89C10.1234 75.73 9.81344 75.5033 9.55344 75.21C9.29344 74.9167 9.0901 74.56 8.94344 74.14C8.80344 73.72 8.73344 73.2433 8.73344 72.71C8.73344 72.1767 8.80344 71.7033 8.94344 71.29C9.0901 70.87 9.29344 70.52 9.55344 70.24C9.81344 69.9533 10.1234 69.7367 10.4834 69.59C10.8501 69.4367 11.2534 69.36 11.6934 69.36C12.1334 69.36 12.5334 69.4367 12.8934 69.59C13.2601 69.7367 13.5734 69.9533 13.8334 70.24C14.0934 70.5267 14.2934 70.88 14.4334 71.3C14.5801 71.7133 14.6534 72.1833 14.6534 72.71C14.6534 73.2433 14.5801 73.72 14.4334 74.14C14.2934 74.56 14.0934 74.9167 13.8334 75.21C13.5734 75.5033 13.2601 75.73 12.8934 75.89C12.5334 76.0433 12.1334 76.12 11.6934 76.12ZM11.6934 74.85C12.1401 74.85 12.4934 74.66 12.7534 74.28C13.0134 73.8933 13.1434 73.37 13.1434 72.71C13.1434 72.0567 13.0134 71.5467 12.7534 71.18C12.4934 70.8133 12.1401 70.63 11.6934 70.63C11.2468 70.63 10.8934 70.8133 10.6334 71.18C10.3734 71.5467 10.2434 72.0567 10.2434 72.71C10.2434 73.37 10.3734 73.8933 10.6334 74.28C10.8934 74.66 11.2468 74.85 11.6934 74.85ZM15.8794 76V69.48H18.2294C18.576 69.48 18.8994 69.5133 19.1994 69.58C19.506 69.6467 19.7727 69.76 19.9994 69.92C20.226 70.0733 20.406 70.28 20.5394 70.54C20.6727 70.8 20.7394 71.1233 20.7394 71.51C20.7394 71.99 20.6327 72.3867 20.4194 72.7C20.2127 73.0067 19.9327 73.2367 19.5794 73.39L21.0594 76H19.4094L18.1594 73.65H17.3494V76H15.8794ZM17.3494 72.48H18.1094C18.496 72.48 18.7894 72.4 18.9894 72.24C19.196 72.0733 19.2994 71.83 19.2994 71.51C19.2994 71.19 19.196 70.9667 18.9894 70.84C18.7894 70.7133 18.496 70.65 18.1094 70.65H17.3494V72.48ZM24.0141 76V69.48H26.2441C26.5841 69.48 26.8975 69.5067 27.1841 69.56C27.4775 69.6067 27.7308 69.6933 27.9441 69.82C28.1641 69.9467 28.3341 70.1133 28.4541 70.32C28.5808 70.5267 28.6441 70.7867 28.6441 71.1C28.6441 71.2467 28.6241 71.3933 28.5841 71.54C28.5441 71.6867 28.4875 71.8233 28.4141 71.95C28.3408 72.0767 28.2508 72.19 28.1441 72.29C28.0441 72.39 27.9275 72.4633 27.7941 72.51V72.55C27.9608 72.59 28.1141 72.6533 28.2541 72.74C28.3941 72.82 28.5175 72.9233 28.6241 73.05C28.7308 73.1767 28.8141 73.3267 28.8741 73.5C28.9341 73.6667 28.9641 73.86 28.9641 74.08C28.9641 74.4133 28.8975 74.7 28.7641 74.94C28.6375 75.18 28.4575 75.38 28.2241 75.54C27.9975 75.6933 27.7308 75.81 27.4241 75.89C27.1175 75.9633 26.7875 76 26.4341 76H24.0141ZM25.4841 72.09H26.1741C26.5341 72.09 26.7941 72.02 26.9541 71.88C27.1208 71.74 27.2041 71.5533 27.2041 71.32C27.2041 71.0667 27.1208 70.8867 26.9541 70.78C26.7875 70.6733 26.5308 70.62 26.1841 70.62H25.4841V72.09ZM25.4841 74.86H26.3141C27.1208 74.86 27.5241 74.5667 27.5241 73.98C27.5241 73.6933 27.4241 73.49 27.2241 73.37C27.0241 73.2433 26.7208 73.18 26.3141 73.18H25.4841V74.86ZM31.2988 76.12C31.0455 76.12 30.8322 76.08 30.6588 76C30.4855 75.92 30.3455 75.81 30.2388 75.67C30.1388 75.5233 30.0655 75.35 30.0188 75.15C29.9722 74.9433 29.9488 74.7133 29.9488 74.46V68.99H31.4188V74.52C31.4188 74.6733 31.4455 74.78 31.4988 74.84C31.5588 74.9 31.6188 74.93 31.6788 74.93C31.7122 74.93 31.7388 74.93 31.7588 74.93C31.7855 74.93 31.8188 74.9233 31.8588 74.91L32.0388 76C31.9588 76.0333 31.8555 76.06 31.7288 76.08C31.6088 76.1067 31.4655 76.12 31.2988 76.12ZM34.3002 76.12C33.7602 76.12 33.3668 75.9433 33.1202 75.59C32.8802 75.2367 32.7602 74.7467 32.7602 74.12V71.04H34.2302V73.93C34.2302 74.29 34.2802 74.5367 34.3802 74.67C34.4802 74.8033 34.6368 74.87 34.8502 74.87C35.0368 74.87 35.1935 74.8267 35.3202 74.74C35.4468 74.6533 35.5835 74.5133 35.7302 74.32V71.04H37.2002V76H36.0002L35.8902 75.31H35.8602C35.6468 75.5633 35.4168 75.7633 35.1702 75.91C34.9302 76.05 34.6402 76.12 34.3002 76.12ZM40.7138 76.12C40.3604 76.12 40.0304 76.0633 39.7238 75.95C39.4171 75.83 39.1504 75.66 38.9238 75.44C38.6971 75.2133 38.5204 74.94 38.3938 74.62C38.2671 74.3 38.2038 73.9333 38.2038 73.52C38.2038 73.12 38.2704 72.76 38.4038 72.44C38.5371 72.1133 38.7104 71.84 38.9238 71.62C39.1438 71.3933 39.3938 71.22 39.6738 71.1C39.9538 70.98 40.2438 70.92 40.5438 70.92C40.8971 70.92 41.2038 70.98 41.4638 71.1C41.7304 71.22 41.9504 71.3867 42.1238 71.6C42.3038 71.8133 42.4371 72.0667 42.5238 72.36C42.6104 72.6467 42.6538 72.96 42.6538 73.3C42.6538 73.4333 42.6471 73.56 42.6338 73.68C42.6204 73.8 42.6071 73.89 42.5938 73.95H39.6238C39.6904 74.31 39.8371 74.5767 40.0638 74.75C40.2971 74.9167 40.5804 75 40.9138 75C41.2671 75 41.6238 74.89 41.9838 74.67L42.4738 75.56C42.2204 75.7333 41.9371 75.87 41.6238 75.97C41.3171 76.07 41.0138 76.12 40.7138 76.12ZM39.6138 72.98H41.4038C41.4038 72.7 41.3404 72.4733 41.2138 72.3C41.0871 72.1267 40.8738 72.04 40.5738 72.04C40.3404 72.04 40.1338 72.1167 39.9538 72.27C39.7804 72.4233 39.6671 72.66 39.6138 72.98ZM47.2815 76.12C46.7815 76.12 46.3615 76.0233 46.0215 75.83C45.6882 75.6367 45.4082 75.34 45.1815 74.94L46.1815 74.2C46.3015 74.42 46.4415 74.5833 46.6015 74.69C46.7615 74.7967 46.9248 74.85 47.0915 74.85C47.3582 74.85 47.5582 74.77 47.6915 74.61C47.8315 74.4433 47.9015 74.1433 47.9015 73.71V69.48H49.3715V73.83C49.3715 74.1433 49.3282 74.44 49.2415 74.72C49.1615 75 49.0348 75.2433 48.8615 75.45C48.6948 75.6567 48.4782 75.82 48.2115 75.94C47.9515 76.06 47.6415 76.12 47.2815 76.12ZM52.0094 76.12C51.7827 76.12 51.576 76.08 51.3894 76C51.2094 75.9267 51.056 75.8233 50.9294 75.69C50.8027 75.55 50.7027 75.39 50.6294 75.21C50.5627 75.03 50.5294 74.8333 50.5294 74.62C50.5294 74.1 50.7494 73.6933 51.1894 73.4C51.6294 73.1067 52.3394 72.91 53.3194 72.81C53.306 72.59 53.2394 72.4167 53.1194 72.29C53.006 72.1567 52.8127 72.09 52.5394 72.09C52.326 72.09 52.1127 72.13 51.8994 72.21C51.6927 72.29 51.4694 72.4 51.2294 72.54L50.6994 71.57C51.0194 71.3767 51.3527 71.22 51.6994 71.1C52.0527 70.98 52.426 70.92 52.8194 70.92C53.4594 70.92 53.946 71.1033 54.2794 71.47C54.6194 71.83 54.7894 72.3933 54.7894 73.16V76H53.5894L53.4894 75.49H53.4494C53.236 75.6767 53.0127 75.83 52.7794 75.95C52.546 76.0633 52.2894 76.12 52.0094 76.12ZM52.5094 74.98C52.676 74.98 52.8194 74.9433 52.9394 74.87C53.0594 74.7967 53.186 74.6933 53.3194 74.56V73.69C52.7994 73.7633 52.4394 73.87 52.2394 74.01C52.0394 74.15 51.9394 74.3167 51.9394 74.51C51.9394 74.67 51.9894 74.79 52.0894 74.87C52.196 74.9433 52.336 74.98 52.5094 74.98ZM56.5828 77.94C56.4295 77.94 56.2995 77.93 56.1928 77.91C56.0861 77.8967 55.9828 77.8733 55.8828 77.84L56.1428 76.72C56.1895 76.7333 56.2428 76.7467 56.3028 76.76C56.3628 76.7733 56.4195 76.78 56.4728 76.78C56.7195 76.78 56.9095 76.72 57.0428 76.6C57.1761 76.48 57.2761 76.3233 57.3428 76.13L57.4128 75.87L55.5028 71.04H56.9828L57.6928 73.17C57.7661 73.3967 57.8328 73.6267 57.8928 73.86C57.9528 74.0933 58.0161 74.3333 58.0828 74.58H58.1228C58.1761 74.3467 58.2295 74.1133 58.2828 73.88C58.3428 73.64 58.4028 73.4033 58.4628 73.17L59.0628 71.04H60.4728L58.7528 76.05C58.6328 76.3633 58.5061 76.6367 58.3728 76.87C58.2461 77.11 58.0961 77.3067 57.9228 77.46C57.7561 77.62 57.5628 77.74 57.3428 77.82C57.1295 77.9 56.8761 77.94 56.5828 77.94ZM62.7077 76.12C62.381 76.12 62.0443 76.0567 61.6977 75.93C61.3577 75.8033 61.061 75.6367 60.8077 75.43L61.4677 74.51C61.6943 74.6833 61.911 74.8133 62.1177 74.9C62.3243 74.9867 62.5343 75.03 62.7477 75.03C62.9677 75.03 63.1277 74.9933 63.2277 74.92C63.3277 74.8467 63.3777 74.7433 63.3777 74.61C63.3777 74.53 63.3477 74.46 63.2877 74.4C63.2343 74.3333 63.1577 74.2733 63.0577 74.22C62.9643 74.1667 62.8577 74.12 62.7377 74.08C62.6177 74.0333 62.4943 73.9833 62.3677 73.93C62.2143 73.87 62.061 73.8 61.9077 73.72C61.7543 73.64 61.6143 73.5433 61.4877 73.43C61.361 73.31 61.2577 73.1733 61.1777 73.02C61.0977 72.86 61.0577 72.6767 61.0577 72.47C61.0577 72.2433 61.101 72.0333 61.1877 71.84C61.281 71.6467 61.411 71.4833 61.5777 71.35C61.7443 71.2167 61.9443 71.1133 62.1777 71.04C62.411 70.96 62.671 70.92 62.9577 70.92C63.3377 70.92 63.671 70.9867 63.9577 71.12C64.2443 71.2467 64.4943 71.39 64.7077 71.55L64.0477 72.43C63.8677 72.2967 63.691 72.1933 63.5177 72.12C63.3443 72.0467 63.171 72.01 62.9977 72.01C62.6243 72.01 62.4377 72.14 62.4377 72.4C62.4377 72.48 62.4643 72.55 62.5177 72.61C62.571 72.6633 62.641 72.7133 62.7277 72.76C62.821 72.8067 62.9243 72.8533 63.0377 72.9C63.1577 72.94 63.281 72.9833 63.4077 73.03C63.5677 73.09 63.7243 73.16 63.8777 73.24C64.0377 73.3133 64.181 73.4067 64.3077 73.52C64.441 73.6333 64.5477 73.7733 64.6277 73.94C64.7077 74.1 64.7477 74.2933 64.7477 74.52C64.7477 74.7467 64.7043 74.9567 64.6177 75.15C64.531 75.3433 64.401 75.5133 64.2277 75.66C64.0543 75.8 63.841 75.9133 63.5877 76C63.3343 76.08 63.041 76.12 62.7077 76.12ZM71.3132 77.72C70.8132 77.72 70.3332 77.6433 69.8732 77.49C69.4199 77.3367 69.0165 77.1033 68.6632 76.79C68.3165 76.4767 68.0399 76.0867 67.8332 75.62C67.6265 75.1467 67.5232 74.59 67.5232 73.95C67.5232 73.25 67.6432 72.6167 67.8832 72.05C68.1232 71.4767 68.4465 70.9867 68.8532 70.58C69.2665 70.1733 69.7465 69.86 70.2932 69.64C70.8399 69.42 71.4199 69.31 72.0332 69.31C72.5732 69.31 73.0599 69.3967 73.4932 69.57C73.9332 69.7433 74.3065 69.99 74.6132 70.31C74.9199 70.6233 75.1565 71 75.3232 71.44C75.4899 71.8733 75.5732 72.35 75.5732 72.87C75.5732 73.33 75.5032 73.7333 75.3632 74.08C75.2232 74.42 75.0432 74.7067 74.8232 74.94C74.6032 75.1667 74.3565 75.3367 74.0832 75.45C73.8165 75.5633 73.5532 75.62 73.2932 75.62C73.0065 75.62 72.7565 75.5533 72.5432 75.42C72.3299 75.2867 72.1965 75.1 72.1432 74.86H72.1232C71.9832 75.0533 71.7999 75.2133 71.5732 75.34C71.3465 75.46 71.1299 75.52 70.9232 75.52C70.5232 75.52 70.2032 75.3867 69.9632 75.12C69.7232 74.8467 69.6032 74.48 69.6032 74.02C69.6032 73.7133 69.6532 73.4133 69.7532 73.12C69.8599 72.8267 70.0032 72.5667 70.1832 72.34C70.3632 72.1067 70.5765 71.92 70.8232 71.78C71.0699 71.64 71.3365 71.57 71.6232 71.57C71.7899 71.57 71.9365 71.61 72.0632 71.69C72.1899 71.7633 72.2965 71.89 72.3832 72.07H72.4032L72.5432 71.65H73.4532L72.9932 73.85C72.8532 74.4233 73.0065 74.71 73.4532 74.71C73.5999 74.71 73.7432 74.67 73.8832 74.59C74.0299 74.5033 74.1599 74.3833 74.2732 74.23C74.3865 74.07 74.4765 73.88 74.5432 73.66C74.6099 73.4333 74.6432 73.1833 74.6432 72.91C74.6432 72.55 74.5932 72.2067 74.4932 71.88C74.3932 71.5533 74.2332 71.2667 74.0132 71.02C73.7932 70.7667 73.5099 70.5667 73.1632 70.42C72.8165 70.2733 72.3999 70.2 71.9132 70.2C71.4865 70.2 71.0699 70.29 70.6632 70.47C70.2565 70.6433 69.8932 70.8933 69.5732 71.22C69.2532 71.54 68.9965 71.93 68.8032 72.39C68.6099 72.8433 68.5132 73.35 68.5132 73.91C68.5132 74.4033 68.5899 74.8333 68.7432 75.2C68.9032 75.5667 69.1165 75.87 69.3832 76.11C69.6565 76.35 69.9665 76.53 70.3132 76.65C70.6665 76.77 71.0399 76.83 71.4332 76.83C71.6932 76.83 71.9565 76.7933 72.2232 76.72C72.4965 76.6467 72.7399 76.5533 72.9532 76.44L73.2732 77.24C72.9665 77.4067 72.6532 77.5267 72.3332 77.6C72.0132 77.68 71.6732 77.72 71.3132 77.72ZM71.2332 74.6C71.3399 74.6 71.4432 74.5667 71.5432 74.5C71.6499 74.4333 71.7665 74.3167 71.8932 74.15L72.1332 72.8C72.0332 72.6067 71.8799 72.51 71.6732 72.51C71.5199 72.51 71.3832 72.5567 71.2632 72.65C71.1499 72.7433 71.0499 72.86 70.9632 73C70.8832 73.14 70.8199 73.2933 70.7732 73.46C70.7332 73.6267 70.7132 73.7833 70.7132 73.93C70.7132 74.3767 70.8865 74.6 71.2332 74.6ZM80.8284 76.12C80.4017 76.12 79.975 76.0433 79.5484 75.89C79.1284 75.73 78.7517 75.4933 78.4184 75.18L79.2584 74.17C79.4917 74.37 79.7484 74.5333 80.0284 74.66C80.315 74.7867 80.595 74.85 80.8684 74.85C81.175 74.85 81.4017 74.7933 81.5484 74.68C81.7017 74.5667 81.7784 74.4133 81.7784 74.22C81.7784 74.12 81.755 74.0333 81.7084 73.96C81.6684 73.8867 81.605 73.8233 81.5184 73.77C81.4384 73.71 81.3384 73.6567 81.2184 73.61C81.105 73.5567 80.9784 73.5 80.8384 73.44L79.9884 73.08C79.8217 73.0133 79.6584 72.9267 79.4984 72.82C79.345 72.7133 79.205 72.59 79.0784 72.45C78.9584 72.3033 78.8617 72.1367 78.7884 71.95C78.715 71.7567 78.6784 71.54 78.6784 71.3C78.6784 71.0333 78.735 70.7833 78.8484 70.55C78.9617 70.31 79.1217 70.1033 79.3284 69.93C79.535 69.75 79.7784 69.61 80.0584 69.51C80.345 69.41 80.6584 69.36 80.9984 69.36C81.3784 69.36 81.7517 69.4333 82.1184 69.58C82.4917 69.7267 82.8184 69.94 83.0984 70.22L82.3484 71.15C82.135 70.9833 81.9217 70.8567 81.7084 70.77C81.495 70.6767 81.2584 70.63 80.9984 70.63C80.745 70.63 80.5417 70.6833 80.3884 70.79C80.2417 70.89 80.1684 71.0333 80.1684 71.22C80.1684 71.32 80.1917 71.4067 80.2384 71.48C80.2917 71.5467 80.3617 71.61 80.4484 71.67C80.5417 71.7233 80.6484 71.7767 80.7684 71.83C80.8884 71.8767 81.0184 71.93 81.1584 71.99L81.9984 72.33C82.3984 72.49 82.7117 72.71 82.9384 72.99C83.1717 73.27 83.2884 73.64 83.2884 74.1C83.2884 74.3733 83.2317 74.6333 83.1184 74.88C83.0117 75.12 82.8517 75.3333 82.6384 75.52C82.4317 75.7 82.175 75.8467 81.8684 75.96C81.5617 76.0667 81.215 76.12 80.8284 76.12ZM85.4697 76V70.72H83.6797V69.48H88.7397V70.72H86.9497V76H85.4697ZM89.7563 76V69.48H91.2263V74.76H93.8063V76H89.7563ZM98.9241 76.12C98.4974 76.12 98.0707 76.0433 97.6441 75.89C97.2241 75.73 96.8474 75.4933 96.5141 75.18L97.3541 74.17C97.5874 74.37 97.8441 74.5333 98.1241 74.66C98.4107 74.7867 98.6907 74.85 98.9641 74.85C99.2707 74.85 99.4974 74.7933 99.6441 74.68C99.7974 74.5667 99.8741 74.4133 99.8741 74.22C99.8741 74.12 99.8507 74.0333 99.8041 73.96C99.7641 73.8867 99.7007 73.8233 99.6141 73.77C99.5341 73.71 99.4341 73.6567 99.3141 73.61C99.2007 73.5567 99.0741 73.5 98.9341 73.44L98.0841 73.08C97.9174 73.0133 97.7541 72.9267 97.5941 72.82C97.4407 72.7133 97.3007 72.59 97.1741 72.45C97.0541 72.3033 96.9574 72.1367 96.8841 71.95C96.8107 71.7567 96.7741 71.54 96.7741 71.3C96.7741 71.0333 96.8307 70.7833 96.9441 70.55C97.0574 70.31 97.2174 70.1033 97.4241 69.93C97.6307 69.75 97.8741 69.61 98.1541 69.51C98.4407 69.41 98.7541 69.36 99.0941 69.36C99.4741 69.36 99.8474 69.4333 100.214 69.58C100.587 69.7267 100.914 69.94 101.194 70.22L100.444 71.15C100.231 70.9833 100.017 70.8567 99.8041 70.77C99.5907 70.6767 99.3541 70.63 99.0941 70.63C98.8407 70.63 98.6374 70.6833 98.4841 70.79C98.3374 70.89 98.2641 71.0333 98.2641 71.22C98.2641 71.32 98.2874 71.4067 98.3341 71.48C98.3874 71.5467 98.4574 71.61 98.5441 71.67C98.6374 71.7233 98.7441 71.7767 98.8641 71.83C98.9841 71.8767 99.1141 71.93 99.2541 71.99L100.094 72.33C100.494 72.49 100.807 72.71 101.034 72.99C101.267 73.27 101.384 73.64 101.384 74.1C101.384 74.3733 101.327 74.6333 101.214 74.88C101.107 75.12 100.947 75.3333 100.734 75.52C100.527 75.7 100.271 75.8467 99.9641 75.96C99.6574 76.0667 99.3107 76.12 98.9241 76.12ZM103.998 76.12C103.691 76.12 103.428 76.0733 103.208 75.98C102.994 75.8867 102.818 75.7567 102.678 75.59C102.544 75.4233 102.444 75.2233 102.378 74.99C102.318 74.75 102.288 74.4867 102.288 74.2V72.19H101.608V71.1L102.368 71.04L102.538 69.72H103.758V71.04H104.948V72.19H103.758V74.18C103.758 74.46 103.814 74.6633 103.928 74.79C104.048 74.91 104.204 74.97 104.398 74.97C104.478 74.97 104.558 74.96 104.638 74.94C104.724 74.92 104.801 74.8967 104.868 74.87L105.098 75.94C104.964 75.98 104.808 76.02 104.628 76.06C104.448 76.1 104.238 76.12 103.998 76.12ZM106.639 76.12C106.385 76.12 106.172 76.0333 105.999 75.86C105.832 75.68 105.749 75.46 105.749 75.2C105.749 74.9333 105.832 74.7133 105.999 74.54C106.172 74.36 106.385 74.27 106.639 74.27C106.892 74.27 107.102 74.36 107.269 74.54C107.442 74.7133 107.529 74.9333 107.529 75.2C107.529 75.46 107.442 75.68 107.269 75.86C107.102 76.0333 106.892 76.12 106.639 76.12ZM110.909 76V69.48H112.379V74.76H114.959V76H110.909ZM117.958 76.12C117.644 76.12 117.341 76.0633 117.048 75.95C116.754 75.83 116.494 75.66 116.268 75.44C116.048 75.22 115.871 74.95 115.738 74.63C115.604 74.3033 115.538 73.9333 115.538 73.52C115.538 73.1067 115.604 72.74 115.738 72.42C115.871 72.0933 116.048 71.82 116.268 71.6C116.494 71.38 116.754 71.2133 117.048 71.1C117.341 70.98 117.644 70.92 117.958 70.92C118.271 70.92 118.571 70.98 118.858 71.1C119.151 71.2133 119.408 71.38 119.628 71.6C119.854 71.82 120.034 72.0933 120.168 72.42C120.301 72.74 120.368 73.1067 120.368 73.52C120.368 73.9333 120.301 74.3033 120.168 74.63C120.034 74.95 119.854 75.22 119.628 75.44C119.408 75.66 119.151 75.83 118.858 75.95C118.571 76.0633 118.271 76.12 117.958 76.12ZM117.958 74.93C118.258 74.93 118.484 74.8033 118.638 74.55C118.791 74.2967 118.868 73.9533 118.868 73.52C118.868 73.0867 118.791 72.7433 118.638 72.49C118.484 72.2367 118.258 72.11 117.958 72.11C117.651 72.11 117.421 72.2367 117.268 72.49C117.121 72.7433 117.048 73.0867 117.048 73.52C117.048 73.9533 117.121 74.2967 117.268 74.55C117.421 74.8033 117.651 74.93 117.958 74.93ZM122.865 76.12C122.325 76.12 121.931 75.9433 121.685 75.59C121.445 75.2367 121.325 74.7467 121.325 74.12V71.04H122.795V73.93C122.795 74.29 122.845 74.5367 122.945 74.67C123.045 74.8033 123.201 74.87 123.415 74.87C123.601 74.87 123.758 74.8267 123.885 74.74C124.011 74.6533 124.148 74.5133 124.295 74.32V71.04H125.765V76H124.565L124.455 75.31H124.425C124.211 75.5633 123.981 75.7633 123.735 75.91C123.495 76.05 123.205 76.12 122.865 76.12ZM127.058 76V71.04H128.528V76H127.058ZM127.788 70.31C127.542 70.31 127.338 70.24 127.178 70.1C127.018 69.9533 126.938 69.7667 126.938 69.54C126.938 69.3133 127.018 69.13 127.178 68.99C127.338 68.85 127.542 68.78 127.788 68.78C128.042 68.78 128.245 68.85 128.398 68.99C128.558 69.13 128.638 69.3133 128.638 69.54C128.638 69.7667 128.558 69.9533 128.398 70.1C128.245 70.24 128.042 70.31 127.788 70.31ZM131.282 76.12C130.955 76.12 130.619 76.0567 130.272 75.93C129.932 75.8033 129.635 75.6367 129.382 75.43L130.042 74.51C130.269 74.6833 130.485 74.8133 130.692 74.9C130.899 74.9867 131.109 75.03 131.322 75.03C131.542 75.03 131.702 74.9933 131.802 74.92C131.902 74.8467 131.952 74.7433 131.952 74.61C131.952 74.53 131.922 74.46 131.862 74.4C131.809 74.3333 131.732 74.2733 131.632 74.22C131.539 74.1667 131.432 74.12 131.312 74.08C131.192 74.0333 131.069 73.9833 130.942 73.93C130.789 73.87 130.635 73.8 130.482 73.72C130.329 73.64 130.189 73.5433 130.062 73.43C129.935 73.31 129.832 73.1733 129.752 73.02C129.672 72.86 129.632 72.6767 129.632 72.47C129.632 72.2433 129.675 72.0333 129.762 71.84C129.855 71.6467 129.985 71.4833 130.152 71.35C130.319 71.2167 130.519 71.1133 130.752 71.04C130.985 70.96 131.245 70.92 131.532 70.92C131.912 70.92 132.245 70.9867 132.532 71.12C132.819 71.2467 133.069 71.39 133.282 71.55L132.622 72.43C132.442 72.2967 132.265 72.1933 132.092 72.12C131.919 72.0467 131.745 72.01 131.572 72.01C131.199 72.01 131.012 72.14 131.012 72.4C131.012 72.48 131.039 72.55 131.092 72.61C131.145 72.6633 131.215 72.7133 131.302 72.76C131.395 72.8067 131.499 72.8533 131.612 72.9C131.732 72.94 131.855 72.9833 131.982 73.03C132.142 73.09 132.299 73.16 132.452 73.24C132.612 73.3133 132.755 73.4067 132.882 73.52C133.015 73.6333 133.122 73.7733 133.202 73.94C133.282 74.1 133.322 74.2933 133.322 74.52C133.322 74.7467 133.279 74.9567 133.192 75.15C133.105 75.3433 132.975 75.5133 132.802 75.66C132.629 75.8 132.415 75.9133 132.162 76C131.909 76.08 131.615 76.12 131.282 76.12ZM6.49 89.12C6.07667 89.12 5.68667 89.05 5.32 88.91C4.95333 88.7633 4.63 88.55 4.35 88.27C4.07667 87.99 3.86 87.6433 3.7 87.23C3.54 86.81 3.46 86.3267 3.46 85.78C3.46 85.24 3.54333 84.76 3.71 84.34C3.87667 83.9133 4.1 83.5533 4.38 83.26C4.66 82.9667 4.98667 82.7433 5.36 82.59C5.73333 82.4367 6.12667 82.36 6.54 82.36C6.96 82.36 7.33667 82.4467 7.67 82.62C8.00333 82.7867 8.28 82.9833 8.5 83.21L7.72 84.15C7.55333 83.9967 7.37667 83.8733 7.19 83.78C7.01 83.68 6.80333 83.63 6.57 83.63C6.35 83.63 6.14 83.68 5.94 83.78C5.74667 83.8733 5.57667 84.01 5.43 84.19C5.29 84.37 5.17667 84.59 5.09 84.85C5.01 85.11 4.97 85.4033 4.97 85.73C4.97 86.4033 5.11333 86.9267 5.4 87.3C5.68667 87.6667 6.07 87.85 6.55 87.85C6.81667 87.85 7.05333 87.7933 7.26 87.68C7.47333 87.56 7.66 87.4133 7.82 87.24L8.6 88.16C8.05333 88.8 7.35 89.12 6.49 89.12ZM10.7203 89.12C10.4936 89.12 10.287 89.08 10.1003 89C9.92031 88.9267 9.76698 88.8233 9.64031 88.69C9.51365 88.55 9.41365 88.39 9.34031 88.21C9.27365 88.03 9.24031 87.8333 9.24031 87.62C9.24031 87.1 9.46031 86.6933 9.90031 86.4C10.3403 86.1067 11.0503 85.91 12.0303 85.81C12.017 85.59 11.9503 85.4167 11.8303 85.29C11.717 85.1567 11.5236 85.09 11.2503 85.09C11.037 85.09 10.8236 85.13 10.6103 85.21C10.4036 85.29 10.1803 85.4 9.94031 85.54L9.41031 84.57C9.73031 84.3767 10.0636 84.22 10.4103 84.1C10.7636 83.98 11.137 83.92 11.5303 83.92C12.1703 83.92 12.657 84.1033 12.9903 84.47C13.3303 84.83 13.5003 85.3933 13.5003 86.16V89H12.3003L12.2003 88.49H12.1603C11.947 88.6767 11.7236 88.83 11.4903 88.95C11.257 89.0633 11.0003 89.12 10.7203 89.12ZM11.2203 87.98C11.387 87.98 11.5303 87.9433 11.6503 87.87C11.7703 87.7967 11.897 87.6933 12.0303 87.56V86.69C11.5103 86.7633 11.1503 86.87 10.9503 87.01C10.7503 87.15 10.6503 87.3167 10.6503 87.51C10.6503 87.67 10.7003 87.79 10.8003 87.87C10.907 87.9433 11.047 87.98 11.2203 87.98ZM14.7438 89V84.04H15.9438L16.0438 84.91H16.0838C16.2638 84.57 16.4804 84.32 16.7337 84.16C16.9871 84 17.2404 83.92 17.4938 83.92C17.6338 83.92 17.7471 83.93 17.8338 83.95C17.9271 83.9633 18.0104 83.9867 18.0838 84.02L17.8438 85.29C17.7504 85.2633 17.6638 85.2433 17.5838 85.23C17.5038 85.2167 17.4104 85.21 17.3038 85.21C17.1171 85.21 16.9204 85.2767 16.7138 85.41C16.5138 85.5433 16.3471 85.78 16.2138 86.12V89H14.7438ZM20.4005 89.12C20.0938 89.12 19.8138 89.06 19.5605 88.94C19.3138 88.82 19.1005 88.65 18.9205 88.43C18.7471 88.2033 18.6105 87.93 18.5105 87.61C18.4171 87.29 18.3705 86.9267 18.3705 86.52C18.3705 86.1133 18.4271 85.75 18.5405 85.43C18.6605 85.11 18.8138 84.84 19.0005 84.62C19.1938 84.3933 19.4138 84.22 19.6605 84.1C19.9138 83.98 20.1705 83.92 20.4305 83.92C20.7105 83.92 20.9405 83.9667 21.1205 84.06C21.3005 84.1533 21.4771 84.28 21.6505 84.44L21.5905 83.68V81.99H23.0605V89H21.8605L21.7605 88.51H21.7205C21.5471 88.6833 21.3438 88.83 21.1105 88.95C20.8771 89.0633 20.6405 89.12 20.4005 89.12ZM20.7805 87.92C20.9405 87.92 21.0838 87.8867 21.2105 87.82C21.3438 87.7533 21.4705 87.6367 21.5905 87.47V85.44C21.4571 85.32 21.3205 85.2367 21.1805 85.19C21.0405 85.1433 20.9038 85.12 20.7705 85.12C20.5371 85.12 20.3305 85.2333 20.1505 85.46C19.9705 85.68 19.8805 86.0267 19.8805 86.5C19.8805 86.9933 19.9571 87.3533 20.1105 87.58C20.2705 87.8067 20.4938 87.92 20.7805 87.92ZM24.3629 89V84.04H25.8329V89H24.3629ZM25.0929 83.31C24.8462 83.31 24.6429 83.24 24.4829 83.1C24.3229 82.9533 24.2429 82.7667 24.2429 82.54C24.2429 82.3133 24.3229 82.13 24.4829 81.99C24.6429 81.85 24.8462 81.78 25.0929 81.78C25.3462 81.78 25.5496 81.85 25.7029 81.99C25.8629 82.13 25.9429 82.3133 25.9429 82.54C25.9429 82.7667 25.8629 82.9533 25.7029 83.1C25.5496 83.24 25.3462 83.31 25.0929 83.31ZM27.1266 89V84.04H28.3266L28.4266 84.67H28.4666C28.6799 84.47 28.9132 84.2967 29.1666 84.15C29.4199 83.9967 29.7166 83.92 30.0566 83.92C30.5966 83.92 30.9866 84.0967 31.2266 84.45C31.4732 84.8033 31.5966 85.2933 31.5966 85.92V89H30.1266V86.11C30.1266 85.75 30.0766 85.5033 29.9766 85.37C29.8832 85.2367 29.7299 85.17 29.5166 85.17C29.3299 85.17 29.1699 85.2133 29.0366 85.3C28.9032 85.38 28.7566 85.4967 28.5966 85.65V89H27.1266ZM34.0992 89.12C33.8726 89.12 33.6659 89.08 33.4792 89C33.2992 88.9267 33.1459 88.8233 33.0192 88.69C32.8926 88.55 32.7926 88.39 32.7192 88.21C32.6526 88.03 32.6192 87.8333 32.6192 87.62C32.6192 87.1 32.8392 86.6933 33.2792 86.4C33.7192 86.1067 34.4292 85.91 35.4092 85.81C35.3959 85.59 35.3292 85.4167 35.2092 85.29C35.0959 85.1567 34.9026 85.09 34.6292 85.09C34.4159 85.09 34.2026 85.13 33.9892 85.21C33.7826 85.29 33.5592 85.4 33.3192 85.54L32.7892 84.57C33.1092 84.3767 33.4426 84.22 33.7892 84.1C34.1426 83.98 34.5159 83.92 34.9092 83.92C35.5492 83.92 36.0359 84.1033 36.3692 84.47C36.7092 84.83 36.8792 85.3933 36.8792 86.16V89H35.6792L35.5792 88.49H35.5392C35.3259 88.6767 35.1026 88.83 34.8692 88.95C34.6359 89.0633 34.3792 89.12 34.0992 89.12ZM34.5992 87.98C34.7659 87.98 34.9092 87.9433 35.0292 87.87C35.1492 87.7967 35.2759 87.6933 35.4092 87.56V86.69C34.8892 86.7633 34.5292 86.87 34.3292 87.01C34.1292 87.15 34.0292 87.3167 34.0292 87.51C34.0292 87.67 34.0792 87.79 34.1792 87.87C34.2859 87.9433 34.4259 87.98 34.5992 87.98ZM39.4727 89.12C39.2193 89.12 39.006 89.08 38.8327 89C38.6593 88.92 38.5193 88.81 38.4127 88.67C38.3127 88.5233 38.2393 88.35 38.1927 88.15C38.146 87.9433 38.1227 87.7133 38.1227 87.46V81.99H39.5927V87.52C39.5927 87.6733 39.6193 87.78 39.6727 87.84C39.7327 87.9 39.7927 87.93 39.8527 87.93C39.886 87.93 39.9127 87.93 39.9327 87.93C39.9593 87.93 39.9927 87.9233 40.0327 87.91L40.2127 89C40.1327 89.0333 40.0293 89.06 39.9027 89.08C39.7827 89.1067 39.6393 89.12 39.4727 89.12ZM42.444 89.12C42.1173 89.12 41.7807 89.0567 41.434 88.93C41.094 88.8033 40.7973 88.6367 40.544 88.43L41.204 87.51C41.4307 87.6833 41.6473 87.8133 41.854 87.9C42.0607 87.9867 42.2707 88.03 42.484 88.03C42.704 88.03 42.864 87.9933 42.964 87.92C43.064 87.8467 43.114 87.7433 43.114 87.61C43.114 87.53 43.084 87.46 43.024 87.4C42.9707 87.3333 42.894 87.2733 42.794 87.22C42.7007 87.1667 42.594 87.12 42.474 87.08C42.354 87.0333 42.2307 86.9833 42.104 86.93C41.9507 86.87 41.7973 86.8 41.644 86.72C41.4907 86.64 41.3507 86.5433 41.224 86.43C41.0973 86.31 40.994 86.1733 40.914 86.02C40.834 85.86 40.794 85.6767 40.794 85.47C40.794 85.2433 40.8373 85.0333 40.924 84.84C41.0173 84.6467 41.1473 84.4833 41.314 84.35C41.4807 84.2167 41.6807 84.1133 41.914 84.04C42.1473 83.96 42.4073 83.92 42.694 83.92C43.074 83.92 43.4073 83.9867 43.694 84.12C43.9807 84.2467 44.2307 84.39 44.444 84.55L43.784 85.43C43.604 85.2967 43.4273 85.1933 43.254 85.12C43.0807 85.0467 42.9073 85.01 42.734 85.01C42.3607 85.01 42.174 85.14 42.174 85.4C42.174 85.48 42.2007 85.55 42.254 85.61C42.3073 85.6633 42.3773 85.7133 42.464 85.76C42.5573 85.8067 42.6607 85.8533 42.774 85.9C42.894 85.94 43.0173 85.9833 43.144 86.03C43.304 86.09 43.4607 86.16 43.614 86.24C43.774 86.3133 43.9173 86.4067 44.044 86.52C44.1773 86.6333 44.284 86.7733 44.364 86.94C44.444 87.1 44.484 87.2933 44.484 87.52C44.484 87.7467 44.4407 87.9567 44.354 88.15C44.2673 88.3433 44.1373 88.5133 43.964 88.66C43.7907 88.8 43.5773 88.9133 43.324 89C43.0707 89.08 42.7773 89.12 42.444 89.12Z" fill="white"/>
<path d="M60.462 143.228C59.6767 143.228 58.9547 143.082 58.296 142.791C57.6374 142.5 57.061 142.082 56.567 141.537C56.0857 140.98 55.7057 140.302 55.427 139.504C55.161 138.693 55.028 137.781 55.028 136.768C55.028 135.767 55.1674 134.868 55.446 134.07C55.7247 133.272 56.111 132.594 56.605 132.037C57.099 131.48 57.6817 131.055 58.353 130.764C59.0244 130.46 59.759 130.308 60.557 130.308C61.317 130.308 61.982 130.466 62.552 130.783C63.1347 131.087 63.6097 131.442 63.977 131.847L63.122 132.873C62.7927 132.518 62.419 132.233 62.001 132.018C61.583 131.803 61.108 131.695 60.576 131.695C59.9807 131.695 59.4424 131.815 58.961 132.056C58.4797 132.284 58.068 132.62 57.726 133.063C57.384 133.494 57.118 134.019 56.928 134.64C56.7507 135.261 56.662 135.957 56.662 136.73C56.662 137.515 56.7507 138.225 56.928 138.858C57.118 139.479 57.3777 140.011 57.707 140.454C58.0364 140.897 58.4354 141.239 58.904 141.48C59.3854 141.721 59.9237 141.841 60.519 141.841C61.127 141.841 61.659 141.721 62.115 141.48C62.571 141.227 63.0017 140.878 63.407 140.435L64.281 141.423C63.787 141.993 63.2297 142.436 62.609 142.753C61.9884 143.07 61.2727 143.228 60.462 143.228ZM68.1055 143.228C67.5102 143.228 67.0859 143.051 66.8325 142.696C66.5792 142.341 66.4525 141.822 66.4525 141.138V129.472H68.0105V141.252C68.0105 141.505 68.0549 141.683 68.1435 141.784C68.2322 141.885 68.3335 141.936 68.4475 141.936C68.4982 141.936 68.5425 141.936 68.5805 141.936C68.6312 141.936 68.7009 141.923 68.7895 141.898L68.9985 143.076C68.8972 143.127 68.7769 143.165 68.6375 143.19C68.4982 143.215 68.3209 143.228 68.1055 143.228ZM74.8863 143.228C74.3163 143.228 73.7716 143.12 73.2523 142.905C72.7456 142.69 72.296 142.379 71.9033 141.974C71.5106 141.556 71.194 141.049 70.9533 140.454C70.7253 139.846 70.6113 139.162 70.6113 138.402C70.6113 137.629 70.7253 136.945 70.9533 136.35C71.194 135.742 71.5106 135.229 71.9033 134.811C72.296 134.393 72.7456 134.076 73.2523 133.861C73.7716 133.646 74.3163 133.538 74.8863 133.538C75.4563 133.538 75.9946 133.646 76.5013 133.861C77.0206 134.076 77.4766 134.393 77.8693 134.811C78.262 135.229 78.5723 135.742 78.8003 136.35C79.041 136.945 79.1613 137.629 79.1613 138.402C79.1613 139.162 79.041 139.846 78.8003 140.454C78.5723 141.049 78.262 141.556 77.8693 141.974C77.4766 142.379 77.0206 142.69 76.5013 142.905C75.9946 143.12 75.4563 143.228 74.8863 143.228ZM74.8863 141.936C75.279 141.936 75.64 141.854 75.9693 141.689C76.2986 141.512 76.5773 141.271 76.8053 140.967C77.046 140.65 77.2296 140.277 77.3563 139.846C77.483 139.415 77.5463 138.934 77.5463 138.402C77.5463 137.87 77.483 137.389 77.3563 136.958C77.2296 136.515 77.046 136.135 76.8053 135.818C76.5773 135.501 76.2986 135.261 75.9693 135.096C75.64 134.919 75.279 134.83 74.8863 134.83C74.4936 134.83 74.1326 134.919 73.8033 135.096C73.474 135.261 73.189 135.501 72.9483 135.818C72.7203 136.135 72.543 136.515 72.4163 136.958C72.2896 137.389 72.2263 137.87 72.2263 138.402C72.2263 138.934 72.2896 139.415 72.4163 139.846C72.543 140.277 72.7203 140.65 72.9483 140.967C73.189 141.271 73.474 141.512 73.8033 141.689C74.1326 141.854 74.4936 141.936 74.8863 141.936ZM84.0062 143.228C83.3475 143.228 82.7205 143.108 82.1252 142.867C81.5298 142.626 81.0105 142.322 80.5672 141.955L81.3462 140.91C81.7515 141.239 82.1632 141.505 82.5812 141.708C83.0118 141.911 83.5058 142.012 84.0632 142.012C84.6712 142.012 85.1272 141.873 85.4312 141.594C85.7352 141.315 85.8872 140.973 85.8872 140.568C85.8872 140.327 85.8238 140.118 85.6972 139.941C85.5705 139.764 85.4058 139.612 85.2032 139.485C85.0132 139.346 84.7915 139.225 84.5382 139.124C84.2848 139.023 84.0315 138.921 83.7782 138.82C83.4488 138.706 83.1195 138.579 82.7902 138.44C82.4608 138.288 82.1632 138.111 81.8972 137.908C81.6438 137.693 81.4348 137.446 81.2702 137.167C81.1055 136.888 81.0232 136.553 81.0232 136.16C81.0232 135.793 81.0928 135.451 81.2322 135.134C81.3842 134.805 81.5932 134.526 81.8592 134.298C82.1378 134.057 82.4735 133.874 82.8662 133.747C83.2588 133.608 83.7022 133.538 84.1962 133.538C84.7788 133.538 85.3108 133.639 85.7922 133.842C86.2862 134.045 86.7105 134.292 87.0652 134.583L86.3242 135.571C86.0075 135.33 85.6782 135.134 85.3362 134.982C84.9942 134.83 84.6205 134.754 84.2152 134.754C83.6325 134.754 83.2018 134.887 82.9232 135.153C82.6572 135.419 82.5242 135.729 82.5242 136.084C82.5242 136.299 82.5812 136.489 82.6952 136.654C82.8092 136.806 82.9612 136.945 83.1512 137.072C83.3412 137.186 83.5565 137.294 83.7972 137.395C84.0505 137.484 84.3102 137.579 84.5762 137.68C84.9055 137.807 85.2348 137.94 85.5642 138.079C85.9062 138.218 86.2102 138.396 86.4762 138.611C86.7422 138.814 86.9575 139.067 87.1222 139.371C87.2995 139.675 87.3882 140.042 87.3882 140.473C87.3882 140.853 87.3122 141.208 87.1602 141.537C87.0208 141.866 86.8055 142.158 86.5142 142.411C86.2355 142.664 85.8808 142.861 85.4502 143C85.0322 143.152 84.5508 143.228 84.0062 143.228ZM93.2961 143.228C92.6755 143.228 92.0928 143.12 91.5481 142.905C91.0161 142.677 90.5475 142.36 90.1421 141.955C89.7495 141.537 89.4391 141.03 89.2111 140.435C88.9831 139.84 88.8691 139.162 88.8691 138.402C88.8691 137.642 88.9831 136.964 89.2111 136.369C89.4518 135.761 89.7621 135.248 90.1421 134.83C90.5348 134.412 90.9781 134.095 91.4721 133.88C91.9661 133.652 92.4791 133.538 93.0111 133.538C93.5938 133.538 94.1131 133.639 94.5691 133.842C95.0378 134.045 95.4241 134.336 95.7281 134.716C96.0448 135.096 96.2855 135.552 96.4501 136.084C96.6148 136.616 96.6971 137.211 96.6971 137.87C96.6971 138.035 96.6908 138.199 96.6781 138.364C96.6781 138.516 96.6655 138.649 96.6401 138.763H90.4081C90.4715 139.751 90.7755 140.536 91.3201 141.119C91.8775 141.689 92.5995 141.974 93.4861 141.974C93.9295 141.974 94.3348 141.911 94.7021 141.784C95.0821 141.645 95.4431 141.467 95.7851 141.252L96.3361 142.278C95.9308 142.531 95.4811 142.753 94.9871 142.943C94.4931 143.133 93.9295 143.228 93.2961 143.228ZM90.3891 137.642H95.3291C95.3291 136.705 95.1265 135.995 94.7211 135.514C94.3285 135.02 93.7711 134.773 93.0491 134.773C92.7198 134.773 92.4031 134.836 92.0991 134.963C91.8078 135.09 91.5418 135.28 91.3011 135.533C91.0605 135.774 90.8578 136.071 90.6931 136.426C90.5411 136.781 90.4398 137.186 90.3891 137.642ZM102.133 143.228C100.968 143.228 100.037 142.81 99.3399 141.974C98.6559 141.138 98.3139 139.947 98.3139 138.402C98.3139 137.655 98.4216 136.983 98.6369 136.388C98.8649 135.78 99.1626 135.267 99.5299 134.849C99.8972 134.431 100.322 134.108 100.803 133.88C101.284 133.652 101.791 133.538 102.323 133.538C102.855 133.538 103.317 133.633 103.71 133.823C104.103 134.013 104.502 134.273 104.907 134.602L104.831 133.025V129.472H106.408V143H105.116L104.983 141.917H104.926C104.559 142.272 104.134 142.582 103.653 142.848C103.184 143.101 102.678 143.228 102.133 143.228ZM102.475 141.917C102.906 141.917 103.311 141.816 103.691 141.613C104.071 141.398 104.451 141.075 104.831 140.644V135.818C104.438 135.463 104.058 135.216 103.691 135.077C103.336 134.925 102.969 134.849 102.589 134.849C102.222 134.849 101.873 134.938 101.544 135.115C101.227 135.28 100.949 135.52 100.708 135.837C100.467 136.141 100.277 136.508 100.138 136.939C99.9986 137.37 99.9289 137.851 99.9289 138.383C99.9289 139.498 100.151 140.365 100.594 140.986C101.037 141.607 101.664 141.917 102.475 141.917Z" fill="white"/>
<g clip-path="url(#clip1)">
<rect x="0.5" y="0.5" width="161" height="30" rx="8.5" fill="#242424"/>
</g>
<rect x="0.5" y="0.5" width="161" height="30" rx="8.5" stroke="black"/>
<path d="M38.6552 12.545C38.2285 12.545 37.8018 12.4684 37.3752 12.315C36.9552 12.155 36.5785 11.9184 36.2452 11.605L37.0852 10.595C37.3185 10.795 37.5752 10.9584 37.8552 11.085C38.1418 11.2117 38.4218 11.275 38.6952 11.275C39.0018 11.275 39.2285 11.2184 39.3752 11.105C39.5285 10.9917 39.6052 10.8384 39.6052 10.645C39.6052 10.545 39.5818 10.4584 39.5352 10.385C39.4952 10.3117 39.4318 10.2484 39.3452 10.195C39.2652 10.135 39.1652 10.0817 39.0452 10.035C38.9318 9.98172 38.8052 9.92505 38.6652 9.86505L37.8152 9.50505C37.6485 9.43838 37.4852 9.35172 37.3252 9.24505C37.1718 9.13838 37.0318 9.01505 36.9052 8.87505C36.7852 8.72838 36.6885 8.56172 36.6152 8.37505C36.5418 8.18172 36.5052 7.96505 36.5052 7.72505C36.5052 7.45838 36.5618 7.20838 36.6752 6.97505C36.7885 6.73505 36.9485 6.52838 37.1552 6.35505C37.3618 6.17505 37.6052 6.03505 37.8852 5.93505C38.1718 5.83505 38.4852 5.78505 38.8252 5.78505C39.2052 5.78505 39.5785 5.85838 39.9452 6.00505C40.3185 6.15172 40.6452 6.36505 40.9252 6.64505L40.1752 7.57505C39.9618 7.40838 39.7485 7.28172 39.5352 7.19505C39.3218 7.10172 39.0852 7.05505 38.8252 7.05505C38.5718 7.05505 38.3685 7.10838 38.2152 7.21505C38.0685 7.31505 37.9952 7.45838 37.9952 7.64505C37.9952 7.74505 38.0185 7.83172 38.0652 7.90505C38.1185 7.97172 38.1885 8.03505 38.2752 8.09505C38.3685 8.14838 38.4752 8.20172 38.5952 8.25505C38.7152 8.30172 38.8452 8.35505 38.9852 8.41505L39.8252 8.75505C40.2252 8.91505 40.5385 9.13505 40.7652 9.41505C40.9985 9.69505 41.1152 10.065 41.1152 10.525C41.1152 10.7984 41.0585 11.0584 40.9452 11.305C40.8385 11.545 40.6785 11.7584 40.4652 11.945C40.2585 12.125 40.0018 12.2717 39.6952 12.385C39.3885 12.4917 39.0418 12.545 38.6552 12.545ZM43.7286 12.545C43.4219 12.545 43.1586 12.4984 42.9386 12.405C42.7253 12.3117 42.5486 12.1817 42.4086 12.015C42.2753 11.8484 42.1753 11.6484 42.1086 11.415C42.0486 11.175 42.0186 10.9117 42.0186 10.625V8.61505H41.3386V7.52505L42.0986 7.46505L42.2686 6.14505H43.4886V7.46505H44.6786V8.61505H43.4886V10.605C43.4886 10.885 43.5453 11.0884 43.6586 11.215C43.7786 11.335 43.9353 11.395 44.1286 11.395C44.2086 11.395 44.2886 11.385 44.3686 11.365C44.4553 11.345 44.5319 11.3217 44.5986 11.295L44.8286 12.365C44.6953 12.405 44.5386 12.445 44.3586 12.485C44.1786 12.525 43.9686 12.545 43.7286 12.545ZM46.7014 12.545C46.4748 12.545 46.2681 12.505 46.0814 12.425C45.9014 12.3517 45.7481 12.2484 45.6214 12.115C45.4948 11.975 45.3948 11.815 45.3214 11.635C45.2548 11.455 45.2214 11.2584 45.2214 11.045C45.2214 10.525 45.4414 10.1184 45.8814 9.82505C46.3214 9.53172 47.0314 9.33505 48.0114 9.23505C47.9981 9.01505 47.9314 8.84172 47.8114 8.71505C47.6981 8.58172 47.5048 8.51505 47.2314 8.51505C47.0181 8.51505 46.8048 8.55505 46.5914 8.63505C46.3848 8.71505 46.1614 8.82505 45.9214 8.96505L45.3914 7.99505C45.7114 7.80172 46.0448 7.64505 46.3914 7.52505C46.7448 7.40505 47.1181 7.34505 47.5114 7.34505C48.1514 7.34505 48.6381 7.52838 48.9714 7.89505C49.3114 8.25505 49.4814 8.81838 49.4814 9.58505V12.425H48.2814L48.1814 11.915H48.1414C47.9281 12.1017 47.7048 12.255 47.4714 12.375C47.2381 12.4884 46.9814 12.545 46.7014 12.545ZM47.2014 11.405C47.3681 11.405 47.5114 11.3684 47.6314 11.295C47.7514 11.2217 47.8781 11.1184 48.0114 10.985V10.115C47.4914 10.1884 47.1314 10.295 46.9314 10.435C46.7314 10.575 46.6314 10.7417 46.6314 10.935C46.6314 11.095 46.6814 11.215 46.7814 11.295C46.8881 11.3684 47.0281 11.405 47.2014 11.405ZM50.7249 12.425V7.46505H51.9249L52.0249 8.33505H52.0649C52.2449 7.99505 52.4615 7.74505 52.7149 7.58505C52.9682 7.42505 53.2215 7.34505 53.4749 7.34505C53.6149 7.34505 53.7282 7.35505 53.8149 7.37505C53.9082 7.38838 53.9915 7.41172 54.0649 7.44505L53.8249 8.71505C53.7315 8.68838 53.6449 8.66838 53.5649 8.65505C53.4849 8.64172 53.3915 8.63505 53.2849 8.63505C53.0982 8.63505 52.9015 8.70172 52.6949 8.83505C52.4949 8.96838 52.3282 9.20505 52.1949 9.54505V12.425H50.7249ZM56.6192 12.545C56.3126 12.545 56.0492 12.4984 55.8292 12.405C55.6159 12.3117 55.4392 12.1817 55.2992 12.015C55.1659 11.8484 55.0659 11.6484 54.9992 11.415C54.9392 11.175 54.9092 10.9117 54.9092 10.625V8.61505H54.2292V7.52505L54.9892 7.46505L55.1592 6.14505H56.3792V7.46505H57.5692V8.61505H56.3792V10.605C56.3792 10.885 56.4359 11.0884 56.5492 11.215C56.6692 11.335 56.8259 11.395 57.0192 11.395C57.0992 11.395 57.1792 11.385 57.2592 11.365C57.3459 11.345 57.4226 11.3217 57.4892 11.295L57.7192 12.365C57.5859 12.405 57.4292 12.445 57.2492 12.485C57.0692 12.525 56.8592 12.545 56.6192 12.545ZM58.5374 12.425V7.46505H60.0074V12.425H58.5374ZM59.2674 6.73505C59.0207 6.73505 58.8174 6.66505 58.6574 6.52505C58.4974 6.37838 58.4174 6.19172 58.4174 5.96505C58.4174 5.73838 58.4974 5.55505 58.6574 5.41505C58.8174 5.27505 59.0207 5.20505 59.2674 5.20505C59.5207 5.20505 59.724 5.27505 59.8774 5.41505C60.0374 5.55505 60.1174 5.73838 60.1174 5.96505C60.1174 6.19172 60.0374 6.37838 59.8774 6.52505C59.724 6.66505 59.5207 6.73505 59.2674 6.73505ZM61.301 12.425V7.46505H62.501L62.601 8.09505H62.641C62.8544 7.89505 63.0877 7.72172 63.341 7.57505C63.5944 7.42172 63.891 7.34505 64.231 7.34505C64.771 7.34505 65.161 7.52172 65.401 7.87505C65.6477 8.22838 65.771 8.71838 65.771 9.34505V12.425H64.301V9.53505C64.301 9.17505 64.251 8.92838 64.151 8.79505C64.0577 8.66172 63.9044 8.59505 63.691 8.59505C63.5044 8.59505 63.3444 8.63838 63.211 8.72505C63.0777 8.80505 62.931 8.92172 62.771 9.07505V12.425H61.301ZM68.7937 14.535C68.5004 14.535 68.227 14.5084 67.9737 14.455C67.727 14.4084 67.507 14.335 67.3137 14.235C67.127 14.135 66.9804 14.005 66.8737 13.845C66.767 13.685 66.7137 13.495 66.7137 13.275C66.7137 12.875 66.9504 12.5417 67.4237 12.275V12.235C67.2904 12.1484 67.1804 12.0384 67.0937 11.905C67.007 11.7717 66.9637 11.6017 66.9637 11.395C66.9637 11.215 67.017 11.045 67.1237 10.885C67.2304 10.7184 67.3637 10.5784 67.5237 10.465V10.425C67.3504 10.305 67.1937 10.135 67.0537 9.91505C66.9204 9.68838 66.8537 9.42838 66.8537 9.13505C66.8537 8.83505 66.9104 8.57505 67.0237 8.35505C67.137 8.12838 67.287 7.94172 67.4737 7.79505C67.667 7.64172 67.887 7.52838 68.1337 7.45505C68.3804 7.38172 68.637 7.34505 68.9037 7.34505C69.197 7.34505 69.4537 7.38505 69.6737 7.46505H71.4837V8.53505H70.6937C70.7404 8.60838 70.777 8.70172 70.8037 8.81505C70.837 8.92838 70.8537 9.05172 70.8537 9.18505C70.8537 9.47172 70.8037 9.72172 70.7037 9.93505C70.6037 10.1417 70.4637 10.315 70.2837 10.455C70.1104 10.5884 69.9037 10.6884 69.6637 10.755C69.4304 10.8217 69.177 10.855 68.9037 10.855C68.7104 10.855 68.5104 10.8217 68.3037 10.755C68.237 10.8084 68.1904 10.8617 68.1637 10.915C68.137 10.9684 68.1237 11.0384 68.1237 11.125C68.1237 11.2517 68.177 11.345 68.2837 11.405C68.397 11.465 68.5937 11.495 68.8737 11.495H69.6737C70.287 11.495 70.7537 11.595 71.0737 11.795C71.4004 11.9884 71.5637 12.3084 71.5637 12.755C71.5637 13.015 71.497 13.2517 71.3637 13.465C71.237 13.685 71.0537 13.8717 70.8137 14.025C70.5737 14.185 70.2837 14.3084 69.9437 14.395C69.6037 14.4884 69.2204 14.535 68.7937 14.535ZM68.9037 9.96505C69.097 9.96505 69.257 9.89838 69.3837 9.76505C69.517 9.62505 69.5837 9.41505 69.5837 9.13505C69.5837 8.87505 69.517 8.67838 69.3837 8.54505C69.257 8.40505 69.097 8.33505 68.9037 8.33505C68.7104 8.33505 68.547 8.40172 68.4137 8.53505C68.287 8.66838 68.2237 8.86838 68.2237 9.13505C68.2237 9.41505 68.287 9.62505 68.4137 9.76505C68.547 9.89838 68.7104 9.96505 68.9037 9.96505ZM69.0237 13.615C69.357 13.615 69.6304 13.555 69.8437 13.435C70.057 13.3217 70.1637 13.1784 70.1637 13.005C70.1637 12.8517 70.097 12.7484 69.9637 12.695C69.837 12.6417 69.6504 12.615 69.4037 12.615H68.8937C68.7204 12.615 68.5804 12.6084 68.4737 12.595C68.367 12.5884 68.2737 12.575 68.1937 12.555C68.0137 12.715 67.9237 12.8784 67.9237 13.045C67.9237 13.2317 68.0237 13.3717 68.2237 13.465C68.4237 13.565 68.6904 13.615 69.0237 13.615ZM75.7174 12.545C75.4641 12.545 75.2508 12.505 75.0774 12.425C74.9041 12.345 74.7641 12.235 74.6574 12.095C74.5574 11.9484 74.4841 11.775 74.4374 11.575C74.3908 11.3684 74.3674 11.1384 74.3674 10.885V5.41505H75.8374V10.945C75.8374 11.0984 75.8641 11.205 75.9174 11.265C75.9774 11.325 76.0374 11.355 76.0974 11.355C76.1308 11.355 76.1574 11.355 76.1774 11.355C76.2041 11.355 76.2374 11.3484 76.2774 11.335L76.4574 12.425C76.3774 12.4584 76.2741 12.485 76.1474 12.505C76.0274 12.5317 75.8841 12.545 75.7174 12.545ZM77.2288 12.425V7.46505H78.6988V12.425H77.2288ZM77.9588 6.73505C77.7121 6.73505 77.5088 6.66505 77.3488 6.52505C77.1888 6.37838 77.1088 6.19172 77.1088 5.96505C77.1088 5.73838 77.1888 5.55505 77.3488 5.41505C77.5088 5.27505 77.7121 5.20505 77.9588 5.20505C78.2121 5.20505 78.4154 5.27505 78.5688 5.41505C78.7288 5.55505 78.8088 5.73838 78.8088 5.96505C78.8088 6.19172 78.7288 6.37838 78.5688 6.52505C78.4154 6.66505 78.2121 6.73505 77.9588 6.73505ZM79.9924 12.425V7.46505H81.1924L81.2924 8.09505H81.3324C81.5458 7.89505 81.7791 7.72172 82.0324 7.57505C82.2858 7.42172 82.5824 7.34505 82.9224 7.34505C83.4624 7.34505 83.8524 7.52172 84.0924 7.87505C84.3391 8.22838 84.4624 8.71838 84.4624 9.34505V12.425H82.9924V9.53505C82.9924 9.17505 82.9424 8.92838 82.8424 8.79505C82.7491 8.66172 82.5958 8.59505 82.3824 8.59505C82.1958 8.59505 82.0358 8.63838 81.9024 8.72505C81.7691 8.80505 81.6224 8.92172 81.4624 9.07505V12.425H79.9924ZM87.9351 12.545C87.5818 12.545 87.2518 12.4884 86.9451 12.375C86.6384 12.255 86.3718 12.085 86.1451 11.865C85.9184 11.6384 85.7418 11.365 85.6151 11.045C85.4884 10.725 85.4251 10.3584 85.4251 9.94505C85.4251 9.54505 85.4918 9.18505 85.6251 8.86505C85.7584 8.53838 85.9318 8.26505 86.1451 8.04505C86.3651 7.81838 86.6151 7.64505 86.8951 7.52505C87.1751 7.40505 87.4651 7.34505 87.7651 7.34505C88.1184 7.34505 88.4251 7.40505 88.6851 7.52505C88.9518 7.64505 89.1718 7.81172 89.3451 8.02505C89.5251 8.23838 89.6584 8.49172 89.7451 8.78505C89.8318 9.07172 89.8751 9.38505 89.8751 9.72505C89.8751 9.85838 89.8684 9.98505 89.8551 10.105C89.8418 10.225 89.8284 10.315 89.8151 10.375H86.8451C86.9118 10.735 87.0584 11.0017 87.2851 11.175C87.5184 11.3417 87.8018 11.425 88.1351 11.425C88.4884 11.425 88.8451 11.315 89.2051 11.095L89.6951 11.985C89.4418 12.1584 89.1584 12.295 88.8451 12.395C88.5384 12.495 88.2351 12.545 87.9351 12.545ZM86.8351 9.40505H88.6251C88.6251 9.12505 88.5618 8.89838 88.4351 8.72505C88.3084 8.55172 88.0951 8.46505 87.7951 8.46505C87.5618 8.46505 87.3551 8.54172 87.1751 8.69505C87.0018 8.84838 86.8884 9.08505 86.8351 9.40505ZM92.3809 12.545C91.8409 12.545 91.4475 12.3684 91.2009 12.015C90.9609 11.6617 90.8409 11.1717 90.8409 10.545V7.46505H92.3109V10.355C92.3109 10.715 92.3609 10.9617 92.4609 11.095C92.5609 11.2284 92.7175 11.295 92.9309 11.295C93.1175 11.295 93.2742 11.2517 93.4009 11.165C93.5275 11.0784 93.6642 10.9384 93.8109 10.745V7.46505H95.2809V12.425H94.0809L93.9709 11.735H93.9409C93.7275 11.9884 93.4975 12.1884 93.2509 12.335C93.0109 12.475 92.7209 12.545 92.3809 12.545ZM96.5745 14.265V7.46505H97.7745L97.8745 7.95505H97.9145C98.1078 7.78172 98.3245 7.63838 98.5645 7.52505C98.8111 7.40505 99.0645 7.34505 99.3245 7.34505C99.6245 7.34505 99.8945 7.40505 100.134 7.52505C100.374 7.64505 100.578 7.81505 100.744 8.03505C100.911 8.25505 101.038 8.52172 101.124 8.83505C101.218 9.14172 101.264 9.48505 101.264 9.86505C101.264 10.2917 101.204 10.6717 101.084 11.005C100.971 11.3317 100.814 11.6117 100.614 11.845C100.421 12.0717 100.198 12.245 99.9445 12.365C99.6978 12.485 99.4411 12.545 99.1745 12.545C98.9611 12.545 98.7545 12.5017 98.5545 12.415C98.3545 12.3217 98.1678 12.1917 97.9945 12.025L98.0445 12.815V14.265H96.5745ZM98.8345 11.345C99.0878 11.345 99.3045 11.2317 99.4845 11.005C99.6645 10.7717 99.7545 10.3984 99.7545 9.88505C99.7545 8.99172 99.4678 8.54505 98.8945 8.54505C98.6078 8.54505 98.3245 8.69505 98.0445 8.99505V11.025C98.1778 11.145 98.3111 11.2284 98.4445 11.275C98.5778 11.3217 98.7078 11.345 98.8345 11.345ZM103.718 12.545C103.391 12.545 103.055 12.4817 102.708 12.355C102.368 12.2284 102.071 12.0617 101.818 11.855L102.478 10.935C102.705 11.1084 102.921 11.2384 103.128 11.325C103.335 11.4117 103.545 11.455 103.758 11.455C103.978 11.455 104.138 11.4184 104.238 11.345C104.338 11.2717 104.388 11.1684 104.388 11.035C104.388 10.955 104.358 10.885 104.298 10.825C104.245 10.7584 104.168 10.6984 104.068 10.645C103.975 10.5917 103.868 10.545 103.748 10.505C103.628 10.4584 103.505 10.4084 103.378 10.355C103.225 10.295 103.071 10.225 102.918 10.145C102.765 10.065 102.625 9.96838 102.498 9.85505C102.371 9.73505 102.268 9.59838 102.188 9.44505C102.108 9.28505 102.068 9.10172 102.068 8.89505C102.068 8.66838 102.111 8.45838 102.198 8.26505C102.291 8.07172 102.421 7.90838 102.588 7.77505C102.755 7.64172 102.955 7.53838 103.188 7.46505C103.421 7.38505 103.681 7.34505 103.968 7.34505C104.348 7.34505 104.681 7.41172 104.968 7.54505C105.255 7.67172 105.505 7.81505 105.718 7.97505L105.058 8.85505C104.878 8.72172 104.701 8.61838 104.528 8.54505C104.355 8.47172 104.181 8.43505 104.008 8.43505C103.635 8.43505 103.448 8.56505 103.448 8.82505C103.448 8.90505 103.475 8.97505 103.528 9.03505C103.581 9.08838 103.651 9.13838 103.738 9.18505C103.831 9.23172 103.935 9.27838 104.048 9.32505C104.168 9.36505 104.291 9.40838 104.418 9.45505C104.578 9.51505 104.735 9.58505 104.888 9.66505C105.048 9.73838 105.191 9.83172 105.318 9.94505C105.451 10.0584 105.558 10.1984 105.638 10.365C105.718 10.525 105.758 10.7184 105.758 10.945C105.758 11.1717 105.715 11.3817 105.628 11.575C105.541 11.7684 105.411 11.9384 105.238 12.085C105.065 12.225 104.851 12.3384 104.598 12.425C104.345 12.505 104.051 12.545 103.718 12.545ZM108.694 12.425V7.46505H109.894L109.994 8.09505H110.034C110.247 7.89505 110.48 7.72172 110.734 7.57505C110.987 7.42172 111.284 7.34505 111.624 7.34505C112.164 7.34505 112.554 7.52172 112.794 7.87505C113.04 8.22838 113.164 8.71838 113.164 9.34505V12.425H111.694V9.53505C111.694 9.17505 111.644 8.92838 111.544 8.79505C111.45 8.66172 111.297 8.59505 111.084 8.59505C110.897 8.59505 110.737 8.63838 110.604 8.72505C110.47 8.80505 110.324 8.92172 110.164 9.07505V12.425H108.694ZM116.546 12.545C116.233 12.545 115.93 12.4884 115.636 12.375C115.343 12.255 115.083 12.085 114.856 11.865C114.636 11.645 114.46 11.375 114.326 11.055C114.193 10.7284 114.126 10.3584 114.126 9.94505C114.126 9.53172 114.193 9.16505 114.326 8.84505C114.46 8.51838 114.636 8.24505 114.856 8.02505C115.083 7.80505 115.343 7.63838 115.636 7.52505C115.93 7.40505 116.233 7.34505 116.546 7.34505C116.86 7.34505 117.16 7.40505 117.446 7.52505C117.74 7.63838 117.996 7.80505 118.216 8.02505C118.443 8.24505 118.623 8.51838 118.756 8.84505C118.89 9.16505 118.956 9.53172 118.956 9.94505C118.956 10.3584 118.89 10.7284 118.756 11.055C118.623 11.375 118.443 11.645 118.216 11.865C117.996 12.085 117.74 12.255 117.446 12.375C117.16 12.4884 116.86 12.545 116.546 12.545ZM116.546 11.355C116.846 11.355 117.073 11.2284 117.226 10.975C117.38 10.7217 117.456 10.3784 117.456 9.94505C117.456 9.51172 117.38 9.16838 117.226 8.91505C117.073 8.66172 116.846 8.53505 116.546 8.53505C116.24 8.53505 116.01 8.66172 115.856 8.91505C115.71 9.16838 115.636 9.51172 115.636 9.94505C115.636 10.3784 115.71 10.7217 115.856 10.975C116.01 11.2284 116.24 11.355 116.546 11.355ZM120.715 12.425L119.475 7.46505H120.935L121.415 9.76505C121.455 10.0117 121.492 10.255 121.525 10.495C121.558 10.735 121.595 10.9817 121.635 11.235H121.675C121.722 10.9817 121.765 10.7317 121.805 10.485C121.852 10.2384 121.905 9.99838 121.965 9.76505L122.515 7.46505H123.785L124.345 9.76505C124.405 10.0117 124.458 10.255 124.505 10.495C124.552 10.735 124.602 10.9817 124.655 11.235H124.695C124.742 10.9817 124.778 10.735 124.805 10.495C124.838 10.255 124.878 10.0117 124.925 9.76505L125.395 7.46505H126.755L125.565 12.425H123.845L123.395 10.445C123.342 10.2117 123.295 9.97838 123.255 9.74505C123.215 9.51172 123.172 9.26172 123.125 8.99505H123.085C123.038 9.26172 122.995 9.51172 122.955 9.74505C122.922 9.97838 122.882 10.2117 122.835 10.445L122.395 12.425H120.715ZM61.7209 25.545C61.4943 25.545 61.2876 25.505 61.1009 25.425C60.9209 25.3517 60.7676 25.2484 60.6409 25.115C60.5143 24.975 60.4143 24.815 60.3409 24.635C60.2743 24.455 60.2409 24.2584 60.2409 24.045C60.2409 23.525 60.4609 23.1184 60.9009 22.825C61.3409 22.5317 62.0509 22.335 63.0309 22.235C63.0176 22.015 62.9509 21.8417 62.8309 21.715C62.7176 21.5817 62.5243 21.515 62.2509 21.515C62.0376 21.515 61.8243 21.555 61.6109 21.635C61.4043 21.715 61.1809 21.825 60.9409 21.965L60.4109 20.995C60.7309 20.8017 61.0643 20.645 61.4109 20.525C61.7643 20.405 62.1376 20.345 62.5309 20.345C63.1709 20.345 63.6576 20.5284 63.9909 20.895C64.3309 21.255 64.5009 21.8184 64.5009 22.585V25.425H63.3009L63.2009 24.915H63.1609C62.9476 25.1017 62.7243 25.255 62.4909 25.375C62.2576 25.4884 62.0009 25.545 61.7209 25.545ZM62.2209 24.405C62.3876 24.405 62.5309 24.3684 62.6509 24.295C62.7709 24.2217 62.8976 24.1184 63.0309 23.985V23.115C62.5109 23.1884 62.1509 23.295 61.9509 23.435C61.7509 23.575 61.6509 23.7417 61.6509 23.935C61.6509 24.095 61.7009 24.215 61.8009 24.295C61.9076 24.3684 62.0476 24.405 62.2209 24.405ZM66.8844 25.425L65.2144 20.465H66.6944L67.3344 22.805C67.4011 23.0517 67.4644 23.305 67.5244 23.565C67.5911 23.8184 67.6577 24.075 67.7244 24.335H67.7644C67.8244 24.075 67.8844 23.8184 67.9444 23.565C68.0111 23.305 68.0777 23.0517 68.1444 22.805L68.7944 20.465H70.2044L68.5844 25.425H66.8844ZM72.0334 25.545C71.8068 25.545 71.6001 25.505 71.4134 25.425C71.2334 25.3517 71.0801 25.2484 70.9534 25.115C70.8268 24.975 70.7268 24.815 70.6534 24.635C70.5868 24.455 70.5534 24.2584 70.5534 24.045C70.5534 23.525 70.7734 23.1184 71.2134 22.825C71.6534 22.5317 72.3634 22.335 73.3434 22.235C73.3301 22.015 73.2634 21.8417 73.1434 21.715C73.0301 21.5817 72.8368 21.515 72.5634 21.515C72.3501 21.515 72.1368 21.555 71.9234 21.635C71.7168 21.715 71.4934 21.825 71.2534 21.965L70.7234 20.995C71.0434 20.8017 71.3768 20.645 71.7234 20.525C72.0768 20.405 72.4501 20.345 72.8434 20.345C73.4834 20.345 73.9701 20.5284 74.3034 20.895C74.6434 21.255 74.8134 21.8184 74.8134 22.585V25.425H73.6134L73.5134 24.915H73.4734C73.2601 25.1017 73.0368 25.255 72.8034 25.375C72.5701 25.4884 72.3134 25.545 72.0334 25.545ZM72.5334 24.405C72.7001 24.405 72.8434 24.3684 72.9634 24.295C73.0834 24.2217 73.2101 24.1184 73.3434 23.985V23.115C72.8234 23.1884 72.4634 23.295 72.2634 23.435C72.0634 23.575 71.9634 23.7417 71.9634 23.935C71.9634 24.095 72.0134 24.215 72.1134 24.295C72.2201 24.3684 72.3601 24.405 72.5334 24.405ZM76.0569 25.425V20.465H77.5269V25.425H76.0569ZM76.7869 19.735C76.5402 19.735 76.3369 19.665 76.1769 19.525C76.0169 19.3784 75.9369 19.1917 75.9369 18.965C75.9369 18.7384 76.0169 18.555 76.1769 18.415C76.3369 18.275 76.5402 18.205 76.7869 18.205C77.0402 18.205 77.2436 18.275 77.3969 18.415C77.5569 18.555 77.6369 18.7384 77.6369 18.965C77.6369 19.1917 77.5569 19.3784 77.3969 19.525C77.2436 19.665 77.0402 19.735 76.7869 19.735ZM80.1706 25.545C79.9172 25.545 79.7039 25.505 79.5306 25.425C79.3572 25.345 79.2172 25.235 79.1106 25.095C79.0106 24.9484 78.9372 24.775 78.8906 24.575C78.8439 24.3684 78.8206 24.1384 78.8206 23.885V18.415H80.2906V23.945C80.2906 24.0984 80.3172 24.205 80.3706 24.265C80.4306 24.325 80.4906 24.355 80.5506 24.355C80.5839 24.355 80.6106 24.355 80.6306 24.355C80.6572 24.355 80.6906 24.3484 80.7306 24.335L80.9106 25.425C80.8306 25.4584 80.7272 25.485 80.6006 25.505C80.4806 25.5317 80.3372 25.545 80.1706 25.545ZM82.9319 25.545C82.7052 25.545 82.4986 25.505 82.3119 25.425C82.1319 25.3517 81.9786 25.2484 81.8519 25.115C81.7252 24.975 81.6252 24.815 81.5519 24.635C81.4852 24.455 81.4519 24.2584 81.4519 24.045C81.4519 23.525 81.6719 23.1184 82.1119 22.825C82.5519 22.5317 83.2619 22.335 84.2419 22.235C84.2286 22.015 84.1619 21.8417 84.0419 21.715C83.9286 21.5817 83.7352 21.515 83.4619 21.515C83.2486 21.515 83.0352 21.555 82.8219 21.635C82.6152 21.715 82.3919 21.825 82.1519 21.965L81.6219 20.995C81.9419 20.8017 82.2752 20.645 82.6219 20.525C82.9752 20.405 83.3486 20.345 83.7419 20.345C84.3819 20.345 84.8686 20.5284 85.2019 20.895C85.5419 21.255 85.7119 21.8184 85.7119 22.585V25.425H84.5119L84.4119 24.915H84.3719C84.1586 25.1017 83.9352 25.255 83.7019 25.375C83.4686 25.4884 83.2119 25.545 82.9319 25.545ZM83.4319 24.405C83.5986 24.405 83.7419 24.3684 83.8619 24.295C83.9819 24.2217 84.1086 24.1184 84.2419 23.985V23.115C83.7219 23.1884 83.3619 23.295 83.1619 23.435C82.9619 23.575 82.8619 23.7417 82.8619 23.935C82.8619 24.095 82.9119 24.215 83.0119 24.295C83.1186 24.3684 83.2586 24.405 83.4319 24.405ZM89.5553 25.545C89.3353 25.545 89.112 25.4917 88.8853 25.385C88.6653 25.2717 88.4587 25.1084 88.2653 24.895H88.2253L88.1053 25.425H86.9553V18.415H88.4253V20.135L88.3853 20.895C88.5787 20.7217 88.7853 20.5884 89.0053 20.495C89.232 20.395 89.462 20.345 89.6953 20.345C89.9953 20.345 90.2653 20.405 90.5053 20.525C90.7453 20.645 90.9487 20.815 91.1153 21.035C91.2887 21.2484 91.4187 21.5117 91.5053 21.825C91.5987 22.1317 91.6453 22.475 91.6453 22.855C91.6453 23.2817 91.5853 23.6617 91.4653 23.995C91.352 24.3284 91.1953 24.6117 90.9953 24.845C90.802 25.0717 90.5787 25.245 90.3253 25.365C90.0787 25.485 89.822 25.545 89.5553 25.545ZM89.2153 24.345C89.4687 24.345 89.6853 24.2317 89.8653 24.005C90.0453 23.7717 90.1353 23.3984 90.1353 22.885C90.1353 21.9917 89.8487 21.545 89.2753 21.545C88.982 21.545 88.6987 21.695 88.4253 21.995V24.025C88.5587 24.145 88.692 24.2284 88.8253 24.275C88.9587 24.3217 89.0887 24.345 89.2153 24.345ZM94.0378 25.545C93.7844 25.545 93.5711 25.505 93.3978 25.425C93.2244 25.345 93.0844 25.235 92.9778 25.095C92.8778 24.9484 92.8044 24.775 92.7578 24.575C92.7111 24.3684 92.6878 24.1384 92.6878 23.885V18.415H94.1578V23.945C94.1578 24.0984 94.1844 24.205 94.2378 24.265C94.2978 24.325 94.3578 24.355 94.4178 24.355C94.4511 24.355 94.4778 24.355 94.4978 24.355C94.5244 24.355 94.5578 24.3484 94.5978 24.335L94.7778 25.425C94.6978 25.4584 94.5944 25.485 94.4678 25.505C94.3478 25.5317 94.2044 25.545 94.0378 25.545ZM97.7691 25.545C97.4157 25.545 97.0857 25.4884 96.7791 25.375C96.4724 25.255 96.2057 25.085 95.9791 24.865C95.7524 24.6384 95.5757 24.365 95.4491 24.045C95.3224 23.725 95.2591 23.3584 95.2591 22.945C95.2591 22.545 95.3257 22.185 95.4591 21.865C95.5924 21.5384 95.7657 21.265 95.9791 21.045C96.1991 20.8184 96.4491 20.645 96.7291 20.525C97.0091 20.405 97.2991 20.345 97.5991 20.345C97.9524 20.345 98.2591 20.405 98.5191 20.525C98.7857 20.645 99.0057 20.8117 99.1791 21.025C99.3591 21.2384 99.4924 21.4917 99.5791 21.785C99.6657 22.0717 99.7091 22.385 99.7091 22.725C99.7091 22.8584 99.7024 22.985 99.6891 23.105C99.6757 23.225 99.6624 23.315 99.6491 23.375H96.6791C96.7457 23.735 96.8924 24.0017 97.1191 24.175C97.3524 24.3417 97.6357 24.425 97.9691 24.425C98.3224 24.425 98.6791 24.315 99.0391 24.095L99.5291 24.985C99.2757 25.1584 98.9924 25.295 98.6791 25.395C98.3724 25.495 98.0691 25.545 97.7691 25.545ZM96.6691 22.405H98.4591C98.4591 22.125 98.3957 21.8984 98.2691 21.725C98.1424 21.5517 97.9291 21.465 97.6291 21.465C97.3957 21.465 97.1891 21.5417 97.0091 21.695C96.8357 21.8484 96.7224 22.085 96.6691 22.405ZM101.575 25.545C101.322 25.545 101.108 25.4584 100.935 25.285C100.768 25.105 100.685 24.885 100.685 24.625C100.685 24.3584 100.768 24.1384 100.935 23.965C101.108 23.785 101.322 23.695 101.575 23.695C101.828 23.695 102.038 23.785 102.205 23.965C102.378 24.1384 102.465 24.3584 102.465 24.625C102.465 24.885 102.378 25.105 102.205 25.285C102.038 25.4584 101.828 25.545 101.575 25.545Z" fill="white"/>
<defs>
<clipPath id="clip0">
<path d="M0 45C0 40.0294 4.02944 36 9 36H153C157.971 36 162 40.0294 162 45V142C162 146.971 157.971 151 153 151H9C4.02944 151 0 146.971 0 142V45Z" fill="white"/>
</clipPath>
<clipPath id="clip1">
</clipPath>
</defs>
</svg>
