<svg width="20" height="20" viewBox="0 0 20 20" fill="none" xmlns="http://www.w3.org/2000/svg">
<path d="M11.5645 0.148317C10.2463 -0.0822588 8.91977 -0.0439683 7.62322 0.263022C6.28084 0.581003 5.03812 1.17218 3.92848 2.02025C1.82312 3.62926 0.462012 5.97138 0.096919 8.6166C-0.268427 11.2614 0.406581 13.8921 1.99585 16.0235C3.51218 18.0577 5.71336 19.4176 8.19343 19.8518C9.51203 20.0824 10.8372 20.0439 12.1339 19.7363C13.4769 19.4198 14.7202 18.8288 15.8288 17.9806C17.9344 16.3724 19.2957 14.0298 19.6609 11.384C20.026 8.73917 19.3506 6.1087 17.7619 3.97708C16.2452 1.94277 14.044 0.58349 11.5644 0.149176" fill="#134A8E"/>
<path d="M19.3015 11.3331C18.9498 13.8811 17.639 16.1382 15.6108 17.6872C14.5411 18.5048 13.3435 19.0738 12.0503 19.3802C11.8941 19.4171 11.7373 19.4499 11.5807 19.4788C10.4822 19.6817 9.36556 19.6858 8.2548 19.4915C6.46323 19.1771 4.82315 18.362 3.49797 17.1475C3.05676 16.7421 2.65028 16.2933 2.2851 15.8035C1.04047 14.1355 0.378382 12.149 0.361786 10.0961C0.35868 9.62199 0.389338 9.14511 0.455695 8.6677C0.742659 6.58596 1.66967 4.69895 3.10647 3.23232C3.42776 2.90393 3.77546 2.59636 4.14609 2.31295C4.86534 1.76282 5.64299 1.3264 6.4687 1.0055C6.87013 0.849753 7.28302 0.720514 7.70595 0.620939C8.95605 0.32495 10.2331 0.287827 11.5028 0.509973C13.8918 0.927733 16.0117 2.23699 17.4733 4.19713C19.0041 6.2506 19.6544 8.78417 19.3025 11.3332" fill="white"/>
<path d="M18.5611 13.5147C18.8367 12.8137 19.0313 12.075 19.1366 11.3092C19.2441 10.5271 19.2571 9.74724 19.177 8.98197V8.97981C19.1745 8.96449 19.1723 8.94819 19.1704 8.93169C18.9864 7.2644 18.3636 5.67208 17.3398 4.29805C16.2037 2.77509 14.6624 1.6515 12.9057 1.04633C12.4428 0.886065 11.9643 0.761346 11.474 0.675907C11.395 0.662355 11.3157 0.649194 11.2361 0.63682C10.7592 0.566507 10.2784 0.534886 9.80133 0.539207C9.5392 0.541369 9.27766 0.555902 9.01631 0.580452C8.90455 0.591254 8.79143 0.604217 8.68084 0.618555C8.63505 0.624639 8.58849 0.630535 8.5427 0.638195C6.99581 0.864848 5.51115 1.48098 4.24648 2.44726C3.59456 2.94554 3.01853 3.51768 2.52604 4.15071C1.51172 5.45109 0.853172 7.00601 0.620537 8.69062C0.51285 9.47291 0.499858 10.2538 0.581537 11.02C0.671565 11.8793 0.878974 12.7201 1.19775 13.5207C1.50314 14.2889 1.9106 15.0221 2.41719 15.7006C3.00082 16.4833 3.69097 17.1595 4.46224 17.7157C4.74338 17.9181 5.03636 18.1052 5.33787 18.2745C6.24551 18.7842 7.23832 19.1407 8.28371 19.3231V19.3243C8.52159 19.3661 8.76043 19.3972 8.99985 19.4198C9.39449 19.4575 9.79031 19.4696 10.1836 19.4555C10.2856 19.452 10.3867 19.4471 10.489 19.4396C12.2936 19.3178 14.0491 18.6695 15.5099 17.552C15.6545 17.4406 15.7961 17.3259 15.9342 17.2087C17.1077 16.2005 18.0024 14.9374 18.5607 13.5146" fill="#134A8E"/>
<path d="M15.2921 17.2608C13.2876 18.7928 10.8204 19.3978 8.34468 18.9636C6.08925 18.5688 4.0859 17.3321 2.70637 15.4811C1.25997 13.5416 0.646958 11.148 0.978253 8.74198C1.31101 6.33502 2.54892 4.20401 4.46425 2.73964C6.46872 1.20868 8.93704 0.603306 11.4126 1.03742C13.4221 1.38898 15.2299 2.40837 16.5758 3.93544C16.5812 3.94133 16.5843 3.94467 16.5872 3.9482C16.7484 4.13105 16.9031 4.32196 17.0507 4.51974C18.4973 6.45848 19.1109 8.85325 18.7789 11.2592C18.4463 13.6659 17.2082 15.797 15.2929 17.2608" fill="white"/>
<path d="M5.4901 7.62427C5.2045 7.74663 5.05742 7.89078 4.84245 8.23567C2.50172 8.6277 1.7002 9.0063 1.48891 9.24179C1.45845 9.2848 1.47167 9.30577 1.50097 9.31441C2.2792 9.28142 3.36954 9.24161 5.27818 9.30681C5.43593 9.30897 5.5899 9.31286 5.74105 9.31561C5.83728 9.18677 6.01089 9.07313 6.34364 9.07313H6.37724H6.44127C7.05982 9.08119 7.17375 9.72375 7.83051 9.72375C8.48069 9.72375 8.59871 9.09239 9.20325 9.07353C9.22401 9.07353 9.24432 9.07313 9.26333 9.07313H11.5285L11.497 8.69281H9.2308C8.60158 8.69281 8.49021 8.04161 7.82952 8.04161C7.17591 8.04161 7.06215 8.68962 6.44919 8.68962H6.44306C5.79774 8.64425 5.54244 8.09192 5.49005 7.62432L5.4901 7.62427ZM1.55128 9.40444C1.47309 9.40342 1.45189 9.43572 1.53785 9.50387C1.9096 9.77668 3.16984 10.2705 4.71642 10.562C5.46012 10.7022 5.79915 10.9089 6.33293 11.2866C7.49479 12.1088 9.07872 14.4303 10.0448 17.301C11.8767 13.6994 14.0049 11.9752 14.1712 11.8432L13.082 11.9335L12.5592 11.9765L12.8948 11.5682L13.0769 11.3457L12.3731 10.7305C11.9904 11.3227 11.6178 11.9643 11.4404 12.4594L12.2144 12.4563C11.8168 12.9553 11.0504 13.7799 10.5339 14.6944C10.0188 13.4119 8.81084 11.7628 6.62919 10.8563C5.99725 10.594 5.40013 10.2458 5.47694 9.73923C4.38135 9.58077 3.18023 9.45191 1.82054 9.40817C1.72275 9.4064 1.63246 9.40457 1.55116 9.40417L1.55128 9.40444Z" fill="#1D2D5C"/>
<path d="M7.57932 8.33667C7.44293 8.42937 7.34402 8.60181 7.34946 8.76856H7.56981C7.55914 8.68647 7.5343 8.52483 7.57931 8.33667" fill="white"/>
<path d="M10.11 1.58228L9.67424 1.60888C9.70761 1.64836 9.71844 1.69794 9.72523 1.77454L9.76653 2.48456L8.72043 1.65689L8.80759 3.15354C8.81089 3.22365 8.80565 3.29549 8.75442 3.3546L9.21453 3.32739C9.17048 3.28104 9.16636 3.22844 9.15879 3.13593V3.13293L9.11986 2.44892L10.163 3.27799L10.0751 1.76076C10.0722 1.70007 10.0751 1.63396 10.1101 1.5823L10.11 1.58228ZM10.9178 1.6585L10.7727 2.02581C10.8586 1.9883 10.925 1.9905 11.0164 2.00681L11.2597 2.05622L11.0308 3.2008C11.0132 3.2886 10.9819 3.34388 10.9233 3.37806L11.4219 3.48049C11.3872 3.42707 11.3677 3.35493 11.3842 3.27323L11.6132 2.12906L11.8828 2.18408C11.9787 2.20391 12.0489 2.25833 12.0949 2.30292L12.1014 1.90119L10.9178 1.65852L10.9178 1.6585ZM7.32471 2.05862C7.04909 2.04725 6.7722 2.17052 6.59504 2.41174C6.31079 2.79944 6.38807 3.34614 6.76816 3.63109C7.14748 3.91628 7.68693 3.83375 7.9708 3.44623C8.25447 3.05872 8.17718 2.51224 7.79768 2.228C7.65514 2.1207 7.49011 2.06537 7.32474 2.05855L7.32471 2.05862ZM13.2006 2.36541C12.9249 2.354 12.6477 2.47689 12.4701 2.71872C12.1867 3.10642 12.2642 3.65312 12.6437 3.93787C13.0228 4.22325 13.5632 4.13971 13.8469 3.75201C14.1304 3.36588 14.0523 2.8192 13.6736 2.53418C13.531 2.42732 13.3661 2.37218 13.2006 2.36534L13.2006 2.36541ZM7.30811 2.41322C7.40737 2.41715 7.50592 2.44943 7.58974 2.51225C7.81287 2.68038 7.86079 3.01262 7.69548 3.23829C7.53037 3.46533 7.20098 3.51444 6.97786 3.34632C6.75512 3.17878 6.70622 2.84635 6.87153 2.6201C6.97545 2.47893 7.14269 2.40668 7.30811 2.41323V2.41322ZM13.1824 2.72011C13.2815 2.72409 13.3799 2.75639 13.4636 2.81914C13.6866 2.98628 13.7355 3.31989 13.57 3.54537C13.4041 3.77104 13.0757 3.82054 12.8519 3.6532C12.629 3.48488 12.5807 3.15224 12.7462 2.92697C12.8501 2.78556 13.0172 2.71346 13.1824 2.72011H13.1824ZM5.29929 3.16569C5.23144 3.16737 5.159 3.18309 5.08623 3.21211C5.06683 3.21937 4.9724 3.26135 4.89808 3.31634L4.89275 3.32094L4.43936 3.65445C4.49718 3.66781 4.56315 3.69144 4.60933 3.75448V3.75469L5.3981 4.86588C5.4177 4.90771 5.43053 4.96018 5.42102 5.01772L5.82479 4.72123C5.74699 4.71416 5.70349 4.66785 5.65285 4.60499L5.31113 4.12864L6.19733 4.44654L6.5764 4.16705C6.51431 4.16371 6.43865 4.14961 6.35406 4.12624L5.76968 3.92404L5.78061 3.89505C5.85114 3.71333 5.81734 3.58068 5.80986 3.5561C5.79235 3.49659 5.76422 3.43984 5.72526 3.3876C5.67404 3.31532 5.61108 3.25988 5.53949 3.22375L5.52921 3.21835C5.47184 3.1912 5.42063 3.17594 5.36538 3.16867C5.34394 3.16606 5.32179 3.16511 5.29918 3.16566L5.29929 3.16569ZM5.28644 3.519C5.31989 3.51936 5.35223 3.5291 5.38526 3.54781C5.44502 3.58159 5.46971 3.6586 5.47301 3.67765C5.47534 3.69101 5.4901 3.81268 5.34653 3.91913L5.22419 4.00936L4.98623 3.68086L5.10046 3.59563C5.17177 3.54358 5.23069 3.5184 5.28644 3.519L5.28644 3.519ZM15.0407 3.95294C13.3199 5.97373 8.52108 5.94863 7.27877 6.36153C6.4631 6.63218 6.04466 7.08165 5.75576 7.52629C5.72724 7.98412 6.05568 8.42118 6.44354 8.42118C6.44354 8.42118 6.3418 8.16138 6.4718 7.89721C6.52283 7.79528 6.61643 7.70132 6.74157 7.62432C7.6993 6.95988 9.75137 7.63433 9.75137 7.63433C9.26844 7.59013 8.87137 7.59896 8.53608 7.64433C9.10456 7.82247 9.71241 8.06594 10.1243 8.1669C10.632 8.29201 10.9677 8.35631 11.4721 8.38577L11.4561 8.18451L11.7359 8.23272L12.484 8.36276L12.5939 8.07887L12.7154 7.76677L12.9528 8.00085C12.958 8.00596 13.3258 8.36809 13.5182 8.55762C13.4845 8.20095 13.3977 7.29319 13.3967 7.28346L13.3615 6.91714L13.6987 7.05479L14.0671 7.20544L14.6181 6.29095L14.8062 5.98046L14.9944 6.29095L15.4399 7.02838C15.5955 6.38849 15.707 5.7109 16.032 5.39602C15.706 5.4082 15.4769 5.50174 15.1207 5.75373C15.3226 5.20124 15.6211 4.79109 16.0247 4.32203C15.6323 4.38233 15.2583 4.49623 14.8908 4.70815C15.0311 4.37054 15.0406 3.95292 15.0406 3.95292L15.0407 3.95294ZM3.95134 4.62438C3.67548 4.61313 3.39794 4.73619 3.22029 4.9779C2.93702 5.36521 3.01567 5.91072 3.39461 6.19705C3.77412 6.48204 4.31317 6.39831 4.59684 6.01118C4.88051 5.62367 4.80323 5.07759 4.42431 4.79316C4.28184 4.68629 4.11688 4.63105 3.95136 4.62431L3.95134 4.62438ZM3.93316 4.9783C4.0323 4.98224 4.13055 5.01456 4.214 5.07753C4.4381 5.24565 4.48584 5.57788 4.32073 5.80335C4.15522 6.03001 3.82624 6.0797 3.6035 5.91079C3.38018 5.74423 3.33147 5.41082 3.49659 5.18496C3.60051 5.04403 3.76793 4.97173 3.93317 4.97829L3.93316 4.9783ZM2.45194 6.24446L1.99537 7.3746L2.32384 7.58951C2.30443 7.49661 2.31851 7.43101 2.35111 7.34243L2.4444 7.11055L3.51266 7.55269C3.599 7.58824 3.64249 7.63684 3.66306 7.69714L3.85793 7.21619C3.79933 7.24113 3.72626 7.24685 3.64982 7.21499L2.58136 6.77185L2.68611 6.51417C2.72278 6.42304 2.78924 6.36264 2.84046 6.32611L2.45199 6.24447L2.45194 6.24446ZM3.80536 11.9597C3.80536 12.061 3.75876 12.1582 3.63361 12.2148L2.12466 12.9388C1.98341 13.004 1.87177 12.9896 1.78058 12.8942L2.14897 13.6816C2.4466 14.3143 2.93708 14.2837 3.15633 14.1792V14.1782C3.32513 14.0976 3.44863 13.9603 3.49132 13.7546C3.49132 13.7546 3.65101 13.8302 3.88501 13.7182H3.886V13.7178C4.22825 13.553 4.35113 13.1185 4.16506 12.7267L3.80536 11.9596V11.9597ZM3.77492 12.3868L3.9775 12.8182C4.10634 13.0943 4.02274 13.3982 3.78817 13.5112C3.64886 13.5783 3.50644 13.5542 3.35238 13.4387L3.33578 13.4251L3.33815 13.4462C3.36745 13.6695 3.26217 13.8667 3.05573 13.9659C2.77906 14.0989 2.51118 13.9593 2.33791 13.591L2.14126 13.1709L3.77497 12.3868L3.77492 12.3868ZM3.72848 12.5177L3.09367 12.8226L3.25435 13.1645C3.36553 13.4021 3.56855 13.508 3.74666 13.423C3.93389 13.3332 3.99665 13.0855 3.88916 12.86L3.72848 12.5177V12.5177ZM16.0483 12.6013L15.9966 12.6077C15.7779 12.6374 15.5341 12.8137 15.4149 13.027C15.3257 13.1897 15.2843 13.3496 15.293 13.5026C15.304 13.7082 15.3987 13.882 15.5671 14.0051C15.5908 14.0216 15.6158 14.0384 15.643 14.054C16.0386 14.2792 16.2889 14.0526 16.4899 13.8703L16.5061 13.8551C16.67 13.707 16.7856 13.633 16.8964 13.6964C16.9647 13.7347 16.9973 13.8632 16.9391 13.9775C16.8912 14.0712 16.8213 14.1074 16.7994 14.1176C16.6835 14.18 16.4987 14.099 16.4964 14.099L16.493 14.0966L16.5737 14.3801H16.577C16.6506 14.3883 16.7769 14.3575 16.7786 14.3575H16.7794C16.9265 14.3245 17.0406 14.2374 17.1176 14.0978C17.1209 14.0923 17.1234 14.0867 17.1255 14.0828L17.1294 14.0758C17.2495 13.8548 17.2007 13.6078 17.0142 13.5002C16.8675 13.4163 16.7384 13.414 16.618 13.4946C16.5145 13.5631 16.3883 13.6719 16.3873 13.6738C16.1793 13.859 16.0007 13.9912 15.7547 13.8549C15.6363 13.7897 15.5548 13.6918 15.5199 13.572C15.4821 13.4355 15.5059 13.2804 15.5908 13.1341C15.6362 13.0567 15.8066 12.8039 16.1231 12.8116H16.125L16.0503 12.6023V12.6013H16.0484L16.0483 12.6013ZM3.63134 12.805L3.69992 12.9512C3.75114 13.061 3.73718 13.1669 3.64754 13.2099C3.53676 13.2627 3.45086 13.1572 3.4171 13.0866L3.34872 12.9398L3.63134 12.805H3.63134ZM3.00522 12.8642L2.2706 13.2175L2.42614 13.5486C2.51287 13.7348 2.70503 14.0262 3.01392 13.8773C3.3618 13.7105 3.23256 13.3495 3.16095 13.1957L3.00521 12.8642H3.00522ZM16.1589 12.9082C16.0646 12.9061 15.8296 12.9278 15.67 13.1921C15.5337 13.4174 15.5908 13.6464 15.8079 13.7705C16.0145 13.888 16.1669 13.7496 16.3018 13.6268L16.3091 13.6211L16.37 13.5702C16.3818 13.5604 16.3927 13.5506 16.404 13.5408C16.5287 13.4328 16.6459 13.3307 16.819 13.3368C16.832 13.3368 16.9471 13.3438 17.0548 13.4108C17.1644 13.4772 17.236 13.5681 17.2665 13.6791C17.308 13.8277 17.2851 13.9918 17.2028 14.1416C17.1146 14.2991 16.975 14.4068 16.8091 14.4465C16.7383 14.463 16.6973 14.467 16.6036 14.4713H16.6016L16.6682 14.7058H16.6702C17.1008 14.685 17.3102 14.3661 17.3633 14.2683C17.3744 14.2494 17.3797 14.237 17.3797 14.237C17.4647 14.0833 17.5047 13.9188 17.4965 13.7617C17.4829 13.5288 17.3614 13.3291 17.1625 13.2161C16.698 12.951 16.3724 13.2623 16.2158 13.4122L16.2091 13.4186C16.0566 13.5639 15.9843 13.6002 15.9123 13.5656C15.8962 13.558 15.8875 13.5519 15.8753 13.5438C15.7963 13.4875 15.7871 13.3866 15.8559 13.2788C15.8707 13.2554 16.0068 13.0564 16.256 13.1833L16.2601 13.1853L16.1613 12.9082H16.1589L16.1589 12.9082ZM2.93439 13.1369L2.99862 13.2727C3.08341 13.4558 3.05526 13.5591 2.99744 13.6157C2.97493 13.6375 2.93238 13.6639 2.89862 13.6675C2.80743 13.6785 2.72 13.6852 2.616 13.4564L2.55176 13.3198L2.93438 13.1369L2.93439 13.1369ZM4.64774 13.6839C4.67607 13.777 4.65836 13.8758 4.54971 13.9774C4.54971 13.9778 4.54561 13.9819 4.53746 13.9886C4.53474 13.9917 3.42923 14.9888 3.2999 15.1051C3.18679 15.2007 3.08574 15.2021 2.96195 15.1581L3.90111 16.2256L4.07998 16.1118L3.38351 15.32L4.89124 13.9609L4.64775 13.6838L4.64774 13.6839ZM15.0329 13.8489L14.7611 14.113L15.2394 15.5655L15.8361 16.1935L15.838 16.1923L16.1246 15.9132C16.0008 15.9572 15.9085 15.935 15.8204 15.86H15.82L15.4329 15.4571L15.0111 14.188C15 14.1417 14.9657 14.0642 15.0328 13.8489L15.0329 13.8489ZM4.95536 14.0346L3.5217 15.3284L4.16322 16.0572L4.46718 15.867C4.46718 15.867 4.26935 15.8565 4.10986 15.6791L4.10314 15.6711C4.10314 15.6711 3.92607 15.4698 3.82052 15.3506C3.96391 15.2206 4.75879 14.5023 4.89091 14.3847C4.89129 14.3847 4.89132 14.3847 4.89229 14.3837C4.89481 14.3817 4.89769 14.379 4.90118 14.3761C4.90118 14.3761 5.08281 14.2394 5.19961 14.3119L4.95731 14.0362L4.95534 14.0346L4.95536 14.0346ZM14.683 14.19L14.3439 14.5203C14.4298 14.4807 14.4829 14.4866 14.5068 14.4935C14.524 14.5035 14.5569 14.5157 14.5981 14.6312L14.7937 15.1681L14.2741 14.9523C14.1932 14.9104 14.1601 14.857 14.1601 14.857C14.1277 14.7985 14.1558 14.7357 14.1717 14.6884L13.8373 15.0131L13.8304 15.0205L15.1229 15.5139L14.683 14.19L14.683 14.19ZM5.64891 14.859C5.7077 14.9645 5.71307 15.0405 5.63488 15.1681C5.63391 15.1683 4.94355 16.2713 4.94355 16.2713C4.70994 16.65 4.82395 17.0445 5.24692 17.3179C5.66116 17.5856 6.09346 17.5381 6.33036 17.161L7.0205 16.0582C7.09578 15.9426 7.18841 15.8996 7.29008 15.9118L6.98295 15.7149L6.16987 17.0123C6.15842 17.03 6.13884 17.0608 6.13884 17.0608C5.99681 17.2888 5.65235 17.3255 5.37083 17.144C5.27362 17.0817 5.1969 17.0015 5.14355 16.9137C5.14141 16.9104 5.13898 16.908 5.13762 16.9043C5.04022 16.7403 5.02409 16.5489 5.11509 16.403C5.11509 16.403 5.12145 16.3919 5.14454 16.3547L5.95781 15.0571L5.64891 14.8591L5.64891 14.859ZM13.7536 15.0955L13.4884 15.353C13.6362 15.3033 13.6917 15.3135 13.8135 15.35L15.0549 15.8259L15.4087 16.2017C15.5195 16.3124 15.5149 16.4448 15.479 16.5426L15.7672 16.2611L15.1705 15.6341L13.7537 15.0955L13.7536 15.0955ZM6.0393 15.1097L5.21398 16.4277C5.08592 16.6316 5.18045 16.9119 5.41754 17.0639C5.65425 17.2157 5.94136 17.1901 6.07291 16.9837L6.90022 15.6623L6.59151 15.463C6.66 15.5754 6.64693 15.6622 6.57728 15.7731C6.57728 15.7731 6.13814 16.4743 5.90551 16.8447C5.83255 16.9523 5.66427 16.9715 5.53059 16.8859C5.39807 16.8009 5.34344 16.6369 5.40766 16.5246C5.48236 16.4048 6.06308 15.4774 6.06619 15.4738C6.07395 15.4601 6.07804 15.4532 6.07804 15.4532C6.14246 15.3519 6.22386 15.3023 6.3492 15.309L6.03931 15.1097L6.0393 15.1097ZM12.7524 15.5044L12.8777 17.8006C12.8748 18.0192 12.8415 18.1442 12.7843 18.2237L13.1104 18.05L12.97 15.9208L14.6256 17.2428L14.9365 17.0763C14.8084 17.0728 14.6857 16.9949 14.5574 16.9079L12.7522 15.5045L12.7524 15.5044ZM7.62758 16.045C7.70596 16.1179 7.75356 16.2257 7.7262 16.3453C7.33607 18.0071 7.33938 17.9926 7.33725 18.0023C7.31319 18.0904 7.24595 18.2121 7.08724 18.2313L8.55884 18.5852L8.64284 18.3876L7.52934 18.1213L7.94715 16.339L9.00013 16.593L9.01456 16.3788L7.62755 16.0451L7.62758 16.045ZM13.0763 16.1268L13.1442 17.1288L13.8551 16.7504L13.0762 16.1268L13.0763 16.1268ZM11.902 16.1344L11.5481 16.2233L11.9145 17.7184C11.9145 17.7184 11.9871 17.9355 11.8744 18.1125C11.7937 18.238 11.6678 18.3328 11.4961 18.3766C11.3358 18.4165 11.1438 18.3984 11.0006 18.3016C10.9376 18.258 10.9069 18.2313 10.8395 18.1655L10.7144 18.3774C11.0881 18.7433 11.5493 18.5835 11.5493 18.5835C11.72 18.5404 11.8681 18.4569 11.9766 18.341C12.1207 18.1876 12.1776 17.9895 12.1493 17.787C12.1493 17.7829 12.1369 17.7209 12.1321 17.7036L11.82 16.4314C11.7843 16.2748 11.902 16.1345 11.902 16.1345L11.902 16.1344ZM11.4538 16.2477L11.0994 16.3359C11.1763 16.3487 11.2799 16.4323 11.3103 16.5598L11.619 17.8222C11.6472 17.9404 11.5538 18.0456 11.4384 18.0778C11.3229 18.1112 11.2318 18.0746 11.2289 18.0738C11.1006 18.0293 11.0374 17.8278 11.0374 17.8278L10.8876 18.084C10.9462 18.1522 11.0729 18.2359 11.0729 18.2359C11.2423 18.341 11.422 18.2994 11.4783 18.2853C11.6995 18.2299 11.8898 18.0302 11.8299 17.7813C11.8299 17.7792 11.4538 16.2476 11.4538 16.2476L11.4538 16.2477ZM8.01932 16.4579L7.85449 17.1586L8.70136 17.3618L8.7729 17.0585C8.7729 17.0585 8.67435 17.1682 8.49778 17.1268L8.10508 17.0319L8.17978 16.7138L8.65253 16.8275C8.91 16.8905 8.97191 17.0309 8.97191 17.0309L8.99483 16.6922L8.0193 16.4579L8.01932 16.4579ZM13.2874 16.5334L13.5202 16.7228L13.3103 16.8341L13.2874 16.5334L13.2874 16.5334ZM13.9354 16.8185L13.1549 17.2346L13.2036 18.0006L13.2105 17.997L13.5745 17.8026C13.4888 17.7898 13.4127 17.7125 13.3921 17.5921L13.3741 17.3232L13.882 17.0527L14.1038 17.2272C14.1599 17.2737 14.2472 17.3646 14.157 17.4921L14.5248 17.2962L14.5323 17.293L13.9354 16.8185H13.9354ZM7.84166 17.257L7.65588 18.0498L8.68276 18.2953L8.82565 17.9604C8.74299 18.0101 8.64962 18.0639 8.45112 18.022C8.44705 18.022 7.91434 17.894 7.91434 17.894L8.01019 17.4845L8.38709 17.5749L8.39282 17.5763C8.56977 17.6254 8.60863 17.758 8.60863 17.758L8.67959 17.4583L7.84161 17.257L7.84166 17.257Z" fill="#134A8E"/>
<path d="M9.82465 4.02272C8.26845 4.03742 6.72045 4.67098 5.57235 5.91076C5.01453 6.5153 4.60294 7.2053 4.33773 7.93462C4.45802 7.91282 4.58039 7.89062 4.70573 7.8696C4.86347 7.47699 5.06592 7.09791 5.31563 6.741C5.31563 6.74237 5.31662 6.74402 5.31662 6.745C5.31778 6.74697 5.32 6.74925 5.32136 6.7518C5.33106 6.74296 5.34112 6.73382 5.3514 6.72439C5.37915 6.69984 5.40606 6.67451 5.43322 6.64957C5.4307 6.64486 5.42803 6.63947 5.42532 6.63417C5.42008 6.62533 5.41593 6.61619 5.4105 6.60736C5.45512 6.54942 5.49949 6.49066 5.54509 6.4339C5.55382 6.44431 5.56023 6.4547 5.56683 6.46551C5.57769 6.4824 5.58733 6.4988 5.59529 6.51412C5.63526 6.48211 5.67667 6.45011 5.71684 6.41849C5.6986 6.38 5.67583 6.34343 5.64944 6.30926C5.67137 6.28294 5.69533 6.25755 5.71822 6.23103C5.74732 6.19843 5.77588 6.16421 5.80518 6.132H5.80578C5.80656 6.132 5.80657 6.13202 5.80657 6.1312C5.85139 6.18364 5.88064 6.23812 5.89985 6.28546C5.93594 6.2613 5.97167 6.23681 6.00757 6.21383C6.01514 6.20853 6.02175 6.20374 6.0297 6.19923C6.00894 6.15013 5.98287 6.10256 5.95144 6.05738C5.94001 6.04304 5.92948 6.02808 5.91805 6.01456C5.96752 5.96409 6.01742 5.91524 6.06845 5.86711C6.08164 5.85533 6.0932 5.84288 6.10639 5.8307C6.18711 5.91064 6.22595 5.99666 6.24652 6.06718C6.29677 6.03771 6.34789 6.01024 6.40009 5.98235C6.38456 5.93835 6.36426 5.89552 6.3402 5.85251C6.32041 5.8199 6.29783 5.78932 6.27241 5.75928C6.26058 5.74494 6.24786 5.72962 6.23466 5.71626C6.29345 5.66343 6.35418 5.61272 6.41511 5.56421C6.43451 5.58208 6.45077 5.59936 6.4661 5.61743C6.50121 5.65808 6.5283 5.69857 6.54653 5.73726C6.56943 5.7846 6.58144 5.82861 6.58804 5.86711C6.58882 5.87457 6.59023 5.88145 6.5912 5.88911C6.59333 5.88695 6.59578 5.8865 6.59772 5.88571C6.65088 5.85998 6.70547 5.83628 6.76058 5.81409C6.7631 5.81307 6.76516 5.81167 6.7673 5.81049C6.764 5.79144 6.75988 5.7723 6.75445 5.75227C6.72515 5.64052 6.66319 5.52942 6.57045 5.44437V5.44336C6.60886 5.41567 6.64686 5.38824 6.68547 5.36074C6.72583 5.33147 6.76727 5.3038 6.8088 5.27591C6.80104 5.2928 6.79243 5.30894 6.7837 5.32072C6.95444 5.47942 6.98481 5.63065 6.98035 5.72905C7.04554 5.70647 7.11087 5.68549 7.17838 5.66683C7.17586 5.6028 7.16155 5.537 7.13885 5.47317C7.11421 5.40698 7.07847 5.34205 7.03035 5.28391C7.01948 5.27075 7.00758 5.25745 6.99458 5.2443C7.00195 5.22446 7.01073 5.19789 7.01849 5.16607C7.02062 5.15665 7.02406 5.14767 7.0262 5.13726C7.13369 5.07264 7.2437 5.01176 7.35527 4.955C7.325 5.0428 7.29019 5.12078 7.25546 5.15947C7.4249 5.35431 7.42934 5.50054 7.40646 5.59501L7.40468 5.60281V5.60582C7.47317 5.58991 7.54135 5.57638 7.61081 5.5642C7.63157 5.41689 7.58831 5.24648 7.47306 5.10565C7.4752 5.10231 7.47646 5.09778 7.4786 5.09405C7.48092 5.09013 7.48179 5.08676 7.48373 5.08205C7.50876 5.02646 7.53974 4.93938 7.56496 4.85218C7.6579 4.80956 7.75248 4.77106 7.846 4.73374C7.87627 4.72118 7.90783 4.70833 7.93829 4.69733C7.8991 4.81282 7.84479 4.94253 7.79046 5.01323C7.7829 5.02306 7.77491 5.03257 7.76754 5.03964C7.86979 5.15081 7.91544 5.2839 7.92961 5.39056V5.39796V5.39876C7.93523 5.44766 7.93407 5.48996 7.92961 5.5206C7.98956 5.51471 8.05112 5.51173 8.11341 5.5084C8.11962 5.50778 8.12558 5.50775 8.13179 5.507C8.14149 5.45318 8.14413 5.39385 8.13811 5.33435C8.13404 5.28387 8.12315 5.23302 8.10491 5.1849C8.07949 5.12264 8.04148 5.06602 7.98929 5.02084C8.03605 4.93953 8.11088 4.75237 8.14503 4.62392C9.25174 4.2586 10.4527 4.25202 11.5671 4.60791C11.5721 4.61027 11.5769 4.61036 11.5821 4.61291C11.5918 4.61645 11.6018 4.61957 11.6115 4.62252C11.9148 4.72268 12.212 4.85045 12.4985 5.00424C12.6365 4.96005 12.7714 4.9151 12.9051 4.86579C11.9579 4.29226 10.8893 4.01267 9.82455 4.02272L9.82465 4.02272ZM8.58821 4.61851C8.52088 4.75914 8.41436 4.9553 8.33306 5.01324C8.47528 5.21554 8.48064 5.41231 8.44572 5.5064C8.5113 5.50935 8.57723 5.51329 8.64573 5.518C8.69055 5.36441 8.68078 5.16506 8.56766 5.02404C8.62509 4.95157 8.72062 4.76324 8.77301 4.63832C8.71092 4.63027 8.64895 4.62362 8.58821 4.61851L8.58821 4.61851ZM9.19021 4.70834C9.10794 4.83168 8.97822 4.99472 8.89692 5.05305C8.91322 5.0772 8.9282 5.10133 8.94178 5.12627C9.03492 5.29793 9.04251 5.47531 9.01768 5.56821C9.0817 5.57902 9.14573 5.59004 9.20879 5.60162C9.25129 5.44352 9.2242 5.23113 9.10681 5.09246C9.16444 5.0196 9.30906 4.862 9.37619 4.74455C9.31546 4.73277 9.25231 4.72091 9.19022 4.70834L9.19021 4.70834ZM9.71889 4.82158C9.64555 4.94276 9.52948 5.10007 9.45148 5.16509C9.55975 5.29805 9.60563 5.4734 9.61631 5.60303C9.6817 5.5932 9.74919 5.58343 9.81651 5.57342C9.80856 5.43809 9.76623 5.29588 9.67698 5.2069C9.7284 5.12972 9.83817 4.98227 9.89715 4.86579C9.83817 4.85126 9.77942 4.8369 9.71889 4.82158V4.82158ZM10.2697 4.96702C10.2061 5.07917 10.0981 5.21883 10.0221 5.29032C10.0828 5.35631 10.1206 5.43875 10.1456 5.52359C10.2069 5.51338 10.2679 5.5038 10.3294 5.49378C10.3069 5.43996 10.2763 5.39048 10.2371 5.35453C10.2838 5.2742 10.3895 5.13528 10.4438 5.01762C10.386 5.00113 10.3283 4.98331 10.2697 4.96701L10.2697 4.96702ZM10.8239 5.13868C10.7762 5.21822 10.7042 5.31106 10.6359 5.38216C10.6134 5.40593 10.5901 5.42791 10.5697 5.44578C10.5697 5.44814 10.5727 5.45022 10.5741 5.45238C10.6709 5.4353 10.7684 5.41824 10.8654 5.40017C10.9118 5.33633 10.9618 5.26504 10.9935 5.19591C10.938 5.17626 10.8805 5.15774 10.8239 5.13869V5.13868ZM14.8061 6.40833L14.3731 7.12496L14.1557 7.48227L13.6154 7.2616C13.6173 7.26455 13.734 8.49807 13.7503 8.66083C13.7527 8.69285 13.7525 8.72153 13.7503 8.74706C13.7469 8.7885 13.7382 8.82153 13.7248 8.84569C13.7031 8.88379 13.6694 8.90211 13.6304 8.90211C13.6218 8.90211 13.6122 8.90067 13.6035 8.89871C13.5829 8.89537 13.563 8.8865 13.542 8.8757C13.5184 8.86235 13.4958 8.84589 13.474 8.82448C13.4707 8.82232 13.4684 8.81942 13.4644 8.81608C13.3576 8.71159 12.7987 8.16127 12.7987 8.16127L12.623 8.61361L11.6985 8.45276L11.7827 9.48149L11.5762 9.55332L11.4226 9.60633L13.3848 11.3193L13.064 11.7112L13.1759 11.7012L14.6645 11.579L14.8058 11.8533L14.851 11.7654L14.9471 11.579L15.2337 11.6024L15.5588 11.6296L16.5481 11.7112L16.2268 11.3193L18.1894 9.60632L18.0089 9.5437L17.8297 9.48148H17.8301L17.9129 8.45275L16.9897 8.6136L16.8134 8.16126C16.8134 8.16126 16.2537 8.71158 16.1472 8.81607C16.1443 8.81941 16.141 8.82231 16.1385 8.82447C16.0869 8.87318 16.0301 8.9021 15.9812 8.9021C15.9715 8.9021 15.9624 8.90182 15.9537 8.8987C15.8908 8.88318 15.8494 8.8095 15.8624 8.66082C15.8645 8.63254 15.8708 8.57152 15.8786 8.49237C15.9153 8.10958 15.9962 7.26451 15.9962 7.26154L15.4559 7.48221L14.8062 6.40831L14.8061 6.40833ZM4.03141 10.8011C4.20681 12.1149 4.81327 13.3802 5.84331 14.3575C6.75523 15.2223 7.86559 15.7375 9.01339 15.9082C8.96197 15.7912 8.90782 15.6737 8.85311 15.5539C8.00677 15.3946 7.18711 15.0359 6.47039 14.4744C6.49328 14.3481 6.52386 14.2447 6.56169 14.2135C6.57159 14.2039 6.58166 14.2011 6.59253 14.2027C6.48077 14.0289 6.48832 13.7797 6.51762 13.6601C6.50462 13.6542 6.49231 13.648 6.48066 13.6427C6.43953 13.6235 6.39909 13.6047 6.35911 13.5855C6.30847 13.7389 6.324 13.9616 6.41228 14.1209C6.36183 14.2034 6.3361 14.2718 6.32058 14.3529C6.30253 14.337 6.28468 14.3212 6.26741 14.3063C6.20862 14.2566 6.15174 14.2059 6.09566 14.1531C6.0846 14.1431 6.07293 14.1331 6.06206 14.1225C6.06109 14.1221 6.06107 14.1221 6.06107 14.1209C6.05991 14.12 6.05909 14.12 6.0589 14.1191C6.07714 14.0707 6.09781 14.0284 6.1176 14.0066C6.11934 14.0043 6.12179 14.003 6.12392 14.0002C6.12547 13.9988 6.12732 13.9966 6.12946 13.9954C6.13023 13.9948 6.13107 13.9944 6.13262 13.9934C6.13495 13.992 6.1382 13.9914 6.14052 13.9902C6.1444 13.9892 6.14889 13.99 6.15218 13.9912C6.13569 13.9583 6.12297 13.925 6.11404 13.8908C6.07756 13.7679 6.08278 13.6428 6.10199 13.5491C6.10897 13.5149 6.11758 13.4843 6.12728 13.4609C6.07567 13.4312 6.02498 13.4013 5.9761 13.3703C5.90314 13.5156 5.88419 13.7144 5.97945 13.8858C5.97169 13.8986 5.9643 13.9131 5.95732 13.9276C5.95557 13.931 5.95335 13.9341 5.95238 13.9382C5.94345 13.9547 5.93583 13.9722 5.92807 13.9912C5.89043 13.9528 5.85329 13.9141 5.81739 13.875C5.78033 13.8363 5.7448 13.7966 5.70987 13.7568C5.71337 13.7524 5.71725 13.7491 5.72094 13.7458C5.72967 13.7383 5.73808 13.7338 5.74565 13.733C5.74972 13.733 5.75304 13.7337 5.7575 13.736C5.6991 13.5798 5.71982 13.4168 5.75533 13.3044C5.76309 13.2814 5.77189 13.2591 5.78023 13.2408C5.74783 13.2176 5.71619 13.1938 5.68379 13.1704C5.66807 13.1586 5.65128 13.1474 5.63576 13.1364C5.57814 13.2363 5.54396 13.3596 5.56007 13.4873C5.5655 13.5303 5.57738 13.5723 5.59465 13.6147V13.6151C5.59427 13.6151 5.59347 13.6162 5.59347 13.6163C5.59269 13.6174 5.59267 13.6174 5.59228 13.6185C5.54222 13.5582 5.49319 13.4961 5.44682 13.4343C5.4249 13.4058 5.40234 13.3763 5.38061 13.3467C5.37964 13.2402 5.40473 13.1364 5.43674 13.0508C5.44431 13.0317 5.4521 13.0128 5.45986 12.9957C5.4164 12.9604 5.3741 12.9236 5.33219 12.8867C5.28912 12.9666 5.25649 13.0585 5.24563 13.1528C5.201 13.087 5.15851 13.0197 5.11815 12.9515C5.12475 12.9236 5.13355 12.8964 5.14345 12.8701C5.15742 12.8292 5.17302 12.7908 5.19029 12.7559C5.14896 12.7172 5.10971 12.6781 5.07052 12.6388C5.05209 12.6722 5.03684 12.7083 5.0219 12.7447C5.0186 12.7535 5.01493 12.7614 5.01202 12.7703C4.99747 12.7443 4.98468 12.7184 4.97051 12.692C4.95422 12.6626 4.93821 12.6323 4.92288 12.6028C4.93627 12.5777 4.95022 12.5544 4.96419 12.5334C4.9283 12.4894 4.89379 12.4465 4.85984 12.4024C4.85674 12.4061 4.85328 12.41 4.85095 12.4144C4.84668 12.4212 4.84258 12.4265 4.83909 12.4332C4.6051 11.9349 4.44683 11.4099 4.36417 10.8742C4.25125 10.8513 4.14019 10.8266 4.03134 10.8012L4.03141 10.8011ZM15.1663 11.8217C15.1136 11.9764 15.0558 12.1296 14.9897 12.2814C14.9082 12.4696 14.8146 12.6539 14.7114 12.8346C14.6656 12.737 14.653 12.6404 14.647 12.5663C14.595 12.5683 14.5418 12.5712 14.4887 12.5749C14.4995 12.6609 14.5171 12.7404 14.5456 12.815C14.5669 12.87 14.5932 12.9236 14.6266 12.9769C14.4353 13.288 14.2115 13.5856 13.954 13.8635C13.292 14.5788 12.4896 15.0794 11.6308 15.3658C11.5439 15.5 11.4561 15.6377 11.3678 15.7801C12.4122 15.5062 13.3948 14.9399 14.1866 14.0834C14.7995 13.4223 15.2338 12.6568 15.4936 11.8478L15.1663 11.8217L15.1663 11.8217ZM14.2616 12.5955C14.2092 12.6014 14.1558 12.6081 14.1027 12.6157C14.1287 12.7776 14.1907 12.8832 14.2689 13.0197C14.2083 13.1273 14.1384 13.2848 14.0926 13.4078C14.1504 13.397 14.2069 13.3872 14.2633 13.3796C14.3157 13.2488 14.382 13.1022 14.4365 12.9985C14.3113 12.8511 14.2767 12.6969 14.2616 12.5955V12.5955ZM13.7744 12.6797C13.7255 12.7277 13.6729 12.7809 13.6167 12.8392C13.6537 12.9382 13.7131 13.0177 13.807 13.0955C13.7954 13.1196 13.7828 13.1491 13.7691 13.1813C13.7295 13.2772 13.6841 13.4013 13.6513 13.5048C13.7176 13.4883 13.7841 13.4727 13.8493 13.4574C13.9048 13.3117 13.971 13.1474 14.0147 13.0551C13.8426 12.9443 13.7938 12.7817 13.7744 12.6797ZM13.3789 13.0911C13.3463 13.1264 13.3126 13.1646 13.2775 13.2033C13.2888 13.21 13.3007 13.2164 13.3127 13.2219C13.2716 13.3384 13.2192 13.4859 13.1844 13.6336C13.2463 13.616 13.3101 13.5973 13.3734 13.5788C13.4188 13.4258 13.4756 13.2562 13.5234 13.1639C13.4659 13.1474 13.4189 13.1221 13.3789 13.0911L13.3789 13.0911ZM6.81321 13.7787C6.76664 13.9529 6.77643 14.2136 6.92408 14.3323C6.86316 14.4273 6.8417 14.5325 6.83277 14.7156C6.88943 14.7339 6.9467 14.7507 7.00452 14.7656C7.02625 14.5278 7.05799 14.3807 7.12745 14.3919C6.97649 14.2817 6.97079 13.9792 6.99543 13.8391C6.93373 13.8207 6.87335 13.8009 6.8132 13.7787L6.81321 13.7787ZM7.28615 13.9163C7.25996 14.0727 7.28552 14.2963 7.40473 14.4193C7.422 14.4368 7.44088 14.452 7.46126 14.4655C7.4145 14.5602 7.40633 14.6899 7.41778 14.8583C7.47754 14.8683 7.53947 14.8774 7.60039 14.8837C7.59496 14.6778 7.609 14.4934 7.67846 14.4953C7.49491 14.3643 7.46565 14.0869 7.47865 13.9548C7.41365 13.9428 7.34902 13.9299 7.28616 13.9163L7.28615 13.9163ZM7.82648 13.9976C7.82396 14.1804 7.89562 14.4402 8.07413 14.5183C8.04483 14.6379 8.04496 14.7747 8.07077 14.9323C8.13188 14.9311 8.19248 14.9298 8.25438 14.9269C8.23284 14.745 8.22637 14.5172 8.29351 14.5105C8.10006 14.4003 8.03131 14.1421 8.02432 14.0088C7.95797 14.0066 7.89168 14.0035 7.82649 13.9976L7.82648 13.9976Z" fill="#E8291C"/>
</svg>
