<svg width="16" height="18" viewBox="0 0 16 18" fill="none" xmlns="http://www.w3.org/2000/svg">
<path d="M9.28344 0.127927C8.24181 -0.0709502 7.19362 -0.0379237 6.16909 0.226863C5.10835 0.501129 4.12636 1.01104 3.24952 1.74252C1.58588 3.13033 0.510343 5.15046 0.221849 7.43202C-0.066846 9.71323 0.466542 11.9823 1.72237 13.8207C2.92057 15.5752 4.65993 16.7481 6.61967 17.1227C7.66162 17.3215 8.70877 17.2883 9.73338 17.0231C10.7946 16.7501 11.7771 16.2403 12.6531 15.5087C14.3169 14.1216 15.3926 12.1011 15.6812 9.81896C15.9697 7.53774 15.436 5.26891 14.1807 3.43033C12.9821 1.67569 11.2428 0.503275 9.28336 0.128668" fill="#134A8E"/>
<path d="M15.3972 9.775C15.1193 11.9727 14.0835 13.9195 12.4808 15.2556C11.6356 15.9608 10.6892 16.4516 9.6673 16.7158C9.54388 16.7477 9.42 16.776 9.29627 16.8009C8.42823 16.9759 7.54587 16.9794 6.66816 16.8119C5.25247 16.5407 3.95648 15.8376 2.90933 14.7901C2.56069 14.4404 2.23949 14.0533 1.95093 13.6308C0.967429 12.1922 0.444252 10.4787 0.431138 8.70809C0.428684 8.29914 0.45291 7.88783 0.505344 7.47604C0.732102 5.68049 1.46462 4.0529 2.59997 2.7879C2.85386 2.50466 3.12861 2.23937 3.42147 1.99492C3.98982 1.52041 4.60432 1.144 5.25679 0.867212C5.574 0.732875 5.90026 0.621403 6.23446 0.535517C7.22228 0.28022 8.23137 0.2482 9.23471 0.439806C11.1225 0.800135 12.7976 1.9294 13.9526 3.62007C15.1622 5.39124 15.676 7.5765 15.398 9.7751" fill="white"/>
<path d="M14.8122 11.6569C15.0299 11.0523 15.1837 10.4151 15.2669 9.75459C15.3518 9.08002 15.3621 8.40733 15.2988 7.74727V7.74541C15.2968 7.73219 15.2951 7.71813 15.2936 7.7039C15.1482 6.26582 14.6561 4.89241 13.847 3.70728C12.9493 2.39368 11.7314 1.42456 10.3433 0.902586C9.97746 0.764353 9.59939 0.656779 9.21193 0.583086C9.14953 0.571397 9.08682 0.560045 9.02396 0.549372C8.64711 0.488726 8.26719 0.461452 7.89021 0.465179C7.68308 0.467044 7.47641 0.479579 7.26989 0.500754C7.18158 0.510071 7.09219 0.521252 7.00481 0.533618C6.96862 0.538866 6.93183 0.543952 6.89565 0.550559C5.6733 0.746052 4.50013 1.27748 3.5008 2.11092C2.98565 2.5407 2.53048 3.03418 2.14132 3.58019C1.3398 4.7018 0.819426 6.04296 0.635598 7.49597C0.550505 8.17071 0.540239 8.84429 0.604781 9.50515C0.675921 10.2463 0.839814 10.9715 1.09171 11.6621C1.33303 12.3246 1.655 12.957 2.05531 13.5422C2.51648 14.2173 3.06184 14.8006 3.67129 15.2804C3.89344 15.4549 4.12496 15.6163 4.36321 15.7623C5.08042 16.2019 5.86493 16.5094 6.691 16.6668V16.6678C6.87896 16.7039 7.06769 16.7306 7.25689 16.7501C7.56873 16.7826 7.8815 16.7931 8.19226 16.7809C8.2729 16.7779 8.35277 16.7737 8.43357 16.7672C9.85958 16.6622 11.2468 16.103 12.4011 15.1391C12.5153 15.043 12.6272 14.9441 12.7364 14.843C13.6637 13.9734 14.3706 12.884 14.8118 11.6568" fill="#134A8E"/>
<path d="M12.229 14.8878C10.645 16.2092 8.69547 16.7311 6.73918 16.3566C4.95696 16.0161 3.37391 14.9493 2.28382 13.3528C1.14088 11.6799 0.656483 9.61544 0.918271 7.54017C1.18121 5.46411 2.15941 3.62607 3.67288 2.36301C5.2568 1.04252 7.20726 0.520369 9.1634 0.894798C10.7513 1.19804 12.1799 2.07728 13.2433 3.39441C13.2476 3.39949 13.2501 3.40237 13.2524 3.40542C13.3798 3.56314 13.502 3.7278 13.6187 3.89839C14.7618 5.5706 15.2466 7.63615 14.9842 9.71133C14.7214 11.7872 13.7431 13.6253 12.2296 14.8879" fill="white"/>
<path d="M4.48351 6.57617C4.25783 6.68172 4.14161 6.80604 3.97173 7.10352C2.1221 7.44165 1.48874 7.76821 1.32179 7.97133C1.29772 8.00842 1.30816 8.02651 1.33131 8.03396C1.94627 8.0055 2.80785 7.97117 4.31605 8.02741C4.4407 8.02927 4.56237 8.03262 4.6818 8.035C4.75785 7.92387 4.89503 7.82586 5.15797 7.82586H5.18452H5.23512C5.72389 7.8328 5.81391 8.38702 6.33288 8.38702C6.84665 8.38702 6.93991 7.84247 7.41762 7.8262C7.43402 7.8262 7.45007 7.82586 7.46509 7.82586H9.25499L9.23016 7.49782H7.43938C6.94218 7.49782 6.85418 6.93614 6.3321 6.93614C5.81563 6.93614 5.72573 7.49506 5.24137 7.49506H5.23653C4.7266 7.45593 4.52486 6.97954 4.48347 6.57622L4.48351 6.57617ZM1.37107 8.11162C1.30929 8.11073 1.29254 8.13859 1.36046 8.19738C1.65421 8.43268 2.65005 8.85865 3.87215 9.11004C4.45981 9.23099 4.72772 9.40928 5.14951 9.73505C6.0676 10.4442 7.31921 12.4465 8.08259 14.9226C9.53018 11.8161 11.2119 10.3289 11.3433 10.2151L10.4826 10.293L10.0695 10.3301L10.3347 9.97788L10.4785 9.78599L9.92239 9.25537C9.62005 9.76612 9.32555 10.3195 9.18542 10.7466L9.79698 10.7439C9.48283 11.1743 8.8772 11.8855 8.46909 12.6743C8.06209 11.5682 7.10754 10.1457 5.3836 9.36384C4.88426 9.13767 4.41241 8.83727 4.4731 8.40038C3.60738 8.2637 2.65826 8.15256 1.58384 8.11483C1.50657 8.1133 1.43522 8.11172 1.37098 8.11138L1.37107 8.11162Z" fill="#1D2D5C"/>
<path d="M6.13441 7.19067C6.02663 7.27063 5.94848 7.41937 5.95277 7.56319H6.12689C6.11846 7.49238 6.09884 7.35296 6.13441 7.19067" fill="white"/>
<path d="M8.13416 1.36475L7.7898 1.3877C7.81617 1.42175 7.82473 1.46451 7.83009 1.53058L7.86273 2.14299L7.03611 1.42911L7.10498 2.72C7.10759 2.78047 7.10345 2.84243 7.06297 2.89342L7.42654 2.86995C7.39174 2.82997 7.38848 2.7846 7.3825 2.70482V2.70223L7.35174 2.11225L8.17604 2.82734L8.10654 1.51869C8.10424 1.46634 8.10659 1.40932 8.13419 1.36477L8.13416 1.36475ZM8.77243 1.43049L8.6578 1.74731C8.72572 1.71495 8.77814 1.71685 8.85036 1.73091L9.0426 1.77354L8.86176 2.76077C8.84781 2.83649 8.8231 2.88417 8.7768 2.91366L9.17082 3.00201C9.14337 2.95593 9.12796 2.89371 9.14099 2.82324L9.32199 1.83636L9.53502 1.88382C9.61075 1.90093 9.66625 1.94786 9.70259 1.98632L9.70774 1.63982L8.77245 1.43051L8.77243 1.43049ZM5.93322 1.77561C5.71542 1.7658 5.49663 1.87212 5.35664 2.08018C5.13203 2.41458 5.19309 2.88612 5.49344 3.1319C5.79318 3.37788 6.21944 3.30669 6.44376 2.97246C6.66791 2.63822 6.60684 2.16687 6.30696 1.9217C6.19433 1.82915 6.06392 1.78143 5.93324 1.77554L5.93322 1.77561ZM10.5763 2.04022C10.3584 2.03038 10.1394 2.13638 9.9991 2.34495C9.77511 2.67936 9.83634 3.1509 10.1362 3.3965C10.4358 3.64265 10.8628 3.5706 11.087 3.23619C11.311 2.90314 11.2493 2.43163 10.9501 2.18579C10.8374 2.09362 10.7071 2.04606 10.5763 2.04015L10.5763 2.04022ZM5.9201 2.08146C5.99853 2.08485 6.07641 2.11269 6.14265 2.16688C6.31896 2.31189 6.35683 2.59845 6.2262 2.7931C6.09573 2.98892 5.83545 3.03129 5.65914 2.88628C5.48313 2.74177 5.4445 2.45504 5.57512 2.25989C5.65724 2.13813 5.78939 2.07581 5.9201 2.08147V2.08146ZM10.5619 2.34616C10.6402 2.34959 10.718 2.37745 10.7842 2.43157C10.9603 2.57574 10.999 2.86348 10.8682 3.05796C10.7371 3.25261 10.4776 3.29531 10.3008 3.15097C10.1247 3.00579 10.0865 2.71888 10.2173 2.52458C10.2994 2.40261 10.4314 2.34042 10.5619 2.34616H10.5619ZM4.33274 2.73048C4.27913 2.73193 4.22189 2.74548 4.16439 2.77051C4.14906 2.77678 4.07443 2.81299 4.01571 2.86042L4.01149 2.86439L3.65323 3.15205C3.69892 3.16357 3.75105 3.18395 3.78754 3.23833V3.23851L4.41082 4.19693C4.42631 4.23302 4.43645 4.27827 4.42894 4.3279L4.74799 4.07217C4.68651 4.06608 4.65214 4.02613 4.61212 3.97191L4.3421 3.56105L5.04237 3.83524L5.34191 3.59418C5.29285 3.5913 5.23306 3.57913 5.16621 3.55898L4.70445 3.38457L4.71308 3.35957C4.76881 3.20283 4.74211 3.08842 4.73619 3.06722C4.72236 3.01589 4.70013 2.96694 4.66934 2.92188C4.62887 2.85954 4.57912 2.81173 4.52255 2.78055L4.51443 2.7759C4.46909 2.75248 4.42863 2.73932 4.38497 2.73305C4.36803 2.7308 4.35052 2.72998 4.33265 2.73046L4.33274 2.73048ZM4.32259 3.03522C4.34902 3.03553 4.37458 3.04393 4.40068 3.06007C4.4479 3.08921 4.46741 3.15563 4.47002 3.17206C4.47186 3.18358 4.48352 3.28853 4.37007 3.38034L4.2734 3.45816L4.08536 3.17482L4.17563 3.10131C4.23197 3.05642 4.27854 3.0347 4.32259 3.03522L4.32259 3.03522ZM12.0304 3.4095C10.6706 5.15248 6.87859 5.13083 5.89692 5.48697C5.25238 5.72041 4.92173 6.10809 4.69345 6.49161C4.67091 6.88649 4.93044 7.26346 5.23692 7.26346C5.23692 7.26346 5.15653 7.03938 5.25926 6.81153C5.29958 6.72361 5.37354 6.64257 5.47243 6.57616C6.22922 6.00306 7.85075 6.58479 7.85075 6.58479C7.46914 6.54667 7.15538 6.55428 6.89043 6.59342C7.33965 6.74707 7.81997 6.95707 8.1454 7.04415C8.54663 7.15206 8.81187 7.20751 9.21047 7.23292L9.19782 7.05933L9.41895 7.10092L10.0101 7.21308L10.0969 6.96822L10.1929 6.69902L10.3805 6.90092C10.3846 6.90533 10.6752 7.21767 10.8273 7.38115C10.8006 7.07351 10.732 6.29055 10.7313 6.28216L10.7035 5.9662L10.9699 6.08492L11.261 6.21486L11.6964 5.42609L11.8451 5.15828L11.9937 5.42609L12.3458 6.06215C12.4687 5.51022 12.5568 4.92578 12.8137 4.65419C12.5561 4.6647 12.375 4.74538 12.0935 4.96273C12.2531 4.48619 12.489 4.13243 12.8079 3.72785C12.4979 3.77986 12.2023 3.8781 11.9119 4.06089C12.0228 3.76969 12.0303 3.40948 12.0303 3.40948L12.0304 3.4095ZM3.2676 3.98864C3.04962 3.97894 2.8303 4.08507 2.68993 4.29355C2.46609 4.62762 2.52824 5.09813 2.82767 5.3451C3.12756 5.59091 3.55352 5.51869 3.77767 5.18479C4.00183 4.85055 3.94076 4.37954 3.64134 4.13421C3.52876 4.04204 3.39841 3.99439 3.26762 3.98858L3.2676 3.98864ZM3.25324 4.2939C3.33158 4.29729 3.40921 4.32517 3.47516 4.37949C3.65223 4.5245 3.68996 4.81105 3.55949 5.00553C3.42871 5.20102 3.16875 5.24388 2.99274 5.09819C2.81627 4.95453 2.77778 4.66696 2.90826 4.47215C2.99038 4.3506 3.12267 4.28823 3.25324 4.29389L3.25324 4.2939ZM2.08279 5.386L1.72201 6.36077L1.98156 6.54613C1.96622 6.466 1.97735 6.40942 2.00311 6.33302L2.07682 6.13302L2.92096 6.51438C2.98918 6.54504 3.02355 6.58696 3.0398 6.63897L3.19379 6.22414C3.14749 6.24565 3.08974 6.25058 3.02934 6.2231L2.18505 5.84088L2.26782 5.61862C2.2968 5.54002 2.34932 5.48793 2.38979 5.45642L2.08283 5.386L2.08279 5.386ZM3.15225 10.3155C3.15225 10.4029 3.11542 10.4867 3.01653 10.5355L1.82417 11.16C1.71256 11.2163 1.62434 11.2039 1.55228 11.1215L1.84338 11.8007C2.07856 12.3464 2.46614 12.32 2.63939 12.2299V12.229C2.77277 12.1596 2.87036 12.0411 2.90409 11.8637C2.90409 11.8637 3.03028 11.9289 3.21518 11.8323H3.21597V11.8319C3.48641 11.6898 3.58351 11.315 3.43648 10.9771L3.15225 10.3155V10.3155ZM3.1282 10.6839L3.28828 11.056C3.39008 11.2941 3.32402 11.5563 3.13866 11.6537C3.02858 11.7116 2.91604 11.6909 2.79431 11.5912L2.78119 11.5795L2.78306 11.5976C2.80622 11.7902 2.72302 11.9604 2.5599 12.0459C2.34127 12.1606 2.12959 12.0402 1.99268 11.7226L1.83729 11.3602L3.12823 10.6839L3.1282 10.6839ZM3.0915 10.7968L2.58988 11.0598L2.71685 11.3547C2.8047 11.5597 2.96512 11.651 3.10587 11.5776C3.25381 11.5002 3.30341 11.2865 3.21846 11.092L3.0915 10.7968ZM12.8266 10.8689L12.7857 10.8744C12.6129 10.9 12.4202 11.0521 12.3261 11.2361C12.2555 11.3764 12.2228 11.5143 12.2297 11.6463C12.2384 11.8237 12.3132 11.9736 12.4463 12.0798C12.465 12.094 12.4848 12.1085 12.5063 12.1219C12.8189 12.3162 13.0166 12.1207 13.1755 11.9635L13.1883 11.9503C13.3178 11.8226 13.4092 11.7588 13.4967 11.8135C13.5507 11.8465 13.5764 11.9574 13.5305 12.056C13.4926 12.1368 13.4374 12.1679 13.42 12.1767C13.3285 12.2306 13.1825 12.1607 13.1806 12.1607L13.178 12.1586L13.2417 12.4032H13.2444C13.3025 12.4103 13.4023 12.3837 13.4036 12.3837H13.4043C13.5205 12.3552 13.6106 12.2801 13.6715 12.1597C13.6741 12.1549 13.6761 12.1501 13.6777 12.1467L13.6809 12.1407C13.7758 11.9501 13.7372 11.7371 13.5898 11.6442C13.4739 11.5719 13.3719 11.5699 13.2767 11.6394C13.195 11.6985 13.0952 11.7923 13.0944 11.794C12.9301 11.9537 12.7889 12.0677 12.5945 11.9502C12.501 11.8939 12.4366 11.8095 12.409 11.7062C12.3791 11.5884 12.3979 11.4546 12.4651 11.3284C12.5009 11.2617 12.6356 11.0437 12.8856 11.0503H12.8872L12.8282 10.8698V10.8689H12.8266L12.8266 10.8689ZM3.01474 11.0446L3.06893 11.1707C3.1094 11.2654 3.09837 11.3567 3.02754 11.3938C2.94 11.4394 2.87212 11.3484 2.84545 11.2875L2.79141 11.1609L3.01474 11.0446H3.01474ZM2.51998 11.0957L1.93949 11.4004L2.0624 11.686C2.13093 11.8466 2.28278 12.0979 2.52685 11.9695C2.80175 11.8257 2.69962 11.5142 2.64304 11.3816L2.51998 11.0957H2.51998ZM12.9139 11.1337C12.8394 11.1318 12.6538 11.1505 12.5276 11.3785C12.42 11.5728 12.465 11.7703 12.6366 11.8774C12.7999 11.9787 12.9203 11.8594 13.0269 11.7535L13.0326 11.7485L13.0807 11.7047C13.0901 11.6962 13.0987 11.6878 13.1076 11.6793C13.2062 11.5861 13.2988 11.498 13.4356 11.5033C13.4458 11.5033 13.5368 11.5094 13.6219 11.5671C13.7085 11.6244 13.7651 11.7028 13.7891 11.7985C13.822 11.9268 13.8039 12.0682 13.7389 12.1975C13.6691 12.3333 13.5589 12.4262 13.4278 12.4605C13.3718 12.4747 13.3394 12.4781 13.2654 12.4819H13.2638L13.3164 12.6841H13.318C13.6582 12.6661 13.8237 12.3911 13.8657 12.3067C13.8744 12.2905 13.8786 12.2798 13.8786 12.2798C13.9458 12.1471 13.9774 12.0053 13.9709 11.8698C13.9602 11.6689 13.8642 11.4966 13.707 11.3992C13.34 11.1705 13.0827 11.4391 12.9589 11.5683L12.9536 11.5739C12.8331 11.6992 12.7759 11.7305 12.7191 11.7007C12.7063 11.6941 12.6995 11.6888 12.6899 11.6819C12.6275 11.6333 12.6201 11.5462 12.6746 11.4532C12.6862 11.4331 12.7938 11.2615 12.9906 11.3709L12.9939 11.3727L12.9158 11.1337H12.914L12.9139 11.1337ZM2.46401 11.3309L2.51477 11.4481C2.58177 11.6059 2.55952 11.695 2.51383 11.7438C2.49605 11.7626 2.46242 11.7855 2.43575 11.7885C2.36369 11.798 2.2946 11.8038 2.21242 11.6065L2.16166 11.4886L2.46401 11.3309L2.46401 11.3309ZM3.81789 11.8027C3.84027 11.883 3.82629 11.9682 3.74043 12.0558C3.74043 12.0562 3.73719 12.0597 3.73075 12.0655C3.7286 12.0682 2.85503 12.9282 2.75284 13.0285C2.66346 13.111 2.58361 13.1122 2.48579 13.0742L3.22791 13.995L3.36925 13.8968L2.8189 13.2138L4.0103 12.0416L3.8179 11.8026L3.81789 11.8027ZM12.0242 11.945L11.8094 12.1728L12.1874 13.4256L12.6588 13.9673L12.6604 13.9662L12.8868 13.7255C12.789 13.7635 12.7161 13.7443 12.6465 13.6796H12.6462L12.3402 13.3321L12.007 12.2375C11.9982 12.1975 11.9711 12.1307 12.0241 11.945L12.0242 11.945ZM4.06097 12.1052L2.9281 13.2211L3.43503 13.8497L3.67522 13.6856C3.67522 13.6856 3.51889 13.6766 3.39286 13.5236L3.38755 13.5167C3.38755 13.5167 3.24763 13.3431 3.16423 13.2403C3.27753 13.1281 3.90565 12.5086 4.01004 12.4071C4.01034 12.4071 4.01037 12.4072 4.01113 12.4063C4.01313 12.4046 4.0154 12.4023 4.01816 12.3997C4.01816 12.3997 4.16168 12.2818 4.25398 12.3443L4.06252 12.1065L4.06095 12.1052L4.06097 12.1052ZM11.7477 12.2392L11.4797 12.5241C11.5477 12.4899 11.5896 12.4951 11.6084 12.501C11.6221 12.5096 11.6481 12.5201 11.6806 12.6197L11.8352 13.0829L11.4246 12.8967C11.3607 12.8606 11.3345 12.8146 11.3345 12.8146C11.3089 12.7641 11.3311 12.7099 11.3437 12.6691L11.0795 12.9492L11.074 12.9555L12.0953 13.3811L11.7477 12.2392L11.7477 12.2392ZM4.60901 12.8163C4.65547 12.9072 4.65971 12.9728 4.59792 13.0829C4.59716 13.0831 4.05164 14.0344 4.05164 14.0344C3.86704 14.361 3.95713 14.7013 4.29136 14.9371C4.61869 15.168 4.96029 15.1271 5.14749 14.8018L5.69284 13.8506C5.75232 13.7508 5.82551 13.7138 5.90586 13.7243L5.66316 13.5545L5.02067 14.6736C5.01163 14.6888 4.99615 14.7153 4.99615 14.7153C4.88392 14.912 4.61173 14.9436 4.38927 14.7871C4.31246 14.7334 4.25184 14.6642 4.20968 14.5885C4.20799 14.5856 4.20606 14.5836 4.20499 14.5804C4.12803 14.4389 4.11528 14.2738 4.18719 14.1479C4.18719 14.1479 4.19221 14.1384 4.21046 14.1064L4.8531 12.9871L4.60901 12.8163L4.60901 12.8163ZM11.0133 13.0202L10.8037 13.2423C10.9206 13.1995 10.9643 13.2082 11.0606 13.2397L12.0416 13.6503L12.3211 13.9743C12.4087 14.0699 12.4051 14.184 12.3767 14.2684L12.6044 14.0256L12.1329 13.4848L11.0133 13.0202L11.0133 13.0202ZM4.9175 13.0325L4.26533 14.1693C4.16414 14.3451 4.23883 14.5869 4.42618 14.718C4.61323 14.849 4.8401 14.8269 4.94405 14.6488L5.59779 13.5091L5.35384 13.3372C5.40797 13.4341 5.39764 13.509 5.3426 13.6047C5.3426 13.6047 4.9956 14.2094 4.81177 14.5289C4.75413 14.6218 4.62115 14.6383 4.51551 14.5645C4.4108 14.4911 4.36763 14.3497 4.41838 14.2529C4.47741 14.1495 4.93629 13.3496 4.93874 13.3466C4.94487 13.3347 4.94811 13.3288 4.94811 13.3288C4.99901 13.2414 5.06333 13.1986 5.16238 13.2044L4.9175 13.0325L4.9175 13.0325ZM10.2222 13.3729L10.3212 15.3534C10.3189 15.542 10.2926 15.6498 10.2473 15.7184L10.505 15.5686L10.3941 13.7321L11.7024 14.8723L11.948 14.7287C11.8468 14.7257 11.7498 14.6585 11.6485 14.5834L10.222 13.373L10.2222 13.3729ZM6.17254 13.8392C6.23448 13.9021 6.27209 13.9951 6.25047 14.0982C5.9422 15.5315 5.94481 15.5191 5.94313 15.5274C5.92411 15.6034 5.87098 15.7084 5.74557 15.725L6.90842 16.0302L6.9748 15.8597L6.09492 15.63L6.42506 14.0927L7.25713 14.3119L7.26853 14.1271L6.17252 13.8393L6.17254 13.8392ZM10.4781 13.9098L10.5318 14.774L11.0935 14.4476L10.4781 13.9098L10.4781 13.9098ZM9.5502 13.9163L9.2705 13.993L9.56005 15.2825C9.56005 15.2825 9.61742 15.4698 9.52834 15.6225C9.46456 15.7307 9.36511 15.8125 9.22943 15.8502C9.10279 15.8846 8.95106 15.8691 8.83791 15.7855C8.78808 15.7479 8.76383 15.7249 8.71063 15.6682L8.61177 15.8509C8.90706 16.1665 9.27144 16.0287 9.27144 16.0287C9.40636 15.9916 9.52338 15.9195 9.60909 15.8195C9.723 15.6872 9.76797 15.5164 9.74558 15.3417C9.74558 15.3382 9.73582 15.2847 9.73199 15.2698L9.48539 14.1724C9.45718 14.0374 9.55021 13.9164 9.55021 13.9164L9.5502 13.9163ZM9.19601 14.014L8.91599 14.0901C8.9767 14.1011 9.05855 14.1733 9.08262 14.2832L9.32656 15.372C9.34879 15.474 9.27505 15.5648 9.18382 15.5926C9.09259 15.6214 9.02057 15.5898 9.01828 15.5891C8.91694 15.5507 8.86695 15.3769 8.86695 15.3769L8.74857 15.5979C8.79487 15.6567 8.89505 15.7289 8.89505 15.7289C9.0289 15.8195 9.1709 15.7837 9.21536 15.7715C9.39015 15.7237 9.54057 15.5515 9.49319 15.3368C9.49319 15.335 9.196 14.014 9.196 14.014L9.19601 14.014ZM6.48209 14.1954L6.35185 14.7997L7.02104 14.975L7.07757 14.7134C7.07757 14.7134 6.9997 14.808 6.86018 14.7722L6.54986 14.6904L6.60889 14.4161L6.98246 14.5141C7.18591 14.5685 7.23483 14.6896 7.23483 14.6896L7.25294 14.3974L6.48208 14.1954L6.48209 14.1954ZM10.6449 14.2604L10.8288 14.4238L10.663 14.5198L10.6449 14.2604L10.6449 14.2604ZM11.157 14.5063L10.5402 14.8652L10.5787 15.526L10.5841 15.5229L10.8718 15.3551C10.804 15.3441 10.7439 15.2775 10.7276 15.1736L10.7134 14.9417L11.1148 14.7084L11.29 14.8589C11.3343 14.899 11.4033 14.9774 11.332 15.0873L11.6227 14.9184L11.6286 14.9156L11.157 14.5063H11.157ZM6.34171 14.8846L6.19491 15.5684L7.00634 15.7802L7.11925 15.4913C7.05394 15.5341 6.98015 15.5805 6.8233 15.5444C6.82009 15.5444 6.39914 15.434 6.39914 15.434L6.47488 15.0808L6.7727 15.1588L6.77723 15.16C6.91706 15.2023 6.94777 15.3167 6.94777 15.3167L7.00384 15.0582L6.34167 14.8846L6.34171 14.8846Z" fill="#134A8E"/>
<path d="M7.90865 3.46971C6.67895 3.48238 5.45573 4.02884 4.5485 5.09819C4.10772 5.61961 3.78248 6.21476 3.57292 6.84382C3.66797 6.82501 3.76467 6.80586 3.86371 6.78773C3.98835 6.4491 4.14833 6.12214 4.34565 5.81429C4.34565 5.81547 4.34643 5.81689 4.34643 5.81774C4.34735 5.81943 4.3491 5.82141 4.35018 5.82361C4.35784 5.81598 4.36579 5.8081 4.37392 5.79997C4.39584 5.77879 4.41711 5.75694 4.43857 5.73543C4.43658 5.73136 4.43447 5.72671 4.43232 5.72214C4.42818 5.71452 4.4249 5.70664 4.42061 5.69902C4.45587 5.64904 4.49093 5.59837 4.52697 5.5494C4.53386 5.55838 4.53893 5.56735 4.54414 5.57667C4.55273 5.59124 4.56035 5.60539 4.56663 5.6186C4.59822 5.59099 4.63094 5.56339 4.66268 5.53612C4.64827 5.50291 4.63028 5.47138 4.60943 5.4419C4.62675 5.4192 4.64568 5.3973 4.66377 5.37443C4.68677 5.34631 4.70934 5.3168 4.73249 5.28901H4.73296C4.73358 5.28901 4.73358 5.28903 4.73358 5.28832C4.769 5.33355 4.79212 5.38054 4.8073 5.42137C4.83581 5.40053 4.86405 5.37941 4.89241 5.35959C4.89839 5.35502 4.90362 5.35089 4.90991 5.347C4.8935 5.30465 4.8729 5.26362 4.84806 5.22465C4.83903 5.21228 4.83071 5.19938 4.82168 5.18772C4.86077 5.14418 4.9002 5.10205 4.94052 5.06054C4.95094 5.05037 4.96008 5.03964 4.9705 5.02913C5.03428 5.09808 5.06498 5.17228 5.08123 5.2331C5.12094 5.20769 5.16134 5.18399 5.20258 5.15993C5.19031 5.12199 5.17427 5.08504 5.15526 5.04794C5.13962 5.01982 5.12178 4.99345 5.10169 4.96753C5.09234 4.95516 5.08229 4.94195 5.07186 4.93043C5.11832 4.88486 5.1663 4.84112 5.21445 4.79928C5.22978 4.81469 5.24263 4.8296 5.25474 4.84518C5.28249 4.88025 5.30389 4.91517 5.3183 4.94854C5.33639 4.98937 5.34589 5.02733 5.3511 5.06053C5.35171 5.06698 5.35283 5.07291 5.3536 5.07952C5.35528 5.07765 5.35722 5.07726 5.35875 5.07658C5.40076 5.05439 5.44389 5.03395 5.48744 5.01481C5.48943 5.01392 5.49106 5.01272 5.49275 5.0117C5.49014 4.99527 5.48689 4.97876 5.4826 4.96148C5.45945 4.86509 5.41049 4.76927 5.3372 4.69591V4.69505C5.36755 4.67116 5.39758 4.6475 5.42809 4.62378C5.45998 4.59854 5.49273 4.57467 5.52554 4.55061C5.51941 4.56518 5.51261 4.5791 5.50571 4.58927C5.64063 4.72615 5.66463 4.85659 5.6611 4.94146C5.71262 4.92198 5.76423 4.90389 5.81758 4.88779C5.81559 4.83257 5.80429 4.77581 5.78635 4.72076C5.76688 4.66367 5.73863 4.60766 5.70061 4.55751C5.69202 4.54616 5.68261 4.53469 5.67234 4.52334C5.67817 4.50623 5.68511 4.48332 5.69124 4.45587C5.69293 4.44775 5.69564 4.44 5.69733 4.43103C5.78227 4.37529 5.86919 4.32278 5.95736 4.27382C5.93344 4.34955 5.90594 4.41681 5.87849 4.45018C6.01238 4.61823 6.01589 4.74436 5.99781 4.82585L5.9964 4.83258V4.83516C6.05052 4.82144 6.1044 4.80978 6.15929 4.79927C6.17569 4.67222 6.14151 4.52523 6.05044 4.40376C6.05213 4.40088 6.05313 4.39697 6.05481 4.39375C6.05665 4.39037 6.05734 4.38747 6.05887 4.3834C6.07865 4.33546 6.10313 4.26035 6.12306 4.18513C6.1965 4.14837 6.27123 4.11516 6.34513 4.08298C6.36905 4.07214 6.39399 4.06106 6.41806 4.05158C6.38709 4.15118 6.34417 4.26306 6.30125 4.32405C6.29527 4.33252 6.28896 4.34073 6.28313 4.34683C6.36393 4.44271 6.4 4.55751 6.4112 4.6495V4.65588V4.65657C6.41564 4.69875 6.41472 4.73523 6.4112 4.76167C6.45857 4.75659 6.50722 4.75402 6.55644 4.75114C6.56134 4.75061 6.56605 4.75058 6.57096 4.74993C6.57863 4.70351 6.58071 4.65234 6.57596 4.60102C6.57274 4.55748 6.56413 4.51362 6.54972 4.47211C6.52964 4.41841 6.4996 4.36957 6.45836 4.33061C6.49531 4.26048 6.55444 4.09904 6.58143 3.98825C7.45594 3.67316 8.40491 3.66749 9.2855 3.97445C9.28948 3.97648 9.29323 3.97656 9.29737 3.97876C9.30504 3.98181 9.31298 3.9845 9.32064 3.98704C9.56027 4.07344 9.79509 4.18364 10.0215 4.31629C10.1305 4.27818 10.2371 4.2394 10.3428 4.19688C9.5943 3.70219 8.7499 3.46104 7.90857 3.46971L7.90865 3.46971ZM6.93162 3.98359C6.87842 4.10489 6.79424 4.27408 6.73001 4.32405C6.84239 4.49854 6.84662 4.66826 6.81902 4.74941C6.87085 4.75196 6.92295 4.75536 6.97707 4.75942C7.01249 4.62695 7.00477 4.455 6.91539 4.33337C6.96077 4.27086 7.03625 4.10842 7.07765 4.00068C7.02859 3.99373 6.97962 3.988 6.93163 3.98359L6.93162 3.98359ZM7.40732 4.06107C7.34231 4.16745 7.2398 4.30808 7.17557 4.35839C7.18844 4.37922 7.20028 4.40003 7.21102 4.42154C7.28461 4.5696 7.29061 4.7226 7.27099 4.80273C7.32158 4.81205 7.37217 4.82156 7.42201 4.83155C7.45558 4.69518 7.43418 4.51199 7.34142 4.39239C7.38696 4.32954 7.50124 4.19361 7.55428 4.0923C7.5063 4.08214 7.45639 4.07191 7.40733 4.06107L7.40732 4.06107ZM7.82508 4.15874C7.76712 4.26326 7.67541 4.39895 7.61378 4.45503C7.69933 4.56971 7.73559 4.72095 7.74402 4.83276C7.79569 4.82429 7.84903 4.81586 7.90222 4.80722C7.89594 4.6905 7.86249 4.56783 7.79197 4.49109C7.8326 4.42452 7.91933 4.29734 7.96594 4.19688C7.91933 4.18434 7.87291 4.17196 7.82508 4.15874ZM8.26033 4.28419C8.21004 4.38092 8.12475 4.50138 8.06464 4.56304C8.11263 4.61996 8.14247 4.69106 8.16225 4.76424C8.2107 4.75543 8.25889 4.74717 8.30749 4.73853C8.28971 4.69211 8.26553 4.64943 8.23456 4.61843C8.27151 4.54914 8.35499 4.42931 8.39792 4.32783C8.35223 4.3136 8.30663 4.29824 8.26033 4.28418L8.26033 4.28419ZM8.69824 4.43225C8.66052 4.50086 8.60369 4.58093 8.54972 4.64226C8.53194 4.66276 8.5135 4.68171 8.4974 4.69713C8.4974 4.69916 8.49977 4.70096 8.50084 4.70283C8.57735 4.68809 8.65438 4.67337 8.73104 4.65779C8.76768 4.60273 8.80725 4.54123 8.83223 4.48161C8.78839 4.46467 8.74301 4.44869 8.69824 4.43226V4.43225ZM11.845 5.52735L11.5028 6.14546L11.331 6.45366L10.904 6.26332C10.9056 6.26587 10.9978 7.3298 11.0107 7.47019C11.0126 7.4978 11.0124 7.52254 11.0107 7.54456C11.008 7.58031 11.0011 7.6088 10.9906 7.62964C10.9734 7.6625 10.9467 7.6783 10.9159 7.6783C10.9092 7.6783 10.9016 7.67706 10.8947 7.67536C10.8784 7.67248 10.8627 7.66484 10.8461 7.65552C10.8274 7.644 10.8096 7.62981 10.7924 7.61135C10.7898 7.60948 10.788 7.60698 10.7847 7.6041C10.7004 7.51397 10.2588 7.03931 10.2588 7.03931L10.1199 7.42946L9.38935 7.29073L9.45588 8.17803L9.29268 8.23998L9.17133 8.28571L10.7218 9.7632L10.4684 10.1012L10.5568 10.0926L11.7331 9.98717L11.8447 10.2237L11.8805 10.148L11.9564 9.98717L12.1828 10.0074L12.4397 10.0308L13.2215 10.1012L12.9676 9.76318L14.5184 8.2857L14.3758 8.23169L14.2342 8.17802H14.2345L14.2999 7.29072L13.5704 7.42945L13.4311 7.0393C13.4311 7.0393 12.9889 7.51396 12.9047 7.60409C12.9024 7.60697 12.8998 7.60947 12.8978 7.61133C12.857 7.65335 12.8121 7.67829 12.7735 7.67829C12.7658 7.67829 12.7587 7.67805 12.7518 7.67535C12.7021 7.66197 12.6694 7.59842 12.6796 7.47018C12.6813 7.44578 12.6863 7.39315 12.6925 7.32489C12.7214 6.99472 12.7854 6.26583 12.7854 6.26327L12.3584 6.4536L11.8451 5.52733L11.845 5.52735ZM3.33086 9.31627C3.46946 10.4495 3.94869 11.5408 4.76262 12.3837C5.48321 13.1296 6.36062 13.574 7.2676 13.7212C7.22697 13.6203 7.18418 13.519 7.14094 13.4156C6.47218 13.2783 5.82449 12.9688 5.25813 12.4845C5.27622 12.3756 5.30039 12.2864 5.33028 12.2595C5.3381 12.2512 5.34606 12.2488 5.35464 12.2502C5.26634 12.1003 5.2723 11.8854 5.29546 11.7822C5.28518 11.7771 5.27545 11.7718 5.26625 11.7672C5.23375 11.7506 5.20179 11.7344 5.1702 11.7178C5.13019 11.8501 5.14246 12.0422 5.21221 12.1796C5.17235 12.2508 5.15202 12.3098 5.13975 12.3798C5.12549 12.366 5.11139 12.3524 5.09774 12.3396C5.05129 12.2967 5.00634 12.253 4.96203 12.2074C4.95329 12.1987 4.94406 12.1901 4.93548 12.181C4.93471 12.1806 4.93469 12.1806 4.93469 12.1796C4.93377 12.1789 4.93313 12.1789 4.93298 12.178C4.94739 12.1364 4.96372 12.0999 4.97936 12.0811C4.98074 12.079 4.98267 12.0779 4.98436 12.0755C4.98558 12.0744 4.98704 12.0724 4.98873 12.0714C4.98934 12.0709 4.99 12.0705 4.99123 12.0697C4.99307 12.0685 4.99564 12.0679 4.99747 12.0669C5.00054 12.066 5.00408 12.0667 5.00669 12.0678C4.99366 12.0393 4.9836 12.0107 4.97655 11.9812C4.94772 11.8751 4.95184 11.7673 4.96702 11.6864C4.97254 11.657 4.97935 11.6305 4.98701 11.6104C4.94623 11.5848 4.90617 11.5589 4.86754 11.5322C4.8099 11.6575 4.79492 11.829 4.8702 11.9769C4.86407 11.9879 4.85823 12.0004 4.85271 12.0129C4.85133 12.0158 4.84957 12.0185 4.8488 12.0221C4.84175 12.0363 4.83573 12.0514 4.82959 12.0678C4.79985 12.0346 4.7705 12.0013 4.74213 11.9675C4.71285 11.9342 4.68477 11.9 4.65718 11.8656C4.65994 11.8618 4.66301 11.859 4.66592 11.8561C4.67282 11.8496 4.67947 11.8457 4.68544 11.845C4.68866 11.845 4.69129 11.8456 4.69482 11.8476C4.64867 11.7129 4.66504 11.5723 4.6931 11.4754C4.69923 11.4556 4.70618 11.4363 4.71278 11.4205C4.68717 11.4005 4.66217 11.38 4.63656 11.3598C4.62415 11.3496 4.61088 11.3399 4.59861 11.3305C4.55308 11.4167 4.52608 11.523 4.5388 11.6331C4.54309 11.6702 4.55249 11.7065 4.56613 11.743V11.7434C4.56583 11.7434 4.56519 11.7443 4.56519 11.7444C4.56458 11.7453 4.56456 11.7453 4.56426 11.7463C4.5247 11.6943 4.48596 11.6408 4.44931 11.5874C4.43199 11.5628 4.41417 11.5374 4.397 11.5118C4.39623 11.42 4.41605 11.3305 4.44135 11.2566C4.44733 11.2402 4.45349 11.2239 4.45962 11.2092C4.42528 11.1787 4.39185 11.147 4.35874 11.1151C4.3247 11.1841 4.29892 11.2633 4.29033 11.3446C4.25507 11.2879 4.22149 11.2298 4.1896 11.171C4.19481 11.147 4.20177 11.1235 4.20959 11.1008C4.22063 11.0656 4.23296 11.0324 4.2466 11.0023C4.21395 10.9689 4.18293 10.9352 4.15196 10.9013C4.1374 10.9301 4.12535 10.9613 4.11354 10.9926C4.11094 11.0002 4.10804 11.0071 4.10574 11.0147C4.09424 10.9923 4.08413 10.9699 4.07294 10.9472C4.06006 10.9218 4.04741 10.8957 4.0353 10.8702C4.04588 10.8486 4.0569 10.8285 4.06794 10.8104C4.03958 10.7724 4.01231 10.7355 3.98549 10.6973C3.98303 10.7006 3.9803 10.704 3.97846 10.7077C3.97509 10.7136 3.97185 10.7182 3.96909 10.7239C3.78419 10.2941 3.65913 9.84131 3.59381 9.37931C3.50458 9.35949 3.41682 9.33818 3.33081 9.31633L3.33086 9.31627ZM12.1296 10.1965C12.0879 10.33 12.0423 10.4621 11.99 10.593C11.9256 10.7553 11.8517 10.9143 11.7701 11.0702C11.7339 10.986 11.724 10.9026 11.7192 10.8388C11.6781 10.8405 11.6361 10.843 11.5941 10.8462C11.6027 10.9204 11.6166 10.9889 11.6391 11.0533C11.656 11.1007 11.6768 11.147 11.7031 11.1929C11.552 11.4612 11.3751 11.7179 11.1717 11.9576C10.6486 12.5746 10.0145 13.0064 9.33588 13.2534C9.2672 13.3691 9.19778 13.488 9.12802 13.6108C9.95328 13.3744 10.7298 12.8861 11.3555 12.1473C11.8398 11.5771 12.183 10.9168 12.3882 10.219L12.1296 10.1966L12.1296 10.1965ZM11.4147 10.864C11.3733 10.869 11.3311 10.8748 11.2891 10.8814C11.3097 11.021 11.3587 11.1121 11.4205 11.2298C11.3726 11.3226 11.3173 11.4585 11.2812 11.5646C11.3268 11.5552 11.3715 11.5468 11.4161 11.5402C11.4575 11.4274 11.5098 11.3009 11.5529 11.2115C11.454 11.0844 11.4266 10.9514 11.4147 10.864V10.864ZM11.0297 10.9366C10.9911 10.9779 10.9496 11.0238 10.9051 11.0741C10.9344 11.1595 10.9813 11.2281 11.0555 11.2952C11.0463 11.316 11.0364 11.3414 11.0255 11.3692C10.9942 11.4519 10.9583 11.559 10.9324 11.6482C10.9848 11.634 11.0374 11.6206 11.0889 11.6073C11.1327 11.4816 11.1851 11.34 11.2196 11.2603C11.0836 11.1648 11.045 11.0245 11.0297 10.9366ZM10.7172 11.2914C10.6915 11.3219 10.6648 11.3548 10.6371 11.3882C10.646 11.394 10.6554 11.3995 10.6649 11.4042C10.6324 11.5047 10.591 11.632 10.5635 11.7594C10.6124 11.7441 10.6629 11.728 10.7128 11.7121C10.7487 11.5801 10.7936 11.4338 10.8314 11.3542C10.786 11.34 10.7488 11.3181 10.7172 11.2914L10.7172 11.2914ZM5.52903 11.8845C5.49223 12.0347 5.49996 12.2596 5.61664 12.3619C5.5685 12.4439 5.55154 12.5347 5.54449 12.6926C5.58926 12.7083 5.63451 12.7228 5.6802 12.7357C5.69737 12.5306 5.72245 12.4037 5.77734 12.4134C5.65805 12.3183 5.65354 12.0574 5.67301 11.9366C5.62426 11.9207 5.57655 11.9036 5.52902 11.8845L5.52903 11.8845ZM5.90274 12.0032C5.88204 12.138 5.90225 12.331 5.99645 12.437C6.01009 12.4521 6.02501 12.4652 6.04111 12.4769C6.00416 12.5585 5.99771 12.6704 6.00675 12.8156C6.05398 12.8243 6.10291 12.8321 6.15106 12.8375C6.14676 12.66 6.15786 12.5009 6.21274 12.5026C6.06771 12.3896 6.04458 12.1503 6.05486 12.0363C6.00349 12.026 5.95242 12.0149 5.90275 12.0032L5.90274 12.0032ZM6.32971 12.0733C6.32772 12.231 6.38434 12.455 6.5254 12.5224C6.50225 12.6256 6.50235 12.7436 6.52274 12.8795C6.57104 12.8784 6.61892 12.8773 6.66783 12.8748C6.65081 12.7179 6.6457 12.5215 6.69875 12.5157C6.54589 12.4207 6.49157 12.1979 6.48604 12.0829C6.43361 12.0811 6.38123 12.0783 6.32971 12.0733L6.32971 12.0733Z" fill="#E8291C"/>
</svg>
