<svg width="18" height="19" viewBox="0 0 18 19" fill="none" xmlns="http://www.w3.org/2000/svg">
<path d="M3.55727 17.5873C2.98893 17.703 2.40144 17.8222 1.89905 17.5412C1.54061 17.341 1.25251 16.7897 1.2433 16.2867C1.23523 15.8308 1.28874 15.3569 1.43452 14.8578C1.47581 14.9076 1.52632 14.9357 1.5766 14.9563C1.6887 15.0024 1.85062 15.0004 1.98555 14.9488C2.19453 14.8695 2.39773 14.7918 2.59657 14.7155C2.58504 14.7285 2.57397 14.7405 2.56266 14.7548C2.13895 15.2928 1.9625 15.9288 2.06952 16.5161C2.00839 16.5581 1.92351 16.6107 1.83286 16.6595C1.83286 16.6595 1.59898 16.7854 1.58768 16.7921L1.52425 16.8352V16.9188C1.52403 17.0028 1.52403 17.0028 1.80704 17.1948C1.80796 17.1959 1.92467 17.2819 1.9888 17.4331L2.06423 17.6114L2.23907 17.6064C2.39892 17.602 2.52577 17.504 2.60443 17.4258C2.87476 17.5595 3.16055 17.5282 3.41105 17.3372C3.62302 17.4797 3.84307 17.5079 3.95701 17.5118C3.82231 17.534 3.68829 17.5611 3.55728 17.5874L3.55727 17.5873ZM13.5213 14.2653H12.806L12.8 14.2911C12.7064 14.2742 12.604 14.2765 12.4976 14.2989C12.1011 14.3831 11.7976 14.6542 11.5879 15.1059C11.6115 14.8706 11.5875 14.6873 11.489 14.5453C11.3748 14.3805 11.214 14.2885 11.0237 14.2791C10.9543 14.2757 10.8819 14.2844 10.8078 14.3034L10.8131 14.2778H9.7482L9.74889 14.2755H9.6068C9.79963 14.1686 9.93295 13.9458 9.93295 13.6872C9.93295 13.3259 9.67276 13.0319 9.35308 13.0319C9.10904 13.0319 8.9003 13.2032 8.81472 13.4448L8.97549 12.7335L7.72786 13.2894L7.52374 14.2989C7.09079 14.2283 6.79832 14.4853 6.61402 14.7423C6.64678 14.6745 6.69844 14.5674 6.69406 14.5752L6.82069 14.3459L5.59082 14.3454L5.62519 14.1976H4.63452C4.63452 14.1976 4.44908 15.039 4.36442 15.3377C4.40755 15.1216 4.58239 14.2765 4.58239 14.2765H3.72942C5.54975 13.5642 6.83431 13.0236 7.55794 12.6644C7.89609 12.4966 9.59621 11.798 10.1653 11.5663C10.5948 11.3917 11.1126 11.1891 11.704 10.9642C12.0954 11.6377 13.0979 13.3509 13.6988 14.2678C13.6614 14.2654 13.6068 14.2654 13.5214 14.2654L13.5213 14.2653ZM9.48449 9.9431L9.56037 9.98011L9.0008 10.589C8.77706 10.589 8.70072 10.841 8.70072 10.841L8.3003 10.9675C8.28208 10.9469 8.18497 10.9375 8.18497 10.9375L8.68643 10.4454C9.09746 10.302 9.48449 9.9431 9.48449 9.9431H9.48449ZM9.96841 10.1516L10.4521 10.3359L9.78089 10.5275C9.78089 10.5275 9.72645 10.4863 9.65402 10.4798L9.96841 10.1516L9.96841 10.1516ZM17.2067 16.3895C17.0771 16.3163 16.9387 16.2748 16.7934 16.2652C16.7802 16.0541 16.7196 15.8489 16.6674 15.6772C16.6453 15.6026 16.6238 15.5322 16.6102 15.4736C16.5449 15.1952 16.5274 15.0818 16.5858 14.9012C16.7103 14.5165 16.2767 14.2954 16.1053 14.2079C16.1053 14.2079 16.0523 14.1808 16.0525 14.1808C16.002 14.1547 15.9729 14.1672 15.8961 14.2008C15.8338 14.2282 15.7621 14.2829 15.6675 14.3809C15.7462 14.235 15.7967 14.0515 15.8098 13.857C15.8606 13.8153 15.9079 13.7496 15.9462 13.6628C16.0756 13.3717 16.0811 12.8872 15.7102 12.4008C15.5598 12.2032 14.5034 11.1692 13.5741 10.2694L13.5707 10.266C13.8973 10.1469 14.3973 9.96495 14.3932 9.96626C14.4633 9.94488 14.5761 9.88598 14.6797 9.9918C14.7715 10.0924 14.9509 10.1292 15.1062 10.0056C15.3753 9.79162 15.2261 9.32115 15.171 9.14573C15.0741 8.83738 14.9373 8.72138 14.8395 8.67811C14.7449 8.63615 14.6444 8.63381 14.5579 8.68594C14.4232 8.767 14.3904 8.89758 14.375 9.00393C14.3577 9.1194 14.1944 9.14651 13.904 9.22913C13.904 9.22913 12.9084 9.53617 12.8376 9.55885L12.8323 9.5539L12.5913 9.32244C12.5445 9.2346 12.452 9.07795 12.3431 8.97785C12.324 8.62598 12.0822 8.20711 11.8841 8.03613C11.8737 7.79111 11.7 7.43663 11.5148 7.30735C10.6833 5.64934 9.94056 4.58517 9.24536 4.05627L9.22252 4.03881C9.09797 3.94445 9.08736 3.93116 9.08274 3.85766C9.03984 3.20447 8.88506 2.57787 8.68855 2.24215C8.76628 2.10114 8.88368 1.85012 8.96465 1.5019C8.96465 1.5019 9.05253 1.12631 9.05253 1.12656L8.95196 1.20163C8.97733 1.10701 9.00294 0.993891 9.02762 0.856789L9.02992 0.838544C9.0373 0.725942 8.96995 0.68372 8.94896 0.673293C8.94043 0.668869 8.93213 0.66678 8.92382 0.664694C8.9312 0.540103 8.92013 0.389969 8.86293 0.224202L8.78589 4.69062e-05L8.64357 0.178851C8.35248 0.545072 7.90962 0.735854 7.51889 0.904497C7.4294 0.943074 7.34475 0.979823 7.26448 1.0171C6.62717 1.31477 6.23298 1.63354 5.86139 2.53435C5.85263 2.54295 5.84294 2.55208 5.83233 2.56225C5.66349 2.72255 5.31173 3.05643 5.11268 3.71797L5.0797 3.8277L5.16596 3.89052C5.37101 4.03857 5.59291 4.14309 5.87293 4.25387C4.82182 6.9091 6.82278 8.4845 8.49713 9.44943C8.40026 9.65091 8.32253 9.83963 8.302 10.0617L7.55167 10.9552C7.47971 10.9766 7.34339 11.0272 7.26405 11.1226C7.23706 11.1549 7.21192 11.1989 7.18862 11.2529C7.16786 11.2581 7.14964 11.2623 7.13373 11.2659C6.6648 11.3723 5.91539 11.5659 3.92671 12.1902C3.63909 11.892 3.16047 11.7009 2.68946 11.7009C1.94351 11.7009 1.46168 12.1539 0.967829 12.834C0.254867 13.8156 -0.5506 16.5031 0.516662 17.9256C0.699112 18.1688 1.38532 18.9536 2.56148 18.852C2.87609 18.8248 3.11184 18.7659 3.31965 18.7143C3.73023 18.6119 3.91775 18.5652 4.3267 18.8757L4.49001 19L4.64454 18.8619C4.8775 18.6539 5.27308 18.7237 5.59163 18.8074L6.20887 18.97L5.88525 18.3544C5.45346 17.533 4.84152 17.4152 4.2245 17.476C4.57187 17.3665 4.80253 17.0177 4.97068 16.6046C4.9483 16.8767 4.98982 17.1661 5.21748 17.3488C5.58423 17.6433 6.04393 17.514 6.38392 17.2763C6.54469 17.4314 6.76058 17.5221 6.9594 17.5122C7.13216 17.5085 7.28048 17.47 7.41934 17.3936C7.51137 17.4671 7.61425 17.5109 7.72681 17.5234C7.91317 17.5437 8.11294 17.4757 8.32121 17.3219C8.42962 17.4444 8.57171 17.5117 8.73339 17.5124C8.80882 17.5128 8.88747 17.5012 8.96705 17.4788L8.95898 17.5124H10.0818L10.2327 16.8887C10.2461 17.0117 10.2788 17.1298 10.342 17.233C10.4121 17.3472 10.5478 17.4879 10.7975 17.5114C11.0651 17.5364 11.3857 17.4228 11.6445 17.2174C11.9257 17.5302 12.2804 17.5812 12.7021 17.3675C12.7854 17.4486 12.9291 17.5442 13.1452 17.5106C13.2933 17.4997 13.4423 17.4282 13.5975 17.2958C13.7253 17.4389 13.89 17.5156 14.0745 17.5124C14.3781 17.5072 14.6331 17.3021 14.8336 17.091C15.0543 17.3462 15.389 17.6063 15.9029 17.5083C15.9915 17.4911 16.0641 17.4692 16.1285 17.4496C16.2985 17.3983 16.3202 17.3918 16.4558 17.5213L16.8569 17.9052L16.8987 17.3253C16.9065 17.2961 16.9623 17.1202 17.2345 16.9174L17.6257 16.626L17.2068 16.3895L17.2067 16.3895Z" fill="white"/>
<path d="M9.80266 13.6881C9.80266 13.4085 9.60129 13.1806 9.3538 13.1806C9.10631 13.1806 8.9047 13.4084 8.9047 13.6881C8.9047 13.9678 9.1063 14.1954 9.3538 14.1954C9.60129 14.1954 9.80266 13.9678 9.80266 13.6881V13.6881ZM17.1487 16.5227C16.9725 16.4231 16.8004 16.4044 16.6644 16.4135C16.6805 16.1799 16.6069 15.9349 16.544 15.7259C16.5209 15.6487 16.499 15.576 16.484 15.5122C16.4194 15.2359 16.389 15.0813 16.4635 14.8514C16.546 14.5957 16.2056 14.4221 16.0603 14.3476L15.9984 14.3163C15.9981 14.3159 15.9438 14.3397 15.9438 14.3397C15.7542 14.4226 15.3669 14.9434 14.6726 15.9391C14.5912 16.0561 14.5086 16.1747 14.4424 16.268C14.4853 16.0473 14.6244 15.3328 14.6913 14.9898C14.9589 15.0174 15.1651 14.8259 15.2151 14.5376C15.4373 14.5996 15.6836 14.2305 15.6836 13.7611C15.8006 13.77 16.1346 13.1843 15.6116 12.498C15.4523 12.2889 14.1811 11.0511 13.3111 10.2105L13.3081 10.2071L14.3597 9.82418C14.4247 9.80437 14.5442 9.77283 14.6028 9.7783C14.6408 9.78195 14.722 9.84451 14.7617 9.89377C14.8 9.936 14.9056 9.98891 15.0295 9.887C15.1972 9.74911 15.1204 9.42669 15.0479 9.196C14.9679 8.94057 14.868 8.83032 14.7958 8.79825C14.7368 8.77219 14.6685 8.76463 14.6028 8.80295C14.4522 8.89105 14.5218 9.07584 14.4392 9.14623C14.4392 9.14623 14.4152 9.22859 13.9465 9.35761L12.8696 9.70349L12.8064 9.72356L12.8013 9.71862C12.6097 9.53435 12.4906 9.42043 12.4906 9.42043C12.415 9.27421 12.3082 9.11495 12.2129 9.05525C12.2346 8.69737 11.9131 8.20005 11.7488 8.11377C11.7938 7.9566 11.6054 7.5109 11.4199 7.4181C10.8278 6.23292 10.0249 4.82831 9.17264 4.17981C9.03655 4.07633 8.96298 4.02968 8.95259 3.86937C8.90484 3.13747 8.72124 2.50618 8.53002 2.24683C8.60037 2.13475 8.745 1.86627 8.83863 1.4654C8.83863 1.4654 8.72976 1.54672 8.64649 1.57669C8.69124 1.51883 8.80127 1.37703 8.89976 0.828368C8.90414 0.762163 8.85432 0.886232 8.73621 0.963124C8.75559 0.866944 8.85593 0.611505 8.74152 0.278911C8.36001 0.758246 7.74923 0.951902 7.31489 1.1547C6.65545 1.46253 6.31062 1.78365 5.96808 2.62685C5.84675 2.7504 5.4484 3.06474 5.23689 3.76641C5.44772 3.91889 5.67699 4.02315 6.00221 4.14878C6.00221 4.14878 6.00475 4.2666 6.0066 4.27989C5.01823 6.7203 6.64782 8.24104 8.67784 9.38731C8.54706 9.65292 8.4398 9.86431 8.42804 10.1276L7.62051 11.0896C7.62051 11.0896 7.43645 11.1324 7.35986 11.2246C7.32618 11.2653 7.29897 11.3326 7.28213 11.3821C7.23461 11.3941 7.19332 11.4042 7.15988 11.4118C6.66812 11.5233 5.87649 11.7319 3.88885 12.3561C3.88217 12.3483 3.87571 12.3394 3.86879 12.3316C3.60952 12.0392 3.14683 11.8497 2.68989 11.8497C1.99515 11.8497 1.53961 12.2811 1.06934 12.9285C0.379897 13.8781 -0.404789 16.4689 0.616787 17.8305C0.789084 18.0602 1.43769 18.8015 2.55159 18.7053C2.85721 18.6787 3.08811 18.6213 3.29177 18.5705C3.71272 18.4655 3.94453 18.4079 4.40007 18.7538L4.48426 18.8176L4.56384 18.7465C4.8404 18.4994 5.27473 18.5726 5.62164 18.6641L5.93994 18.7478L5.77294 18.4306C5.23067 17.3992 4.39223 17.5694 3.58119 17.7341C2.99209 17.8537 2.38293 17.9773 1.84185 17.6749C1.43681 17.4487 1.12359 16.8534 1.11319 16.2906C1.10328 15.7362 1.21422 15.1206 1.38444 14.5909C1.51822 14.7856 1.68846 14.8906 1.84229 14.8448C1.86305 14.8385 1.88197 14.8302 1.90042 14.8208C1.91518 14.8185 1.93018 14.8151 1.94448 14.8096C4.70191 13.7599 6.57315 12.9926 7.5058 12.53C7.8474 12.3606 9.55151 11.6602 10.1215 11.4282C10.6264 11.2226 11.1992 11.0005 11.7587 10.7883C12.0953 11.3691 13.4225 13.6466 13.9992 14.4697C13.8855 15.2266 13.6878 16.128 13.3524 16.361C13.3383 16.3712 13.321 16.3837 13.306 16.3941C13.3789 15.9523 13.6195 14.7844 13.6573 14.609L13.6991 14.4143L12.9082 14.4139L12.8948 14.4728C12.7921 14.4264 12.6653 14.415 12.5223 14.4452C11.9101 14.5753 11.5385 15.2128 11.4183 16.3401C11.416 16.3601 11.414 16.381 11.4119 16.3974C11.2924 16.5525 11.1985 16.5825 11.1704 16.5705C11.1602 16.5663 11.1584 16.541 11.1591 16.5264C11.163 16.3932 11.2274 16.142 11.2899 15.8993C11.4481 15.2816 11.5406 14.8596 11.3867 14.6372C11.2968 14.5074 11.1695 14.4352 11.0186 14.4279C10.8862 14.4214 10.7501 14.4657 10.6265 14.5356L10.6489 14.4266H9.82843L9.80536 14.552C9.71218 15.0631 9.44023 16.1454 9.25364 16.3925C9.21673 16.4413 9.14408 16.4715 9.09356 16.4796C9.145 16.1999 9.37751 15.2311 9.52766 14.6241L9.57702 14.4244H8.74504L8.72059 14.5472C8.71782 14.5607 8.44657 15.9216 8.23505 16.3386C8.17392 16.4585 8.11718 16.4916 8.09573 16.484C8.08143 16.4791 8.06782 16.4535 8.06989 16.4207C8.09065 16.1019 8.54528 14.043 8.7185 13.2764L8.78586 12.9782L7.84085 13.3995L7.62335 14.4765C7.59521 14.4658 7.56384 14.4564 7.52832 14.4499C6.9203 14.3342 6.62414 14.9608 6.51273 15.1966C6.36995 15.4985 6.22603 15.9953 6.21264 16.3902C6.12453 16.5075 6.01705 16.5969 5.98083 16.5914C5.95038 16.587 5.94254 16.5747 5.93562 16.5593C5.82052 16.3036 6.18104 15.3338 6.47398 14.7267L6.58585 14.494L5.42172 14.4943L5.45609 14.3465H4.73921L4.7143 14.4682C4.56806 15.1777 4.30626 16.1077 4.07607 16.4731C4.04839 16.5169 4.0244 16.5401 4.00802 16.5513C4.02232 16.3832 4.2057 15.4456 4.37776 14.6186L4.41812 14.4252H3.59883L3.564 14.5756C3.29851 14.4648 2.95069 14.4864 2.6612 14.8542C2.2391 15.3904 2.0804 16.016 2.21857 16.5836C2.15721 16.6357 2.02205 16.7233 1.88965 16.7942L1.65599 16.9198L1.87789 17.0707C1.87857 17.0716 2.02551 17.1758 2.10762 17.37L2.1466 17.462L2.23656 17.4594C2.38672 17.4552 2.50411 17.3382 2.58024 17.2482C2.85518 17.4239 3.15643 17.3908 3.40785 17.1578C3.63504 17.3481 3.90214 17.365 3.98772 17.365C4.69053 17.365 4.95949 16.3135 5.15554 15.5453C5.18184 15.4432 5.20675 15.3457 5.23097 15.2576H5.50015C5.48354 15.3032 5.46624 15.3504 5.44848 15.3988C5.37006 15.6113 5.28148 15.8524 5.21298 16.087C5.13709 16.3484 4.95879 16.9601 5.2937 17.2289C5.62377 17.4937 6.07194 17.3529 6.39948 17.0886C6.55518 17.2888 6.7833 17.3735 6.95744 17.3649C7.14013 17.361 7.29212 17.3144 7.43398 17.2177C7.52209 17.3102 7.62449 17.3639 7.74006 17.3767C7.95596 17.4004 8.1723 17.2724 8.346 17.1225C8.43319 17.2771 8.56744 17.3642 8.73442 17.3649C8.87258 17.3658 9.01859 17.3214 9.16068 17.2406L9.1307 17.3649H9.98252L10.2582 16.2246C10.4178 15.4984 10.5774 15.4142 10.6081 15.4043C10.6217 15.4001 10.6328 15.404 10.6404 15.409C10.6397 15.4565 10.6046 15.5777 10.573 15.6866C10.5444 15.7851 10.5089 15.9076 10.4724 16.0544L10.4618 16.0964C10.3906 16.3812 10.2711 16.858 10.4501 17.1494C10.504 17.2375 10.6099 17.3459 10.8087 17.3644C11.0816 17.3902 11.4209 17.2469 11.6603 17.0188C12.0017 17.4916 12.4118 17.3738 12.729 17.1903C12.8166 17.3 12.9347 17.3949 13.1368 17.3636C13.3144 17.3503 13.477 17.2291 13.6142 17.0905C13.7233 17.2703 13.8834 17.3681 14.0728 17.3649C14.3802 17.36 14.6372 17.1111 14.8395 16.8794C15.0865 17.2039 15.3937 17.4559 15.8814 17.3629C15.9639 17.347 16.0338 17.3261 16.0952 17.3076C16.2774 17.2523 16.3528 17.2294 16.5408 17.409L16.7475 17.6068L16.7696 17.3021C16.7693 17.3036 16.8026 17.0628 17.1629 16.7944L17.3645 16.6445L17.1488 16.5225L17.1487 16.5227ZM9.0887 10.6877C8.99229 10.7091 8.94546 10.7245 8.87996 10.793C8.83383 10.841 8.80269 10.9082 8.78585 10.9583C8.60409 11.0117 8.41658 11.0659 8.23457 11.1183C8.19305 11.0907 8.11348 11.0542 7.9903 11.0641C7.97877 11.0631 7.94624 11.0565 7.94878 11.0179C7.95109 10.9843 8.62853 10.2913 8.62853 10.2913C8.8179 10.2475 9.51172 9.79185 9.51172 9.79185L9.72393 9.88986L9.70825 9.92922L9.67803 9.98995L9.1286 10.6491C9.11683 10.664 9.10553 10.6841 9.08869 10.6877L9.0887 10.6877ZM9.72438 10.6796C9.67663 10.6397 9.62589 10.6166 9.57906 10.6173C9.40307 10.6207 9.46281 10.5483 9.50295 10.4969L9.97394 9.99985C9.97394 9.99985 10.3453 10.1742 10.7912 10.3509C10.1453 10.5511 9.79471 10.6583 9.72437 10.6796L9.72438 10.6796ZM3.03733 16.5119C3.03548 16.5119 3.03294 16.5119 3.02649 16.5028C3.01726 16.4895 2.94068 16.3615 3.04056 15.9119C3.11414 15.5803 3.22232 15.358 3.34479 15.2861C3.36832 15.2723 3.40153 15.2579 3.44859 15.26C3.38562 15.8772 3.21194 16.5119 3.03733 16.5119L3.03733 16.5119ZM7.37677 15.9114C7.34148 16.0701 7.30526 16.2343 7.27274 16.4032C7.26812 16.4277 7.21184 16.478 7.13388 16.4864C7.10574 16.4897 7.055 16.4872 7.04393 16.458C6.97357 16.2745 7.07045 15.6833 7.29811 15.3781C7.36501 15.2882 7.4312 15.2423 7.49533 15.2397C7.49787 15.3648 7.42867 15.6765 7.37677 15.9114L7.37677 15.9114ZM12.3057 16.5171C12.3039 16.5171 12.3011 16.5171 12.2949 16.5075C12.2856 16.4947 12.2093 16.3665 12.3089 15.9169C12.3844 15.5783 12.4842 15.3705 12.6065 15.2994C12.6478 15.2754 12.6948 15.2689 12.7467 15.2759C12.675 15.8981 12.4912 16.5171 12.3057 16.5171L12.3057 16.5171ZM15.8938 16.5471C15.8615 16.5826 15.7997 16.6063 15.7338 16.6078C15.6519 16.6099 15.576 16.5802 15.5264 16.526C15.2731 16.2575 15.2731 16.2575 15.3952 16.0785C15.474 15.963 15.543 15.8553 15.6101 15.7511C15.669 15.6588 15.725 15.5728 15.7806 15.4917C15.8 15.652 15.8406 15.8009 15.8788 15.9403C15.9577 16.2278 15.9972 16.3991 15.8938 16.5471" fill="#14264B"/>
<path d="M7.0696 3.24973C7.02647 3.32845 6.94666 3.37823 6.85902 3.37146C6.73377 3.36155 6.63942 3.23878 6.64797 3.09725C6.65696 2.9552 6.7656 2.84859 6.89108 2.85876C6.97389 2.86527 7.04355 2.92132 7.07837 2.99977C6.92175 2.98074 6.88761 3.15173 6.88761 3.15173C6.78612 3.01124 6.91714 2.93018 6.91714 2.93018C6.82995 2.91715 6.74715 2.99248 6.73999 3.10534C6.73307 3.21872 6.80849 3.31673 6.90859 3.32455C6.97617 3.33002 7.0343 3.305 7.06959 3.24974" fill="white"/>
<path d="M8.64337 0.603027C8.31051 0.997396 7.78293 1.12607 7.33169 1.34057C6.67049 1.65522 6.32703 2.14091 6.15589 2.61018C6.22008 2.73427 6.62142 2.74571 6.68156 2.70533C6.78398 2.63643 6.92284 2.60184 7.03372 2.67424C7.1147 2.72713 7.15853 2.77989 7.19545 2.80775C7.29346 2.85498 7.4303 2.89401 7.53176 2.86696C7.08517 3.37311 7.03372 4.03752 7.07564 4.1499C6.5502 4.1499 6.02298 4.95373 5.92687 5.17054C5.365 7.562 8.57251 9.13805 8.89085 9.30546C8.70566 9.63989 8.54905 9.90757 8.56287 10.0319C8.57394 10.1312 8.62361 10.1339 8.72591 10.1105C8.96028 9.96113 9.37377 9.74728 9.51966 9.55618C9.60814 9.44044 9.51644 9.27209 9.47309 9.21731C9.42653 9.15797 9.45332 9.10602 9.56051 9.18004C9.66221 9.2772 9.68055 9.33117 9.71271 9.41636C9.75856 9.53963 9.62732 9.67098 9.62732 9.67098C9.98829 9.85535 11.2224 10.404 11.6046 10.4895L11.1904 9.73154C10.438 9.39213 9.37984 8.87966 8.7795 8.54294C7.84879 8.02024 6.30821 6.93204 7.07636 5.26488C7.30073 4.84028 7.386 4.83181 7.41779 4.93112C7.41994 4.94122 7.41327 4.96975 7.40386 4.97527C7.38957 4.99168 7.28834 5.10177 7.19402 5.328C6.47208 6.84416 7.96598 7.93088 8.8469 8.41361C10.1223 9.11207 11.3028 9.65012 12.0803 9.94498C12.1994 9.99006 12.3077 10.0361 12.3923 10.0633C12.6281 10.1416 12.3244 9.21839 12.0267 9.12351C10.4492 8.5996 8.93062 7.81824 8.51011 7.3491C8.25775 7.31518 7.58417 7.0833 7.4746 6.05216C7.47019 6.02431 7.47138 6.00035 7.50223 5.99241C7.53081 5.98514 7.54248 6.00869 7.54498 6.02296C7.73791 6.95895 8.30229 7.20846 8.54084 7.21492C8.67279 7.21842 8.88061 7.06985 8.82618 7.03391C8.41674 6.76543 8.18665 6.22483 8.17046 6.16884C8.15986 6.13237 8.17189 6.12241 8.19213 6.11017C8.21107 6.099 8.23298 6.10788 8.25358 6.14381C8.35922 6.32899 8.74782 7.05249 9.32327 7.07227C9.47547 7.07752 9.64292 7.07146 9.67686 6.9175C9.67686 6.9175 9.19013 6.66396 8.95135 6.21796C8.94301 6.2037 8.93622 6.17651 8.96695 6.15539C8.99827 6.13412 9.02245 6.17059 9.03674 6.18566C9.50144 6.72438 9.87455 6.94321 10.1002 6.91616C10.1915 6.90956 10.2553 6.83581 10.2586 6.78387C10.2708 6.58819 10.0956 6.46841 10.0495 6.43302C10.0428 6.42804 10.0393 6.41028 10.0469 6.39884C10.0538 6.38767 10.0715 6.38188 10.0949 6.39467C10.186 6.44365 10.3643 6.58846 10.3495 6.8167C10.3468 6.85721 10.3421 6.88413 10.3151 6.9175C10.5787 7.07415 11.0275 7.27575 11.236 7.34883C10.5964 6.13695 9.88932 4.86289 8.9679 4.22822C8.94313 4.31866 9.02018 4.52456 8.92836 4.47477C8.86465 4.44032 8.80903 4.14034 8.80665 4.00509C8.79462 3.30555 8.62491 2.72215 8.39864 2.38652C8.27347 2.49727 8.04624 2.55339 8.0472 2.55501C8.50046 2.10067 8.5587 1.78185 8.5587 1.78185C8.42651 1.89732 8.10913 2.05653 7.94394 2.08896C7.94394 2.08896 8.46116 1.74754 8.66874 1.13845C8.66874 1.13324 8.33874 1.50435 7.85605 1.62763C7.85582 1.62682 8.65814 1.21373 8.64337 0.603027V0.603027ZM9.78226 6.96078C9.7732 7.02673 9.75558 7.08944 9.66364 7.13627C10.5043 7.70096 11.4018 8.00901 11.5987 8.07334C11.6391 8.04051 11.5365 7.60663 11.2548 7.49385C10.8346 7.32495 10.4844 7.1574 10.236 6.98124C10.1483 7.03574 10.0182 7.06791 9.78226 6.96078V6.96078ZM8.95254 7.10667C8.94277 7.18661 8.75735 7.30477 8.67386 7.32132C9.27838 7.90216 11.4076 8.79805 12.016 8.95914C12.1136 8.98498 11.9719 8.49013 11.7039 8.28732C11.5081 8.13821 10.2778 7.8167 9.49822 7.18257C9.36674 7.20679 9.20299 7.21245 8.95254 7.10667ZM12.5793 9.70417C12.6043 9.76567 12.6174 9.84534 12.6293 9.91936C12.7365 10.4928 12.353 10.1752 11.3739 9.80268C12.1589 11.2034 13.3546 13.272 14.031 14.2393C14.0691 13.954 14.0965 13.7037 14.1132 13.5409L14.1275 13.4022L14.2692 13.3403L12.4256 10.6688H12.59C12.59 10.6688 13.6404 12.2029 14.4026 13.2818L14.9301 13.0486C14.1572 12.1246 12.871 10.6233 12.871 10.6233L13.039 10.6283C13.0378 10.6131 15.5304 13.5382 15.5304 13.5382C15.6673 13.7118 15.8996 13.1238 15.5256 12.6533C15.3184 12.2795 12.5793 9.70417 12.5793 9.70417ZM2.68923 12.0067C2.09257 12.0067 1.67063 12.3476 1.17639 13.0284C0.465257 14.0078 -0.219846 16.4733 0.722568 17.7289C1.03834 18.1502 1.67611 18.6225 2.5404 18.5485C3.48539 18.4664 3.74192 18.0654 4.47684 18.6225C4.8228 18.3144 5.35026 18.4314 5.65264 18.5108C4.78839 16.8663 3.13467 18.5728 1.77951 17.8164C1.30993 17.554 0.984429 16.8959 0.973353 16.2943C0.962051 15.686 1.09175 15.0091 1.28921 14.4304C1.2461 14.3403 1.21037 14.2393 1.185 14.1317C1.0808 13.6849 1.21192 13.2373 1.44391 13.1363C1.45654 13.1296 1.47011 13.1237 1.48488 13.1194C1.71937 13.0427 1.9435 12.9772 2.1587 12.9079C2.23409 12.8322 2.31031 12.7674 2.38641 12.7168C2.65746 12.5378 3.17564 12.5303 3.47825 12.7794C3.33772 12.9661 3.2166 13.2202 3.41549 13.4292C3.5709 13.5987 3.82683 13.5288 3.93211 13.3274C4.0942 13.0157 3.96188 12.6653 3.76991 12.4427C3.53922 12.1823 3.11299 12.0067 2.68926 12.0067H2.68923ZM15.0367 13.1763L14.8867 13.9594C15.0427 14.1693 15.1475 14.3039 15.1725 14.316C15.4131 14.4372 15.5858 13.8988 15.4929 13.7454C15.4619 13.6929 15.2844 13.4749 15.0367 13.1763V13.1763ZM8.58228 13.2373L7.95895 13.5153L7.70755 14.7601C7.70755 14.7601 7.70528 14.6431 7.50378 14.604C7.06064 14.5206 6.81483 14.888 6.63428 15.2702C6.49935 15.5555 6.3493 16.0709 6.3493 16.4478C6.3493 16.4478 6.13088 16.7721 5.96153 16.7479C5.38012 16.6617 6.35025 14.6511 6.35025 14.6511H5.23959L5.27425 14.5031H4.84837C4.73071 15.0751 4.46132 16.1302 4.188 16.5648C4.03985 16.8004 3.87158 16.7344 3.86681 16.5716C3.86193 16.4047 4.241 14.5825 4.241 14.5825H3.70508L3.65435 14.8019C3.50406 14.6929 3.112 14.5166 2.76402 14.9593C2.30896 15.5367 2.23322 16.1503 2.3697 16.6119C2.38864 16.6994 1.94799 16.9363 1.94799 16.9363C1.94799 16.9363 2.12913 17.0587 2.23179 17.3023C2.40066 17.2969 2.54298 17.0345 2.5612 17.048C2.8213 17.27 3.13975 17.2673 3.4039 16.947C3.56491 17.1381 3.80548 17.2081 3.9865 17.2081C4.70856 17.2081 4.9259 15.7722 5.12836 15.1006H5.70298C5.61902 15.3604 5.4536 15.7601 5.3438 16.1369C5.22864 16.5312 5.15861 16.9282 5.37286 17.1005C5.70179 17.3642 6.16637 17.1233 6.4279 16.8609C6.5377 17.1005 6.7666 17.2162 6.95012 17.2081C7.15246 17.2041 7.30501 17.1449 7.45507 17.0103C7.73494 17.4463 8.16212 17.1139 8.39745 16.8663C8.43842 17.0493 8.54 17.2068 8.73376 17.2081C8.96302 17.2095 9.20537 17.0655 9.39461 16.8609L9.31148 17.2081H9.87467L10.1224 16.184C10.3952 14.9418 10.7325 15.2715 10.7593 15.3213C10.8217 15.4303 10.7186 15.6389 10.6053 16.0965C10.5266 16.4155 10.3169 17.161 10.8191 17.2081C11.1067 17.235 11.4836 17.0345 11.6777 16.7788C11.9641 17.2996 12.3083 17.2848 12.7621 16.9901C12.8609 17.1341 12.9348 17.2364 13.1182 17.2081C13.3289 17.1974 13.5374 16.9632 13.6517 16.8286C13.716 17.0359 13.8494 17.2122 14.0697 17.2081C14.3758 17.2027 14.6473 16.8798 14.8474 16.6429C15.1165 17.0372 15.3893 17.2969 15.8573 17.2081C16.1848 17.1449 16.3122 16.9861 16.629 17.2889C16.629 17.2889 16.6516 16.9861 17.0851 16.6631C16.8469 16.5285 16.6064 16.5635 16.4718 16.6106C16.623 16.297 16.4206 15.8596 16.3479 15.5528C16.2836 15.2756 16.2408 15.0791 16.3313 14.7978C16.3718 14.6727 16.0466 14.5139 15.993 14.4869C15.7156 14.6081 14.527 16.441 14.4032 16.5581C14.346 16.6133 14.2102 16.7021 14.2924 16.2984C14.2924 16.2984 14.8891 13.2405 14.8855 13.2373L14.2555 13.5153C14.184 14.1909 13.9971 16.0965 13.4242 16.4949C13.3718 16.5312 13.1979 16.6765 13.1467 16.5621C13.1182 16.5002 13.5171 14.5919 13.5207 14.5717H13.0145L12.9752 14.7453C12.8919 14.5717 12.6811 14.5717 12.5465 14.6C11.587 14.8032 11.5717 16.4141 11.5396 16.4693C11.2615 16.8569 11.0112 16.7586 11.0186 16.5204C11.0313 16.11 11.4691 15.0145 11.2757 14.7346C11.0627 14.4264 10.6241 14.6471 10.4045 14.9136L10.4722 14.5838H9.94053C9.86407 15.001 9.58706 16.1921 9.35805 16.4949C9.23741 16.6537 8.93039 16.7008 8.94373 16.5312C8.95897 16.3347 9.39247 14.5812 9.39247 14.5812H8.85512C8.85512 14.5812 8.57906 15.974 8.35434 16.4168C8.162 16.7963 7.91536 16.6294 7.92965 16.4087C7.95621 16.0063 8.58228 13.2373 8.58228 13.2373V13.2373ZM9.35245 13.3376C9.18131 13.3376 9.04269 13.4951 9.04269 13.6876C9.04269 13.8813 9.18131 14.0375 9.35245 14.0375C9.52335 14.0375 9.66233 13.8813 9.66233 13.6876C9.66233 13.4951 9.52335 13.3376 9.35245 13.3376ZM14.8462 14.1774L14.7235 14.8153C14.9248 14.8086 15.1272 14.6108 15.0272 14.4412L14.8462 14.1774ZM15.9323 15.0629C15.7894 15.713 16.2979 16.2338 15.9966 16.6523C15.8763 16.7936 15.5905 16.8138 15.4285 16.6389C15.0999 16.2903 15.1058 16.2405 15.2833 15.9821C15.5381 15.608 15.7037 15.2944 15.9323 15.0629V15.0629ZM7.48258 15.0804C7.51092 15.0791 7.53998 15.0818 7.56952 15.0899C7.73422 15.1356 7.53343 15.7762 7.40696 16.4356C7.36777 16.6416 6.99871 16.7398 6.91451 16.5191C6.78243 16.1746 7.05766 15.106 7.48258 15.0804ZM3.45618 15.102C3.50025 15.1047 3.54729 15.1168 3.59743 15.1383C3.59743 15.1383 3.48226 16.6685 3.03543 16.6685C2.89537 16.6685 2.77438 16.4558 2.90407 15.8731C2.98553 15.5044 3.14797 15.0845 3.45618 15.102V15.102ZM12.743 15.1154C12.7907 15.1195 12.8419 15.1329 12.8978 15.1571C12.8978 15.1571 12.7621 16.6738 12.3036 16.6738C12.1642 16.6738 12.0427 16.4612 12.1726 15.8785C12.2535 15.5097 12.4084 15.0845 12.743 15.1154V15.1154Z" fill="#B72126"/>
<path d="M6.02038 2.83887C5.58605 3.13992 5.39074 3.69815 5.39074 3.69815C5.77291 3.60583 5.83281 3.48202 6.12363 3.51041C6.22736 3.52064 6.27643 3.57407 6.35896 3.64284C6.2326 3.61054 6.13507 3.60341 6.02872 3.60058C5.88092 3.59668 5.58855 3.71403 5.44004 3.73072C5.44004 3.73072 5.92713 3.96771 6.07683 3.99274C6.07683 3.99274 6.39123 4.13244 6.4821 3.68254C6.53141 3.43841 6.36837 3.08515 6.15877 3.18393C6.15662 3.185 6.19628 2.92675 6.02038 2.83887V2.83887ZM14.7182 8.89826C14.7075 8.89759 14.6967 8.89853 14.6872 8.90069C14.586 8.92208 14.5824 9.05236 14.5824 9.05236C14.5824 9.05236 14.5991 9.16823 14.4836 9.26553C14.4264 9.31478 14.2525 9.40118 13.9727 9.4639L12.8961 9.8099L13.2236 10.1208L14.3287 9.71812C14.3287 9.71812 14.7372 9.60278 14.7372 9.3853C14.7372 9.05047 14.8921 9.6877 14.8289 9.81407C14.8289 9.81407 14.8813 9.87073 14.9718 9.79671C15.0612 9.72269 15.0445 9.51934 14.9552 9.23296C14.8754 8.98197 14.792 8.90284 14.7182 8.89826V8.89826ZM10.9645 10.4181L9.83753 10.7661C9.82955 10.7692 9.8205 10.7724 9.81086 10.776C9.93769 10.9521 10.003 11.2352 9.83265 11.423C9.93602 11.381 10.0718 11.3251 10.0718 11.3251C10.5241 11.1411 11.0698 10.9278 11.6937 10.6907C11.6937 10.6907 11.6966 10.6898 11.7005 10.6886C11.6869 10.6651 11.6791 10.6516 11.6791 10.6516C11.4593 10.5962 11.207 10.5096 10.9645 10.4181V10.4181ZM9.56445 10.8592C9.52158 10.8712 9.4855 10.8791 9.4643 10.8789C9.39641 10.8986 8.53407 11.1514 8.34268 11.2076C8.54264 11.4055 8.5761 11.81 8.34006 12.0412C8.82406 11.8373 9.37331 11.6112 9.67426 11.4878L9.73499 11.4629C9.80419 11.32 9.8005 11.0356 9.67271 10.9177C9.64413 10.8914 9.60352 10.8727 9.56445 10.8592V10.8592ZM8.00744 11.3096C8.00053 11.31 7.99303 11.3102 7.98445 11.3102C7.89799 11.3349 7.82761 11.3546 7.82761 11.3546C7.50797 11.4445 7.2849 11.5038 7.16498 11.531C6.51295 11.6791 5.52341 11.9644 3.9602 12.4552C4.12621 12.7084 4.22756 13.0691 4.05178 13.4075C3.97592 13.5528 3.84123 13.6537 3.69153 13.6766C3.5529 13.6981 3.41714 13.6497 3.32079 13.5447C3.21027 13.429 3.07332 13.1905 3.27327 12.8286C3.19324 12.7899 3.10416 12.7669 3.01306 12.7553L1.49856 13.2434C1.49093 13.2461 1.48331 13.248 1.47581 13.2503C1.28157 13.3294 1.19392 13.721 1.28086 14.0938C1.37029 14.4773 1.59895 14.7707 1.80629 14.7088C2.01316 14.6469 2.09354 14.262 2.00399 13.8798C1.96969 13.7318 1.94158 13.6322 1.87513 13.5259C1.87513 13.5259 2.01709 13.6591 2.08402 13.9861C2.14118 14.2661 2.13225 14.4908 2.06282 14.6429C4.7262 13.6268 6.53879 12.8819 7.44973 12.4301C7.55667 12.377 7.79915 12.2701 8.17024 12.1129C8.17024 12.1129 8.20751 12.0973 8.2361 12.0854C8.32101 11.9187 8.33768 11.5188 8.1619 11.3785C8.12081 11.3454 8.05889 11.3235 8.00744 11.3096V11.3096Z" fill="#FEE60E"/>
</svg>
